<?xml version="1.0" standalone="no"?><!DOCTYPE svg PUBLIC "-//W3C//DTD SVG 1.1//EN" "http://www.w3.org/Graphics/SVG/1.1/DTD/svg11.dtd" ><svg xmlns="http://www.w3.org/2000/svg"><metadata></metadata><defs><font id="fonteditor" horiz-adv-x="1000"><font-face font-family="e¹kcÅsàOS{OS ExtraBold" font-weight="800" font-stretch="normal" units-per-em="1000" panose-1="2 0 9 0 0 0 0 0 0 0" ascent="922" descent="-228" x-height="0" bbox="-17 -202 1000 833" underline-thickness="0" underline-position="0" unicode-range="U+0021-ff5e" /><missing-glyph horiz-adv-x="1000"  /><glyph glyph-name="exclam" unicode="!" d="M166 -7 Q78 -1 73 84 Q79 170 166 176 Q254 170 260 84 Q255 -2 166 -7 ZM97 215 L73 717 L247 721 L223 218 L97 215 Z" /><glyph glyph-name="quotedbl" unicode="&quot;" d="M91 716 L205 720 L181 459 L111 455 L91 716 ZM263 716 L377 720 L353 459 L283 455 L263 716 Z" /><glyph glyph-name="dollar" unicode="$" d="M464 211 L407 223 L406 146 L470 148 L464 211 ZM306 245 L305 144 L354 145 L352 235 L306 245 ZM310 548 L308 396 L350 387 L347 549 L310 548 ZM72 0 L53 211 L212 214 L201 142 L252 143 L250 258 L77 296 L53 510 L215 513 L207 418 L247 409 L245 547 L83 544 L83 711 L243 714 L242 785 L314 787 L313 715 L345 716 L344 785 L415 787 L414 717 L605 721 L562 435 L453 431 L444 551 L411 550 L409 375 L628 328 L589 13 L404 8 L403 -61 L357 -63 L356 7 L303 5 L302 -61 L255 -63 L254 4 L72 0 Z" /><glyph glyph-name="percent" unicode="%" d="M72 320 L52 556 L190 558 L180 422 L300 423 L290 588 L80 585 L80 714 L426 720 L405 326 L72 320 ZM291 -35 L233 -5 L669 750 L751 711 L291 -35 ZM570 0 L550 238 L688 240 L678 101 L798 102 L788 269 L577 265 L577 394 L924 401 L903 5 L570 0 Z" /><glyph glyph-name="quotesingle" unicode="&#39;" d="M97 457 L78 720 L192 723 L167 460 L97 457 Z" /><glyph glyph-name="parenleft" unicode="(" d="M234 -95 Q149 2 110 83 Q51 204 53 353 Q53 501 120 628 Q144 675 207 770 Q225 798 234 812 L328 787 Q281 704 252 596 Q222 477 221 352 Q221 227 247 132 Q271 43 328 -59 L234 -95 Z" /><glyph glyph-name="asterisk" unicode="*" d="M206 322 L220 437 L118 362 L58 460 L184 520 L53 582 L116 674 L220 596 L206 720 L326 720 L309 596 L412 674 L478 580 L344 520 L474 454 L406 361 L309 437 L326 322 L206 322 Z" /><glyph glyph-name="comma" unicode="," d="M117 -196 L71 -177 L166 -5 Q52 -4 50 101 Q59 199 161 209 Q250 206 271 124 Q284 66 252 12 L117 -196 Z" /><glyph glyph-name="hyphen" unicode="-" d="M70 181 L70 316 L590 328 L590 193 L70 181 Z" /><glyph glyph-name="period" unicode="." d="M162 -7 Q60 3 51 99 Q60 197 162 207 Q265 197 274 99 Q265 2 162 -7 Z" /><glyph glyph-name="slash" unicode="/" d="M51 -64 L-12 -44 L182 762 L292 742 L51 -64 Z" /><glyph glyph-name="zero" unicode="0" d="M74 0 L50 512 L220 516 L207 136 L446 141 L431 553 L81 543 L81 708 L608 721 L584 10 L74 0 Z" /><glyph glyph-name="one" unicode="1" d="M292 0 L273 553 L103 549 L103 713 L448 720 L424 3 L292 0 Z" /><glyph glyph-name="two" unicode="2" d="M51 0 L67 270 L434 432 L429 552 L233 548 L211 413 L83 409 L47 709 L603 720 L572 328 L227 200 L207 141 L611 150 L611 12 L51 0 Z" /><glyph glyph-name="three" unicode="3" d="M85 0 L62 234 L230 238 L217 137 L439 142 L433 240 L309 326 L407 552 L232 550 L210 408 L83 405 L48 708 L603 720 L603 557 L471 357 L609 293 L565 11 L85 0 Z" /><glyph glyph-name="four" unicode="4" d="M57 111 L40 258 L190 711 L336 654 L171 259 L381 263 L367 717 L539 720 L524 265 L618 267 L618 122 L519 120 L515 3 L389 0 L385 117 L57 111 Z" /><glyph glyph-name="five" unicode="5" d="M587 722 L587 557 L82 546 L82 710 L587 722 ZM213 379 L606 388 L580 11 L89 -1 L66 195 L226 198 L216 140 L442 145 L430 251 L71 243 L52 515 L228 519 L213 379 Z" /><glyph glyph-name="six" unicode="6" d="M431 250 L214 245 L209 141 L439 146 L431 250 ZM444 461 L435 552 L82 545 L82 709 L608 720 L580 465 L444 461 ZM75 0 L50 512 L227 516 L220 380 L606 389 L577 12 L75 0 Z" /><glyph glyph-name="seven" unicode="7" d="M279 -13 L160 32 L419 552 L52 546 L52 710 L605 721 L605 556 L279 -13 Z" /><glyph glyph-name="eight" unicode="8" d="M437 227 L335 270 L214 214 L207 137 L447 141 L437 227 ZM74 0 L47 276 L178 336 L87 375 L68 519 L238 523 L233 449 L332 408 L435 455 L426 557 L92 550 L92 712 L604 721 L563 375 L491 342 L610 293 L578 12 L74 0 Z" /><glyph glyph-name="nine" unicode="9" d="M71 234 L52 514 L225 518 L210 372 L426 377 L417 553 L80 546 L80 709 L605 721 L580 11 L86 0 L65 188 L233 192 L225 138 L438 143 L433 243 L71 234 Z" /><glyph glyph-name="colon" unicode=":" d="M162 -8 Q60 2 51 98 Q60 196 162 206 Q265 196 274 98 Q265 1 162 -8 ZM162 299 Q61 309 51 406 Q60 503 162 513 Q265 503 274 406 Q265 308 162 299 Z" /><glyph glyph-name="semicolon" unicode=";" d="M117 -198 L71 -179 L166 -7 Q52 -6 50 99 Q59 197 161 207 Q241 205 268 133 Q287 71 252 10 L117 -198 ZM161 296 Q59 306 50 404 Q59 500 161 510 Q264 500 273 404 Q264 305 161 296 Z" /><glyph glyph-name="less" unicode="&lt;" d="M544 -11 L57 204 L57 312 L537 514 L599 381 L175 258 L603 121 L544 -11 Z" /><glyph glyph-name="equal" unicode="=" d="M70 66 L70 201 L589 213 L589 78 L70 66 ZM70 303 L70 438 L589 450 L589 315 L70 303 Z" /><glyph glyph-name="greater" unicode="&gt;" d="M115 -11 L56 121 L484 257 L60 381 L123 514 L603 312 L603 204 L115 -11 Z" /><glyph glyph-name="question" unicode="?" d="M287 -9 Q206 -2 199 73 Q206 148 287 155 Q368 148 374 73 Q369 -4 287 -9 ZM231 183 L216 309 L392 402 L388 553 L209 549 L199 407 L71 403 L47 711 L562 720 L530 323 L361 251 L343 186 L231 183 Z" /><glyph glyph-name="A" unicode="a" d="M204 -9 L22 53 L302 718 L474 722 L754 63 L574 0 L388 540 L286 235 L469 240 L469 107 L241 101 L204 -9 Z" /><glyph glyph-name="B" unicode="b" d="M88 0 L64 508 L252 511 L235 138 L533 145 L529 231 L375 315 L490 549 L94 541 L94 709 L700 721 L700 549 L543 349 L711 285 L661 12 L88 0 Z" /><glyph glyph-name="C" unicode="c" d="M87 0 L63 507 L251 511 L233 139 L560 146 L543 246 L731 251 L702 12 L87 0 ZM538 381 L511 550 L93 540 L93 708 L720 721 L686 386 L538 381 Z" /><glyph glyph-name="D" unicode="d" d="M92 0 L68 510 L256 513 L239 142 L555 150 L539 552 L99 543 L99 711 L531 721 L727 580 L710 146 L563 9 L92 0 Z" /><glyph glyph-name="E" unicode="e" d="M93 543 L93 711 L638 721 L638 554 L93 543 ZM86 0 L62 509 L250 513 L243 377 L588 384 L588 243 L236 236 L232 140 L652 150 L652 12 L86 0 Z" /><glyph glyph-name="G" unicode="g" d="M93 0 L69 508 L257 511 L239 139 L552 146 L541 233 L366 229 L366 362 L723 369 L703 12 L93 0 ZM550 428 L533 549 L100 541 L100 709 L726 721 L690 430 L550 428 Z" /><glyph glyph-name="H" unicode="h" d="M561 0 L537 717 L725 720 L701 3 L561 0 ZM93 0 L69 717 L257 720 L245 392 L503 399 L503 246 L240 239 L232 3 L93 0 Z" /><glyph glyph-name="I" unicode="i" d="M99 0 L75 717 L263 721 L238 3 L99 0 Z" /><glyph glyph-name="J" unicode="j" d="M48 0 L22 278 L205 282 L195 151 L337 154 L319 718 L507 721 L482 9 L48 0 Z" /><glyph glyph-name="L" unicode="l" d="M88 0 L64 718 L252 721 L233 157 L598 165 L598 12 L88 0 Z" /><glyph glyph-name="M" unicode="m" d="M95 0 L72 717 L356 721 L475 290 L588 717 L871 721 L847 3 L711 0 L698 542 L693 542 L535 6 L411 3 L250 542 L244 542 L231 3 L95 0 Z" /><glyph glyph-name="N" unicode="n" d="M93 0 L69 716 L304 719 L560 219 L542 717 L726 720 L701 3 L554 0 L248 498 L228 3 L93 0 Z" /><glyph glyph-name="P" unicode="p" d="M79 0 L54 508 L243 511 L235 353 L504 359 L494 550 L85 541 L85 709 L691 721 L655 223 L228 215 L218 3 L79 0 Z" /><glyph glyph-name="S" unicode="s" d="M80 0 L61 209 L240 212 L230 142 L493 148 L486 212 L98 296 L73 509 L257 512 L249 418 L675 328 L635 13 L80 0 ZM469 431 L460 550 L104 543 L104 711 L652 721 L608 435 L469 431 Z" /><glyph glyph-name="T" unicode="t" d="M277 0 L253 511 L441 515 L416 3 L277 0 ZM27 540 L27 708 L667 721 L667 554 L27 540 Z" /><glyph glyph-name="U" unicode="u" d="M94 0 L69 717 L257 720 L239 155 L557 162 L538 717 L726 720 L695 11 L94 0 Z" /><glyph glyph-name="V" unicode="v" d="M293 0 L5 660 L186 723 L364 193 L542 729 L724 666 L436 3 L293 0 Z" /><glyph glyph-name="W" unicode="w" d="M228 0 L12 667 L189 722 L302 253 L401 671 L574 675 L672 262 L777 729 L956 681 L750 3 L608 0 L487 412 L371 3 L228 0 Z" /><glyph glyph-name="X" unicode="x" d="M109 -8 L3 74 L254 366 L18 608 L161 725 L362 493 L565 729 L709 612 L472 367 L727 74 L620 -8 L363 254 L109 -8 Z" /><glyph glyph-name="Y" unicode="y" d="M260 275 L5 628 L160 725 L339 406 L260 275 ZM295 0 L273 237 L566 730 L725 635 L456 267 L435 3 L295 0 Z" /><glyph glyph-name="bracketleft" unicode="[" d="M77 -80 L40 795 L340 802 L340 639 L221 638 L202 66 L340 69 L340 -74 L77 -80 Z" /><glyph glyph-name="bracketright" unicode="]" d="M39 -80 L39 63 L184 68 L160 636 L40 632 L40 795 L341 802 L309 -74 L39 -80 Z" /><glyph glyph-name="underscore" unicode="_" d="M0 -122 L0 -79 L500 -69 L500 -112 L0 -122 Z" /><glyph glyph-name="a" unicode="a" d="M74 0 L52 267 L408 275 L408 178 L216 174 L210 116 L447 121 L437 338 L52 330 L52 490 L605 502 L581 10 L74 0 Z" /><glyph glyph-name="b" unicode="b" d="M76 0 L52 717 L227 721 L207 131 L448 136 L439 336 L254 332 L254 495 L605 503 L581 10 L76 0 Z" /><glyph glyph-name="c" unicode="c" d="M77 0 L53 296 L228 300 L214 131 L447 136 L439 197 L600 201 L579 11 L77 0 ZM445 252 L435 335 L81 328 L81 492 L605 503 L572 256 L445 252 Z" /><glyph glyph-name="d" unicode="d" d="M77 0 L52 494 L403 503 L403 340 L219 336 L210 133 L450 136 L430 718 L605 721 L582 9 L77 0 Z" /><glyph glyph-name="e" unicode="e" d="M77 0 L52 298 L228 300 L213 119 L443 125 L438 152 L605 156 L585 10 L77 0 ZM260 176 L260 269 L433 274 L425 337 L79 329 L79 492 L606 503 L564 184 L260 176 Z" /><glyph glyph-name="f" unicode="f" d="M24 333 L24 496 L123 498 L114 713 L422 721 L422 581 L286 577 L284 500 L420 503 L420 341 L280 338 L273 3 L146 0 L131 335 L24 333 Z" /><glyph glyph-name="g" unicode="g" d="M77 0 L52 492 L575 503 L575 340 L219 333 L210 123 L439 127 L430 306 L605 310 L582 -192 L86 -202 L65 -33 L221 -29 L214 -77 L450 -72 L446 8 L77 0 Z" /><glyph glyph-name="h" unicode="h" d="M76 0 L52 717 L227 721 L203 3 L76 0 ZM454 0 L438 335 L254 331 L254 494 L605 503 L581 4 L454 0 Z" /><glyph glyph-name="i" unicode="i" d="M93 0 L70 499 L244 502 L220 3 L93 0 ZM157 550 Q66 557 60 640 Q66 723 157 729 Q248 723 254 640 Q248 556 157 550 Z" /><glyph glyph-name="j" unicode="j" d="M-17 -202 L-17 -68 L99 -64 L79 499 L254 503 L229 -195 L-17 -202 ZM166 549 Q75 555 69 638 Q75 722 166 728 Q257 722 263 638 Q258 555 166 549 Z" /><glyph glyph-name="k" unicode="k" d="M80 0 L56 717 L231 721 L215 243 L476 512 L608 411 L439 279 L617 90 L487 -8 L353 212 L242 125 L212 162 L207 3 L80 0 Z" /><glyph glyph-name="l" unicode="l" d="M93 0 L69 717 L244 721 L220 3 L93 0 Z" /><glyph glyph-name="m" unicode="m" d="M74 1 L51 297 L219 300 L196 3 L74 1 ZM394 0 L379 332 L81 328 L81 491 L891 501 L870 2 L730 0 L716 336 L547 333 L533 2 L394 0 Z" /><glyph glyph-name="n" unicode="n" d="M76 0 L52 294 L227 297 L203 3 L76 0 ZM454 0 L438 336 L84 327 L84 490 L605 503 L581 3 L454 0 Z" /><glyph glyph-name="o" unicode="o" d="M76 0 L52 296 L227 299 L213 129 L438 135 L427 336 L84 328 L84 491 L605 503 L581 10 L76 0 Z" /><glyph glyph-name="p" unicode="p" d="M76 -201 L52 296 L227 298 L218 129 L444 133 L436 336 L84 328 L84 491 L605 503 L581 9 L212 1 L203 -198 L76 -201 Z" /><glyph glyph-name="q" unicode="q" d="M77 0 L52 493 L574 503 L574 340 L219 335 L210 131 L439 135 L431 307 L605 309 L582 -199 L455 -202 L445 7 L77 0 Z" /><glyph glyph-name="r" unicode="r" d="M64 0 L40 301 L215 303 L190 3 L64 0 ZM299 256 L292 337 L71 333 L71 496 L454 503 L421 259 L299 256 Z" /><glyph glyph-name="s" unicode="s" d="M71 0 L52 142 L212 143 L204 99 L388 103 L384 140 L86 197 L61 319 L223 321 L219 289 L559 223 L516 8 L71 0 ZM372 290 L360 356 L93 351 L93 495 L539 504 L499 291 L372 290 Z" /><glyph glyph-name="t" unicode="t" d="M23 331 L23 495 L129 497 L123 683 L298 686 L291 500 L424 503 L424 340 L285 337 L278 131 L421 134 L421 4 L147 0 L135 333 L23 331 Z" /><glyph glyph-name="u" unicode="u" d="M76 0 L52 498 L227 501 L207 131 L448 135 L431 499 L605 502 L581 7 L76 0 Z" /><glyph glyph-name="v" unicode="v" d="M228 0 L17 451 L182 506 L292 176 L412 511 L577 465 L356 3 L228 0 Z" /><glyph glyph-name="w" unicode="w" d="M188 0 L6 455 L175 507 L259 200 L356 475 L510 479 L606 200 L694 512 L865 469 L673 3 L545 0 L433 304 L316 3 L188 0 Z" /><glyph glyph-name="x" unicode="x" d="M82 -8 L-3 66 L188 253 L11 395 L139 505 L295 356 L455 511 L583 402 L402 254 L601 66 L513 -7 L295 167 L82 -8 Z" /><glyph glyph-name="y" unicode="y" d="M80 -201 L80 -69 L198 -65 L220 -4 L13 447 L181 507 L293 196 L409 512 L581 467 L300 -196 L80 -201 Z" /><glyph glyph-name="z" unicode="z" d="M25 0 L25 127 L275 335 L42 331 L42 494 L505 503 L505 344 L227 133 L522 137 L522 8 L25 0 Z" /><glyph glyph-name="asciitilde" unicode="~" d="M522 406 L600 374 L472 190 L254 262 L147 190 L72 227 L209 399 L428 328 L522 406 Z" /><glyph glyph-name="quotedblleft" unicode="&#x201c;" d="M735 455 Q726 356 623 347 Q541 349 516 423 Q497 485 533 544 L668 754 L715 735 L619 562 Q733 561 735 455 ZM992 455 Q983 357 880 347 Q803 349 774 418 Q753 484 789 544 L924 754 L971 735 L875 562 Q990 561 992 455 Z" /><glyph glyph-name="quotedblright" unicode="&#x201d;" d="M232 643 Q244 583 212 532 L77 322 L30 341 L126 514 Q11 515 9 622 Q18 719 121 729 Q210 727 232 643 ZM487 648 Q502 588 468 532 L333 322 L286 341 L382 514 Q267 515 265 622 Q274 719 377 729 Q463 727 487 648 Z" /><glyph glyph-name="ellipsis" unicode="&#x2026;&#x22ef;" d="M171 243 Q70 253 60 350 Q69 448 171 458 Q274 448 283 350 Q274 252 171 243 ZM500 243 Q398 253 388 350 Q397 448 500 458 Q602 448 611 350 Q602 252 500 243 ZM828 243 Q726 253 716 350 Q725 448 828 458 Q930 448 939 350 Q930 252 828 243 Z" /><glyph glyph-name="uni2192" unicode="&#x2192;" d="M0 368 L820 368 Q748 440 744 546 Q846 411 1000 354 Q847 296 744 158 Q739 239 820 336 L0 336 L0 368 Z" /><glyph glyph-name="uni3001" unicode="&#x3001;" d="M258 -8 L86 245 L183 323 L404 111 L258 -8 Z" /><glyph glyph-name="uni3002" unicode="&#x3002;" d="M249 71 Q304 76 309 130 Q304 186 249 191 Q193 186 189 130 Q194 76 249 71 ZM249 -7 Q121 4 110 130 Q118 258 249 270 Q375 261 387 130 Q376 4 249 -7 Z" /><glyph glyph-name="uni300A" unicode="&#x300a;" d="M529 -108 L376 328 L529 809 L621 782 L447 333 L621 -68 L529 -108 ZM733 -88 L551 328 L733 791 L824 763 L622 333 L824 -48 L733 -88 Z" /><glyph glyph-name="uni300B" unicode="&#x300b;" d="M267 -88 L175 -48 L377 333 L175 763 L267 791 L448 328 L267 -88 ZM470 -108 L378 -68 L552 333 L378 782 L470 809 L623 328 L470 -108 Z" /><glyph glyph-name="uni3010" unicode="&#x3010;" d="M422 -93 L422 795 L731 801 Q657 720 619 619 Q576 506 577 355 Q576 222 603 125 Q629 23 735 -85 L422 -93 Z" /><glyph glyph-name="uni3011" unicode="&#x3011;" d="M264 -89 Q346 -8 383 98 Q423 218 422 361 Q423 487 387 595 Q350 706 268 791 L578 799 L578 -84 L264 -89 Z" /><glyph glyph-name="uni4E00" unicode="&#x4e00;" d="M71 280 L71 445 L936 466 L936 301 L71 280 Z" /><glyph glyph-name="uni4E03" unicode="&#x4e03;" d="M71 272 L71 428 L358 464 L346 803 L526 807 L514 484 L936 537 L936 381 L509 327 L500 75 L779 84 L770 222 L930 225 L904 -55 L377 -69 L363 309 L71 272 Z" /><glyph glyph-name="uni4E09" unicode="&#x4e09;" d="M71 -23 L71 113 L936 134 L936 -3 L71 -23 ZM182 237 L182 374 L821 391 L821 253 L182 237 ZM119 547 L119 695 L888 713 L888 566 L119 547 Z" /><glyph glyph-name="uni4E0A" unicode="&#x4e0a;" d="M71 -70 L71 76 L393 83 L368 804 L539 808 L528 509 L862 516 L862 351 L523 343 L514 86 L936 96 L936 -50 L71 -70 Z" /><glyph glyph-name="uni4E0B" unicode="&#x4e0b;" d="M409 -79 L373 551 L562 554 L526 -75 L409 -79 ZM821 95 L583 306 L660 397 L934 225 L821 95 ZM71 589 L71 736 L936 756 L936 608 L71 589 Z" /><glyph glyph-name="uni4E0D" unicode="&#x4e0d;" d="M801 133 Q705 142 695 236 Q704 329 801 338 Q899 329 908 236 Q898 142 801 133 ZM71 589 L71 736 L936 756 L936 608 L426 597 L589 499 L428 359 L592 362 L562 -75 L445 -79 L415 348 L133 103 L56 172 L410 596 L71 589 Z" /><glyph glyph-name="uni4E13" unicode="&#x4e13;" d="M114 531 L114 665 L352 670 L411 809 L596 773 L541 675 L893 683 L893 549 L464 539 L415 452 L936 464 L936 335 L342 321 L309 263 L825 271 L825 157 L666 54 L840 38 L765 -82 L255 8 L281 90 L525 67 L622 153 L200 145 L178 260 L202 318 L71 315 L71 444 L258 448 L295 535 L114 531 Z" /><glyph glyph-name="uni4E14" unicode="&#x4e14;" d="M71 -68 L71 57 L192 59 L168 562 L339 565 L333 454 L649 461 L649 342 L328 335 L324 254 L649 261 L649 145 L319 138 L315 62 L691 70 L673 606 L197 595 L197 743 L839 757 L814 73 L936 76 L936 -48 L71 -68 Z" /><glyph glyph-name="uni4E16" unicode="&#x4e16;" d="M680 234 L674 376 L559 374 L554 231 L680 234 ZM71 363 L71 510 L178 512 L170 740 L337 743 L329 516 L436 518 L425 804 L576 808 L565 521 L668 524 L658 775 L809 778 L799 527 L936 531 L936 383 L793 379 L783 128 L452 120 L442 371 L323 369 L312 53 L934 67 L934 -54 L199 -72 L183 365 L71 363 Z" /><glyph glyph-name="uni4E1D" unicode="&#x4e1d;" d="M71 -70 L71 54 L936 75 L936 -50 L71 -70 ZM97 322 L76 463 L237 781 L410 712 L207 478 L295 490 L375 591 L498 503 L249 257 L485 283 L494 154 L125 114 L97 240 L169 330 L97 322 ZM531 331 L510 473 L654 811 L826 742 L641 488 L740 501 L818 601 L948 506 L687 265 L898 290 L907 161 L571 120 L543 247 L616 341 L531 331 Z" /><glyph glyph-name="uni4E22" unicode="&#x4e22;" d="M126 590 L86 699 L866 810 L924 659 L126 590 ZM176 370 L176 491 L428 497 L422 572 L586 576 L580 501 L831 507 L831 387 L570 380 L565 318 L936 327 L936 201 L354 188 L473 143 L294 50 L646 73 L582 130 L668 181 L936 22 L821 -82 L753 -22 L137 -63 L112 37 L272 186 L71 182 L71 307 L443 315 L438 377 L176 370 Z" /><glyph glyph-name="uni4E25" unicode="&#x4e25;" d="M771 368 L719 448 L832 558 L921 437 L771 368 ZM205 378 Q131 385 124 457 Q131 529 205 536 Q277 529 284 457 Q277 385 205 378 ZM163 -86 L57 -69 L78 166 L234 139 L163 -86 ZM107 590 L107 737 L900 755 L900 608 L107 590 ZM107 194 L107 329 L346 334 L326 562 L483 566 L463 337 L568 339 L548 575 L705 579 L685 342 L936 348 L936 213 L107 194 Z" /><glyph glyph-name="uni4E2A" unicode="&#x4e2a;" d="M445 -79 L418 406 L589 410 L562 -76 L445 -79 ZM139 250 L56 333 L503 810 L660 724 L592 662 L952 382 L835 258 L501 580 L139 250 Z" /><glyph glyph-name="uni4E2D" unicode="&#x4e2d;" d="M774 466 L573 462 L568 267 L783 272 L774 466 ZM106 119 L82 420 L241 423 L227 260 L439 264 L434 459 L111 453 L111 609 L429 615 L424 805 L583 808 L578 618 L924 626 L900 136 L564 128 L558 -75 L449 -79 L443 126 L106 119 Z" /><glyph glyph-name="uni4E34" unicode="&#x4e34;" d="M719 316 Q640 324 632 402 Q640 480 719 488 Q799 480 807 402 Q799 323 719 316 ZM102 128 L84 536 L203 540 L185 131 L102 128 ZM258 -36 L240 734 L378 738 L360 -33 L258 -36 ZM484 359 L393 401 L552 811 L707 758 L656 668 L936 674 L936 526 L608 519 L608 581 L484 359 ZM442 -69 L424 133 L551 136 L540 48 L628 49 L619 133 L738 136 L728 51 L810 53 L805 168 L454 160 L454 282 L924 293 L906 -59 L442 -69 Z" /><glyph glyph-name="uni4E3A" unicode="&#x4e3a;" d="M598 125 Q518 132 511 208 Q519 283 598 290 Q676 283 684 208 Q677 132 598 125 ZM246 564 Q155 573 151 656 Q165 741 246 745 Q331 737 340 656 Q332 572 246 564 ZM196 -75 L96 -16 L373 365 L83 358 L83 515 L417 522 L399 804 L570 808 L553 525 L916 534 L880 -66 L475 -80 L485 71 L765 58 L752 374 L538 369 L196 -75 Z" /><glyph glyph-name="uni4E3B" unicode="&#x4e3b;" d="M503 622 Q405 631 394 718 Q403 800 503 808 Q603 800 612 718 Q601 631 503 622 ZM104 452 L104 590 L903 606 L903 468 L104 452 ZM138 188 L138 309 L424 315 L418 412 L589 416 L582 319 L868 326 L868 205 L574 198 L565 65 L935 73 L935 -49 L71 -68 L71 54 L440 62 L431 195 L138 188 Z" /><glyph glyph-name="uni4E43" unicode="&#x4e43;" d="M122 -74 L50 -5 L258 237 L246 543 L417 547 L379 174 L122 -74 ZM469 -79 L478 62 L781 42 L773 266 L544 261 L531 371 L721 603 L84 590 L84 737 L916 755 L916 608 L678 374 L944 379 L901 -59 L469 -79 Z" /><glyph glyph-name="uni4E48" unicode="&#x4e48;" d="M138 265 L56 337 L475 813 L648 717 L138 265 ZM146 -61 L122 49 L748 592 L903 478 L305 65 L720 102 L668 237 L773 286 L953 -2 L792 -81 L762 -5 L146 -61 Z" /><glyph glyph-name="uni4E49" unicode="&#x4e49;" d="M504 589 Q401 599 391 698 Q401 797 504 807 Q608 798 618 698 Q608 599 504 589 ZM128 -81 L56 3 L389 286 L82 537 L162 629 L501 381 L836 666 L956 534 L627 289 L951 53 L839 -81 L500 195 L128 -81 Z" /><glyph glyph-name="uni4E4B" unicode="&#x4e4b;" d="M504 603 Q407 612 397 705 Q406 798 504 807 Q603 798 612 705 Q602 612 504 603 ZM199 -81 L54 -11 L232 194 L425 161 L694 415 L99 407 L99 563 L910 576 L910 419 L564 138 L949 74 L885 -79 L298 71 L199 -81 Z" /><glyph glyph-name="uni4E50" unicode="&#x4e50;" d="M833 -31 Q752 -24 744 52 Q752 129 833 136 Q912 128 920 52 Q912 -23 833 -31 ZM142 -73 L67 -3 L236 172 L354 81 L142 -73 ZM155 215 L129 359 L190 692 L848 810 L929 652 L340 604 L257 361 L480 364 L473 535 L644 538 L636 366 L936 371 L936 224 L630 220 L617 -67 L371 -79 L381 61 L493 44 L486 219 L155 215 Z" /><glyph glyph-name="uni4E5F" unicode="&#x4e5f;" d="M646 152 L650 290 L765 280 L757 420 L595 384 L586 125 L477 122 L469 357 L327 326 L319 66 L808 77 L797 133 L950 137 L923 -53 L205 -69 L194 297 L71 270 L71 423 L189 449 L181 731 L339 733 L331 481 L463 510 L453 805 L611 808 L601 540 L905 608 L880 167 L646 152 Z" /><glyph glyph-name="uni4E60" unicode="&#x4e60;" d="M137 -57 L54 82 L590 338 L651 245 L137 -57 ZM341 303 Q239 313 228 412 Q239 509 341 519 Q444 509 454 412 Q444 313 341 303 ZM500 -79 L510 68 L764 54 L747 595 L82 579 L82 736 L913 755 L887 -65 L500 -79 Z" /><glyph glyph-name="uni4E70" unicode="&#x4e70;" d="M398 395 L189 471 L248 561 L440 464 L398 395 ZM356 282 L122 324 L165 425 L387 357 L356 282 ZM783 -80 Q701 -73 693 5 Q701 85 783 92 Q863 84 871 5 Q863 -72 783 -80 ZM785 407 L792 604 L103 588 L103 736 L940 756 L894 410 L785 407 ZM71 125 L71 253 L497 263 L479 562 L638 566 L620 266 L936 273 L936 145 L603 137 L167 -79 L101 -1 L375 132 L71 125 Z" /><glyph glyph-name="uni4E71" unicode="&#x4e71;" d="M110 548 L82 644 L472 756 L538 628 L110 548 ZM594 -70 L569 804 L727 808 L708 88 L817 91 L804 260 L949 264 L924 -62 L594 -70 ZM81 342 L81 466 L233 469 L227 544 L385 549 L379 472 L531 476 L531 353 L369 349 L364 283 L515 287 L490 -13 L121 -22 L96 138 L237 142 L230 90 L381 94 L375 176 L121 170 L121 277 L248 280 L243 346 L81 342 Z" /><glyph glyph-name="uni4E86" unicode="&#x4e86;" d="M237 -79 L246 61 L442 45 L421 381 L655 602 L106 591 L106 739 L903 755 L903 608 L590 375 L563 -65 L237 -79 Z" /><glyph glyph-name="uni4E8B" unicode="&#x4e8b;" d="M714 296 L568 293 L567 255 L716 259 L714 296 ZM726 131 L723 166 L564 162 L563 127 L726 131 ZM701 515 L574 512 L573 464 L709 468 L701 515 ZM71 604 L71 728 L426 729 L424 805 L583 808 L581 729 L935 731 L935 624 L577 616 L576 575 L854 582 L826 410 L571 404 L570 368 L865 374 L856 262 L935 264 L935 171 L849 169 L840 57 L561 51 L558 -69 L298 -79 L306 18 L447 6 L445 49 L153 43 L153 119 L443 125 L442 159 L71 151 L71 244 L439 252 L438 290 L153 285 L153 359 L436 365 L435 401 L176 395 L153 481 L307 485 L305 457 L434 460 L432 509 L183 503 L183 566 L430 572 L429 612 L71 604 Z" /><glyph glyph-name="uni4E8E" unicode="&#x4e8e;" d="M141 580 L141 737 L866 754 L866 598 L141 580 ZM71 236 L71 379 L425 388 L418 556 L589 560 L581 392 L936 401 L936 258 L575 248 L562 -69 L262 -79 L272 68 L440 55 L431 245 L71 236 Z" /><glyph glyph-name="uni4E94" unicode="&#x4e94;" d="M662 286 L465 282 L421 63 L676 69 L662 286 ZM104 590 L104 737 L907 756 L907 608 L104 590 ZM71 -69 L71 56 L300 61 L322 279 L156 276 L156 402 L335 405 L351 559 L522 564 L491 408 L823 415 L799 72 L936 75 L936 -50 L71 -69 Z" /><glyph glyph-name="uni4EA4" unicode="&#x4ea4;" d="M504 620 Q413 628 405 716 Q414 802 504 810 Q593 801 602 716 Q593 629 504 620 ZM843 214 L578 380 L634 453 L930 337 L843 214 ZM131 189 L77 269 L348 452 L447 351 L131 189 ZM72 456 L72 592 L936 612 L936 476 L72 456 ZM140 -80 L85 -4 L354 122 L236 168 L286 248 L494 187 L689 279 L797 178 L682 133 L947 56 L883 -82 L505 63 L140 -80 Z" /><glyph glyph-name="uni4EAE" unicode="&#x4eae;" d="M187 -82 L94 -47 L202 37 L402 15 L187 -82 ZM611 -69 L596 54 L254 50 L254 149 L746 157 L731 29 L828 31 L822 87 L939 91 L922 -61 L611 -69 ZM200 330 L175 490 L333 494 L319 399 L689 408 L684 449 L360 441 L360 510 L832 521 L807 344 L200 330 ZM82 131 L57 287 L951 309 L925 144 L816 142 L810 203 L197 189 L191 134 L82 131 ZM81 543 L81 672 L428 680 Q415 699 415 725 Q423 801 504 808 Q584 801 592 725 Q592 702 581 683 L927 692 L927 564 L81 543 Z" /><glyph glyph-name="uni4EBA" unicode="&#x4eba;" d="M157 -80 L56 -27 L493 809 L683 735 L157 -80 ZM818 -79 L465 278 L541 366 L952 54 L818 -79 Z" /><glyph glyph-name="uni4EC0" unicode="&#x4ec0;" d="M159 -35 L188 353 L303 356 L330 -31 L159 -35 ZM128 339 L54 412 L252 756 L414 668 L128 339 ZM367 319 L367 476 L577 480 L567 804 L738 808 L727 483 L936 487 L936 331 L722 326 L709 -75 L594 -79 L582 323 L367 319 Z" /><glyph glyph-name="uni4ECA" unicode="&#x4eca;" d="M504 331 Q418 338 410 419 Q418 501 504 509 Q589 501 597 419 Q589 339 504 331 ZM134 333 L58 417 L522 810 L673 729 L594 671 L952 476 L859 342 L505 605 L134 333 ZM520 -81 L415 -33 L645 148 L132 139 L132 286 L886 299 L886 153 L520 -81 Z" /><glyph glyph-name="uni4ECE" unicode="&#x4ece;" d="M408 127 Q320 136 311 224 Q320 311 408 320 Q496 312 505 224 Q497 135 408 127 ZM172 -39 L74 -2 L286 758 L443 702 L172 -39 ZM562 -80 L464 -42 L699 807 L854 752 L695 299 L779 337 L952 -2 L815 -79 L693 294 L562 -80 Z" /><glyph glyph-name="uni4ED6" unicode="&#x4ed6;" d="M131 339 L57 407 L189 757 L339 671 L131 339 ZM138 -35 L167 356 L270 359 L298 -31 L138 -35 ZM733 154 L738 273 L812 264 L804 412 L707 389 L698 104 L601 102 L593 362 L514 344 L504 52 L816 60 L806 132 L949 136 L924 -57 L406 -69 L392 316 L307 296 L307 448 L387 466 L379 695 L527 699 L520 497 L588 513 L579 805 L720 808 L712 542 L926 592 L902 170 L733 154 Z" /><glyph glyph-name="uni4ED8" unicode="&#x4ed8;" d="M507 164 Q417 172 408 254 Q417 337 507 345 Q598 337 607 254 Q599 172 507 164 ZM158 -35 L187 355 L297 358 L325 -31 L158 -35 ZM128 339 L54 411 L219 756 L372 668 L128 339 ZM369 444 L369 602 L681 608 L675 805 L844 808 L837 612 L936 614 L936 456 L832 453 L816 -65 L473 -79 L482 65 L700 48 L686 450 L369 444 Z" /><glyph glyph-name="uni4EE5" unicode="&#x4ee5;" d="M434 359 Q339 368 330 459 Q340 548 434 557 Q526 548 536 459 Q527 368 434 359 ZM117 -35 L87 752 L246 757 L224 122 L439 192 L470 45 L117 -35 ZM583 -80 L480 -45 L742 809 L901 758 L729 305 L787 333 L951 -16 L805 -79 L707 247 L583 -80 Z" /><glyph glyph-name="uni4EEA" unicode="&#x4eea;" d="M628 616 Q535 624 527 713 Q535 802 628 810 Q723 802 731 713 Q722 624 628 616 ZM150 -35 L179 356 L283 359 L310 -31 L150 -35 ZM131 339 L57 407 L204 757 L357 671 L131 339 ZM444 -80 L361 -20 L560 284 L355 566 L443 628 L635 398 L814 671 L947 574 L727 288 L950 22 L825 -78 L640 175 L444 -80 Z" /><glyph glyph-name="uni4EEC" unicode="&#x4eec;" d="M137 -35 L166 356 L270 359 L297 -31 L137 -35 ZM376 -69 L351 576 L510 579 L485 -66 L376 -69 ZM129 341 L57 404 L193 757 L337 679 L129 341 ZM632 -79 L641 49 L787 37 L769 617 L581 613 L581 770 L923 777 L899 -68 L632 -79 ZM450 638 Q370 646 362 723 Q370 799 450 807 Q531 800 539 723 Q531 645 450 638 Z" /><glyph glyph-name="uni4EF7" unicode="&#x4ef7;" d="M684 -79 L661 310 L810 313 L787 -76 L684 -79 ZM501 -81 L401 -57 L468 331 L613 298 L501 -81 ZM149 -35 L178 356 L279 359 L306 -31 L149 -35 ZM131 339 L57 407 L202 757 L369 671 L131 339 ZM392 284 L309 344 L603 809 L748 738 L687 660 L952 405 L863 288 L619 574 L392 284 Z" /><glyph glyph-name="uni4EFB" unicode="&#x4efb;" d="M149 -35 L177 356 L281 359 L308 -31 L149 -35 ZM131 339 L57 401 L194 757 L349 695 L131 339 ZM410 566 L362 675 L838 809 L930 641 L410 566 ZM356 228 L356 361 L573 367 L564 546 L732 551 L725 372 L944 379 L944 246 L720 239 L714 75 L905 79 L905 -58 L387 -69 L387 68 L588 72 L579 235 L356 228 Z" /><glyph glyph-name="uni4EFD" unicode="&#x4efd;" d="M150 -35 L179 356 L283 359 L310 -31 L150 -35 ZM437 -80 L360 -40 L511 232 L657 176 L437 -80 ZM131 339 L57 407 L203 757 L372 671 L131 339 ZM592 -79 L601 49 L764 31 L754 260 L387 252 L387 400 L904 410 L878 -67 L592 -79 ZM434 428 L349 473 L506 800 L641 742 L434 428 ZM820 436 L642 767 L726 809 L951 531 L820 436 Z" /><glyph glyph-name="uni4F10" unicode="&#x4f10;" d="M792 578 Q705 586 696 670 Q704 754 792 762 Q878 754 886 670 Q877 587 792 578 ZM157 -35 L186 354 L290 357 L317 -31 L157 -35 ZM131 339 L57 407 L225 757 L377 671 L131 339 ZM336 320 L336 477 L503 499 L417 766 L577 809 L651 519 L936 558 L936 401 L690 367 L719 254 L880 342 L951 220 L752 128 L771 56 L913 119 L950 -24 L692 -81 L640 77 L407 -30 L362 59 L603 191 L552 349 L336 320 Z" /><glyph glyph-name="uni4F11" unicode="&#x4f11;" d="M843 58 Q754 66 746 152 Q755 237 843 246 Q931 237 940 152 Q932 66 843 58 ZM427 -1 L332 23 L382 313 L522 275 L427 -1 ZM138 -35 L167 354 L271 357 L298 -31 L138 -35 ZM131 339 L57 407 L216 757 L369 671 L131 339 ZM329 394 L329 559 L554 563 L547 805 L718 808 L710 566 L936 571 L936 406 L705 401 L691 -75 L574 -79 L559 398 L329 394 Z" /><glyph glyph-name="uni4F18" unicode="&#x4f18;" d="M835 572 Q754 578 747 651 Q754 724 835 730 Q915 724 922 651 Q915 578 835 572 ZM139 -35 L166 354 L270 357 L296 -31 L139 -35 ZM131 339 L57 407 L232 757 L376 671 L131 339 ZM658 -69 L630 308 L783 312 L764 61 L857 63 L850 155 L951 158 L933 -63 L658 -69 ZM316 366 L316 522 L493 525 L554 808 L723 778 L649 529 L936 535 L936 379 L603 372 L473 -68 L372 -40 L460 369 L316 366 Z" /><glyph glyph-name="uni4F19" unicode="&#x4f19;" d="M817 -79 L666 186 L743 242 L951 14 L817 -79 ZM810 349 L724 390 L805 639 L949 581 L810 349 ZM412 400 Q323 408 314 490 Q322 572 412 579 Q501 571 509 490 Q500 408 412 400 ZM448 -79 L354 -32 L557 318 L542 804 L720 808 L690 278 L448 -79 ZM146 -35 L175 354 L280 357 L307 -31 L146 -35 ZM128 339 L57 407 L214 757 L364 671 L128 339 Z" /><glyph glyph-name="uni4F1A" unicode="&#x4f1a;" d="M506 618 L290 462 L707 472 L506 618 ZM83 151 L83 273 L924 288 L924 166 L330 155 L457 127 L300 44 L648 65 L609 119 L695 155 L887 -13 L753 -80 L718 -32 L167 -68 L137 30 L276 154 L83 151 ZM120 339 L56 423 L503 809 L686 748 L596 683 L951 488 L875 350 L736 451 L736 355 L272 345 L272 449 L120 339 Z" /><glyph glyph-name="uni4F20" unicode="&#x4f20;" d="M147 -35 L176 354 L280 357 L307 -31 L147 -35 ZM131 339 L57 407 L198 757 L350 688 L131 339 ZM362 525 L362 672 L538 676 L582 809 L745 773 L704 679 L904 684 L904 536 L640 530 L605 451 L936 458 L936 337 L552 328 L525 265 L874 272 L874 157 L754 59 L901 38 L836 -80 L418 20 L445 103 L641 75 L718 153 L426 147 L404 261 L425 326 L321 324 L321 445 L464 448 L490 527 L362 525 Z" /><glyph glyph-name="uni4F46" unicode="&#x4f46;" d="M138 -35 L166 354 L270 357 L296 -31 L138 -35 ZM130 339 L57 407 L201 757 L353 671 L130 339 ZM331 -69 L331 44 L936 56 L936 -57 L331 -69 ZM394 134 L366 586 L527 590 L520 477 L720 481 L720 369 L513 365 L505 239 L762 244 L744 628 L396 621 L396 769 L904 778 L873 143 L394 134 Z" /><glyph glyph-name="uni4F4D" unicode="&#x4f4d;" d="M504 148 Q415 156 406 240 Q414 326 504 334 Q594 327 602 240 Q593 156 504 148 ZM635 620 Q544 628 536 714 Q544 799 635 807 Q726 800 734 714 Q725 628 635 620 ZM137 -35 L166 354 L269 357 L296 -31 L137 -35 ZM130 339 L57 407 L203 757 L359 671 L130 339 ZM355 431 L355 587 L915 597 L915 441 L355 431 ZM334 -69 L336 69 L643 74 L728 384 L883 336 L750 76 L936 79 L936 -58 L334 -69 Z" /><glyph glyph-name="uni4F4F" unicode="&#x4f4f;" d="M634 637 Q552 644 544 723 Q551 802 634 809 Q716 802 723 723 Q715 645 634 637 ZM137 -35 L166 354 L269 357 L296 -31 L137 -35 ZM129 339 L55 410 L208 755 L357 677 L129 339 ZM352 464 L352 612 L916 622 L916 475 L352 464 ZM391 173 L391 306 L565 309 L556 424 L725 428 L715 311 L889 314 L889 181 L704 178 L695 68 L935 73 L935 -56 L333 -68 L333 61 L583 66 L575 176 L391 173 Z" /><glyph glyph-name="uni4F53" unicode="&#x4f53;" d="M826 32 L756 351 L834 383 L949 95 L826 32 ZM420 35 L337 64 L398 383 L531 355 L420 35 ZM149 -35 L176 354 L283 357 L308 -31 L149 -35 ZM130 339 L57 407 L206 757 L353 671 L130 339 ZM335 436 L335 592 L560 596 L554 805 L720 808 L714 599 L936 603 L936 447 L709 442 L703 223 L774 225 L774 80 L698 78 L694 -74 L579 -79 L574 75 L491 73 L491 219 L570 220 L564 440 L335 436 Z" /><glyph glyph-name="uni4F55" unicode="&#x4f55;" d="M371 109 L358 354 L470 358 L465 229 L566 231 L558 390 L390 387 L390 518 L679 524 L660 114 L371 109 ZM529 -78 L538 48 L762 35 L736 592 L890 596 L859 -66 L529 -78 ZM342 623 L342 771 L936 779 L936 631 L342 623 ZM147 -35 L176 354 L279 357 L306 -31 L147 -35 ZM130 339 L57 407 L181 757 L329 671 L130 339 Z" /><glyph glyph-name="uni4F5C" unicode="&#x4f5c;" d="M148 -35 L177 354 L281 357 L308 -31 L148 -35 ZM130 339 L57 407 L208 757 L359 671 L130 339 ZM368 330 L279 387 L465 809 L625 743 L542 609 L936 617 L936 470 L505 462 L505 550 L368 330 ZM475 -79 L452 428 L610 431 L606 355 L906 360 L906 241 L600 236 L596 158 L907 163 L907 35 L589 31 L584 -75 L475 -79 Z" /><glyph glyph-name="uni4F60" unicode="&#x4f60;" d="M845 52 Q768 59 760 138 Q768 214 845 221 Q925 214 933 138 Q926 59 845 52 ZM415 18 L326 47 L374 260 L516 223 L415 18 ZM136 -35 L162 354 L266 357 L290 -31 L136 -35 ZM129 339 L57 407 L198 757 L350 671 L129 339 ZM470 -80 L480 47 L583 34 L563 396 L717 400 L692 -64 L470 -80 ZM403 339 L307 378 L444 810 L608 762 L540 623 L925 631 L925 477 L886 303 L787 314 L800 473 L499 466 L499 537 L403 339 Z" /><glyph glyph-name="uni4F6C" unicode="&#x4f6c;" d="M656 511 L651 418 L725 419 L751 513 L656 511 ZM127 339 L57 407 L211 757 L350 671 L127 339 ZM137 -35 L166 354 L269 357 L296 -31 L137 -35 ZM363 506 L363 653 L522 656 L515 805 L672 808 L664 658 L759 660 L759 539 L820 753 L951 687 L824 421 L936 423 L936 296 L651 291 L562 219 L601 220 L594 170 L850 280 L922 179 L622 103 L591 150 L579 61 L826 65 L815 119 L949 122 L918 -61 L475 -69 L452 131 L377 71 L308 140 L470 287 L321 285 L321 412 L535 416 L530 509 L363 506 Z" /><glyph glyph-name="uni4F7F" unicode="&#x4f7f;" d="M780 379 L693 377 L689 258 L788 260 L780 379 ZM131 339 L57 407 L179 757 L323 671 L131 339 ZM139 -35 L166 354 L270 357 L297 -31 L139 -35 ZM337 525 L337 663 L556 667 L552 805 L710 808 L704 669 L936 674 L936 537 L699 532 L697 478 L910 482 L889 169 L685 165 L682 85 L952 40 L905 -82 L609 1 L378 -80 L327 -19 L477 38 L366 69 L401 133 L572 104 L570 163 L375 159 L361 337 L482 341 L476 254 L568 256 L564 375 L390 372 L390 472 L561 475 L560 529 L337 525 Z" /><glyph glyph-name="uni4FC3" unicode="&#x4fc3;" d="M137 -35 L166 354 L265 357 L292 -31 L137 -35 ZM126 339 L57 399 L208 757 L364 671 L126 339 ZM423 -79 L333 -55 L402 277 L545 242 L483 80 L562 50 L613 49 L591 318 L749 322 L742 239 L915 243 L915 128 L733 124 L727 49 L949 48 L920 -80 L544 -47 L448 -11 L423 -79 ZM406 355 L389 740 L543 744 L530 478 L761 483 L753 628 L570 625 L570 772 L906 778 L886 365 L406 355 Z" /><glyph glyph-name="uni4FDD" unicode="&#x4fdd;" d="M413 -68 L339 -34 L409 111 L525 59 L413 -68 ZM849 -49 Q778 -45 772 22 Q778 93 849 97 Q920 90 927 22 Q921 -43 849 -49 ZM138 -35 L166 354 L270 357 L296 -31 L138 -35 ZM131 339 L57 407 L196 757 L349 671 L131 339 ZM336 142 L336 278 L558 281 L555 352 L714 355 L710 283 L935 287 L935 151 L703 147 L692 -75 L576 -79 L565 145 L336 142 ZM391 383 L363 607 L522 611 L514 508 L748 513 L739 645 L393 637 L392 769 L908 780 L860 393 L391 383 Z" /><glyph glyph-name="uni4FE1" unicode="&#x4fe1;" d="M388 363 L388 448 L856 454 L856 370 L388 363 ZM388 233 L388 324 L856 330 L856 240 L388 233 ZM138 -35 L167 354 L271 357 L298 -31 L138 -35 ZM131 339 L57 407 L181 757 L341 689 L131 339 ZM388 -55 L365 91 L523 96 L507 37 L735 39 L720 126 L395 122 L395 197 L878 203 L855 -48 L388 -55 ZM331 507 L331 645 L621 648 Q550 660 545 729 Q552 801 630 808 Q707 801 714 729 Q709 663 641 648 L929 652 L929 514 L331 507 Z" /><glyph glyph-name="uni4FEE" unicode="&#x4fee;" d="M498 163 L481 234 L626 265 L746 326 L803 248 L656 190 L498 163 ZM470 54 L455 117 L650 147 L818 221 L865 146 L681 82 L470 54 ZM321 47 L305 492 L413 496 L397 50 L321 47 ZM133 -34 L159 364 L248 367 L275 -30 L133 -34 ZM469 -81 L445 5 L670 27 L887 109 L937 -1 L702 -62 L469 -81 ZM114 342 L54 404 L203 756 L346 685 L114 342 ZM457 492 L385 541 L559 809 L709 775 L637 694 L905 700 L905 565 L774 441 L950 385 L888 263 L678 360 L464 253 L422 327 L578 407 L488 449 L536 519 L668 476 L732 559 L579 557 L579 629 L457 492 Z" /><glyph glyph-name="uni5012" unicode="&#x5012;" d="M711 167 L687 535 L769 539 L762 170 L711 167 ZM107 334 L52 405 L140 731 L274 666 L107 334 ZM112 -22 L138 354 L227 357 L251 -18 L112 -22 ZM331 113 L331 221 L426 223 L419 291 L564 296 L557 225 L653 227 L653 120 L547 118 L541 57 L684 68 L694 -11 L303 -79 L285 37 L443 49 L436 115 L331 113 ZM719 -53 L729 84 L818 69 L792 753 L924 757 L893 -42 L719 -53 ZM289 607 L289 761 L675 772 L675 619 L417 611 L520 578 L414 427 L550 442 L524 527 L599 556 L697 335 L599 287 L582 341 L313 313 L301 416 L391 610 L289 607 Z" /><glyph glyph-name="uni5019" unicode="&#x5019;" d="M862 -78 Q799 -73 793 -12 Q799 48 862 53 Q927 48 933 -12 Q927 -73 862 -78 ZM309 74 L288 505 L409 509 L388 77 L309 74 ZM116 351 L57 407 L215 757 L360 684 L116 351 ZM118 -35 L147 354 L242 357 L270 -31 L118 -35 ZM440 66 L440 175 L620 179 L612 232 L770 235 L762 182 L927 186 L927 76 L729 72 L530 -80 L449 -26 L569 68 L440 66 ZM450 423 L450 532 L750 539 L748 649 L484 644 L483 772 L888 780 L887 633 L869 542 L936 544 L936 434 L579 426 L670 394 L641 362 L908 368 L908 268 L608 261 L608 327 L498 208 L427 252 L531 425 L450 423 Z" /><glyph glyph-name="uni501F" unicode="&#x501f;" d="M563 534 L556 431 L699 434 L693 536 L563 534 ZM140 -35 L169 354 L271 358 L298 -31 L140 -35 ZM131 339 L57 407 L179 757 L330 668 L131 339 ZM366 -70 L349 245 L508 249 L502 141 L721 145 L721 85 L499 81 L497 40 L757 44 L748 192 L535 188 L535 278 L908 286 L887 -61 L366 -70 ZM348 530 L348 668 L429 669 L421 805 L584 808 L574 672 L684 674 L678 782 L835 785 L828 677 L908 679 L908 541 L820 539 L814 436 L935 439 L935 332 L321 319 L321 427 L443 429 L437 531 L348 530 Z" /><glyph glyph-name="uni503C" unicode="&#x503c;" d="M131 339 L57 407 L193 757 L324 649 L131 339 ZM137 -35 L166 356 L268 360 L295 -31 L137 -35 ZM751 787 L722 691 L916 695 L916 558 L681 553 L660 480 L902 485 L874 48 L936 50 L936 -55 L323 -69 L323 35 L387 36 L365 341 L524 345 L522 320 L716 325 L716 275 L518 270 L515 227 L716 232 L716 181 L512 175 L509 137 L716 141 L716 79 L504 75 L502 39 L764 46 L744 380 L394 374 L394 475 L543 478 L550 551 L349 547 L349 683 L561 687 L572 807 L751 787 Z" /><glyph glyph-name="uni505A" unicode="&#x505a;" d="M118 337 L57 405 L160 723 L280 643 L118 337 ZM121 -23 L150 354 L231 357 L258 -20 L121 -23 ZM708 344 L623 375 L699 742 L840 707 L793 577 L937 581 L937 461 L748 455 L708 344 ZM701 -52 L627 -9 L712 149 L628 264 L686 326 L764 246 L840 386 L941 308 L845 163 L950 56 L861 -53 L777 61 L701 -52 ZM269 469 L269 591 L369 595 L360 818 L526 822 L519 601 L622 606 L622 483 L515 478 L510 318 L612 320 L582 -62 L308 -69 L284 166 L413 169 L402 58 L488 60 L478 198 L313 196 L313 314 L380 315 L374 473 L269 469 Z" /><glyph glyph-name="uni505C" unicode="&#x505c;" d="M128 339 L57 407 L195 757 L328 658 L128 339 ZM137 -35 L166 356 L270 360 L297 -31 L137 -35 ZM343 168 L318 301 L950 313 L924 177 L806 173 L799 207 L467 201 L461 171 L343 168 ZM389 340 L371 482 L529 486 L517 408 L748 414 L741 452 L556 448 L556 515 L897 522 L875 352 L389 340 ZM380 54 L380 141 L883 150 L883 63 L706 59 L690 -69 L446 -79 L457 24 L568 7 L561 57 L380 54 ZM341 551 L341 680 L563 685 Q548 704 548 730 Q556 802 631 809 Q708 802 715 730 Q715 706 702 688 L927 693 L927 564 L341 551 Z" /><glyph glyph-name="uni5077" unicode="&#x5077;" d="M606 628 L476 536 L730 540 L606 628 ZM703 100 L693 316 L764 320 L752 103 L703 100 ZM337 -69 L317 248 L448 251 L446 222 L514 223 L514 159 L442 157 L439 118 L514 119 L514 46 L435 45 L428 -65 L337 -69 ZM130 -35 L151 356 L248 360 L267 -31 L130 -35 ZM120 348 L57 407 L206 757 L339 679 L120 348 ZM693 -68 L702 47 L807 30 L786 374 L922 378 L894 -55 L693 -68 ZM469 -79 L478 19 L552 10 L537 282 L347 279 L347 379 L666 385 L643 -67 L469 -79 ZM331 432 L277 502 L615 811 L755 735 L686 686 L956 557 L875 437 L784 501 L784 429 L422 423 L422 497 L331 432 Z" /><glyph glyph-name="uni50A8" unicode="&#x50a8;" d="M739 532 L734 448 L784 449 L801 534 L739 532 ZM777 205 L638 201 L638 242 L585 170 L678 173 L676 149 L766 152 L766 81 L669 78 L666 40 L787 43 L777 205 ZM367 558 Q294 565 287 636 Q294 704 367 711 Q440 705 447 636 Q440 565 367 558 ZM113 339 L57 407 L145 757 L277 675 L113 339 ZM111 -35 L137 356 L229 357 L254 -35 L111 -35 ZM328 -14 L308 348 L262 347 L262 503 L438 509 L415 136 L467 182 L485 46 L328 -14 ZM508 528 L508 653 L618 655 L609 805 L756 808 L746 657 L807 658 L807 564 L843 746 L956 698 L865 451 L938 453 L938 351 L715 345 L673 290 L912 296 L889 -60 L563 -69 L546 118 L523 87 L476 162 L579 342 L476 340 L476 442 L630 445 L625 530 L508 528 Z" /><glyph glyph-name="uni50AC" unicode="&#x50ac;" d="M127 339 L57 407 L186 757 L321 672 L127 339 ZM133 -35 L158 356 L267 360 L291 -31 L133 -35 ZM358 509 L335 743 L466 747 L457 642 L571 645 L556 804 L714 808 L696 648 L811 651 L801 754 L933 758 L909 523 L431 511 L555 462 L506 399 L619 402 Q618 408 618 416 Q625 487 699 493 Q774 487 781 416 Q781 410 780 405 L925 408 L925 313 L479 304 L479 364 L413 280 L522 283 L506 37 L657 39 L655 77 L545 75 L545 144 L651 146 L649 187 L546 185 L546 251 L645 252 L644 281 L774 285 L772 255 L893 257 L893 193 L768 190 L766 148 L892 150 L892 83 L762 80 L759 41 L936 44 L936 -60 L400 -70 L380 238 L338 184 L292 265 L421 510 L358 509 Z" /><glyph glyph-name="uni50B2" unicode="&#x50b2;" d="M109 331 L54 402 L175 734 L286 639 L109 331 ZM113 -23 L139 353 L228 357 L251 -19 L113 -23 ZM721 349 L640 397 L731 756 L862 707 L805 563 L936 564 L936 444 L758 443 L721 349 ZM296 551 L296 698 L393 700 L388 805 L528 808 L523 703 L642 706 L642 559 L516 556 L514 495 L620 497 L620 411 L510 408 L508 359 L650 362 L650 287 L686 326 L764 245 L840 386 L941 308 L845 163 L950 56 L861 -53 L777 61 L701 -52 L627 -9 L712 149 L635 253 L393 248 L475 229 L456 180 L632 185 L605 -68 L416 -78 L425 22 L506 11 L496 81 L447 79 L447 157 L361 -63 L277 -22 L346 247 L286 246 L286 355 L408 357 L406 406 L318 405 L318 491 L402 492 L399 553 L296 551 Z" /><glyph glyph-name="uni50CF" unicode="&#x50cf;" d="M803 449 L708 447 L700 386 L809 389 L803 449 ZM851 125 Q789 131 783 191 Q789 249 851 255 Q914 249 920 191 Q914 131 851 125 ZM351 -51 L324 -4 L543 92 L600 35 L351 -51 ZM863 -67 L750 70 L807 115 L951 12 L863 -67 ZM130 339 L57 407 L206 757 L341 671 L130 339 ZM131 -35 L160 356 L264 360 L291 -31 L131 -35 ZM386 518 L316 572 L506 811 L658 776 L601 722 L833 726 L833 617 L760 543 L927 547 L902 310 L653 305 L561 258 L747 262 L718 -69 L529 -79 L538 7 L619 -10 L599 170 L515 168 L582 120 L343 39 L316 91 L512 168 L459 167 L459 206 L340 146 L303 209 L468 301 L371 299 L350 506 L478 509 L464 382 L573 384 L562 445 L505 444 L505 539 L646 541 L686 613 L494 611 L494 620 L386 518 Z" /><glyph glyph-name="uni513F" unicode="&#x513f;" d="M128 -70 L55 8 L273 218 L249 753 L427 756 L390 153 L128 -70 ZM608 -69 L572 804 L749 808 L717 83 L829 86 L814 239 L949 243 L926 -61 L608 -69 Z" /><glyph glyph-name="uni5143" unicode="&#x5143;" d="M117 -80 L55 5 L341 242 L466 126 L117 -80 ZM570 -69 L539 243 L711 246 L692 63 L828 68 L812 172 L951 176 L934 -61 L570 -69 ZM78 310 L78 438 L925 456 L925 328 L78 310 ZM148 630 L148 764 L853 778 L853 644 L148 630 Z" /><glyph glyph-name="uni5145" unicode="&#x5145;" d="M119 -80 L57 0 L350 179 L471 75 L119 -80 ZM573 -69 L548 183 L707 186 L691 60 L828 63 L812 141 L951 144 L937 -61 L573 -69 ZM72 492 L72 627 L455 634 Q408 664 406 717 Q415 801 504 809 Q592 801 601 717 Q599 666 555 636 L934 644 L934 510 L341 497 L504 456 L301 330 L668 350 L612 413 L694 468 L949 282 L827 175 L771 236 L146 202 L127 320 L313 497 L72 492 Z" /><glyph glyph-name="uni5148" unicode="&#x5148;" d="M120 -80 L57 2 L351 191 L463 82 L120 -80 ZM584 -69 L549 189 L721 193 L698 56 L829 60 L817 131 L949 135 L928 -62 L584 -69 ZM149 401 L56 442 L184 751 L343 709 L292 628 L429 630 L420 805 L591 808 L581 632 L875 637 L875 489 L572 485 L565 360 L936 366 L936 236 L71 225 L71 354 L444 359 L437 483 L242 480 L242 548 L149 401 Z" /><glyph glyph-name="uni5149" unicode="&#x5149;" d="M236 514 Q144 523 135 610 Q144 696 236 705 Q329 697 338 610 Q329 522 236 514 ZM745 476 L659 526 L767 742 L920 672 L745 476 ZM120 -80 L57 3 L341 223 L463 118 L120 -80 ZM582 -69 L547 224 L719 228 L696 56 L832 60 L819 147 L949 151 L928 -61 L582 -69 ZM71 267 L71 424 L446 432 L421 804 L595 808 L569 435 L936 443 L936 286 L71 267 Z" /><glyph glyph-name="uni5165" unicode="&#x5165;" d="M152 -64 L56 -10 L298 521 L460 451 L152 -64 ZM790 -80 L547 638 L164 630 L164 762 L615 772 L952 15 L790 -80 Z" /><glyph glyph-name="uni5168" unicode="&#x5168;" d="M501 622 L255 459 L730 469 L501 622 ZM131 126 L131 234 L427 239 L420 324 L584 328 L577 241 L876 246 L876 138 L568 133 L562 57 L936 64 L936 -52 L71 -69 L71 47 L442 54 L435 131 L131 126 ZM111 365 L56 456 L497 809 L680 740 L596 685 L951 527 L881 368 L772 441 L772 354 L222 344 L222 438 L111 365 Z" /><glyph glyph-name="uni516B" unicode="&#x516b;" d="M166 -63 L56 -20 L282 763 L472 712 L166 -63 ZM767 -80 L542 772 L661 809 L950 -8 L767 -80 Z" /><glyph glyph-name="uni516C" unicode="&#x516c;" d="M828 305 L536 752 L630 811 L951 452 L828 305 ZM138 293 L56 366 L324 800 L494 712 L138 293 ZM167 -56 L130 71 L419 474 L606 409 L285 85 L684 110 L612 240 L706 291 L946 9 L790 -80 L755 -18 L167 -56 Z" /><glyph glyph-name="uni5176" unicode="&#x5176;" d="M744 -76 Q663 -72 659 -3 Q663 64 741 71 Q820 67 825 -3 Q821 -71 744 -76 ZM139 -79 L96 -3 L337 77 L437 -26 L139 -79 ZM625 389 L343 385 L341 333 L625 337 L625 258 L338 254 L336 208 L671 213 L657 529 L349 525 L346 458 L625 462 L625 389 ZM83 522 L83 666 L196 667 L190 804 L362 808 L356 669 L650 673 L646 775 L818 778 L813 675 L925 677 L925 533 L807 531 L792 215 L936 217 L936 93 L71 80 L71 204 L216 206 L202 523 L83 522 Z" /><glyph glyph-name="uni5177" unicode="&#x5177;" d="M71 61 L71 164 L189 165 L166 567 L325 571 L322 518 L646 521 L646 448 L318 445 L315 400 L646 404 L646 341 L312 337 L309 291 L646 295 L646 216 L305 212 L302 167 L704 172 L683 610 L189 604 L189 747 L847 756 L816 174 L936 176 L936 72 L756 70 Q817 54 821 -4 Q815 -73 743 -79 Q669 -73 663 -4 Q667 54 725 69 L345 64 L444 -28 L137 -80 L97 -7 L334 64 L71 61 Z" /><glyph glyph-name="uni5185" unicode="&#x5185;" d="M612 130 Q528 138 520 219 Q528 303 612 311 Q697 303 705 219 Q697 138 612 130 ZM108 -69 L86 430 L234 434 L203 -66 L108 -69 ZM540 -79 L549 53 L779 42 L760 476 L558 472 L557 451 L381 67 L279 115 L429 470 L116 465 L115 591 L429 597 L412 804 L583 808 L568 600 L923 607 L894 -64 L540 -79 Z" /><glyph glyph-name="uni518C" unicode="&#x518c;" d="M70 244 L70 371 L119 371 L120 616 L258 599 L242 373 L338 375 L331 669 L157 667 L157 788 L470 792 L457 377 L531 378 L532 576 L666 559 L652 380 L756 381 L749 635 L568 632 L567 754 L880 758 L871 383 L937 384 L937 257 L868 256 L862 -41 L679 -51 L688 72 L766 64 L760 254 L643 252 L622 -33 L530 -23 L531 250 L453 249 L443 -69 L269 -79 L278 44 L347 36 L341 247 L233 246 L211 -61 L118 -51 L119 244 L70 244 Z" /><glyph glyph-name="uni518D" unicode="&#x518d;" d="M706 262 L564 259 L562 207 L732 210 L723 413 L572 410 L568 344 L706 346 L706 262 ZM82 620 L82 752 L925 769 L925 636 L582 629 L577 522 L874 527 L858 212 L946 213 L946 97 L852 96 L844 -69 L543 -79 L552 42 L741 29 L738 94 L259 88 L253 -65 L157 -69 L148 87 L61 86 L61 201 L142 202 L132 384 L272 388 L264 203 L449 206 L447 257 L298 255 L298 340 L443 342 L440 408 L161 404 L161 515 L434 519 L429 626 L82 620 Z" /><glyph glyph-name="uni51B3" unicode="&#x51b3;" d="M754 462 L652 460 L648 301 L757 303 L754 462 ZM816 -74 Q731 -66 722 15 Q731 97 816 105 Q899 96 908 15 Q899 -66 816 -74 ZM214 449 L61 686 L204 754 L302 492 L214 449 ZM203 -35 L57 27 L191 322 L286 286 L203 -35 ZM323 152 L323 295 L507 298 L504 457 L366 455 L366 607 L500 610 L496 804 L659 808 L655 613 L890 618 L868 305 L936 307 L936 164 L623 158 L395 -80 L302 -17 L456 154 L323 152 Z" /><glyph glyph-name="uni51B5" unicode="&#x51b5;" d="M203 -35 L57 27 L201 326 L294 281 L203 -35 ZM360 -81 L280 -25 L440 225 L572 148 L360 -81 ZM211 449 L61 686 L204 754 L298 492 L211 449 ZM644 -69 L613 217 L772 221 L754 48 L849 49 L841 139 L950 143 L930 -64 L644 -69 ZM369 258 L339 588 L498 591 L480 394 L748 398 L737 652 L370 645 L369 785 L895 796 L858 268 L369 258 Z" /><glyph glyph-name="uni51C0" unicode="&#x51c0;" d="M769 181 L766 221 L648 218 L645 178 L769 181 ZM758 360 L656 357 L653 309 L761 311 L758 360 ZM191 441 L61 686 L200 754 L275 483 L191 441 ZM199 -35 L57 36 L185 318 L274 283 L199 -35 ZM368 476 L291 523 L461 812 L610 759 L534 670 L801 675 L801 536 L737 467 L887 470 L877 314 L936 315 L936 224 L871 223 L863 83 L639 78 L631 -70 L410 -80 L402 31 L530 24 L527 76 L348 73 L348 172 L523 175 L521 216 L297 212 L297 302 L516 306 L514 354 L342 351 L342 459 L606 464 L643 533 L474 530 L474 600 L368 476 Z" /><glyph glyph-name="uni51C6" unicode="&#x51c6;" d="M814 678 Q807 602 728 595 Q647 601 640 678 Q647 754 728 760 Q806 753 814 678 ZM191 449 L61 686 L208 754 L277 492 L191 449 ZM201 -35 L57 44 L227 315 L317 274 L201 -35 ZM341 339 L260 394 L469 811 L623 751 L499 569 L928 579 L928 433 L467 423 L467 523 L376 391 L524 393 L510 37 L668 41 L665 91 L547 89 L547 179 L659 181 L656 239 L547 237 L547 325 L651 327 L647 397 L797 402 L793 329 L911 332 L911 244 L788 241 L784 184 L911 187 L911 97 L779 94 L776 44 L936 48 L936 -56 L393 -69 L376 390 L341 339 Z" /><glyph glyph-name="uni51FA" unicode="&#x51fa;" d="M143 303 L115 650 L277 654 L258 433 L436 436 L422 804 L592 808 L578 439 L745 443 L732 676 L894 680 L866 319 L573 312 L563 55 L778 60 L765 242 L924 246 L897 -51 L109 -68 L83 219 L242 223 L226 49 L451 53 L441 309 L143 303 Z" /><glyph glyph-name="uni5200" unicode="&#x5200;" d="M148 -80 L65 -13 L323 224 L303 541 L474 544 L452 177 L148 -80 ZM484 -78 L493 69 L776 54 L756 627 L93 613 L94 757 L917 775 L884 -59 L484 -78 Z" /><glyph glyph-name="uni5206" unicode="&#x5206;" d="M152 -81 L82 -11 L378 233 L521 152 L152 -81 ZM126 354 L56 427 L346 791 L497 702 L126 354 ZM422 -79 L431 55 L687 33 L670 264 L177 253 L177 400 L833 414 L515 748 L597 809 L951 517 L886 359 L837 409 L805 -65 L422 -79 Z" /><glyph glyph-name="uni5207" unicode="&#x5207;" d="M542 -79 L450 -35 L551 205 L533 568 L687 572 L668 170 L542 -79 ZM71 316 L71 463 L179 486 L169 732 L328 736 L319 517 L457 547 L457 400 L313 369 L304 132 L447 216 L473 74 L201 -29 L185 341 L71 316 ZM655 -79 L665 72 L783 58 L765 649 L470 644 L470 782 L918 791 L889 -66 L655 -79 Z" /><glyph glyph-name="uni5212" unicode="&#x5212;" d="M450 587 Q372 595 364 671 Q372 746 450 753 Q528 746 536 671 Q528 595 450 587 ZM623 174 L601 589 L728 593 L708 178 L623 174 ZM671 -35 L680 101 L799 87 L776 734 L923 738 L895 -24 L671 -35 ZM71 321 L71 477 L198 498 L128 770 L282 809 L337 521 L559 558 L559 401 L366 369 L386 262 L516 339 L596 217 L412 128 L428 48 L569 124 L616 -13 L347 -81 L306 76 L103 -22 L58 68 L275 196 L236 348 L71 321 Z" /><glyph glyph-name="uni521B" unicode="&#x521b;" d="M324 568 L183 436 L476 441 L324 568 ZM641 174 L619 589 L737 593 L718 178 L641 174 ZM149 -69 L118 277 L275 279 L255 54 L465 58 L454 109 L594 112 L570 -60 L149 -69 ZM661 -35 L671 101 L793 87 L771 734 L919 738 L889 -24 L661 -35 ZM97 355 L56 446 L350 811 L491 724 L399 638 L610 508 L564 368 L529 397 L501 137 L310 126 L320 241 L398 231 L386 313 L138 309 L138 393 L97 355 Z" /><glyph glyph-name="uni522B" unicode="&#x522b;" d="M620 177 L597 589 L729 593 L707 181 L620 177 ZM661 -35 L671 101 L791 87 L767 734 L919 738 L891 -24 L661 -35 ZM110 390 L81 740 L240 744 L221 512 L421 515 L413 620 L267 617 L267 773 L567 778 L534 399 L110 390 ZM148 -80 L60 -27 L190 144 L71 142 L71 280 L230 283 L225 365 L383 369 L372 286 L576 291 L543 -67 L285 -79 L295 45 L436 30 L424 150 L339 148 L148 -80 Z" /><glyph glyph-name="uni5230" unicode="&#x5230;" d="M619 174 L601 589 L724 593 L703 178 L619 174 ZM662 -35 L671 101 L789 87 L764 734 L917 738 L889 -24 L662 -35 ZM92 132 L92 233 L252 237 L247 298 L407 301 L401 240 L561 244 L561 142 L391 138 L383 63 L574 77 L590 -11 L89 -81 L56 40 L269 55 L261 135 L92 132 ZM80 620 L80 768 L572 778 L572 631 L269 624 L369 596 L221 436 L403 450 L372 531 L456 563 L587 362 L464 296 L443 349 L107 322 L92 425 L205 623 L80 620 Z" /><glyph glyph-name="uni5236" unicode="&#x5236;" d="M131 -24 L116 104 L242 107 L225 -21 L131 -24 ZM651 174 L629 589 L745 593 L728 177 L651 174 ZM675 -35 L684 101 L799 87 L778 734 L918 738 L893 -24 L675 -35 ZM130 442 L56 477 L125 745 L249 710 L212 626 L277 628 L272 807 L417 812 L413 631 L573 634 L573 485 L410 481 L408 418 L608 424 L608 296 L405 290 L404 239 L595 242 L577 -17 L428 -24 L434 80 L484 73 L476 137 L402 136 L397 -78 L298 -81 L291 134 L139 132 L139 236 L288 238 L287 287 L104 282 L104 410 L283 415 L281 479 L185 477 L185 566 L130 442 Z" /><glyph glyph-name="uni5237" unicode="&#x5237;" d="M220 -8 L208 153 L310 156 L296 -4 L220 -8 ZM658 174 L642 589 L747 593 L729 178 L658 174 ZM472 -7 L475 97 L515 91 L507 188 L457 187 L440 -75 L359 -79 L345 184 L230 182 L230 294 L339 296 L335 378 L470 381 L464 299 L607 302 L592 1 L472 -7 ZM679 -35 L688 101 L801 87 L781 734 L919 738 L895 -24 L679 -35 ZM149 -61 L59 -47 L115 746 L258 737 L229 529 L490 535 L481 636 L285 632 L285 771 L627 778 L600 427 L214 418 L149 -61 Z" /><glyph glyph-name="uni5238" unicode="&#x5238;" d="M506 315 L317 229 L678 234 L506 315 ZM717 627 L635 666 L692 789 L840 741 L717 627 ZM273 628 Q197 635 189 705 Q197 774 273 781 Q347 774 355 705 Q348 635 273 628 ZM189 -81 L129 -26 L349 107 L493 66 L189 -81 ZM113 476 L113 603 L426 610 L421 805 L586 808 L579 613 L894 620 L894 492 L574 485 L571 422 L936 429 L936 329 L666 323 L950 250 L891 135 L783 185 L757 -63 L454 -79 L463 35 L648 21 L640 121 L197 115 L197 173 L96 127 L52 203 L303 316 L72 312 L72 412 L432 419 L430 482 L113 476 Z" /><glyph glyph-name="uni523B" unicode="&#x523b;" d="M646 174 L629 589 L739 593 L721 178 L646 174 ZM167 -83 L109 -18 L513 264 L612 172 L458 84 L613 35 L520 -81 L362 29 L167 -83 ZM671 -35 L680 101 L796 87 L774 734 L920 738 L894 -24 L671 -35 ZM70 485 L70 637 L295 642 Q241 664 239 720 Q247 799 331 807 Q416 799 424 720 Q423 667 371 644 L594 649 L594 497 L270 489 L403 468 L240 365 L389 377 L465 439 L576 355 L113 41 L57 105 L255 267 L107 256 L86 353 L202 488 L70 485 Z" /><glyph glyph-name="uni524D" unicode="&#x524d;" d="M601 87 L587 337 L696 341 L682 91 L601 87 ZM324 614 Q232 622 224 708 Q232 795 324 803 Q415 795 423 708 Q414 622 324 614 ZM133 -63 L109 350 L256 354 L248 221 L371 224 L371 161 L244 158 L242 124 L371 126 L371 56 L238 53 L232 -60 L133 -63 ZM641 -77 L651 55 L764 40 L744 394 L903 397 L875 -66 L641 -77 ZM311 -79 L319 26 L412 14 L391 273 L281 271 L281 386 L539 391 L516 -67 L311 -79 ZM71 438 L71 585 L585 595 L666 807 L832 754 L714 598 L936 603 L936 456 L71 438 Z" /><glyph glyph-name="uni526A" unicode="&#x526a;" d="M601 330 L586 496 L696 500 L682 333 L601 330 ZM134 216 L109 508 L249 512 L241 418 L379 420 L379 376 L237 374 L235 351 L380 352 L380 302 L231 300 L224 219 L134 216 ZM641 207 L651 302 L767 290 L746 533 L897 537 L869 216 L641 207 ZM315 202 L325 284 L424 276 L403 445 L273 443 L273 535 L542 539 L519 212 L315 202 ZM71 566 L71 685 L264 687 Q252 707 252 731 Q262 801 344 806 Q430 802 437 731 Q436 708 423 689 L593 692 L669 807 L834 754 L744 694 L936 697 L936 578 L71 566 ZM109 -81 L58 -22 L393 77 L108 72 L108 169 L900 184 L870 -73 L517 -80 L529 10 L743 -3 L734 83 L397 77 L558 30 L109 -81 Z" /><glyph glyph-name="uni529B" unicode="&#x529b;" d="M133 -80 L60 1 L389 264 L384 406 L83 400 L83 556 L380 562 L373 805 L544 808 L535 566 L923 574 L890 -65 L483 -78 L493 67 L777 40 L758 414 L529 409 L522 215 L133 -80 Z" /><glyph glyph-name="uni529E" unicode="&#x529e;" d="M141 103 L65 148 L159 322 L287 266 L141 103 ZM208 -80 L131 -16 L385 206 L377 406 L97 401 L96 557 L371 563 L362 804 L533 808 L523 566 L843 573 L828 287 Q846 298 868 298 Q942 292 949 224 Q942 155 868 149 Q841 149 821 163 L810 -59 L479 -79 L488 63 L708 40 L690 413 L517 409 L507 168 L208 -80 Z" /><glyph glyph-name="uni529F" unicode="&#x529f;" d="M83 544 L83 701 L452 709 L452 552 L83 544 ZM107 -29 L57 124 L209 163 L185 511 L344 515 L323 193 L457 228 L480 137 L107 -29 ZM477 -80 L394 -32 L578 209 L574 365 L448 363 L448 519 L570 521 L563 804 L722 808 L709 524 L923 529 L901 -66 L644 -79 L654 64 L798 41 L785 369 L702 367 L694 181 L477 -80 Z" /><glyph glyph-name="uni52A0" unicode="&#x52a0;" d="M555 -25 L531 519 L675 522 L655 117 L794 120 L778 558 L551 557 L551 715 L923 720 L896 -18 L555 -25 ZM149 -79 L57 -42 L166 214 L162 448 L83 446 L83 603 L160 604 L158 804 L312 808 L301 607 L491 611 L469 -65 L249 -79 L258 64 L366 41 L353 452 L292 450 L278 182 L149 -79 Z" /><glyph glyph-name="uni52A1" unicode="&#x52a1;" d="M213 -82 L144 -13 L359 121 L143 118 L143 232 L427 237 L422 313 L580 317 L573 239 L854 245 L824 -72 L470 -79 L482 37 L706 22 L697 127 L552 124 L213 -82 ZM132 491 L66 564 L349 809 L509 757 L430 701 L862 712 L862 588 L665 443 L951 384 L903 244 L506 362 L89 235 L55 318 L351 409 L191 457 L240 532 L512 475 L639 579 L330 571 L330 630 L132 491 Z" /><glyph glyph-name="uni52A8" unicode="&#x52a8;" d="M103 559 L103 706 L476 714 L476 568 L103 559 ZM71 312 L71 450 L509 459 L509 322 L216 315 L324 277 L201 114 L365 137 L350 221 L431 245 L525 24 L395 -34 L384 25 L114 -14 L81 95 L177 314 L71 312 ZM689 -79 L698 64 L798 41 L785 394 L731 393 L721 186 L606 -79 L516 -44 L604 209 L602 390 L529 389 L529 546 L600 547 L597 805 L752 808 L739 550 L923 554 L901 -66 L689 -79 Z" /><glyph glyph-name="uni52A9" unicode="&#x52a9;" d="M682 -79 L693 64 L803 41 L790 394 L730 393 L720 186 L605 -79 L512 -44 L606 209 L603 390 L515 389 L515 546 L601 547 L597 805 L751 808 L738 550 L923 554 L901 -66 L682 -79 ZM91 -53 L56 77 L124 86 L102 526 L235 529 L231 446 L321 448 L321 355 L226 353 L223 285 L323 288 L323 177 L218 175 L214 99 L358 119 L347 564 L130 559 L130 707 L488 715 L456 132 L516 141 L530 53 L91 -53 Z" /><glyph glyph-name="uni52B2" unicode="&#x52b2;" d="M316 393 L146 305 L443 311 L316 393 ZM86 -36 L58 80 L237 90 L220 180 L366 185 L349 97 L511 107 L523 19 L86 -36 ZM95 279 L54 364 L231 459 L320 564 L98 559 L98 706 L489 715 L489 570 L382 452 L547 403 L492 280 L463 298 L463 208 L135 202 L135 299 L95 279 ZM703 -79 L712 64 L811 41 L799 394 L744 393 L735 186 L606 -79 L518 -45 L628 209 L624 390 L556 389 L556 546 L620 547 L615 804 L762 808 L751 550 L926 554 L906 -66 L703 -79 Z" /><glyph glyph-name="uni52B3" unicode="&#x52b3;" d="M100 247 L59 443 L949 462 L906 264 L796 260 L784 333 L224 320 L210 251 L100 247 ZM71 559 L71 699 L254 703 L246 804 L417 808 L408 706 L597 710 L590 784 L762 788 L754 713 L936 717 L936 578 L741 574 L733 492 L619 488 L611 571 L395 566 L388 481 L274 479 L266 563 L71 559 ZM171 -81 L106 -14 L336 95 L111 91 L111 200 L421 206 L412 281 L583 286 L575 209 L899 216 L863 -71 L497 -79 L509 36 L743 23 L728 104 L554 100 L171 -81 Z" /><glyph glyph-name="uni52E4" unicode="&#x52e4;" d="M446 365 L389 363 L388 327 L453 329 L446 365 ZM378 530 L373 569 L274 567 L270 528 L378 530 ZM71 563 L71 667 L141 668 L134 732 L292 736 L285 671 L362 673 L358 712 L515 715 L510 676 L579 678 L579 574 L497 572 L486 482 L162 474 L152 565 L71 563 ZM101 256 L76 401 L202 404 L188 323 L257 324 L255 360 L218 359 L218 421 L252 422 L251 455 L394 458 L392 425 L568 429 L538 266 L385 262 L383 235 L561 239 L561 171 L380 167 L379 139 L530 142 L530 92 L376 88 L375 59 L575 70 L584 7 L89 -45 L69 43 L270 54 L269 85 L118 82 L118 134 L266 137 L265 164 L88 161 L88 228 L261 232 L260 259 L101 256 ZM736 -79 L743 64 L816 41 L805 394 L756 393 L747 184 L672 -79 L591 -49 L648 208 L645 392 L591 391 L591 547 L643 548 L640 805 L776 808 L764 550 L922 554 L903 -66 L736 -79 Z" /><glyph glyph-name="uni5305" unicode="&#x5305;" d="M139 368 L59 434 L308 808 L478 756 L394 660 L896 671 L867 143 L662 133 L671 261 L758 247 L736 520 L333 511 L333 590 L139 368 ZM201 -69 L180 388 L333 390 L327 229 L512 234 L502 319 L364 315 L364 436 L648 443 L627 140 L324 133 L321 47 L794 57 L785 106 L949 110 L925 -54 L201 -69 Z" /><glyph glyph-name="uni5316" unicode="&#x5316;" d="M165 -35 L194 354 L304 357 L332 -31 L165 -35 ZM131 341 L57 409 L265 757 L421 671 L131 341 ZM393 191 L351 285 L511 382 L498 804 L668 808 L657 471 L838 581 L930 438 L651 310 L644 80 L813 83 L801 222 L950 226 L927 -60 L525 -69 L515 247 L393 191 Z" /><glyph glyph-name="uni5319" unicode="&#x5319;" d="M118 375 L94 715 L238 719 L226 565 L378 569 L378 511 L221 508 L218 461 L412 466 L397 628 L264 625 L264 748 L542 754 L512 384 L118 375 ZM610 103 L585 805 L738 808 L728 515 L845 671 L936 556 L768 427 L726 476 L718 229 L823 231 L815 360 L934 363 L911 108 L610 103 ZM71 236 L71 335 L557 345 L557 245 L411 242 L406 182 L533 184 L533 110 L399 107 L394 50 L949 38 L915 -79 L297 -31 L175 19 L140 -61 L60 -32 L116 205 L244 176 L210 99 L287 69 L272 239 L71 236 Z" /><glyph glyph-name="uni533A" unicode="&#x533a;" d="M121 592 L121 739 L926 755 L926 608 L121 592 ZM371 83 L292 145 L478 320 L302 447 L362 526 L568 405 L754 579 L883 489 L688 334 L908 205 L806 86 L579 248 L371 83 ZM114 -68 L90 557 L254 561 L234 55 L936 69 L936 -52 L114 -68 Z" /><glyph glyph-name="uni5347" unicode="&#x5347;" d="M102 542 L67 633 L459 810 L559 680 L102 542 ZM71 179 L71 323 L227 326 L256 558 L425 540 L377 330 L625 335 L611 738 L781 741 L767 338 L936 342 L936 198 L762 194 L753 -75 L639 -79 L630 191 L345 185 L286 -78 L181 -55 L210 182 L71 179 Z" /><glyph glyph-name="uni534E" unicode="&#x534e;" d="M170 265 L204 514 L310 518 L342 269 L170 265 ZM111 493 L58 570 L296 784 L421 673 L111 493 ZM71 46 L71 182 L424 189 L420 246 L585 249 L581 192 L936 200 L936 64 L570 56 L561 -75 L444 -79 L434 53 L71 46 ZM398 402 L361 492 L502 562 L489 804 L660 808 L650 635 L871 744 L945 615 L643 497 L637 386 L809 389 L797 507 L945 510 L921 282 L519 273 L509 445 L398 402 Z" /><glyph glyph-name="uni5356" unicode="&#x5356;" d="M370 175 L127 205 L185 262 L400 214 L370 175 ZM428 235 L202 291 L268 343 L457 278 L428 235 ZM781 -78 Q709 -72 702 -8 Q709 59 781 65 Q853 59 859 -8 Q852 -72 781 -78 ZM83 63 L83 162 L521 171 L506 338 L666 341 L649 174 L924 180 L924 82 L629 75 L172 -80 L114 -18 L367 69 L83 63 ZM131 550 L131 690 L427 696 L420 805 L585 808 L577 699 L894 706 L894 566 L567 559 L562 482 L948 489 L913 257 L811 253 L793 368 L83 353 L83 473 L442 479 L437 556 L131 550 Z" /><glyph glyph-name="uni5361" unicode="&#x5361;" d="M750 4 Q661 12 653 94 Q662 176 750 184 Q838 176 847 94 Q839 11 750 4 ZM411 -79 L386 234 L557 238 L529 -75 L411 -79 ZM71 265 L71 403 L413 410 L389 804 L560 808 L552 681 L872 686 L872 530 L542 524 L535 412 L936 421 L936 283 L71 265 Z" /><glyph glyph-name="uni5366" unicode="&#x5366;" d="M832 128 L775 407 L860 455 L952 214 L832 128 ZM101 156 L101 256 L267 259 L262 318 L404 324 L398 261 L540 264 L540 164 L388 161 L383 103 L569 112 L577 28 L86 -38 L57 88 L280 98 L275 159 L101 156 ZM625 -79 L601 804 L766 808 L742 -76 L625 -79 ZM248 758 L396 768 L390 636 L562 642 L562 526 L385 521 L381 437 L565 441 L565 342 L75 332 L75 431 L274 435 L268 517 L90 512 L90 626 L258 631 L248 758 Z" /><glyph glyph-name="uni5367" unicode="&#x5367;" d="M216 176 L213 88 L325 90 L313 178 L216 176 ZM423 360 L224 356 L220 275 L430 278 L423 360 ZM832 128 L781 408 L862 454 L952 214 L832 128 ZM641 -79 L618 804 L770 808 L748 -75 L641 -79 ZM105 571 L105 706 L575 715 L575 580 L442 577 L429 461 L560 463 L533 181 L441 180 L429 92 L582 95 L582 -13 L104 -23 L78 540 L232 543 L228 457 L326 459 L313 575 L105 571 Z" /><glyph glyph-name="uni536B" unicode="&#x536b;" d="M71 -69 L71 69 L384 75 L359 544 L531 548 L505 78 L936 87 L936 -50 L71 -69 ZM581 202 L588 344 L745 329 L726 596 L120 584 L120 740 L890 756 L861 212 L581 202 Z" /><glyph glyph-name="uni5373" unicode="&#x5373;" d="M398 -79 L338 184 L428 214 L531 -20 L398 -79 ZM562 -35 L542 518 L692 522 L672 -31 L562 -35 ZM712 117 L718 261 L800 248 L782 555 L572 551 L572 707 L922 715 L896 127 L712 117 ZM106 -75 L83 586 L230 590 L228 524 L350 526 L350 443 L225 440 L223 374 L383 377 L373 622 L113 617 L113 770 L511 778 L491 258 L219 252 L213 58 L325 102 L352 -38 L106 -75 Z" /><glyph glyph-name="uni5385" unicode="&#x5385;" d="M166 -35 L59 -6 L116 176 L125 563 L287 550 L242 158 L166 -35 ZM392 -79 L404 58 L557 35 L536 305 L710 309 L678 -67 L392 -79 ZM307 340 L307 478 L925 490 L925 352 L307 340 ZM154 593 L154 740 L936 756 L936 609 L154 593 Z" /><glyph glyph-name="uni539F" unicode="&#x539f;" d="M302 -59 L231 -11 L317 109 L441 55 L302 -59 ZM823 -46 Q746 -40 739 26 Q746 92 823 98 Q897 92 905 26 Q897 -40 823 -46 ZM438 -79 L446 31 L539 23 L519 113 L686 116 L659 -68 L438 -79 ZM166 -35 L59 -6 L111 175 L123 563 L285 551 L236 157 L166 -35 ZM153 593 L153 740 L936 756 L936 609 L153 593 ZM329 137 L308 348 L462 351 L459 327 L713 333 L713 276 L452 271 L447 231 L753 237 L742 384 L337 379 L337 476 L508 479 Q504 489 504 503 Q512 576 596 583 Q680 576 688 503 Q688 491 685 482 L895 486 L871 148 L329 137 Z" /><glyph glyph-name="uni53A8" unicode="&#x53a8;" d="M289 426 L289 537 L610 544 L610 433 L289 426 ZM266 -65 L241 40 L316 43 Q302 57 302 79 Q308 129 362 134 Q417 129 422 79 Q422 61 411 47 L456 49 L486 141 L596 110 L551 53 L619 56 L630 -19 L266 -65 ZM307 155 L294 276 L403 278 L400 232 L482 233 L478 301 L319 297 L319 381 L597 388 L577 162 L307 155 ZM155 -37 L59 -13 L116 172 L123 574 L267 561 L229 154 L155 -37 ZM153 604 L153 740 L936 756 L936 620 L153 604 ZM634 346 L634 464 L754 466 L751 580 L882 584 L878 469 L926 470 L926 351 L875 350 L862 -65 L657 -76 L669 44 L767 32 L763 175 Q744 138 700 137 Q637 143 631 201 Q637 258 700 264 Q740 262 761 229 L758 348 L634 346 Z" /><glyph glyph-name="uni53BB" unicode="&#x53bb;" d="M122 510 L122 634 L433 646 L426 798 L588 804 L580 652 L886 664 L886 542 L574 529 L567 387 L936 396 L936 258 L355 248 L497 206 L279 66 L647 99 L587 172 L672 224 L919 28 L794 -78 L738 -10 L135 -65 L103 49 L298 247 L71 243 L71 377 L445 385 L438 523 L122 510 Z" /><glyph glyph-name="uni53C2" unicode="&#x53c2;" d="M166 111 L137 170 L349 217 L533 323 L625 258 L403 154 L166 111 ZM158 20 L137 81 L438 121 L671 236 L768 179 L489 56 L158 20 ZM148 -79 L121 -14 L534 26 L799 150 L902 71 L607 -44 L148 -79 ZM151 516 L126 626 L364 811 L550 761 L319 639 L647 658 L595 719 L679 762 L910 584 L786 494 L737 551 L151 516 ZM71 344 L71 451 L424 458 L416 514 L590 519 L582 461 L936 469 L936 362 L710 357 L950 288 L880 170 L530 353 L500 353 L99 171 L56 243 L286 348 L71 344 Z" /><glyph glyph-name="uni53C8" unicode="&#x53c8;" d="M125 -81 L60 4 L412 214 L104 424 L169 512 L511 315 L699 595 L99 584 L99 741 L912 755 L912 598 L627 248 L951 62 L849 -82 L515 144 L125 -81 Z" /><glyph glyph-name="uni53CA" unicode="&#x53ca;" d="M160 -49 L63 -15 L248 542 L416 511 L160 -49 ZM341 -81 L284 -2 L487 93 L318 170 L367 254 L605 167 L730 292 L501 287 L485 413 L672 595 L111 584 L111 740 L895 756 L895 600 L645 418 L925 424 L925 297 L735 119 L950 41 L871 -80 L607 39 L341 -81 Z" /><glyph glyph-name="uni53CB" unicode="&#x53cb;" d="M72 449 L72 605 L309 611 L387 809 L553 776 L476 615 L937 626 L937 470 L401 457 L355 358 L863 368 L863 236 L722 94 L950 41 L873 -80 L589 14 L316 -80 L256 -5 L451 61 L310 108 L364 178 L589 125 L680 226 L338 219 L338 322 L157 -61 L59 -21 L246 453 L72 449 Z" /><glyph glyph-name="uni53CC" unicode="&#x53cc;" d="M138 -38 L60 23 L192 216 L57 394 L122 462 L252 328 L304 538 L81 533 L81 705 L454 714 L454 540 L345 233 L478 97 L372 -18 L263 124 L138 -38 ZM541 -81 L456 -20 L623 223 L474 439 L548 505 L686 347 L759 606 L499 600 L499 769 L926 778 L926 613 L787 232 L952 44 L833 -81 L698 115 L541 -81 Z" /><glyph glyph-name="uni53D1" unicode="&#x53d1;" d="M767 572 Q681 579 673 657 Q682 733 767 740 Q851 733 859 657 Q851 579 767 572 ZM108 366 L85 511 L163 712 L332 715 L205 516 L337 519 L488 810 L648 775 L499 523 L927 535 L927 387 L411 374 L366 298 L872 310 L872 193 L732 71 L950 29 L873 -80 L591 0 L316 -80 L256 -10 L438 42 L318 76 L366 143 L599 97 L691 183 L356 174 L356 281 L153 -62 L60 -18 L260 370 L108 366 Z" /><glyph glyph-name="uni53D6" unicode="&#x53d6;" d="M72 600 L72 749 L504 757 L504 609 L72 600 ZM91 -11 L57 128 L125 138 L109 562 L240 566 L237 457 L306 459 L306 382 L234 380 L232 316 L308 318 L308 228 L229 226 L227 154 L344 173 L334 571 L465 575 L457 190 L526 201 L538 106 L454 84 L451 -75 L351 -79 L347 56 L91 -11 ZM598 -42 L513 10 L656 212 L511 414 L589 476 L716 333 L775 554 L535 547 L535 697 L925 707 L925 559 L801 237 L951 70 L838 -40 L721 122 L598 -42 Z" /><glyph glyph-name="uni53D7" unicode="&#x53d7;" d="M267 433 L162 538 L320 591 L360 461 L267 433 ZM505 454 Q432 460 425 526 Q432 590 505 596 Q578 590 585 526 Q578 460 505 454 ZM129 594 L86 696 L835 807 L929 666 L129 594 ZM94 255 L59 421 L640 433 L709 618 L865 572 L751 436 L949 440 L911 272 L802 268 L789 315 L216 303 L203 259 L94 255 ZM111 -80 L57 -9 L283 27 L161 49 L220 106 L501 75 L651 141 L135 129 L135 230 L870 246 L870 124 L697 53 L950 26 L878 -78 L511 -13 L111 -80 Z" /><glyph glyph-name="uni53D8" unicode="&#x53d8;" d="M150 295 L86 355 L185 469 L289 392 L150 295 ZM815 324 Q743 330 736 396 Q743 462 815 468 Q889 462 896 396 Q889 330 815 324 ZM342 282 L315 470 L466 473 L442 285 L342 282 ZM566 282 L540 481 L691 485 L666 286 L566 282 ZM70 500 L70 632 L495 641 Q421 653 415 724 Q423 800 504 807 Q585 800 593 724 Q588 657 518 642 L936 651 L936 519 L70 500 ZM111 -80 L56 -9 L312 34 L162 64 L221 122 L507 84 L654 156 L133 144 L133 245 L874 261 L874 140 L692 60 L950 26 L878 -78 L524 -8 L111 -80 Z" /><glyph glyph-name="uni53E3" unicode="&#x53e3;" d="M153 -21 L126 519 L290 522 L268 101 L744 111 L725 565 L155 553 L155 700 L889 716 L858 -6 L153 -21 Z" /><glyph glyph-name="uni53E5" unicode="&#x53e5;" d="M206 105 L187 277 L337 280 L328 212 L523 214 L514 313 L229 309 L229 427 L672 434 L637 112 L206 105 ZM138 374 L58 440 L282 808 L447 742 L370 650 L922 662 L888 -64 L438 -78 L450 57 L775 40 L757 509 L302 499 L302 569 L138 374 Z" /><glyph glyph-name="uni53E8" unicode="&#x53e8;" d="M100 29 L83 487 L211 490 L196 149 L290 150 L276 522 L114 520 L114 676 L406 682 L386 35 L100 29 ZM498 -79 L406 -37 L528 201 L507 557 L666 561 L644 168 L498 -79 ZM632 -79 L641 67 L784 50 L765 618 L437 611 L437 768 L923 778 L895 -64 L632 -79 Z" /><glyph glyph-name="uni53EA" unicode="&#x53ea;" d="M121 -80 L71 5 L330 154 L446 41 L121 -80 ZM784 -57 Q689 -49 680 39 Q690 126 784 135 Q880 127 890 39 Q882 -49 784 -57 ZM149 208 L125 711 L296 715 L277 346 L730 355 L715 594 L328 587 L328 745 L887 756 L858 222 L149 208 Z" /><glyph glyph-name="uni53EB" unicode="&#x53eb;" d="M101 29 L83 488 L219 490 L203 149 L305 150 L291 522 L116 520 L116 676 L428 682 L405 35 L101 29 ZM504 140 L479 657 L631 661 L614 302 L776 327 L763 804 L922 808 L899 -75 L787 -79 L780 183 L504 140 Z" /><glyph glyph-name="uni53EF" unicode="&#x53ef;" d="M163 106 L142 344 L300 346 L290 226 L441 230 L427 380 L187 375 L187 507 L595 515 L565 114 L163 106 ZM402 -79 L410 59 L713 39 L690 571 L859 575 L828 -62 L402 -79 ZM71 590 L71 737 L935 755 L935 608 L71 590 Z" /><glyph glyph-name="uni53F0" unicode="&#x53f0;" d="M171 -69 L145 242 L316 246 L300 58 L700 65 L691 156 L349 151 L349 271 L861 281 L833 -57 L171 -69 ZM126 316 L79 438 L383 808 L563 741 L231 451 L677 484 L582 624 L669 681 L943 398 L805 297 L760 362 L126 316 Z" /><glyph glyph-name="uni53F3" unicode="&#x53f3;" d="M71 457 L71 613 L350 618 L449 808 L620 763 L533 621 L936 629 L936 473 L435 463 L355 333 L870 343 L830 -57 L295 -66 L267 169 L436 172 L425 51 L700 56 L688 208 L332 201 L332 295 L154 7 L59 59 L268 460 L71 457 Z" /><glyph glyph-name="uni53F7" unicode="&#x53f7;" d="M159 398 L138 711 L304 714 L291 499 L715 507 L705 621 L336 613 L336 744 L871 755 L846 412 L159 398 ZM71 225 L71 336 L937 355 L937 244 L426 232 L325 169 L845 181 L805 -67 L382 -84 L392 28 L683 15 L673 75 L176 66 L156 167 L218 228 L71 225 Z" /><glyph glyph-name="uni53F8" unicode="&#x53f8;" d="M147 76 L125 228 L283 230 L271 174 L513 181 L504 267 L162 259 L162 361 L664 372 L636 87 L147 76 ZM423 -78 L436 42 L771 28 L750 606 L127 594 L127 741 L916 756 L888 -65 L423 -78 ZM81 422 L81 523 L708 537 L708 437 L81 422 Z" /><glyph glyph-name="uni5404" unicode="&#x5404;" d="M149 478 L69 546 L319 810 L500 777 L422 711 L859 721 L859 576 L654 431 L950 376 L899 235 L846 249 L812 -57 L192 -70 L160 210 L331 214 L310 48 L694 56 L676 139 L359 133 L359 245 L825 255 L511 343 L106 226 L57 317 L338 391 L183 435 L245 507 L493 461 L625 569 L325 562 L325 628 L149 478 Z" /><glyph glyph-name="uni5408" unicode="&#x5408;" d="M504 598 L307 447 L682 456 L504 598 ZM176 -69 L151 225 L323 229 L307 59 L696 67 L685 154 L351 147 L351 259 L856 270 L827 -55 L176 -69 ZM112 298 L56 382 L511 809 L669 724 L588 662 L952 445 L871 306 L722 424 L722 333 L281 323 L281 427 L112 298 Z" /><glyph glyph-name="uni540C" unicode="&#x540c;" d="M117 -60 L95 558 L249 561 L226 -57 L117 -60 ZM321 71 L300 223 L433 226 L424 170 L566 173 L555 259 L327 254 L327 356 L697 365 L672 80 L321 71 ZM529 -79 L539 42 L777 23 L754 606 L123 591 L123 737 L913 756 L882 -68 L529 -79 ZM286 409 L286 523 L717 533 L717 419 L286 409 Z" /><glyph glyph-name="uni540E" unicode="&#x540e;" d="M339 -69 L313 223 L472 227 L458 56 L757 64 L751 152 L500 146 L500 257 L907 267 L874 -55 L339 -69 ZM168 -54 L58 -19 L138 185 L132 657 L805 810 L919 659 L291 592 L281 468 L936 484 L936 360 L272 342 L257 151 L168 -54 Z" /><glyph glyph-name="uni5411" unicode="&#x5411;" d="M118 -65 L95 438 L250 442 L227 -62 L118 -65 ZM333 93 L312 294 L442 298 L431 187 L575 190 L565 330 L341 325 L341 423 L700 431 L676 100 L333 93 ZM137 455 L57 507 L270 812 L419 749 L336 662 L913 676 L881 -66 L524 -79 L534 46 L780 23 L760 525 L266 514 L266 589 L137 455 Z" /><glyph glyph-name="uni5413" unicode="&#x5413;" d="M100 29 L83 486 L218 490 L204 149 L280 150 L269 522 L113 520 L113 676 L403 682 L383 35 L100 29 ZM585 -78 L560 561 L719 565 L694 -75 L585 -78 ZM843 87 L726 300 L797 367 L951 203 L843 87 ZM426 610 L426 767 L927 778 L927 622 L426 610 Z" /><glyph glyph-name="uni5417" unicode="&#x5417;" d="M99 29 L83 487 L214 490 L200 149 L283 150 L272 522 L113 520 L113 676 L402 682 L383 35 L99 29 ZM416 79 L416 183 L734 190 L734 86 L416 79 ZM538 -80 L548 40 L784 28 L772 246 L471 239 L454 348 L499 570 L654 574 L574 351 L927 359 L902 -66 L538 -80 ZM743 390 L754 628 L446 620 L446 768 L925 778 L866 393 L743 390 Z" /><glyph glyph-name="uni5427" unicode="&#x5427;" d="M97 29 L83 487 L205 490 L195 149 L269 151 L260 522 L113 520 L113 676 L382 682 L365 35 L97 29 ZM445 -69 L420 584 L564 587 L555 347 L635 349 L623 573 L734 577 L721 351 L805 353 L793 627 L449 619 L449 767 L927 778 L902 228 L551 220 L545 54 L826 61 L814 164 L950 167 L925 -57 L445 -69 Z" /><glyph glyph-name="uni542C" unicode="&#x542c;" d="M710 -79 L686 225 L847 229 L823 -75 L710 -79 ZM100 29 L83 487 L217 490 L202 149 L286 151 L274 522 L113 520 L113 676 L407 682 L387 35 L100 29 ZM500 -70 L397 -32 L466 191 L460 669 L844 810 L933 646 L617 594 L605 418 L936 426 L936 278 L596 270 L589 160 L500 -70 Z" /><glyph glyph-name="uni5438" unicode="&#x5438;" d="M495 -60 L400 -37 L470 568 L615 546 L495 -60 ZM102 30 L84 488 L212 490 L199 151 L282 152 L272 523 L114 521 L114 678 L399 684 L379 37 L102 30 ZM616 -81 L536 -27 L656 100 L567 181 L623 246 L712 190 L766 303 L658 301 L643 426 L737 626 L437 620 L437 768 L909 777 L909 631 L776 430 L925 433 L925 308 L808 129 L950 40 L857 -80 L733 32 L616 -81 Z" /><glyph glyph-name="uni5440" unicode="&#x5440;" d="M480 -53 L398 -6 L512 223 L646 166 L480 -53 ZM102 30 L84 487 L212 490 L200 151 L290 152 L280 523 L114 521 L114 678 L408 684 L388 37 L102 30 ZM440 612 L440 768 L931 778 L931 622 L872 621 L863 389 L936 391 L936 252 L857 250 L845 -67 L585 -80 L596 58 L734 48 L727 247 L463 242 L445 374 L481 559 L632 564 L565 383 L722 386 L714 617 L440 612 Z" /><glyph glyph-name="uni544A" unicode="&#x544a;" d="M176 -69 L147 200 L319 204 L302 56 L697 66 L688 135 L350 125 L350 233 L859 246 L828 -51 L176 -69 ZM148 442 L55 501 L199 784 L354 738 L304 666 L426 669 L418 806 L589 809 L581 672 L859 679 L859 532 L573 525 L567 423 L936 433 L936 309 L81 286 L81 410 L441 419 L435 521 L256 517 L256 597 L148 442 Z" /><glyph glyph-name="uni5450" unicode="&#x5450;" d="M426 -69 L407 403 L543 407 L524 -65 L426 -69 ZM95 29 L84 488 L199 490 L190 149 L269 150 L258 522 L113 520 L113 676 L383 682 L363 35 L95 29 ZM628 101 L549 132 L610 440 L437 437 L437 594 L608 597 L592 805 L757 808 L740 599 L925 602 L903 -71 L654 -79 L662 60 L806 43 L793 443 L719 442 L672 266 Q690 293 722 294 Q779 292 783 235 Q780 176 722 171 Q667 177 664 233 L664 235 L628 101 Z" /><glyph glyph-name="uni5457" unicode="&#x5457;" d="M99 29 L83 488 L211 490 L200 149 L276 150 L265 522 L113 520 L113 676 L393 682 L373 35 L99 29 ZM504 -81 L422 -17 L615 203 L601 547 L748 550 L729 150 L504 -81 ZM836 -73 Q753 -65 744 14 Q752 95 836 103 Q921 95 929 14 Q920 -65 836 -73 ZM441 182 L427 582 L554 585 L539 187 L441 182 ZM808 188 L795 621 L457 614 L457 770 L926 779 L906 193 L808 188 Z" /><glyph glyph-name="uni5458" unicode="&#x5458;" d="M104 79 L86 310 L243 313 L225 82 L104 79 ZM131 -82 L85 3 L425 105 L412 176 L593 180 L571 30 L131 -82 ZM774 -79 Q693 -77 683 -9 Q687 62 770 68 Q859 65 863 -9 Q854 -75 774 -79 ZM785 86 L774 219 L271 211 L271 342 L926 353 L905 89 L785 86 ZM170 396 L144 713 L316 717 L300 507 L700 515 L690 610 L347 602 L347 746 L862 757 L833 410 L170 396 Z" /><glyph glyph-name="uni5462" unicode="&#x5462;" d="M604 -66 L583 296 L721 300 L715 184 L861 281 L931 186 L734 114 L713 154 L708 50 L833 53 L822 119 L950 121 L933 -60 L604 -66 ZM100 29 L83 488 L207 491 L193 149 L270 150 L259 522 L113 520 L113 676 L382 682 L362 35 L100 29 ZM507 -60 L405 -46 L437 747 L581 736 L556 467 L787 472 L779 627 L610 623 L610 771 L924 777 L896 354 L545 346 L507 -60 Z" /><glyph glyph-name="uni5468" unicode="&#x5468;" d="M304 36 L284 142 L415 146 L409 114 L581 117 L574 175 L313 170 L313 241 L714 249 L691 45 L304 36 ZM158 -64 L56 -41 L108 144 L93 567 L245 554 L229 122 L158 -64 ZM310 420 L310 505 L430 508 L425 566 L587 568 L581 513 L686 516 L686 431 L572 428 L567 376 L733 380 L733 286 L269 276 L269 370 L444 374 L439 424 L310 420 ZM536 -79 L546 23 L778 13 L757 615 L122 600 L122 737 L915 756 L886 -68 L536 -79 Z" /><glyph glyph-name="uni547C" unicode="&#x547c;" d="M845 351 L771 386 L816 540 L933 488 L845 351 ZM482 366 Q412 373 405 442 Q412 509 482 516 Q554 510 561 442 Q555 372 482 366 ZM448 575 L408 674 L854 808 L935 657 L448 575 ZM100 29 L83 488 L210 490 L196 149 L271 151 L260 522 L113 520 L113 676 L386 682 L366 35 L100 29 ZM404 168 L404 315 L596 319 L583 571 L750 575 L737 322 L936 326 L936 179 L730 174 L719 -60 L473 -79 L482 59 L610 48 L603 172 L404 168 Z" /><glyph glyph-name="uni547D" unicode="&#x547d;" d="M505 623 L311 494 L680 502 L505 623 ZM549 -79 L526 183 L667 187 L644 -75 L549 -79 ZM692 -24 L696 113 L772 96 L760 219 L555 214 L555 324 L909 332 L867 -9 L692 -24 ZM143 -42 L109 167 L249 171 L237 71 L361 74 L353 200 L139 195 L139 304 L491 312 L461 -36 L143 -42 ZM110 359 L56 444 L500 809 L683 742 L592 681 L952 508 L872 369 L722 473 L722 388 L273 378 L273 468 L110 359 Z" /><glyph glyph-name="uni548C" unicode="&#x548c;" d="M425 33 Q359 36 354 101 Q358 167 425 171 Q491 165 497 102 Q490 40 425 33 ZM131 1 L58 29 L103 205 L215 162 L131 1 ZM94 593 L59 693 L392 805 L473 654 L94 593 ZM72 264 L72 402 L208 404 L203 582 L352 585 L346 407 L475 409 L475 271 L341 268 L329 -75 L224 -78 L213 266 L72 264 ZM520 -12 L496 676 L655 679 L634 131 L778 134 L762 551 L682 549 L682 709 L920 715 L893 -3 L520 -12 Z" /><glyph glyph-name="uni54A8" unicode="&#x54a8;" d="M890 272 L668 364 L708 442 L951 392 L890 272 ZM298 560 L58 618 L117 756 L339 650 L298 560 ZM144 284 L56 400 L295 522 L363 451 L144 284 ZM382 262 L313 340 L532 452 L524 540 L690 543 L675 407 L382 262 ZM423 492 L331 536 L467 812 L629 775 L586 716 L924 725 L924 587 L862 467 L761 479 L783 582 L527 575 L527 635 L423 492 ZM171 -69 L146 216 L317 220 L301 60 L697 68 L689 145 L349 137 L349 249 L860 261 L831 -53 L171 -69 Z" /><glyph glyph-name="uni54C1" unicode="&#x54c1;" d="M96 -65 L83 126 L217 129 L213 54 L352 58 L347 163 L109 158 L109 276 L485 284 L463 -57 L96 -65 ZM536 -55 L524 127 L657 130 L654 64 L792 68 L787 164 L550 159 L550 277 L925 285 L904 -47 L536 -55 ZM181 332 L156 711 L327 715 L311 460 L690 469 L680 604 L359 597 L359 744 L852 755 L824 346 L181 332 Z" /><glyph glyph-name="uni54CD" unicode="&#x54cd;" d="M566 94 L559 300 L633 303 L629 188 L682 189 L677 332 L579 330 L579 429 L756 433 L746 98 L566 94 ZM410 -71 L392 438 L530 442 L512 -67 L410 -71 ZM99 29 L83 487 L200 490 L186 149 L256 151 L245 522 L113 520 L113 676 L361 682 L342 35 L99 29 ZM441 456 L365 516 L521 812 L670 757 L595 658 L924 666 L899 -69 L651 -79 L660 38 L803 24 L788 515 L571 510 L571 627 L441 456 Z" /><glyph glyph-name="uni54D2" unicode="&#x54d2;" d="M866 139 Q793 146 786 216 Q793 287 866 294 Q940 287 947 216 Q940 146 866 139 ZM482 557 Q401 564 396 638 Q401 711 482 717 Q560 711 565 638 Q560 563 482 557 ZM591 409 L591 565 L700 567 L692 805 L839 808 L828 570 L936 573 L936 417 L821 414 L678 104 L589 142 L700 411 L591 409 ZM448 -80 L364 -43 L440 125 L437 341 L389 339 L389 495 L560 499 L560 343 L542 94 L540 91 L622 58 L951 49 L916 -82 L608 -47 L493 3 L448 -80 ZM97 29 L83 487 L202 490 L192 148 L261 150 L252 522 L113 520 L113 676 L370 682 L353 34 L97 29 Z" /><glyph glyph-name="uni54D4" unicode="&#x54d4;" d="M421 294 L393 806 L552 808 L545 676 L634 677 L634 530 L537 528 L531 422 L642 451 L648 314 L421 294 ZM409 52 L409 192 L584 196 L579 259 L740 263 L736 199 L924 204 L924 64 L729 59 L722 -75 L609 -79 L597 56 L409 52 ZM687 309 L658 784 L813 787 L805 651 L867 755 L950 676 L827 551 L801 584 L792 435 L847 437 L840 528 L950 531 L933 316 L687 309 ZM100 29 L84 488 L201 490 L190 149 L263 150 L254 522 L111 520 L111 676 L372 682 L354 35 L100 29 Z" /><glyph glyph-name="uni54E6" unicode="&#x54e6;" d="M417 591 L378 684 L584 808 L656 687 L417 591 ZM97 29 L83 487 L200 490 L189 149 L253 150 L245 522 L113 520 L113 676 L361 682 L344 35 L97 29 ZM385 323 L385 469 L485 471 L480 590 L628 594 L623 474 L696 476 L669 755 L816 778 L819 658 Q841 685 876 686 Q941 681 947 620 Q941 557 876 552 Q843 553 821 578 L823 479 L936 482 L936 335 L827 332 L830 233 L887 275 L938 164 L833 102 L835 42 L929 79 L947 -47 L750 -80 L737 46 L665 4 L631 86 L727 157 L710 330 L616 328 L613 253 L676 265 L688 182 L609 156 L599 -68 L400 -79 L410 45 L505 32 L501 121 L397 88 L373 209 L496 232 L492 325 L385 323 Z" /><glyph glyph-name="uni54E9" unicode="&#x54e9;" d="M97 29 L83 488 L203 490 L192 149 L267 151 L258 522 L113 520 L113 676 L378 682 L361 35 L97 29 ZM556 426 L556 504 L597 505 L594 598 L732 602 L729 507 L771 508 L771 431 L726 430 L724 363 L804 365 L790 638 L442 631 L442 768 L922 778 L892 266 L721 262 L719 203 L894 207 L894 120 L716 116 L714 57 L936 62 L936 -57 L389 -69 L389 50 L612 55 L610 114 L432 110 L432 197 L607 201 L605 259 L433 255 L413 598 L537 602 L523 360 L601 361 L599 427 L556 426 Z" /><glyph glyph-name="uni54EA" unicode="&#x54ea;" d="M488 389 L481 297 L546 298 L544 390 L488 389 ZM684 -53 L671 541 L782 545 L769 -50 L684 -53 ZM792 70 L798 202 L847 191 L853 297 L798 391 L830 576 L698 574 L698 730 L936 737 L936 577 L886 425 L949 332 L910 78 L792 70 ZM97 38 L83 487 L185 490 L176 158 L238 159 L232 522 L114 520 L114 676 L333 682 L317 44 L97 38 ZM354 388 L354 499 L400 499 L404 596 L504 583 L497 501 L541 501 L539 629 L355 625 L355 772 L649 778 L628 -61 L482 -81 L492 54 L551 40 L548 178 L471 176 L452 -60 L378 -47 L387 175 L350 174 L350 294 L392 295 L395 388 L354 388 Z" /><glyph glyph-name="uni5520" unicode="&#x5520;" d="M415 257 L387 448 L949 460 L918 262 L805 259 L788 340 L545 336 L528 260 L415 257 ZM405 545 L405 692 L485 693 L475 806 L637 808 L627 696 L720 698 L712 785 L874 788 L865 701 L936 703 L936 556 L851 554 L845 493 L741 491 L735 552 L613 549 L608 486 L504 483 L498 547 L405 545 ZM482 -81 L408 -20 L545 100 L410 97 L410 209 L595 213 L585 293 L737 296 L725 216 L918 220 L883 -66 L642 -79 L650 37 L779 20 L771 105 L702 103 L482 -81 ZM99 29 L84 490 L201 493 L191 149 L252 151 L243 522 L114 520 L114 676 L369 682 L350 35 L99 29 Z" /><glyph glyph-name="uni5524" unicode="&#x5524;" d="M848 -78 Q780 -72 773 -8 Q780 56 848 62 Q915 56 922 -8 Q915 -72 848 -78 ZM99 29 L83 490 L211 493 L198 149 L268 150 L257 522 L112 520 L112 676 L385 682 L366 35 L99 29 ZM472 477 L393 529 L546 809 L684 760 L627 684 L861 690 L861 544 L806 480 L908 482 L892 209 L936 210 L936 90 L699 84 L473 -79 L407 -20 L536 81 L392 78 L392 198 L435 199 L425 446 L544 448 L535 201 L603 202 L595 309 L735 312 L726 205 L792 207 L786 350 L571 346 L571 475 L674 477 L704 539 L555 536 L555 588 L472 477 Z" /><glyph glyph-name="uni5546" unicode="&#x5546;" d="M675 181 L526 254 L561 308 L737 269 L675 181 ZM120 -71 L95 275 L254 278 L229 -68 L120 -71 ZM309 -38 L292 147 L429 150 L417 49 L596 50 L589 98 L454 96 L454 171 L720 175 L698 -34 L309 -38 ZM71 538 L71 676 L411 681 Q404 698 404 718 Q412 802 501 809 Q589 801 597 718 Q597 700 590 683 L936 689 L936 551 L71 538 ZM312 176 L274 233 L417 308 L124 305 L124 430 L244 432 Q242 441 242 452 Q250 520 321 524 Q395 521 403 450 Q403 442 401 434 L600 437 L628 528 L783 502 L735 439 L913 442 L886 -65 L719 -79 L727 40 L777 33 L754 313 L425 308 L486 228 L312 176 Z" /><glyph glyph-name="uni554A" unicode="&#x554a;" d="M98 29 L83 490 L191 493 L176 149 L236 150 L224 522 L112 520 L112 676 L332 682 L312 35 L98 29 ZM362 -35 L348 513 L450 517 L436 -32 L362 -35 ZM459 65 L466 203 L519 192 L509 261 L465 339 L496 547 L376 544 L376 702 L586 707 L586 550 L535 374 L593 291 L559 74 L459 65 ZM621 109 L609 358 L671 360 L666 229 L702 230 L695 388 L626 387 L626 518 L766 521 L746 112 L621 109 ZM635 -78 L644 48 L793 35 L785 595 L912 598 L881 -58 L635 -78 ZM611 622 L611 770 L936 779 L936 631 L611 622 Z" /><glyph glyph-name="uni5566" unicode="&#x5566;" d="M703 169 Q634 175 629 241 Q636 308 703 315 Q772 309 778 241 Q773 174 703 169 ZM775 587 Q695 595 687 671 Q695 747 775 755 Q855 747 863 671 Q855 595 775 587 ZM622 400 L622 556 L930 562 L930 406 L622 400 ZM603 -45 L603 99 L777 102 L812 361 L929 331 L871 104 L936 105 L936 -38 L603 -45 ZM97 29 L85 487 L191 490 L182 149 L239 150 L230 522 L114 520 L114 676 L346 682 L326 35 L97 29 ZM376 464 L376 621 L426 622 L421 805 L557 808 L552 626 L599 627 L599 470 L547 468 L543 330 L601 338 L613 233 L540 210 L532 -68 L366 -78 L374 59 L442 50 L438 179 L377 161 L356 306 L434 316 L430 465 L376 464 Z" /><glyph glyph-name="uni5582" unicode="&#x5582;" d="M846 -82 L645 95 L703 142 L815 74 Q813 82 813 91 Q818 139 868 144 Q919 139 924 91 Q921 47 878 37 L948 -5 L846 -82 ZM378 151 L378 254 L936 266 L936 163 L588 155 L569 18 L693 43 L703 -69 L463 -80 L447 152 L378 151 ZM100 29 L84 488 L204 490 L190 149 L259 150 L248 522 L113 520 L113 676 L368 682 L349 35 L100 29 ZM562 454 L562 522 L604 523 L598 576 L713 580 L707 526 L752 528 L752 460 L700 458 L695 402 L793 404 L782 637 L427 629 L427 768 L918 778 L897 311 L417 301 L398 594 L534 597 L521 398 L617 400 L611 455 L562 454 Z" /><glyph glyph-name="uni558A" unicode="&#x558a;" d="M871 669 Q819 674 814 724 Q819 774 871 779 Q923 774 928 724 Q923 674 871 669 ZM546 321 L546 423 L709 427 L709 324 L546 321 ZM545 -1 L540 146 L607 148 L604 88 L636 89 L633 178 L560 176 L560 267 L710 270 L699 3 L545 -1 ZM481 -63 L393 -48 L404 468 L533 461 L481 -63 ZM100 29 L83 488 L206 490 L192 149 L264 150 L253 522 L113 520 L113 676 L376 682 L356 35 L100 29 ZM433 490 L433 638 L685 643 L660 791 L800 808 L815 646 L936 649 L936 501 L829 498 L849 276 L898 368 L951 259 L864 120 L871 47 L927 95 L951 -20 L810 -80 L794 10 L738 -80 L682 -41 L773 132 L711 496 L433 490 Z" /><glyph glyph-name="uni559C" unicode="&#x559c;" d="M603 289 L333 285 Q399 275 403 230 L593 233 L603 289 ZM181 -69 L156 84 L316 87 L300 5 L699 9 L690 44 L343 40 L343 105 L850 112 L819 -59 L181 -69 ZM92 597 L92 726 L426 731 L420 805 L591 808 L584 733 L919 738 L919 609 L573 604 L569 563 L861 568 L861 478 L139 467 L139 557 L441 561 L438 602 L92 597 ZM183 283 L158 417 L318 420 L303 348 L698 352 L689 382 L345 380 L345 440 L848 447 L818 292 L622 289 L762 268 L734 234 L936 237 L936 144 L71 133 L71 226 L257 228 Q260 276 322 285 L183 283 Z" /><glyph glyph-name="uni55B5" unicode="&#x55b5;" d="M408 516 L408 655 L486 657 L477 805 L630 808 L620 660 L718 662 L710 777 L863 781 L855 665 L935 667 L935 528 L846 526 L840 430 L734 428 L727 523 L612 520 L606 427 L501 424 L495 518 L408 516 ZM99 29 L83 490 L212 493 L198 149 L268 150 L257 522 L112 520 L112 676 L385 682 L366 35 L99 29 ZM569 102 L569 177 L616 178 L611 245 L719 248 L714 180 L766 181 L766 107 L708 105 L704 42 L794 44 L784 277 L444 269 L444 381 L922 392 L899 -57 L433 -68 L415 239 L552 242 L537 38 L626 40 L621 103 L569 102 Z" /><glyph glyph-name="uni55C5" unicode="&#x55c5;" d="M859 -82 L679 -18 L726 36 L942 0 L859 -82 ZM385 50 L385 151 L577 155 L571 219 L721 222 L714 158 L762 159 Q772 213 827 217 Q878 213 890 163 L936 164 L936 54 L682 52 L453 -80 L391 -23 L519 51 L385 50 ZM97 29 L84 488 L203 490 L193 149 L256 150 L246 522 L114 520 L114 676 L374 682 L354 35 L97 29 ZM422 239 L407 516 L544 519 L543 496 L747 501 L747 450 L541 445 L540 410 L747 416 L747 355 L537 351 L536 316 L783 322 L777 549 L437 543 L437 677 L593 680 Q577 701 577 728 Q584 801 660 808 Q738 801 745 728 Q745 705 730 683 L923 687 L899 249 L422 239 Z" /><glyph glyph-name="uni55E6" unicode="&#x55e6;" d="M449 -67 L378 -30 L432 80 L548 34 L449 -67 ZM862 -59 Q798 -53 792 9 Q797 71 862 76 Q928 71 933 9 Q927 -54 862 -59 ZM545 -80 L559 31 L613 23 L594 91 L751 95 L722 -67 L545 -80 ZM442 247 L426 312 L605 428 L741 398 L571 324 L689 332 L762 372 L899 319 L586 193 L785 210 L774 241 L849 271 L948 136 L834 84 L815 132 L426 100 L403 177 L546 254 L442 247 ZM581 805 L745 810 L738 730 L896 734 L896 590 L727 587 L723 543 L946 548 L913 388 L791 384 L782 440 L543 435 L535 389 L413 385 L382 535 L604 540 L600 584 L431 581 L431 722 L588 726 L581 805 ZM111 676 L374 682 L354 34 L98 28 L82 480 L216 482 L202 159 L250 160 L239 507 L111 505 L111 676 Z" /><glyph glyph-name="uni5634" unicode="&#x5634;" d="M694 305 L562 302 L562 341 L455 267 L665 272 L694 305 ZM492 -69 L410 -60 L403 152 L524 144 L492 -69 ZM545 87 L545 135 L609 136 L608 160 L717 163 L715 139 L783 141 L783 93 L712 91 L711 64 L783 66 L783 13 L707 11 L703 -58 L622 -60 L617 9 L545 7 L545 61 L614 62 L612 88 L545 87 ZM698 453 L676 789 L801 792 L796 714 L882 776 L937 682 L791 628 L788 563 L869 564 L861 622 L950 625 L940 458 L698 453 ZM379 425 L358 542 L394 545 L384 702 L470 704 L460 550 L499 553 L485 805 L604 808 L599 733 L651 735 L651 621 L593 619 L589 559 L661 565 L672 484 L379 425 ZM97 29 L83 488 L194 490 L183 149 L248 150 L240 522 L113 520 L113 676 L351 682 L334 35 L97 29 ZM400 229 L355 296 L545 456 L691 430 L641 396 L842 401 L842 309 L789 275 L924 278 L902 -71 L732 -80 L741 -5 L816 -10 L803 190 L431 181 L431 250 L400 229 Z" /><glyph glyph-name="uni5668" unicode="&#x5668;" d="M544 478 L515 604 L663 607 L651 563 L775 566 L766 632 L544 627 L544 753 L912 762 L883 485 L544 478 ZM122 470 L93 624 L241 627 L230 563 L352 565 L343 652 L123 647 L123 770 L491 779 L459 478 L122 470 ZM70 280 L70 393 L423 400 L417 458 L590 462 L583 404 L671 405 Q675 457 741 462 Q802 457 808 408 L936 411 L936 299 L700 294 L949 216 L905 104 L865 122 L843 -51 L531 -58 L508 58 L651 60 L636 18 L737 20 L729 84 L537 80 L537 166 L756 171 L511 281 L267 174 L499 180 L471 -62 L158 -69 L135 64 L279 66 L264 9 L365 11 L357 90 L164 86 L164 129 L107 104 L58 182 L306 285 L70 280 Z" /><glyph glyph-name="uni56DB" unicode="&#x56db;" d="M379 129 L289 146 L340 528 L479 506 L379 129 ZM124 -70 L93 559 L251 562 L233 53 L772 64 L757 605 L123 592 L123 739 L915 755 L881 -55 L124 -70 ZM552 121 L524 535 L664 539 L646 234 L731 237 L731 125 L552 121 Z" /><glyph glyph-name="uni56DE" unicode="&#x56de;" d="M329 138 L307 361 L436 365 L425 241 L565 243 L554 397 L336 393 L336 503 L697 510 L665 145 L329 138 ZM120 -69 L94 565 L240 567 L229 50 L777 61 L766 609 L122 597 L122 742 L915 759 L886 -52 L120 -69 Z" /><glyph glyph-name="uni56E0" unicode="&#x56e0;" d="M637 101 Q563 108 556 179 Q563 249 637 256 Q709 249 716 179 Q709 108 637 101 ZM284 311 L284 444 L432 446 L426 560 L583 563 L570 449 L725 452 L725 320 L536 316 L394 88 L295 129 L400 313 L284 311 ZM119 -69 L93 562 L243 564 L232 52 L774 63 L764 607 L123 594 L123 742 L915 759 L886 -52 L119 -69 Z" /><glyph glyph-name="uni56F0" unicode="&#x56f0;" d="M664 134 Q597 140 591 203 Q597 266 664 272 Q730 266 736 203 Q730 140 664 134 ZM337 104 L261 136 L307 291 L419 252 L337 104 ZM282 333 L282 459 L430 462 L425 573 L584 576 L578 465 L727 468 L727 342 L572 339 L559 79 L450 77 L437 336 L282 333 ZM120 -69 L93 577 L240 579 L229 37 L776 47 L766 622 L123 609 L123 739 L915 756 L885 -54 L120 -69 Z" /><glyph glyph-name="uni56F4" unicode="&#x56f4;" d="M282 419 L282 517 L400 519 L398 563 L554 568 L552 523 L727 527 L727 429 L547 425 L545 384 L681 384 L681 318 L542 315 L540 276 L714 278 L690 85 L565 82 L571 166 L616 157 L608 195 L536 194 L530 72 L420 68 L414 193 L276 192 L276 273 L410 274 L409 312 L314 310 L314 384 L406 384 L404 421 L282 419 ZM120 -69 L93 567 L250 570 L229 31 L776 43 L753 609 L118 594 L123 737 L915 756 L885 -52 L120 -69 Z" /><glyph glyph-name="uni56FD" unicode="&#x56fd;" d="M281 440 L281 555 L725 564 L725 449 L281 440 ZM328 263 L328 357 L438 359 L434 417 L572 420 L567 362 L678 365 L678 271 L559 268 L553 193 L597 194 L597 197 Q602 245 651 250 Q701 246 706 196 L744 197 L744 98 L262 88 L262 187 L452 191 L446 265 L328 263 ZM120 -69 L93 580 L242 582 L229 36 L776 47 L764 623 L122 612 L122 742 L916 756 L885 -52 L120 -69 Z" /><glyph glyph-name="uni56FE" unicode="&#x56fe;" d="M314 385 L250 435 L394 606 L537 580 L485 534 L717 539 L717 433 L614 335 L757 299 L702 186 L518 257 L307 173 L264 244 L407 301 L320 335 L364 398 L505 362 L568 430 L413 427 L413 471 L314 385 ZM632 44 L777 47 L766 623 L123 610 L123 740 L915 756 L886 -54 L119 -69 L93 578 L240 580 L228 36 L631 44 L326 91 L359 157 L457 150 Q450 162 450 178 Q455 229 506 234 Q558 229 563 178 Q563 159 551 144 L683 136 L632 44 Z" /><glyph glyph-name="uni5706" unicode="&#x5706;" d="M284 160 L273 240 L395 240 L385 170 L284 160 ZM308 46 L272 108 L440 152 L432 230 L568 230 L554 109 L308 46 ZM672 49 Q619 54 614 100 Q620 147 672 152 Q723 147 728 100 Q723 53 672 49 ZM616 168 L602 270 L297 264 L297 349 L741 356 L718 168 L616 168 ZM119 -69 L94 585 L235 588 L223 27 L782 38 L771 633 L123 621 L123 742 L915 756 L886 -52 L119 -69 ZM333 380 L313 558 L447 558 L435 448 L572 448 L570 484 L480 485 L480 577 L708 586 L687 388 L333 380 Z" /><glyph glyph-name="uni5708" unicode="&#x5708;" d="M503 321 L425 280 L577 282 L503 321 ZM648 508 L591 530 L630 596 L716 563 L648 508 ZM357 508 Q312 510 309 550 Q312 589 357 592 Q403 589 407 550 Q404 510 357 508 ZM354 55 L333 195 L458 198 L446 114 L623 118 L619 139 L732 143 L716 63 L354 55 ZM284 416 L284 496 L449 498 L443 605 L567 610 L560 500 L722 503 L722 424 L555 421 L553 389 L753 392 L753 330 L617 328 L763 281 L715 208 L668 233 L654 148 L491 141 L497 195 L570 186 L565 217 L366 214 L366 248 L276 201 L243 254 L365 324 L254 322 L254 385 L456 388 L454 419 L284 416 ZM119 -69 L94 594 L235 598 L223 21 L782 32 L771 640 L123 628 L123 742 L915 756 L886 -52 L119 -69 Z" /><glyph glyph-name="uni5723" unicode="&#x5723;" d="M412 300 L593 304 L583 227 L858 234 L858 132 L571 127 L562 50 L936 59 L936 -54 L71 -73 L71 40 L442 48 L433 125 L146 120 L146 218 L421 224 L412 300 ZM97 246 L57 334 L330 416 L153 468 L198 551 L500 477 L651 603 L132 593 L132 741 L876 757 L876 587 L662 437 L950 367 L871 258 L510 363 L97 246 Z" /><glyph glyph-name="uni5728" unicode="&#x5728;" d="M415 -66 L415 64 L617 68 L608 186 L465 183 L465 309 L599 312 L590 430 L762 440 L753 315 L902 319 L902 193 L743 189 L734 71 L935 75 L935 -54 L415 -66 ZM71 498 L71 637 L349 641 L451 808 L638 765 L547 644 L936 650 L936 511 L441 503 L285 297 L394 301 L370 -74 L252 -79 L232 227 L134 97 L57 161 L264 501 L71 498 Z" /><glyph glyph-name="uni5730" unicode="&#x5730;" d="M354 521 L354 359 L284 357 L278 192 L383 223 L407 135 L100 -30 L54 126 L175 162 L169 354 L68 352 L68 514 L163 516 L155 735 L299 738 L290 519 L354 521 ZM771 153 L775 272 L817 263 L808 410 L746 396 L736 110 L644 105 L636 372 L570 358 L563 57 L824 62 L818 125 L950 132 L932 -59 L458 -69 L448 331 L392 319 L392 471 L445 483 L440 695 L579 700 L574 512 L632 525 L625 804 L762 808 L752 552 L924 591 L899 169 L771 153 Z" /><glyph glyph-name="uni573A" unicode="&#x573a;" d="M441 -54 L366 -24 L445 230 L564 191 L441 -54 ZM590 -73 L510 -43 L613 230 L736 191 L590 -73 ZM145 727 L303 730 L297 519 L387 520 L388 365 L292 362 L287 195 L375 223 L398 132 L101 -31 L58 123 L162 156 L156 359 L73 357 L73 518 L151 518 L145 727 ZM672 -79 L681 78 L778 62 L759 277 L454 271 L433 390 L688 627 L388 622 L388 769 L922 778 L922 632 L618 394 L933 400 L893 -63 L672 -79 Z" /><glyph glyph-name="uni573E" unicode="&#x573e;" d="M487 -66 L393 -43 L457 570 L609 548 L487 -66 ZM154 724 L308 730 L300 519 L382 520 L389 363 L295 360 L289 192 L379 220 L403 129 L101 -34 L58 121 L173 156 L166 357 L76 355 L70 518 L161 518 L154 724 ZM613 -80 L533 -27 L659 98 L566 182 L627 248 L717 191 L768 300 L649 298 L634 422 L740 620 L418 614 L418 761 L909 770 L909 625 L766 426 L925 429 L925 305 L813 132 L950 47 L857 -80 L734 30 L613 -80 Z" /><glyph glyph-name="uni5757" unicode="&#x5757;" d="M781 462 L698 460 L694 301 L788 303 L781 462 ZM823 -77 Q734 -69 725 16 Q734 103 823 111 Q911 102 920 16 Q911 -68 823 -77 ZM380 521 L380 360 L287 358 L281 193 L359 218 L383 128 L101 -34 L58 121 L169 156 L162 355 L76 354 L76 515 L157 516 L150 728 L300 734 L292 519 L380 521 ZM391 152 L391 295 L557 298 L553 457 L414 455 L414 608 L549 610 L544 803 L707 808 L702 613 L917 618 L888 306 L936 307 L936 164 L668 158 L495 -79 L393 -27 L518 155 L391 152 Z" /><glyph glyph-name="uni575A" unicode="&#x575a;" d="M104 358 L88 718 L222 723 L207 362 L104 358 ZM300 306 L276 803 L445 808 L422 309 L300 306 ZM540 308 L476 386 L600 458 L489 516 L544 594 L703 535 L762 627 L493 623 L493 768 L925 775 L925 626 L824 491 L951 444 L887 311 L709 402 L540 308 ZM135 122 L135 231 L423 237 L418 289 L589 294 L584 241 L871 247 L871 138 L573 131 L566 61 L936 69 L936 -50 L71 -69 L71 50 L440 58 L433 128 L135 122 Z" /><glyph glyph-name="uni5783" unicode="&#x5783;" d="M547 154 Q459 162 450 244 Q458 329 547 337 Q636 330 644 244 Q635 162 547 154 ZM666 613 Q573 621 564 710 Q573 799 666 807 Q760 800 768 710 Q759 621 666 613 ZM414 431 L414 587 L915 596 L915 440 L414 431 ZM394 -69 L394 68 L653 73 L745 392 L899 336 L762 75 L936 78 L936 -59 L394 -69 ZM376 522 L376 358 L287 356 L281 189 L381 220 L407 131 L101 -34 L58 121 L169 155 L162 354 L74 352 L74 516 L157 517 L150 724 L300 730 L292 520 L376 522 Z" /><glyph glyph-name="uni57DF" unicode="&#x57df;" d="M859 658 Q797 663 791 723 Q797 783 859 789 Q920 783 926 723 Q920 664 859 658 ZM391 -56 L355 70 L651 117 L669 45 L391 -56 ZM393 143 L384 301 L492 304 L489 240 L549 242 L545 331 L409 329 L409 423 L656 428 L640 148 L393 143 ZM340 520 L340 358 L276 356 L271 186 L349 211 L373 119 L102 -36 L58 119 L156 150 L149 353 L76 352 L76 514 L143 515 L136 730 L289 736 L282 518 L340 520 ZM373 473 L373 620 L634 625 L599 783 L746 808 L772 628 L935 632 L935 485 L794 482 L818 321 L875 434 L957 330 L844 147 L855 76 L915 117 L953 -14 L793 -82 L769 25 L709 -73 L639 -34 L738 163 L667 479 L373 473 Z" /><glyph glyph-name="uni582A" unicode="&#x582a;" d="M642 46 L570 76 L624 180 L732 140 L642 46 ZM813 56 Q758 61 753 115 Q758 171 813 176 Q870 171 875 115 Q870 61 813 56 ZM702 444 L573 441 L571 399 L702 402 L702 343 L568 340 L566 304 L740 308 L727 560 L578 557 L575 496 L702 499 L702 444 ZM442 -68 L411 167 L560 170 L540 31 L925 39 L925 -57 L442 -68 ZM358 522 L358 360 L278 358 L271 174 L349 194 L373 101 L102 -34 L58 120 L163 146 L155 356 L68 354 L68 516 L149 517 L142 734 L292 738 L284 520 L358 522 ZM380 553 L380 683 L447 684 L442 805 L590 808 L584 687 L721 690 L717 775 L864 778 L860 693 L925 695 L925 565 L853 563 L841 310 L936 312 L936 210 L366 198 L366 299 L465 301 L453 554 L380 553 Z" /><glyph glyph-name="uni585E" unicode="&#x585e;" d="M430 427 L427 393 L578 396 L575 430 L430 427 ZM422 325 L419 291 L586 295 L583 329 L422 325 ZM578 173 L573 139 L741 143 L647 199 L406 194 L284 132 L433 135 L429 169 L578 173 ZM96 527 L57 697 L424 705 Q415 722 414 740 Q422 802 503 808 Q584 802 592 740 Q592 724 583 709 L950 718 L911 545 L801 542 L790 584 L218 569 L205 530 L96 527 ZM133 420 L133 500 L296 504 L292 550 L441 554 L437 507 L568 510 L565 544 L714 548 L711 514 L874 518 L874 438 L704 433 L701 399 L826 402 L826 334 L696 331 L693 297 L936 303 L936 206 L801 203 L951 152 L885 58 L771 126 L771 72 L564 67 L559 30 L895 38 L895 -50 L111 -69 L111 20 L448 27 L443 64 L235 59 L235 107 L94 36 L56 111 L195 189 L71 186 L71 283 L314 288 L311 323 L181 320 L181 387 L305 390 L302 424 L133 420 Z" /><glyph glyph-name="uni58EB" unicode="&#x58eb;" d="M940 514 L940 355 L574 347 L565 78 L887 86 L887 -51 L120 -69 L120 68 L438 75 L429 344 L68 336 L68 495 L424 503 L414 806 L590 810 L580 506 L940 514 Z" /><glyph glyph-name="uni5904" unicode="&#x5904;" d="M816 230 L746 488 L828 533 L934 315 L816 230 ZM592 102 L568 805 L727 808 L703 106 L592 102 ZM151 344 L59 382 L183 757 L341 717 L270 577 L522 585 L522 430 L438 211 L360 150 L451 92 L950 51 L906 -80 L387 -8 L267 77 L123 -36 L58 43 L176 141 L70 217 L132 296 L262 212 L332 270 L371 424 L245 421 L245 528 L151 344 Z" /><glyph glyph-name="uni5907" unicode="&#x5907;" d="M522 375 L240 291 L792 303 L522 375 ZM137 481 L61 546 L320 810 L491 777 L415 714 L861 723 L861 586 L660 458 L950 407 L893 276 L843 289 L814 -54 L183 -69 L155 164 L314 168 L294 32 L439 35 L433 72 L348 70 L348 126 L425 127 L420 162 L584 166 L578 130 L652 132 L652 78 L570 76 L565 38 L702 42 L685 205 L184 194 L184 274 L106 251 L56 330 L359 418 L188 464 L250 531 L492 488 L623 580 L330 573 L330 642 L137 481 Z" /><glyph glyph-name="uni590D" unicode="&#x590d;" d="M134 526 L58 590 L269 810 L433 771 L354 706 L926 715 L926 594 L280 584 L280 645 L134 526 ZM183 248 L149 508 L320 512 L308 419 L683 424 L683 368 L301 363 L297 325 L728 331 L712 465 L347 460 L347 541 L883 548 L844 258 L340 250 L475 226 L423 198 L814 205 L814 118 L675 51 L950 20 L892 -79 L526 -11 L93 -81 L59 -13 L336 24 L232 43 L264 98 L524 68 L620 114 L350 110 L350 159 L141 47 L87 109 L308 250 L183 248 Z" /><glyph glyph-name="uni5916" unicode="&#x5916;" d="M201 201 Q126 208 119 278 Q126 348 201 355 Q275 348 282 278 Q275 208 201 201 ZM831 128 L757 406 L845 455 L952 214 L831 128 ZM596 -79 L568 805 L734 808 L706 -75 L596 -79 ZM153 367 L59 409 L182 757 L349 717 L283 599 L508 606 L508 455 L458 177 L137 -36 L71 36 L338 233 L362 450 L247 447 L247 535 L153 367 Z" /><glyph glyph-name="uni591A" unicode="&#x591a;" d="M384 810 L574 762 L494 705 L906 711 L906 563 L713 381 L398 343 L555 311 L491 272 L925 279 L925 152 L733 -25 L90 -79 L62 3 L313 31 Q311 40 311 50 Q316 123 394 129 Q464 127 473 55 L473 48 L640 67 L719 149 L371 144 L371 200 L173 81 L107 162 L365 339 L116 310 L84 401 L299 429 Q294 440 294 452 Q293 521 373 533 Q455 535 468 466 Q468 464 468 461 Q469 454 468 451 L625 472 L688 559 L370 555 L370 616 L194 490 L116 570 L384 810 Z" /><glyph glyph-name="uni591C" unicode="&#x591c;" d="M590 135 Q535 137 527 192 Q531 254 592 256 Q653 250 653 188 Q644 137 590 135 ZM169 -56 L202 203 L289 207 L323 -52 L169 -56 ZM123 170 L59 230 L247 479 L377 396 L123 170 ZM82 496 L82 644 L467 652 Q412 677 409 727 Q419 799 504 808 Q588 799 598 727 Q595 679 543 653 L927 662 L927 515 L517 505 L656 457 L614 410 L897 417 L897 291 L751 78 L950 34 L882 -80 L626 2 L416 -82 L372 -16 L515 38 L366 86 L402 156 L652 100 L750 281 L548 278 L548 337 L424 200 L344 250 L512 505 L82 496 Z" /><glyph glyph-name="uni5927" unicode="&#x5927;" d="M827 -79 L546 221 L627 288 L947 45 L827 -79 ZM71 352 L71 508 L428 516 L416 805 L587 808 L574 519 L936 527 L936 371 L550 362 L146 -79 L58 -13 L365 358 L71 352 Z" /><glyph glyph-name="uni5929" unicode="&#x5929;" d="M752 -65 Q659 -56 649 33 Q658 122 752 131 Q846 122 855 33 Q845 -55 752 -65 ZM122 584 L122 737 L887 755 L887 603 L122 584 ZM71 243 L71 385 L427 393 L416 554 L587 558 L576 396 L936 404 L936 263 L536 254 L177 -79 L93 -4 L345 249 L71 243 Z" /><glyph glyph-name="uni592A" unicode="&#x592a;" d="M469 -46 Q384 -38 376 43 Q384 123 469 131 Q555 124 563 43 Q555 -39 469 -46 ZM827 -79 L537 251 L618 318 L947 36 L827 -79 ZM80 366 L80 522 L429 530 L416 804 L587 807 L574 533 L927 541 L927 385 L539 376 L146 -79 L58 -13 L340 372 L80 366 Z" /><glyph glyph-name="uni5934" unicode="&#x5934;" d="M761 -76 Q670 -68 661 19 Q670 107 761 116 Q851 107 860 19 Q851 -67 761 -76 ZM394 542 L120 647 L208 775 L444 638 L394 542 ZM361 350 L74 436 L151 574 L412 444 L361 350 ZM71 167 L71 311 L501 320 L488 805 L659 808 L643 323 L936 330 L936 185 L593 177 L179 -79 L94 -4 L368 173 L71 167 Z" /><glyph glyph-name="uni5938" unicode="&#x5938;" d="M514 534 L377 453 L636 463 L514 534 ZM150 192 L150 303 L872 321 L872 210 L421 199 L362 149 L837 155 L810 -65 L378 -79 L388 23 L682 16 L675 68 L225 63 L206 142 L244 194 L150 192 ZM99 527 L99 665 L423 672 L416 806 L590 810 L581 676 L908 684 L908 545 L697 540 L951 433 L898 310 L689 432 L689 369 L335 357 L335 428 L106 293 L55 372 L313 532 L99 527 Z" /><glyph glyph-name="uni5947" unicode="&#x5947;" d="M726 379 Q652 385 644 451 Q652 515 726 522 Q801 515 809 451 Q801 386 726 379 ZM588 -81 L597 45 L703 29 L684 213 L850 217 L821 -69 L588 -81 ZM147 -53 L131 79 L270 83 L263 46 L420 47 L412 110 L168 106 L168 184 L562 192 L541 -48 L147 -53 ZM70 227 L70 348 L936 367 L936 246 L70 227 ZM82 529 L82 674 L424 681 L416 804 L590 808 L580 685 L925 693 L925 548 L559 540 L194 366 L138 443 L321 534 L82 529 Z" /><glyph glyph-name="uni594B" unicode="&#x594b;" d="M492 512 L284 374 L722 383 L514 513 L492 512 ZM70 503 L70 642 L424 650 L416 804 L590 809 L579 653 L935 661 L935 522 L697 517 L951 413 L899 273 L848 304 L824 -54 L186 -69 L157 234 L315 238 L296 55 L446 58 L441 112 L339 110 L339 177 L434 178 L428 241 L586 245 L579 181 L673 183 L673 118 L572 115 L566 61 L714 65 L695 276 L186 265 L186 309 L115 262 L56 337 L291 508 L70 503 Z" /><glyph glyph-name="uni5956" unicode="&#x5956;" d="M577 365 Q504 371 498 441 Q504 511 577 517 Q650 511 656 441 Q649 372 577 365 ZM170 530 Q93 537 86 610 Q93 683 170 690 Q247 683 254 610 Q247 537 170 530 ZM786 -76 Q706 -69 698 7 Q706 82 786 90 Q865 82 873 7 Q865 -68 786 -76 ZM113 299 L55 430 L285 493 L272 752 L427 756 L403 296 L296 293 L291 389 L113 299 ZM506 507 L434 555 L561 809 L721 770 L671 709 L912 714 L912 569 L819 390 L653 248 L566 306 L704 440 L749 563 L613 560 L613 638 L506 507 ZM70 95 L70 210 L423 217 L416 274 L590 277 L583 221 L936 229 L936 114 L551 105 L171 -80 L99 -10 L320 100 L70 95 Z" /><glyph glyph-name="uni5957" unicode="&#x5957;" d="M460 547 L341 472 L671 475 L570 549 L460 547 ZM462 81 L309 32 L655 51 L622 83 L694 112 L317 105 L462 81 ZM96 101 L96 190 L245 192 L223 367 L385 371 L383 349 L774 353 L774 303 L380 300 L378 271 L774 275 L774 228 L374 223 L372 195 L910 205 L910 116 L718 112 L895 6 L795 -80 L745 -32 L185 -70 L152 16 L273 104 L96 101 ZM88 541 L88 679 L428 684 L419 805 L590 809 L579 687 L919 693 L919 555 L734 552 L949 442 L865 334 L779 397 L254 391 L254 416 L113 327 L55 400 L264 544 L88 541 Z" /><glyph glyph-name="uni5965" unicode="&#x5965;" d="M351 434 Q306 438 301 483 Q305 527 351 531 Q397 527 402 483 Q397 439 351 434 ZM650 434 L591 466 L636 549 L728 502 L650 434 ZM323 202 L280 249 L376 323 L438 253 L323 202 ZM684 203 L577 275 L614 324 L744 280 L684 203 ZM141 199 L124 530 L266 533 L250 202 L141 199 ZM720 424 L720 339 L559 335 L551 226 L465 222 L456 333 L297 330 L297 415 L449 418 L440 536 L576 540 L566 420 L720 424 ZM72 53 L72 161 L423 166 L418 201 L591 205 L586 169 L935 175 L935 68 L770 65 Q832 52 837 -7 Q829 -73 760 -80 Q692 -73 684 -7 Q689 50 747 65 L571 61 L155 -81 L101 -22 L320 57 L72 53 ZM135 559 L70 624 L270 810 L425 772 L329 701 L894 710 L876 210 L766 206 L750 572 L215 564 L215 618 L135 559 Z" /><glyph glyph-name="uni5973" unicode="&#x5973;" d="M634 231 L629 394 L408 389 L344 225 L503 180 L634 231 ZM71 382 L71 531 L285 535 L365 807 L552 758 L466 539 L936 549 L936 401 L796 398 L767 166 L676 132 L950 56 L872 -78 L485 61 L112 -78 L57 9 L333 115 L179 171 L242 386 L71 382 Z" /><glyph glyph-name="uni597D" unicode="&#x597d;" d="M306 361 L246 359 L217 249 L267 217 L309 256 L306 361 ZM131 -36 L56 20 L188 143 L104 219 L124 357 L71 356 L71 513 L147 514 L183 756 L342 728 L287 517 L441 521 L441 364 L424 199 L366 153 L477 82 L376 -25 L267 73 L131 -36 ZM467 260 L467 398 L626 401 L624 451 L731 618 L483 612 L483 768 L940 779 L940 621 L786 463 L783 405 L936 409 L936 270 L776 266 L760 -69 L500 -79 L508 71 L645 56 L634 263 L467 260 Z" /><glyph glyph-name="uni5982" unicode="&#x5982;" d="M329 383 L265 381 L229 228 L281 190 L331 237 L329 383 ZM526 -12 L502 525 L661 528 L640 131 L781 134 L764 555 L527 552 L527 709 L922 715 L896 -3 L526 -12 ZM138 -78 L57 -18 L199 114 L108 198 L134 378 L71 377 L71 535 L157 536 L196 807 L359 778 L303 539 L469 543 L469 386 L453 179 L379 119 L504 29 L404 -71 L282 39 L138 -78 Z" /><glyph glyph-name="uni5986" unicode="&#x5986;" d="M151 393 Q70 400 63 476 Q70 553 151 560 Q231 553 238 476 Q231 400 151 393 ZM732 231 L725 395 L632 393 L581 224 L664 182 L732 231 ZM124 49 L56 175 L253 274 L236 732 L394 736 L366 -31 L265 -35 L258 157 L124 49 ZM416 389 L416 547 L534 549 L586 809 L750 781 L680 552 L936 557 L936 400 L865 398 L850 176 L775 125 L951 36 L850 -81 L662 48 L473 -79 L402 -7 L568 113 L461 187 L502 391 L416 389 Z" /><glyph glyph-name="uni59CB" unicode="&#x59cb;" d="M293 363 L233 361 L205 251 L253 215 L295 257 L293 363 ZM484 -70 L461 225 L616 229 L603 63 L763 66 L757 156 L640 153 L640 266 L912 273 L885 -60 L484 -70 ZM473 310 L439 436 L610 808 L772 738 L569 453 L758 479 L719 595 L803 642 L951 377 L820 294 L800 352 L473 310 ZM128 -37 L57 19 L180 142 L96 221 L115 359 L71 358 L71 513 L137 514 L172 754 L325 726 L272 517 L418 521 L418 366 L403 200 L343 148 L447 72 L356 -22 L255 72 L128 -37 Z" /><glyph glyph-name="uni59D4" unicode="&#x59d4;" d="M544 89 L560 92 L608 162 L387 157 L344 116 L544 89 ZM838 359 Q833 294 757 288 Q679 293 675 358 Q678 420 751 430 Q833 427 838 359 ZM95 278 L56 348 L283 438 L377 357 L95 278 ZM159 605 L130 705 L823 786 L885 646 L159 605 ZM71 436 L71 548 L424 556 L420 599 L586 604 L582 559 L936 567 L936 455 L571 447 L561 332 L445 329 L434 444 L71 436 ZM71 149 L71 246 L308 252 L367 324 L541 305 L490 256 L937 268 L937 171 L785 167 L699 68 L951 35 L882 -80 L532 -2 L94 -80 L57 0 L310 46 L166 78 L227 153 L71 149 Z" /><glyph glyph-name="uni59E8" unicode="&#x59e8;" d="M788 405 L724 403 L722 357 L794 359 L788 405 ZM535 282 L528 236 L600 237 L599 283 L535 282 ZM271 361 L224 360 L201 249 L240 218 L272 253 L271 361 ZM886 -80 L634 13 L664 64 L950 14 L886 -80 ZM128 -37 L59 17 L174 144 L103 219 L118 358 L71 357 L71 513 L136 514 L163 755 L299 727 L256 517 L388 520 L388 364 L366 193 L323 151 L430 67 L333 -22 L242 73 L128 -37 ZM409 550 L409 697 L588 700 L585 805 L745 808 L739 704 L936 708 L936 561 L732 557 L729 504 L917 509 L890 289 L718 285 L716 240 L942 245 L912 68 L729 60 L735 127 L817 121 L811 153 L701 151 L468 -73 L394 -22 L567 148 L436 145 L413 350 L597 354 L596 400 L431 397 L431 498 L593 501 L592 554 L409 550 Z" /><glyph glyph-name="uni5A01" unicode="&#x5a01;" d="M492 159 L397 157 L377 113 L449 85 L492 159 ZM156 -38 L59 -12 L106 170 L114 470 L261 462 L221 150 L156 -38 ZM286 335 L286 449 L601 455 L601 341 L358 336 L465 309 L444 263 L602 266 L602 164 L536 51 L616 21 L564 -67 L435 -4 L283 -73 L235 -17 L350 36 L280 71 L303 156 L257 155 L257 259 L331 260 L352 336 L286 335 ZM143 496 L143 640 L571 648 L535 786 L689 809 L718 651 L787 653 Q751 673 750 714 Q756 777 824 782 Q892 776 899 714 Q898 676 864 654 L936 656 L936 512 L744 508 L780 314 L838 436 L939 356 L811 142 L828 53 L919 120 L951 -17 L765 -80 L738 19 L687 -68 L617 -27 L703 153 L609 505 L143 496 Z" /><glyph glyph-name="uni5A07" unicode="&#x5a07;" d="M283 362 L232 360 L205 250 L246 216 L284 256 L283 362 ZM592 -81 L494 -59 L527 193 L666 163 L592 -81 ZM719 -79 L702 185 L843 185 L825 -75 L719 -79 ZM472 586 L439 692 L842 809 L931 667 L472 586 ZM433 330 L433 478 L608 482 L597 585 L762 589 L751 485 L935 489 L935 341 L840 339 L955 266 L883 148 L697 336 L667 335 L467 144 L410 224 L514 332 L433 330 ZM125 -37 L58 18 L177 143 L101 220 L119 358 L71 357 L71 513 L140 514 L173 753 L320 725 L270 517 L406 521 L406 365 L392 199 L332 146 L436 62 L341 -20 L248 72 L125 -37 Z" /><glyph glyph-name="uni5B50" unicode="&#x5b50;" d="M70 237 L70 383 L422 390 L418 448 L595 603 L173 591 L173 740 L849 756 L849 608 L597 408 L596 394 L936 402 L936 255 L587 247 L567 -62 L234 -80 L242 68 L444 53 L431 244 L70 237 Z" /><glyph glyph-name="uni5B58" unicode="&#x5b58;" d="M376 97 L376 208 L579 212 L576 241 L664 306 L430 301 L430 429 L865 439 L865 311 L748 230 L746 216 L927 220 L927 109 L736 104 L720 -67 L476 -79 L485 43 L600 28 L591 101 L376 97 ZM71 490 L71 637 L336 643 L462 811 L630 752 L534 647 L936 656 L936 509 L398 497 L253 338 L353 341 L330 -65 L212 -69 L192 272 L120 193 L55 268 L224 493 L71 490 Z" /><glyph glyph-name="uni5B69" unicode="&#x5b69;" d="M506 -83 L448 -18 L855 266 L953 173 L798 84 L951 36 L859 -81 L701 29 L506 -83 ZM79 183 L56 334 L177 347 L173 424 L219 555 L80 552 L80 709 L389 715 L389 562 L309 430 L306 361 L403 372 L417 276 L302 244 L293 -23 L84 -34 L93 111 L190 89 L184 212 L79 183 ZM412 485 L412 637 L632 642 Q580 664 578 719 Q586 798 670 806 Q755 798 763 719 Q762 667 713 644 L936 649 L936 497 L597 489 L741 462 L577 365 L731 377 L787 422 L898 338 L447 41 L391 105 L593 267 L452 256 L432 353 L571 488 L412 485 Z" /><glyph glyph-name="uni5B83" unicode="&#x5b83;" d="M199 -68 L170 346 L341 350 L320 57 L795 62 L781 172 L936 176 L912 -58 L199 -68 ZM413 115 L373 203 L745 358 L846 243 L413 115 ZM99 366 L59 609 L950 628 L907 377 L792 374 L780 472 L229 459 L214 369 L99 366 ZM502 623 Q413 631 405 716 Q413 801 502 809 Q591 801 599 716 Q591 631 502 623 Z" /><glyph glyph-name="uni5B87" unicode="&#x5b87;" d="M126 298 L126 410 L881 426 L881 314 L126 298 ZM71 89 L71 210 L426 218 L422 283 L590 287 L586 221 L936 229 L936 108 L578 100 L567 -69 L258 -80 L264 38 L439 25 L434 97 L71 89 ZM99 439 L59 636 L435 644 Q405 671 405 712 Q414 797 503 806 Q593 798 602 712 Q602 675 574 647 L950 655 L907 453 L792 449 L780 514 L229 502 L214 443 L99 439 Z" /><glyph glyph-name="uni5B89" unicode="&#x5b89;" d="M389 222 L349 163 L545 121 L613 227 L389 222 ZM99 390 L59 624 L452 632 Q406 662 405 713 Q413 798 503 806 Q594 798 602 713 Q601 664 558 634 L950 643 L907 403 L792 400 L780 495 L229 483 L214 393 L99 390 ZM81 215 L81 335 L292 339 L355 463 L527 427 L471 343 L927 354 L927 234 L794 231 L682 92 L951 35 L883 -80 L522 19 L94 -80 L56 1 L346 68 L178 115 L230 218 L81 215 Z" /><glyph glyph-name="uni5B8C" unicode="&#x5b8c;" d="M97 -80 L56 0 L350 125 L449 24 L97 -80 ZM541 -69 L508 115 L675 119 L654 35 L813 37 L806 81 L950 87 L928 -62 L541 -69 ZM153 303 L153 407 L855 422 L855 318 L153 303 ZM81 136 L81 249 L927 268 L927 155 L81 136 ZM99 442 L59 637 L471 646 Q407 664 405 725 Q412 798 503 807 Q594 804 602 725 Q602 668 542 647 L950 656 L907 450 L792 445 L780 511 L229 499 L214 446 L99 442 Z" /><glyph glyph-name="uni5B98" unicode="&#x5b98;" d="M717 81 L286 75 L283 27 L725 32 L717 81 ZM99 441 L59 635 L477 644 Q408 661 405 725 Q412 798 503 807 Q594 804 602 725 Q601 664 535 646 L950 655 L907 461 L792 458 L780 516 L229 503 L214 444 L99 441 ZM161 -69 L137 397 L308 400 L299 268 L700 274 L693 326 L335 322 L335 430 L849 436 L828 202 L294 194 L291 153 L875 161 L854 -58 L161 -69 Z" /><glyph glyph-name="uni5B99" unicode="&#x5b99;" d="M732 263 L570 259 L566 184 L705 188 L705 106 L561 102 L558 33 L738 37 L732 263 ZM99 418 L59 636 L475 645 Q408 662 405 725 Q412 798 503 807 Q594 804 602 725 Q601 666 538 646 L950 655 L907 434 L792 430 L780 505 L229 492 L214 422 L99 418 ZM301 96 L301 177 L437 180 L433 256 L307 254 L307 365 L428 367 L423 461 L581 465 L576 370 L885 377 L848 -55 L156 -69 L122 332 L280 337 L267 28 L445 31 L441 99 L301 96 Z" /><glyph glyph-name="uni5B9A" unicode="&#x5b9a;" d="M90 283 L90 394 L918 410 L918 298 L90 283 ZM99 437 L59 637 L471 646 Q407 664 405 725 Q412 798 503 807 Q594 804 602 725 Q602 668 542 647 L950 656 L907 450 L792 447 L780 511 L229 498 L214 441 L99 437 ZM127 -80 L56 -30 L200 230 L344 174 L278 97 L395 52 L454 51 L433 256 L604 260 L598 201 L859 206 L859 118 L589 112 L583 50 L950 47 L905 -80 L344 -38 L213 20 L127 -80 Z" /><glyph glyph-name="uni5B9E" unicode="&#x5b9e;" d="M457 331 L221 386 L290 468 L490 393 L457 331 ZM388 236 L123 265 L191 349 L421 298 L388 236 ZM770 -78 Q692 -71 684 -1 Q692 70 770 77 Q846 70 854 -1 Q846 -71 770 -78 ZM503 646 Q410 650 405 725 Q412 798 503 807 Q594 804 602 725 Q600 650 503 646 ZM99 418 L59 632 L950 651 L907 424 L792 421 L780 506 L229 493 L214 421 L99 418 ZM82 93 L82 208 L527 218 L510 465 L677 469 L651 221 L926 228 L926 113 L623 106 L184 -80 L131 -7 L381 100 L82 93 Z" /><glyph glyph-name="uni5BA2" unicode="&#x5ba2;" d="M190 -70 L158 121 L330 125 L309 15 L694 22 L676 74 L358 68 L358 148 L847 158 L813 -59 L190 -70 ZM99 485 L59 647 L447 655 Q406 680 405 725 Q412 798 503 807 Q594 804 602 725 Q603 681 565 658 L950 666 L907 490 L792 487 L780 550 L229 537 L214 489 L99 485 ZM125 282 L66 344 L323 524 L502 498 L403 441 L862 450 L862 358 L699 285 L953 259 L899 156 L521 218 L94 126 L53 198 L310 253 L185 274 L248 332 L506 305 L618 352 L322 346 L322 395 L125 282 Z" /><glyph glyph-name="uni5BA3" unicode="&#x5ba3;" d="M86 365 L86 460 L923 474 L923 378 L86 365 ZM81 -68 L81 27 L927 40 L927 -55 L81 -68 ZM99 492 L59 651 L441 659 Q406 681 405 725 Q412 798 503 807 Q594 804 602 725 Q603 687 571 662 L950 670 L907 497 L792 495 L780 541 L229 528 L214 494 L99 492 ZM180 63 L156 308 L305 311 L295 224 L679 229 L679 181 L290 175 L287 142 L719 148 L705 266 L332 262 L332 332 L851 341 L826 74 L180 63 Z" /><glyph glyph-name="uni5BA4" unicode="&#x5ba4;" d="M100 517 L59 681 L416 688 Q407 705 407 726 Q414 800 505 807 Q595 804 602 726 Q602 707 595 692 L950 700 L907 532 L796 530 L785 570 L224 558 L209 519 L100 517 ZM164 76 L164 156 L418 161 L412 202 L594 206 L588 165 L842 171 L842 91 L577 85 L570 39 L927 47 L927 -53 L82 -72 L82 28 L436 36 L429 82 L164 76 ZM125 395 L125 492 L882 507 L882 410 L400 400 L540 374 L346 307 L654 318 L620 344 L680 393 L905 298 L818 194 L761 237 L170 216 L147 299 L317 399 L125 395 Z" /><glyph glyph-name="uni5BB3" unicode="&#x5bb3;" d="M99 493 L59 654 L436 662 Q405 684 405 725 Q412 798 503 807 Q594 804 602 725 Q603 689 575 665 L950 673 L907 498 L796 495 L785 545 L224 532 L209 496 L99 493 ZM114 368 L114 464 L426 468 L423 509 L594 513 L591 471 L893 475 L893 380 L585 375 L583 344 L852 348 L852 294 L579 290 L577 259 L927 265 L927 193 L572 187 L570 153 L862 157 L834 -59 L166 -69 L141 52 L312 55 L299 20 L699 24 L695 85 L170 78 L170 147 L447 151 L445 185 L81 180 L81 252 L440 257 L438 288 L155 284 L155 337 L434 341 L432 373 L114 368 Z" /><glyph glyph-name="uni5BB6" unicode="&#x5bb6;" d="M91 37 L54 103 L261 197 L331 130 L91 37 ZM806 142 Q732 145 724 217 Q729 292 806 296 Q881 292 887 220 Q881 146 806 142 ZM875 -53 L636 78 L683 144 L952 73 L875 -53 ZM99 481 L59 654 L437 662 Q406 685 405 726 Q412 799 503 808 Q594 805 602 726 Q603 688 574 665 L950 673 L907 490 L796 487 L785 545 L224 533 L209 484 L99 481 ZM117 327 L117 447 L905 458 L905 338 L459 331 L560 303 L385 254 L625 258 L600 -70 L359 -80 L368 17 L112 -75 L69 -10 L360 113 L448 46 L374 19 L484 10 L465 142 L338 140 L338 240 L98 173 L67 251 L302 329 L117 327 Z" /><glyph glyph-name="uni5BB9" unicode="&#x5bb9;" d="M875 308 L561 458 L603 519 L927 428 L875 308 ZM120 292 L80 367 L378 526 L492 444 L120 292 ZM361 99 L361 190 L719 197 L505 284 L226 163 L334 165 L317 25 L689 33 L676 106 L361 99 ZM99 475 L59 668 L423 676 Q405 697 405 726 Q412 800 502 807 Q593 804 601 726 Q601 699 586 679 L950 687 L906 489 L791 485 L780 550 L229 538 L214 479 L99 475 ZM100 108 L55 185 L539 434 L659 351 L606 328 L954 242 L906 122 L830 153 L807 -56 L199 -69 L176 141 L100 108 Z" /><glyph glyph-name="uni5BF9" unicode="&#x5bf9;" d="M581 167 Q490 175 481 258 Q490 340 581 348 Q672 340 681 258 Q672 175 581 167 ZM138 -33 L60 24 L185 233 L69 393 L125 468 L231 354 L274 554 L83 550 L83 706 L432 714 L432 563 L328 251 L461 109 L368 -17 L255 137 L138 -33 ZM453 442 L453 600 L719 606 L713 805 L882 808 L875 609 L936 611 L936 452 L870 450 L854 -64 L552 -79 L561 64 L738 48 L725 447 L453 442 Z" /><glyph glyph-name="uni5BFC" unicode="&#x5bfc;" d="M320 -75 Q242 -68 235 7 Q243 81 320 89 Q399 82 407 7 Q400 -68 320 -75 ZM71 87 L71 201 L637 213 L632 250 L803 254 L799 216 L936 219 L936 105 L788 102 L772 -66 L464 -80 L472 43 L662 25 L652 99 L71 87 ZM137 270 L110 583 L275 586 L269 523 L723 532 L718 613 L140 607 L140 746 L872 756 L845 449 L262 439 L257 376 L801 382 L793 419 L942 423 L920 282 L137 270 Z" /><glyph glyph-name="uni5C04" unicode="&#x5c04;" d="M627 145 Q546 152 538 230 Q546 308 627 315 Q708 307 716 230 Q708 153 627 145 ZM286 578 Q201 586 193 668 Q201 749 286 757 Q371 749 379 668 Q371 586 286 578 ZM524 400 L524 557 L740 561 L732 803 L891 807 L882 565 L936 566 L936 410 L877 408 L860 -63 L603 -78 L613 58 L758 46 L746 405 L524 400 ZM71 127 L71 220 L103 220 L89 395 L229 399 L226 368 L325 370 L325 330 L223 328 L220 299 L325 302 L325 258 L217 255 L214 223 L360 226 L352 425 L116 421 L116 561 L494 568 L470 -21 L256 -35 L265 73 L367 59 L364 133 L180 129 L288 99 L129 -35 L57 5 L156 129 L71 127 Z" /><glyph glyph-name="uni5C06" unicode="&#x5c06;" d="M545 405 Q479 410 474 474 Q480 537 545 542 Q610 537 616 474 Q611 410 545 405 ZM517 -51 Q450 -45 444 18 Q450 82 517 87 Q583 81 589 18 Q583 -45 517 -51 ZM402 114 L402 234 L724 242 L719 314 L877 318 L871 245 L936 247 L936 127 L861 125 L845 -65 L607 -79 L617 53 L740 40 L733 122 L402 114 ZM449 510 L389 573 L578 811 L729 754 L645 681 L913 688 L913 538 L784 352 L440 263 L408 350 L690 431 L751 535 L594 532 L594 636 L449 510 ZM153 389 Q69 396 61 476 Q69 557 153 564 Q200 563 227 526 L221 732 L375 736 L350 -31 L246 -35 L240 147 L124 49 L56 175 L236 269 L230 431 Q202 390 153 389 Z" /><glyph glyph-name="uni5C0F" unicode="&#x5c0f;" d="M827 191 Q723 201 713 300 Q723 399 827 409 Q932 400 941 300 Q931 200 827 191 ZM160 82 L59 122 L165 503 L341 447 L160 82 ZM247 -78 L256 87 L444 63 L415 805 L593 808 L558 -56 L247 -78 Z" /><glyph glyph-name="uni5C11" unicode="&#x5c11;" d="M116 -80 L60 5 L852 309 L951 170 L116 -80 ZM828 384 Q729 393 719 488 Q729 582 828 591 Q927 582 937 488 Q927 393 828 384 ZM157 256 L59 298 L174 623 L346 567 L157 256 ZM449 235 L418 805 L595 808 L563 238 L449 235 Z" /><glyph glyph-name="uni5C18" unicode="&#x5c18;" d="M795 462 Q705 471 696 561 Q705 649 795 657 Q885 649 894 561 Q886 470 795 462 ZM144 408 L69 475 L244 699 L379 599 L144 408 ZM451 408 L411 804 L583 807 L557 412 L451 408 ZM152 156 L148 275 L425 281 L416 370 L588 373 L582 285 L884 292 L880 172 L574 165 L568 78 L936 87 L936 -50 L71 -69 L71 68 L446 76 L437 162 L152 156 Z" /><glyph glyph-name="uni5C1A" unicode="&#x5c1a;" d="M734 556 L648 610 L759 775 L906 696 L734 556 ZM250 569 Q160 577 151 662 Q160 748 250 757 Q340 748 349 662 Q340 577 250 569 ZM112 -65 L86 345 L244 348 L219 -62 L112 -65 ZM311 62 L300 210 L429 213 L421 154 L585 157 L576 245 L321 240 L321 332 L706 340 L683 69 L311 62 ZM537 -77 L545 38 L779 26 L766 391 L109 377 L109 524 L443 531 L418 805 L589 808 L562 534 L922 542 L896 -60 L537 -77 Z" /><glyph glyph-name="uni5C31" unicode="&#x5c31;" d="M131 -11 L58 30 L110 157 L217 107 L131 -11 ZM462 7 Q398 12 393 73 Q398 134 462 139 Q526 134 531 73 Q526 12 462 7 ZM185 -35 L193 68 L249 59 L232 173 L380 177 L349 -26 L185 -35 ZM124 197 L103 413 L245 416 L233 290 L371 294 L364 354 L272 351 L272 436 L505 442 L480 207 L124 197 ZM79 471 L79 602 L242 606 Q214 633 214 669 Q222 746 303 754 Q385 746 393 669 Q393 635 368 610 L530 614 L530 483 L79 471 ZM552 369 L552 525 L638 527 L682 808 L826 786 L806 693 Q831 721 869 722 Q940 716 947 651 Q941 587 869 581 Q810 584 794 634 L772 530 L936 534 L936 378 L739 373 L723 300 L861 304 L841 61 L883 63 L876 155 L951 158 L933 -63 L751 -69 L723 298 L646 -68 L549 -46 L614 370 L552 369 Z" /><glyph glyph-name="uni5C3E" unicode="&#x5c3e;" d="M292 285 L275 369 L821 443 L914 343 L292 285 ZM321 170 L321 238 L502 255 L498 298 L666 302 L663 270 L861 289 L861 222 L656 202 L653 163 L929 188 L929 101 L645 75 L641 34 L825 37 L817 76 L949 80 L922 -61 L532 -69 L519 64 L254 41 L254 128 L511 151 L508 188 L321 170 ZM164 -36 L59 -15 L105 173 L129 712 L294 706 L273 536 L769 546 L758 612 L321 604 L321 742 L923 755 L897 457 L262 445 L228 155 L164 -36 Z" /><glyph glyph-name="uni5C42" unicode="&#x5c42;" d="M603 93 L463 34 L719 46 L678 83 L737 131 L520 126 L603 93 ZM335 272 L335 360 L859 372 L859 285 L335 272 ZM264 120 L264 225 L935 241 L935 136 L740 131 L946 29 L859 -77 L818 -41 L305 -65 L281 25 L427 124 L264 120 ZM164 -36 L59 -15 L105 173 L129 712 L294 706 L271 515 L769 527 L758 612 L321 603 L321 741 L923 755 L897 422 L258 408 L228 155 L164 -36 Z" /><glyph glyph-name="uni5C45" unicode="&#x5c45;" d="M524 394 L674 392 L668 346 L918 350 L922 246 L654 241 L647 183 L889 188 L860 -59 L334 -70 L309 74 L469 77 L454 27 L737 32 L731 100 L335 93 L335 177 L551 181 L544 239 L286 234 L280 340 L530 344 L524 394 ZM156 -36 L59 -12 L114 173 L129 712 L285 706 L265 516 L778 526 L767 612 L312 604 L312 742 L923 755 L897 430 L255 417 L228 155 L156 -36 Z" /><glyph glyph-name="uni5C4B" unicode="&#x5c4b;" d="M496 173 L658 178 L654 151 L847 157 L847 86 L644 80 L639 41 L919 49 L919 -49 L236 -68 L236 31 L517 38 L511 76 L310 70 L310 141 L500 146 L496 173 ZM268 342 L268 433 L894 448 L894 357 L502 347 L603 326 L457 264 L687 275 L656 300 L716 348 L909 265 L821 167 L774 204 L311 181 L288 255 L397 345 L268 342 ZM156 -36 L59 -15 L105 173 L122 712 L278 706 L262 558 L778 568 L766 630 L306 621 L306 742 L923 755 L897 489 L253 477 L219 155 L156 -36 Z" /><glyph glyph-name="uni5C4F" unicode="&#x5c4f;" d="M276 205 L276 313 L369 315 Q365 325 365 337 Q371 403 442 409 Q513 403 520 337 Q520 327 517 318 L626 320 L672 414 L820 377 L757 322 L892 325 L892 218 L276 205 ZM235 16 L235 122 L365 124 L380 195 L532 178 L510 127 L639 129 L634 185 L788 189 L783 132 L934 135 L934 29 L775 26 L767 -75 L657 -79 L648 23 L463 20 L421 -76 L326 -61 L342 18 L235 16 ZM156 -36 L59 -15 L105 173 L129 712 L284 706 L262 520 L778 529 L767 612 L312 604 L312 742 L923 755 L897 434 L250 421 L219 155 L156 -36 Z" /><glyph glyph-name="uni5C5E" unicode="&#x5c5e;" d="M643 75 L640 43 L677 45 L673 58 L707 77 L643 75 ZM761 278 L659 275 L656 241 L774 244 L761 278 ZM792 79 L719 77 L781 17 L750 -1 L809 -11 L792 79 ZM276 -60 L252 122 L393 126 L367 -57 L276 -60 ZM295 360 L278 435 L846 483 L914 391 L295 360 ZM312 173 L289 313 L425 317 L407 235 L529 238 L526 272 L452 271 L452 328 L521 329 L519 359 L666 362 L663 333 L897 339 L872 186 L651 181 L649 152 L932 159 L901 -70 L738 -75 L746 -4 L705 -29 L697 -8 L414 -60 L405 27 L545 36 L542 73 L419 70 L419 147 L536 149 L534 178 L312 173 ZM152 -36 L59 -15 L114 173 L130 712 L286 706 L270 575 L777 585 L766 638 L314 630 L314 742 L923 755 L897 501 L260 489 L219 147 L152 -36 Z" /><glyph glyph-name="uni5D07" unicode="&#x5d07;" d="M759 -76 Q685 -70 679 -7 Q682 58 756 68 Q835 63 838 -9 Q830 -70 759 -76 ZM104 -74 L64 -1 L237 66 L311 -30 L104 -74 ZM163 214 L163 289 L847 304 L847 229 L163 214 ZM82 75 L82 171 L926 188 L926 92 L582 85 L560 -69 L332 -79 L341 28 L437 19 L425 82 L82 75 ZM154 533 L126 732 L285 736 L265 664 L440 667 L424 805 L583 809 L566 670 L740 674 L722 755 L881 759 L851 548 L562 542 Q595 519 597 478 L597 472 L950 480 L907 323 L796 319 L785 360 L224 348 L210 310 L101 306 L59 461 L411 468 Q410 472 410 478 Q410 515 445 539 L154 533 Z" /><glyph glyph-name="uni5DE5" unicode="&#x5de5;" d="M113 544 L113 700 L896 717 L896 561 L113 544 ZM71 -22 L71 121 L442 128 L416 516 L587 520 L563 131 L936 139 L936 -4 L71 -22 Z" /><glyph glyph-name="uni5DE7" unicode="&#x5de7;" d="M83 545 L83 701 L409 708 L409 552 L83 545 ZM105 -30 L59 118 L189 146 L167 512 L325 516 L304 170 L438 199 L461 95 L105 -30 ZM442 622 L442 768 L936 779 L936 633 L588 625 L758 591 L618 366 L919 372 L889 -56 L536 -79 L545 70 L772 54 L759 241 L496 235 L478 349 L574 625 L442 622 Z" /><glyph glyph-name="uni5DE8" unicode="&#x5de8;" d="M730 365 L249 354 L246 255 L739 265 L730 365 ZM117 592 L117 739 L926 756 L926 608 L117 592 ZM112 -67 L87 557 L257 561 L253 462 L890 476 L865 163 L242 150 L239 53 L935 68 L935 -50 L112 -67 Z" /><glyph glyph-name="uni5DF1" unicode="&#x5df1;" d="M123 -70 L100 394 L735 407 L722 605 L82 591 L82 739 L895 756 L863 283 L265 271 L255 63 L787 75 L777 180 L948 184 L924 -53 L123 -70 Z" /><glyph glyph-name="uni5DF2" unicode="&#x5df2;" d="M122 -70 L97 461 L265 465 L258 347 L753 358 L740 605 L85 590 L85 738 L898 755 L873 234 L252 221 L243 54 L793 66 L782 171 L949 177 L931 -53 L122 -70 Z" /><glyph glyph-name="uni5DF4" unicode="&#x5df4;" d="M111 -70 L86 559 L245 562 L235 344 L441 349 L427 553 L574 557 L559 351 L766 356 L755 607 L111 594 L111 741 L904 757 L878 231 L230 218 L223 54 L802 66 L791 171 L950 175 L931 -52 L111 -70 Z" /><glyph glyph-name="uni5E03" unicode="&#x5e03;" d="M213 5 L191 181 L339 185 L317 9 L213 5 ZM71 498 L71 654 L360 660 L456 809 L616 755 L546 664 L935 673 L935 517 L424 505 L310 357 L464 360 L460 462 L622 466 L617 363 L905 369 L875 10 L664 -5 L673 139 L772 128 L757 228 L611 225 L598 -75 L484 -79 L470 222 L237 218 L237 262 L140 136 L57 192 L257 502 L71 498 Z" /><glyph glyph-name="uni5E08" unicode="&#x5e08;" d="M435 31 L416 283 L543 287 L529 35 L435 31 ZM100 234 L84 588 L188 593 L172 238 L100 234 ZM408 621 L408 769 L937 778 L937 631 L408 621 ZM131 -37 L59 28 L236 198 L226 731 L372 736 L348 151 L131 -37 ZM755 31 L762 170 L811 162 L803 323 L735 321 L716 -72 L618 -76 L605 317 L437 313 L437 455 L600 457 L596 590 L748 595 L741 460 L928 463 L904 41 L755 31 Z" /><glyph glyph-name="uni5E1A" unicode="&#x5e1a;" d="M164 -58 L140 56 L299 59 L274 -55 L164 -58 ZM98 197 L56 339 L951 360 L908 217 L798 213 L786 258 L222 244 L207 200 L98 197 ZM445 -79 L431 87 L158 81 L158 172 L424 178 L421 219 L579 223 L576 182 L867 189 L841 -45 L618 -54 L628 49 L719 38 L708 94 L569 90 L556 -75 L445 -79 ZM163 502 L163 562 L745 575 L742 623 L109 610 L109 739 L898 756 L870 398 L109 380 L109 463 L752 478 L749 515 L163 502 Z" /><glyph glyph-name="uni5E26" unicode="&#x5e26;" d="M163 -45 L138 83 L289 87 L264 -42 L163 -45 ZM99 256 L59 434 L950 452 L907 265 L788 261 L779 331 L226 320 L218 259 L99 256 ZM618 -48 L628 66 L729 55 L718 120 L572 118 L560 -75 L448 -79 L435 116 L167 112 L167 222 L428 226 L424 284 L583 288 L579 228 L868 233 L842 -36 L618 -48 ZM92 542 L92 681 L191 682 L186 774 L324 778 L318 683 L434 685 L425 804 L583 808 L574 686 L689 688 L685 764 L822 767 L817 689 L917 691 L917 553 L808 551 L804 479 L702 476 L697 550 L564 548 L559 471 L450 468 L444 547 L310 545 L306 471 L204 468 L199 543 L92 542 Z" /><glyph glyph-name="uni5E2E" unicode="&#x5e2e;" d="M146 -34 L122 82 L281 86 L255 -31 L146 -34 ZM720 317 L729 419 L822 409 L818 471 L750 500 L794 604 L570 600 L570 747 L933 755 L933 608 L863 534 L950 496 L907 326 L720 317 ZM71 596 L71 730 L217 733 L215 805 L373 809 L366 736 L518 740 L518 605 L352 601 L348 561 L472 565 L472 493 L341 489 L338 456 L518 460 L518 369 L317 364 L157 244 L86 295 L164 361 L71 359 L71 450 L227 453 L226 486 L118 483 L118 555 L223 558 L222 599 L71 596 ZM449 -79 L435 115 L143 111 L143 219 L427 223 L421 304 L567 307 L546 566 L696 570 L672 285 L583 282 L579 225 L884 230 L851 -29 L627 -43 L635 69 L742 58 L726 119 L571 117 L558 -75 L449 -79 Z" /><glyph glyph-name="uni5E38" unicode="&#x5e38;" d="M126 -51 L103 46 L261 50 L235 -48 L126 -51 ZM252 613 Q176 620 168 684 Q175 750 252 756 Q327 750 334 684 Q326 620 252 613 ZM189 223 L168 406 L319 410 L308 305 L692 310 L687 356 L347 353 L347 431 L838 438 L814 234 L189 223 ZM449 -79 L433 79 L132 75 L132 163 L424 167 L421 204 L585 206 L581 169 L904 174 L871 -48 L618 -58 L628 43 L762 32 L745 83 L573 81 L558 -75 L449 -79 ZM99 442 L58 606 L443 614 L421 805 L586 808 L563 616 L660 618 L691 766 L848 730 L771 620 L952 624 L910 458 L799 454 L785 489 L224 477 L209 445 L99 442 Z" /><glyph glyph-name="uni5E72" unicode="&#x5e72;" d="M121 590 L121 747 L886 756 L886 599 L121 590 ZM71 217 L71 363 L425 367 L417 556 L588 560 L579 369 L936 373 L936 227 L573 222 L560 -75 L444 -79 L431 221 L71 217 Z" /><glyph glyph-name="uni5E73" unicode="&#x5e73;" d="M237 331 Q148 338 140 423 Q149 507 237 515 Q323 506 332 423 Q323 340 237 331 ZM773 316 L667 352 L737 542 L900 481 L773 316 ZM120 590 L120 747 L886 757 L886 600 L120 590 ZM70 134 L70 277 L428 281 L417 558 L588 561 L576 283 L936 288 L936 145 L569 140 L560 -75 L444 -79 L434 138 L70 134 Z" /><glyph glyph-name="uni5E74" unicode="&#x5e74;" d="M159 364 L59 424 L288 809 L460 750 L407 681 L924 695 L924 547 L340 532 L340 596 L159 364 ZM394 283 L394 412 L501 414 L497 506 L669 510 L665 418 L848 422 L848 293 L659 289 L653 175 L935 182 L935 44 L647 38 L642 -75 L524 -79 L519 35 L71 25 L71 163 L227 166 L208 388 L367 392 L346 169 L512 172 L507 285 L394 283 Z" /><glyph glyph-name="uni5E76" unicode="&#x5e76;" d="M97 440 L97 596 L247 598 Q221 629 221 669 Q225 764 322 776 Q428 771 434 669 Q434 630 409 600 L570 602 L629 806 L807 751 L710 603 L910 606 L910 450 L97 440 ZM71 137 L71 271 L229 273 L248 416 L417 384 L391 275 L593 277 L589 407 L760 411 L755 279 L936 282 L936 147 L750 145 L742 -75 L606 -79 L598 143 L360 140 L308 -81 L187 -59 L212 138 L71 137 Z" /><glyph glyph-name="uni5E8A" unicode="&#x5e8a;" d="M820 -37 Q736 -29 728 51 Q736 132 820 140 Q905 132 913 51 Q905 -29 820 -37 ZM341 -58 L259 3 L372 166 L503 83 L341 -58 ZM160 -36 L59 -17 L119 164 L111 515 L270 507 L242 157 L160 -36 ZM142 543 L142 700 L423 706 L423 717 Q431 801 520 809 Q609 801 617 717 L617 710 L936 717 L936 561 L142 543 ZM297 222 L297 360 L536 365 L531 498 L694 502 L688 369 L924 375 L924 237 L682 231 L670 -75 L555 -79 L542 228 L297 222 Z" /><glyph glyph-name="uni5E93" unicode="&#x5e93;" d="M161 -36 L59 -15 L111 168 L123 535 L282 529 L229 152 L161 -36 ZM152 563 L152 701 L443 707 Q438 719 438 733 Q446 801 529 808 Q610 801 618 733 Q618 721 614 710 L936 717 L936 579 L152 563 ZM296 352 L296 465 L460 468 L503 542 L663 528 L619 471 L896 477 L896 365 L531 357 L455 258 L546 259 L543 316 L685 320 L681 261 L855 264 L855 174 L676 170 L673 116 L926 122 L926 11 L667 5 L663 -75 L564 -79 L559 3 L266 -3 L266 108 L554 114 L551 168 L354 164 L335 252 L394 354 L296 352 Z" /><glyph glyph-name="uni5E94" unicode="&#x5e94;" d="M598 235 Q517 243 509 320 Q517 399 599 405 Q680 398 688 319 Q678 242 598 235 ZM418 99 L290 394 L429 449 L511 134 L418 99 ZM164 -36 L59 -13 L110 168 L123 501 L285 494 L231 151 L164 -36 ZM152 532 L152 684 L460 690 Q455 703 455 720 Q461 800 548 809 Q634 801 642 720 Q642 706 637 694 L936 700 L936 548 L152 532 ZM277 -69 L277 74 L677 80 L770 487 L918 440 L777 81 L926 84 L926 -58 L277 -69 Z" /><glyph glyph-name="uni5E95" unicode="&#x5e95;" d="M152 -36 L59 -9 L124 164 L115 524 L260 517 L233 157 L152 -36 ZM462 173 L462 272 L590 274 L558 356 L706 374 L733 276 L911 279 L911 179 L760 177 L797 42 L908 108 L946 -20 L731 -80 L629 175 L462 173 ZM145 554 L145 701 L423 707 L423 717 Q431 801 520 809 Q609 801 617 717 L617 711 L936 718 L936 571 L145 554 ZM322 -25 L295 439 L814 543 L908 428 L445 372 L422 80 L582 145 L624 47 L577 36 Q645 30 649 -23 Q645 -80 574 -83 Q507 -77 503 -23 Q503 8 533 25 L322 -25 Z" /><glyph glyph-name="uni5E97" unicode="&#x5e97;" d="M168 -36 L59 -17 L113 173 L117 516 L279 513 L240 157 L168 -36 ZM147 545 L147 693 L427 699 Q425 708 425 717 Q433 801 523 809 Q611 801 619 717 Q619 714 618 709 Q618 705 618 703 L936 710 L936 562 L147 545 ZM318 -68 L288 115 L442 119 L422 50 L763 54 L747 155 L316 149 L316 262 L516 265 L495 520 L652 523 L646 451 L916 456 L916 344 L637 338 L631 267 L901 272 L868 -59 L318 -68 Z" /><glyph glyph-name="uni5EA6" unicode="&#x5ea6;" d="M695 331 L691 375 L529 371 L526 329 L695 331 ZM166 -36 L59 -17 L121 173 L112 527 L272 524 L245 157 L166 -36 ZM298 366 L298 466 L395 468 L391 535 L542 539 L536 471 L684 474 L680 523 L832 527 L828 478 L924 480 L924 380 L820 378 L811 266 L410 261 L402 368 L298 366 ZM143 555 L143 695 L424 701 Q423 708 423 717 Q431 801 520 809 Q609 801 617 717 Q617 711 616 705 L927 712 L927 573 L143 555 ZM287 -79 L253 -19 L453 21 L310 55 L361 106 L610 67 L705 133 L314 123 L314 222 L899 237 L899 131 L746 46 L950 14 L872 -79 L608 -16 L287 -79 Z" /><glyph glyph-name="uni5EA7" unicode="&#x5ea7;" d="M360 193 L281 225 L365 492 L490 443 L444 356 Q453 359 464 359 Q517 355 521 304 Q516 255 464 251 Q425 253 409 288 L360 193 ZM751 207 L672 238 L758 501 L885 452 L838 366 L941 295 L865 216 L807 309 L751 207 ZM165 -36 L59 -17 L108 173 L117 526 L279 522 L235 157 L165 -36 ZM147 555 L147 701 L423 707 L423 717 Q431 801 520 809 Q609 801 617 717 L617 711 L936 718 L936 572 L147 555 ZM319 89 L319 182 L537 187 L521 526 L668 530 L651 189 L884 195 L884 100 L646 95 L644 42 L931 48 L931 -57 L271 -70 L271 34 L545 40 L542 93 L319 89 Z" /><glyph glyph-name="uni5EF6" unicode="&#x5ef6;" d="M425 584 L390 682 L870 809 L940 659 L425 584 ZM430 113 L412 468 L547 471 L533 244 L626 246 L604 579 L766 583 L760 487 L916 491 L916 372 L752 367 L744 249 L927 254 L927 126 L430 113 ZM132 -38 L57 15 L128 88 L61 126 L100 204 L185 161 L226 281 L85 279 L85 414 L187 565 L71 563 L71 709 L362 715 L362 582 L220 417 L367 420 L367 286 L290 109 L368 71 L952 41 L907 -80 L322 -20 L220 37 L132 -38 Z" /><glyph glyph-name="uni5F00" unicode="&#x5f00;" d="M107 583 L107 739 L900 756 L900 599 L107 583 ZM71 209 L71 353 L224 356 L254 548 L417 526 L376 360 L611 365 L605 547 L771 551 L765 368 L936 372 L936 228 L760 224 L751 -76 L628 -80 L617 221 L340 215 L271 -68 L161 -45 L201 212 L71 209 Z" /><glyph glyph-name="uni5F04" unicode="&#x5f04;" d="M109 597 L109 738 L898 755 L898 614 L109 597 ZM71 68 L71 186 L249 189 L262 257 L431 236 L415 193 L589 196 L585 256 L756 260 L751 200 L936 204 L936 87 L741 82 L729 -75 L611 -79 L598 79 L370 74 L314 -73 L203 -43 L225 71 L71 68 ZM153 442 L153 525 L425 532 L421 574 L582 580 L577 536 L856 543 L856 461 L569 453 L564 394 L927 402 L927 296 L82 276 L82 383 L438 391 L432 449 L153 442 Z" /><glyph glyph-name="uni5F0F" unicode="&#x5f0f;" d="M800 615 Q715 623 707 704 Q715 785 800 793 Q887 785 895 704 Q887 623 800 615 ZM125 233 L125 360 L537 368 L537 242 L125 233 ZM105 -62 L79 81 L265 87 L247 210 L416 214 L397 92 L577 98 L591 0 L105 -62 ZM71 422 L71 569 L513 579 L454 767 L610 808 L667 583 L936 590 L936 442 L704 437 L796 75 L899 159 L951 9 L723 -81 L560 433 L71 422 Z" /><glyph glyph-name="uni5F15" unicode="&#x5f15;" d="M178 -35 L187 95 L426 74 L415 166 L112 160 L99 449 L420 455 L416 563 L82 556 L82 705 L581 715 L538 347 L241 341 L234 261 L572 268 L547 -24 L178 -35 ZM778 -78 L749 803 L919 808 L890 -75 L778 -78 Z" /><glyph glyph-name="uni5F20" unicode="&#x5f20;" d="M739 480 L662 534 L808 775 L935 690 L739 480 ZM860 -44 L665 188 L732 255 L952 73 L860 -44 ZM108 -34 L117 95 L269 69 L260 164 L95 162 L83 446 L267 449 L264 565 L71 561 L71 708 L414 715 L369 342 L217 338 L210 261 L401 264 L376 -24 L108 -34 ZM414 281 L414 436 L493 437 L482 804 L644 808 L631 440 L929 446 L929 291 L626 285 L618 45 L743 82 L758 -63 L509 -80 L498 282 L414 281 Z" /><glyph glyph-name="uni5F3A" unicode="&#x5f3a;" d="M810 271 L740 269 L736 196 L813 198 L810 271 ZM470 419 L450 598 L608 602 L597 520 L750 523 L746 636 L470 630 L470 769 L904 778 L875 427 L470 419 ZM108 -34 L117 95 L269 69 L260 164 L95 162 L83 446 L268 449 L264 564 L71 560 L71 708 L413 715 L371 342 L217 338 L210 261 L400 264 L375 -24 L108 -34 ZM447 87 L422 237 L542 240 L531 192 L609 193 L604 266 L446 263 L446 352 L598 355 L596 398 L749 402 L746 359 L922 363 L902 97 L729 93 L726 39 L818 42 L812 69 L886 85 L951 -38 L846 -80 L836 -39 L439 -80 L411 29 L619 35 L615 90 L447 87 Z" /><glyph glyph-name="uni5F53" unicode="&#x5f53;" d="M746 507 L643 561 L742 739 L908 657 L746 507 ZM240 520 Q144 528 136 619 Q144 710 240 718 Q336 710 344 619 Q336 528 240 520 ZM143 127 L143 236 L761 246 L757 330 L83 318 L83 465 L440 471 L417 805 L591 808 L568 474 L922 480 L896 -54 L83 -69 L83 54 L771 64 L767 139 L143 127 Z" /><glyph glyph-name="uni5F69" unicode="&#x5f69;" d="M325 412 Q257 419 250 484 Q256 550 325 556 Q393 549 399 484 Q392 419 325 412 ZM138 -56 L61 -14 L129 120 L249 62 L138 -56 ZM498 -46 Q427 -40 421 28 Q428 96 498 103 Q569 96 576 28 Q570 -39 498 -46 ZM161 344 L71 525 L197 573 L236 376 L161 344 ZM494 355 L414 377 L441 608 L574 569 L494 355 ZM642 209 L585 280 L831 504 L929 385 L642 209 ZM655 -33 L598 45 L856 237 L952 111 L655 -33 ZM636 462 L581 532 L818 753 L932 626 L636 462 ZM101 586 L58 680 L509 809 L594 673 L101 586 ZM76 145 L76 290 L256 293 L253 361 L403 365 L399 296 L572 300 L572 154 L391 151 L378 -75 L277 -79 L264 148 L76 145 Z" /><glyph glyph-name="uni5F71" unicode="&#x5f71;" d="M118 -69 L61 -23 L124 72 L221 22 L118 -69 ZM497 -62 Q438 -57 432 -1 Q437 56 497 61 Q558 56 563 -1 Q557 -56 497 -62 ZM200 -79 L211 4 L270 -6 L250 67 L403 69 L381 -70 L200 -79 ZM638 206 L580 278 L831 502 L929 384 L638 206 ZM628 471 L572 556 L818 753 L932 623 L628 471 ZM632 -34 L576 47 L848 246 L952 120 L632 -34 ZM114 88 L96 230 L246 232 L236 162 L407 165 L401 197 L273 195 L273 253 L551 259 L529 97 L114 88 ZM118 430 L92 739 L239 743 L233 600 L381 603 L381 547 L231 544 L230 513 L417 517 L409 641 L267 639 L267 772 L556 777 L531 440 L370 436 Q393 414 393 385 Q393 380 392 375 L571 379 L571 292 L77 282 L77 369 L250 372 Q249 378 249 384 Q248 412 268 433 L118 430 Z" /><glyph glyph-name="uni5F80" unicode="&#x5f80;" d="M647 628 Q561 635 553 719 Q561 802 647 809 Q733 801 741 719 Q733 636 647 628 ZM139 -35 L179 214 L274 217 L314 -31 L139 -35 ZM121 461 L59 538 L222 755 L354 637 L121 461 ZM112 202 L58 280 L268 497 L391 383 L112 202 ZM375 464 L375 611 L916 622 L916 474 L375 464 ZM424 171 L424 304 L573 307 L564 427 L731 431 L722 310 L873 314 L873 180 L712 176 L704 67 L935 72 L935 -56 L356 -68 L356 61 L591 65 L583 174 L424 171 Z" /><glyph glyph-name="uni5F81" unicode="&#x5f81;" d="M138 -35 L178 214 L267 217 L310 -31 L138 -35 ZM121 461 L59 538 L217 754 L339 636 L121 461 ZM112 202 L58 280 L243 494 L357 383 L112 202 ZM358 621 L358 768 L926 778 L926 631 L358 621 ZM344 -68 L344 63 L403 64 L385 413 L521 417 L502 66 L612 68 L586 586 L749 590 L738 386 L890 388 L890 256 L731 254 L722 70 L936 75 L936 -56 L344 -68 Z" /><glyph glyph-name="uni5F84" unicode="&#x5f84;" d="M643 412 L452 315 L820 322 L643 412 ZM141 -35 L183 212 L270 217 L313 -30 L141 -35 ZM121 461 L59 538 L235 754 L350 636 L121 461 ZM112 202 L58 280 L263 519 L377 428 L112 202 ZM362 -69 L362 57 L574 61 L559 165 L712 168 L697 63 L914 67 L914 -59 L362 -69 ZM371 274 L324 356 L572 502 L688 627 L386 622 L386 769 L883 778 L883 633 L730 484 L951 412 L901 281 L857 303 L857 202 L419 194 L419 298 L371 274 Z" /><glyph glyph-name="uni5F85" unicode="&#x5f85;" d="M492 -41 Q414 -37 408 34 Q411 110 492 116 Q565 109 572 38 Q565 -34 492 -41 ZM142 -35 L183 214 L273 217 L314 -31 L142 -35 ZM112 202 L58 280 L223 494 L338 390 L112 202 ZM121 461 L59 538 L225 754 L338 636 L121 461 ZM356 137 L356 251 L685 258 L682 305 L848 309 L844 261 L927 263 L927 149 L835 147 L819 -68 L587 -79 L599 54 L702 34 L694 144 L356 137 ZM383 542 L383 690 L563 692 L556 805 L724 809 L718 694 L904 697 L904 549 L711 546 L707 458 L936 462 L936 342 L349 331 L349 451 L578 455 L572 544 L383 542 Z" /><glyph glyph-name="uni5F88" unicode="&#x5f88;" d="M142 -35 L185 214 L271 217 L315 -31 L142 -35 ZM112 202 L58 280 L245 494 L360 383 L112 202 ZM121 461 L59 538 L227 754 L351 636 L121 461 ZM838 -81 L576 176 L638 236 L792 128 Q782 146 783 167 Q790 225 853 228 Q919 226 926 165 Q921 101 856 97 Q844 97 834 99 L945 23 L838 -81 ZM399 -78 L375 586 L525 589 L523 526 L728 530 L728 443 L520 439 L517 365 L770 371 L762 625 L404 619 L404 767 L912 777 L890 260 L514 252 L507 37 L656 75 L670 -63 L399 -78 Z" /><glyph glyph-name="uni5F97" unicode="&#x5f97;" d="M493 -65 Q426 -59 419 5 Q425 68 493 74 Q558 68 564 5 Q557 -58 493 -65 ZM145 -35 L186 213 L270 217 L312 -31 L145 -35 ZM121 461 L59 538 L218 754 L342 637 L121 461 ZM112 202 L58 280 L248 494 L361 384 L112 202 ZM371 227 L371 338 L908 350 L908 239 L837 237 L833 190 L936 193 L936 97 L824 94 L810 -68 L582 -79 L594 38 L702 26 L696 91 L346 84 L346 180 L688 187 L684 234 L371 227 ZM395 380 L369 736 L527 740 L512 571 L727 575 L727 514 L507 510 L504 468 L768 473 L750 627 L554 623 L554 770 L908 778 L878 391 L395 380 Z" /><glyph glyph-name="uni5FAA" unicode="&#x5faa;" d="M146 -35 L185 214 L270 217 L309 -30 L146 -35 ZM113 202 L58 280 L251 494 L354 384 L113 202 ZM121 461 L59 538 L218 754 L342 637 L121 461 ZM440 -63 L344 -41 L375 179 L363 657 L846 810 L943 660 L502 595 L483 158 L440 -63 ZM799 581 L785 511 L929 515 L929 391 L761 387 L748 321 L915 326 L889 -60 L544 -69 L524 202 L653 206 L651 177 L758 180 L758 132 L647 129 L645 99 L758 102 L758 50 L641 47 L639 16 L799 20 L786 233 L545 227 L545 316 L650 319 L653 385 L528 382 L528 505 L659 508 L663 590 L799 581 Z" /><glyph glyph-name="uni5FC3" unicode="&#x5fc3;" d="M156 89 L60 131 L126 480 L289 426 L156 89 ZM332 -69 L306 660 L477 664 L452 72 L638 74 L626 262 L784 266 L756 -62 L332 -69 ZM838 152 L694 464 L778 527 L950 273 L838 152 ZM642 605 Q545 614 536 709 Q545 803 642 812 Q742 804 751 709 Q742 613 642 605 Z" /><glyph glyph-name="uni5FC5" unicode="&#x5fc5;" d="M626 613 Q532 621 523 711 Q531 800 626 808 Q718 799 727 711 Q718 622 626 613 ZM817 76 L759 351 L850 391 L950 153 L817 76 ZM161 185 L59 216 L113 492 L277 444 L161 185 ZM127 -49 L60 22 L322 242 L302 669 L474 674 L460 358 L821 660 L939 544 L453 189 L449 77 L627 79 L616 208 L764 212 L739 -61 L337 -69 L329 98 L127 -49 Z" /><glyph glyph-name="uni5FCD" unicode="&#x5fcd;" d="M544 110 Q472 116 465 182 Q471 246 544 252 Q618 246 625 182 Q618 116 544 110 ZM806 -48 L807 187 L898 210 L949 3 L806 -48 ZM157 -49 L58 -20 L114 197 L260 152 L157 -49 ZM104 251 L56 336 L206 412 Q136 422 133 486 Q137 557 214 563 Q290 557 294 486 Q294 466 287 453 L503 563 L647 475 L104 251 ZM295 -68 L270 249 L434 253 L419 52 L649 56 L643 150 L767 154 L745 -58 L295 -68 ZM472 269 L483 399 L764 383 L749 613 L101 599 L101 739 L919 755 L883 281 L472 269 Z" /><glyph glyph-name="uni5FD7" unicode="&#x5fd7;" d="M545 106 Q472 112 465 177 Q471 242 545 248 Q619 242 625 177 Q618 112 545 106 ZM806 -50 L803 182 L895 206 L949 -1 L806 -50 ZM157 -52 L58 -24 L115 193 L262 148 L157 -52 ZM295 -68 L270 235 L434 238 L419 36 L649 39 L643 145 L767 149 L745 -58 L295 -68 ZM81 512 L81 659 L423 668 L415 805 L587 808 L579 672 L927 681 L927 533 L570 524 L564 418 L875 425 L875 295 L143 279 L143 409 L437 415 L431 520 L81 512 Z" /><glyph glyph-name="uni5FD8" unicode="&#x5fd8;" d="M545 93 Q472 99 465 164 Q471 229 545 235 Q619 229 625 164 Q618 99 545 93 ZM806 -48 L803 167 L895 191 L949 3 L806 -48 ZM157 -49 L58 -20 L116 179 L262 134 L157 -49 ZM295 -68 L270 222 L434 225 L419 36 L649 39 L643 134 L766 137 L744 -58 L295 -68 ZM198 266 L169 486 L345 489 L327 390 L856 402 L856 279 L198 266 ZM80 515 L80 663 L419 670 Q401 693 400 720 Q412 800 504 810 Q595 800 607 720 Q607 695 590 674 L927 682 L927 534 L80 515 Z" /><glyph glyph-name="uni5FD9" unicode="&#x5fd9;" d="M678 594 Q573 603 564 702 Q573 798 678 807 Q781 798 790 702 Q781 603 678 594 ZM402 398 L402 554 L936 565 L936 409 L402 398 ZM491 -69 L464 354 L629 356 L610 72 L926 79 L926 -59 L491 -69 ZM78 255 L57 575 L145 579 L138 422 L188 429 L180 731 L338 736 L330 449 L378 456 L385 301 L326 292 L317 -31 L201 -35 L192 272 L78 255 Z" /><glyph glyph-name="uni5FEB" unicode="&#x5feb;" d="M781 460 L697 458 L693 300 L784 302 L781 460 ZM826 -75 Q741 -67 732 15 Q740 97 826 105 Q910 96 919 15 Q910 -66 826 -75 ZM76 273 L57 587 L142 592 L133 438 L188 448 L182 732 L332 736 L325 475 L389 487 L398 332 L321 318 L313 -31 L200 -35 L192 294 L76 273 ZM390 153 L390 294 L552 297 L549 455 L423 453 L423 606 L546 608 L542 805 L704 808 L700 611 L917 616 L887 305 L936 306 L936 165 L665 159 L465 -79 L372 -27 L510 155 L390 153 Z" /><glyph glyph-name="uni5FFD" unicode="&#x5ffd;" d="M546 101 Q473 107 466 172 Q472 237 546 242 Q620 236 626 172 Q619 107 546 101 ZM806 -48 L809 178 L900 202 L949 3 L806 -48 ZM157 -49 L58 -20 L109 184 L255 140 L157 -49 ZM166 244 L95 301 L284 516 L409 442 L166 244 ZM397 224 L320 276 L530 502 L658 434 L397 224 ZM295 -68 L270 204 L434 208 L419 53 L652 56 L645 149 L769 153 L747 -58 L295 -68 ZM144 477 L69 539 L272 808 L436 752 L360 680 L915 691 L890 255 L616 244 L625 376 L773 362 L758 544 L274 535 L274 599 L144 477 Z" /><glyph glyph-name="uni6001" unicode="&#x6001;" d="M543 96 Q466 102 459 171 Q466 238 543 244 Q619 238 626 171 Q618 103 543 96 ZM473 261 Q391 268 382 343 Q391 418 473 425 Q557 417 566 343 Q557 269 473 261 ZM806 -47 L797 169 L891 191 L950 4 L806 -47 ZM157 -48 L58 -19 L114 186 L257 142 L157 -48 ZM295 -68 L270 229 L434 232 L419 49 L647 53 L640 140 L764 144 L742 -59 L295 -68 ZM70 504 L70 661 L423 668 L416 805 L590 808 L582 672 L935 679 L935 523 L657 517 L950 370 L865 237 L506 511 L124 212 L56 285 L318 509 L70 504 Z" /><glyph glyph-name="uni600E" unicode="&#x600e;" d="M542 79 Q465 85 458 154 Q465 222 542 228 Q618 221 625 154 Q617 86 542 79 ZM157 -49 L58 -20 L114 175 L257 131 L157 -49 ZM806 -40 L797 179 L890 201 L949 3 L806 -40 ZM295 -68 L270 191 L434 195 L419 40 L647 44 L641 129 L764 132 L742 -59 L295 -68 ZM146 402 L55 467 L258 811 L437 769 L391 711 L927 718 L927 571 L329 562 L329 633 L248 531 L407 535 L404 497 L864 503 L864 419 L399 413 L396 367 L864 372 L864 277 L390 272 L387 226 L261 222 L237 517 L146 402 Z" /><glyph glyph-name="uni601D" unicode="&#x601d;" d="M812 -47 L802 172 L895 195 L949 4 L812 -47 ZM157 -48 L58 -19 L114 178 L257 133 L157 -48 ZM295 -69 L270 204 L434 208 L419 49 L647 53 L640 128 L764 132 L742 -59 L295 -69 ZM305 418 L304 500 L431 502 L423 570 L576 576 L567 505 L701 508 L701 425 L557 422 L550 367 L754 371 L741 614 L134 601 L134 739 L900 756 L874 253 L569 246 Q627 229 631 176 Q623 108 547 101 Q471 107 464 176 Q467 227 521 245 L129 237 L105 570 L263 574 L249 361 L447 365 L441 420 L305 418 Z" /><glyph glyph-name="uni6025" unicode="&#x6025;" d="M807 -49 L791 136 L881 159 L949 1 L807 -49 ZM154 -50 L58 -22 L109 140 L256 95 L154 -50 ZM295 -70 L270 160 L434 163 L419 34 L648 37 L641 104 L764 108 L743 -60 L295 -70 ZM124 536 L58 611 L362 807 L526 751 L423 696 L744 701 L744 581 L688 527 L909 531 L878 204 L574 197 Q625 178 627 133 Q620 68 547 62 Q475 68 468 133 Q470 178 516 196 L103 188 L103 278 L756 290 L751 325 L147 314 L147 377 L744 387 L739 430 L103 420 L103 517 L530 524 L566 571 L305 568 L305 633 L124 536 Z" /><glyph glyph-name="uni603B" unicode="&#x603b;" d="M544 92 Q471 98 464 164 Q471 228 544 234 Q617 228 624 164 Q617 98 544 92 ZM805 -30 L791 173 L886 196 L949 24 L805 -30 ZM155 -35 L58 -4 L114 188 L260 142 L155 -35 ZM295 -68 L270 218 L434 222 L419 45 L644 48 L638 130 L761 135 L740 -59 L295 -68 ZM134 249 L109 461 L280 465 L264 370 L737 378 L727 490 L133 483 L133 618 L313 621 Q244 642 240 712 Q249 798 338 806 Q427 797 436 712 Q432 644 366 622 L565 625 L628 812 L793 768 L703 627 L899 630 L870 264 L134 249 Z" /><glyph glyph-name="uni604B" unicode="&#x604b;" d="M550 114 Q475 121 468 189 Q476 256 550 263 Q626 257 634 189 Q627 120 550 114 ZM825 314 Q749 321 742 390 Q750 458 825 465 Q904 459 911 390 Q904 320 825 314 ZM166 277 L71 316 L133 476 L284 428 L166 277 ZM806 -47 L796 180 L889 203 L949 4 L806 -47 ZM158 -48 L58 -19 L114 194 L256 150 L158 -48 ZM339 268 L313 502 L471 506 L445 272 L339 268 ZM564 274 L537 511 L696 514 L669 277 L564 274 ZM295 -68 L270 228 L434 231 L419 49 L647 53 L640 137 L764 141 L742 -59 L295 -68 ZM82 529 L82 677 L418 684 Q406 702 405 724 Q416 800 504 809 Q591 800 602 724 Q602 705 591 688 L927 696 L927 548 L82 529 Z" /><glyph glyph-name="uni606D" unicode="&#x606d;" d="M866 -11 Q796 -5 791 54 Q794 118 862 126 Q937 123 941 53 Q934 -6 866 -11 ZM406 523 L401 436 L605 440 L599 527 L406 523 ZM648 -47 L620 170 L704 189 L778 -15 L648 -47 ZM190 -49 L119 2 L252 189 L369 133 L190 -49 ZM320 -79 L336 60 L443 36 L427 267 L580 271 L554 -69 L320 -79 ZM121 517 L121 664 L269 667 L260 804 L425 808 L416 670 L589 674 L581 784 L745 787 L737 677 L886 681 L886 534 L727 530 L721 443 L936 448 L936 326 L776 322 L949 267 L880 143 L569 318 L443 315 L108 131 L56 210 L219 310 L71 307 L71 429 L284 433 L278 520 L121 517 Z" /><glyph glyph-name="uni606F" unicode="&#x606f;" d="M157 -49 L58 -20 L114 134 L257 90 L157 -49 ZM808 -48 L802 130 L896 153 L949 -14 L808 -48 ZM294 -68 L269 149 L433 153 L418 38 L656 41 L649 104 L766 108 L745 -59 L294 -68 ZM143 177 L120 536 L292 540 L289 498 L690 505 L690 440 L285 433 L282 390 L690 397 L690 325 L277 317 L274 274 L731 283 L718 568 L147 561 L147 690 L415 694 Q411 706 411 721 Q419 801 504 809 Q588 801 596 721 Q596 708 592 696 L889 701 L861 192 L583 186 Q619 165 620 130 Q613 67 544 61 Q475 67 469 130 Q470 164 501 184 L143 177 Z" /><glyph glyph-name="uni6084" unicode="&#x6084;" d="M838 551 L757 582 L809 729 L935 684 L838 551 ZM478 571 Q405 578 398 647 Q405 715 478 722 Q550 715 557 647 Q550 578 478 571 ZM414 -69 L395 339 L544 342 L542 299 L745 303 L745 219 L538 215 L535 166 L745 171 L745 81 L531 76 L525 -65 L414 -69 ZM79 254 L58 575 L146 579 L138 421 L195 429 L188 732 L331 736 L323 447 L368 453 L377 297 L319 288 L311 -31 L207 -35 L199 271 L79 254 ZM662 -79 L671 35 L785 22 L772 379 L419 372 L419 519 L599 523 L580 805 L739 808 L717 525 L921 530 L896 -70 L662 -79 Z" /><glyph glyph-name="uni60A6" unicode="&#x60a6;" d="M557 632 Q474 639 466 717 Q473 797 557 804 Q639 797 646 717 Q638 639 557 632 ZM451 -80 L364 -30 L493 169 L626 96 L451 -80 ZM685 -69 L661 163 L812 167 L797 56 L869 58 L859 128 L950 133 L938 -63 L685 -69 ZM79 254 L58 577 L146 579 L138 421 L191 428 L184 732 L332 736 L324 447 L372 454 L381 298 L320 289 L311 -31 L203 -35 L195 271 L79 254 ZM420 201 L410 432 L561 436 L556 333 L766 338 L761 469 L431 462 L431 616 L696 622 L774 809 L912 747 L817 624 L922 627 L900 212 L420 201 Z" /><glyph glyph-name="uni60C5" unicode="&#x60c5;" d="M431 -60 L412 260 L551 264 L544 161 L732 165 L732 118 L541 114 L540 88 L732 93 L732 37 L536 33 L531 -58 L431 -60 ZM621 -79 L630 13 L768 3 L757 200 L578 196 L578 282 L903 289 L881 -69 L621 -79 ZM79 255 L58 576 L146 579 L138 421 L190 428 L182 732 L329 736 L322 448 L360 454 L366 299 L318 291 L310 -32 L202 -35 L194 272 L79 255 ZM406 561 L406 693 L579 696 L573 805 L737 808 L730 699 L907 703 L907 571 L723 567 L720 526 L874 530 L874 458 L716 454 L714 415 L926 420 L926 325 L387 313 L387 408 L596 412 L594 451 L440 448 L440 520 L589 523 L587 564 L406 561 Z" /><glyph glyph-name="uni60CA" unicode="&#x60ca;" d="M849 -43 Q779 -37 773 30 Q780 97 849 103 Q919 97 926 30 Q920 -37 849 -43 ZM405 -53 L334 2 L428 126 L541 55 L405 -53 ZM512 -79 L524 20 L595 13 L577 129 L739 133 L707 -69 L512 -79 ZM379 506 L379 653 L596 658 Q568 684 567 722 Q575 800 657 807 Q739 799 747 722 Q746 685 720 661 L936 666 L936 519 L379 506 ZM425 163 L404 427 L563 431 L551 274 L761 279 L754 353 L590 349 L590 452 L912 459 L889 174 L425 163 ZM79 255 L58 575 L146 579 L138 421 L191 428 L183 732 L332 736 L323 446 L371 453 L379 297 L318 288 L309 -31 L205 -35 L196 271 L79 255 Z" /><glyph glyph-name="uni60E0" unicode="&#x60e0;" d="M725 506 L569 503 L568 462 L703 465 L703 413 L566 410 L564 380 L734 384 L725 506 ZM812 -58 L796 102 L890 126 L949 -15 L812 -58 ZM157 -59 L58 -29 L105 111 L254 75 L157 -59 ZM295 -68 L270 133 L434 139 L419 26 L648 30 L641 102 L755 105 L734 -58 L295 -68 ZM810 133 L785 185 L570 174 Q612 156 613 117 Q607 59 542 53 Q479 59 473 117 Q474 152 507 171 L110 151 L77 248 L446 253 L444 295 L150 289 L130 547 L275 550 L267 374 L440 377 L439 408 L298 406 L298 458 L437 460 L435 500 L302 497 L302 569 L432 572 L431 612 L84 604 L84 733 L425 741 L423 805 L582 808 L579 744 L925 753 L925 624 L574 615 L572 575 L875 582 L851 305 L561 298 L559 254 L752 257 L741 281 L820 299 L933 186 L810 133 Z" /><glyph glyph-name="uni60EF" unicode="&#x60ef;" d="M522 496 L516 447 L595 449 L596 497 L522 496 ZM680 451 L779 453 L780 501 L691 499 L680 451 ZM412 65 L398 177 L533 181 L519 68 L412 65 ZM831 -79 Q766 -73 760 -10 Q766 52 831 57 Q896 52 902 -10 Q896 -73 831 -79 ZM413 -81 L369 -5 L589 65 L573 179 L732 182 L710 1 L413 -81 ZM783 71 L773 218 L425 210 L425 313 L909 324 L890 74 L783 71 ZM79 255 L59 576 L143 579 L136 421 L183 427 L175 731 L320 735 L313 445 L374 453 L384 298 L309 287 L301 -31 L195 -35 L187 270 L79 255 ZM371 493 L371 574 L419 575 L424 739 L553 742 L532 577 L597 579 L598 613 L718 617 L710 581 L783 583 L785 645 L577 641 L577 771 L920 778 L896 585 L935 586 L935 505 L886 504 L870 370 L413 359 L417 494 L371 493 Z" /><glyph glyph-name="uni60F3" unicode="&#x60f3;" d="M419 304 Q356 307 351 365 Q353 427 419 431 Q489 428 492 366 Q484 307 419 304 ZM544 81 Q471 87 464 152 Q471 216 544 222 Q617 216 624 152 Q617 87 544 81 ZM806 -49 L789 168 L883 192 L949 5 L806 -49 ZM155 -54 L58 -22 L115 177 L260 129 L155 -54 ZM295 -68 L270 205 L434 209 L419 44 L643 48 L637 138 L760 142 L738 -59 L295 -68 ZM72 476 L72 623 L198 626 L194 732 L351 736 L346 629 L473 632 L473 485 L340 482 L329 238 L215 234 L207 412 L138 266 L58 291 L92 446 L207 416 L204 479 L72 476 ZM522 238 L498 742 L639 747 L630 565 L764 568 L764 505 L627 502 L625 455 L764 458 L764 387 L622 384 L620 336 L801 339 L786 635 L666 632 L666 771 L926 777 L896 245 L522 238 Z" /><glyph glyph-name="uni6108" unicode="&#x6108;" d="M515 680 L397 620 L623 625 L515 680 ZM546 63 Q488 68 483 121 Q488 172 546 177 Q605 172 610 121 Q605 68 546 63 ZM579 270 L564 435 L671 439 L656 273 L579 270 ZM814 -50 L799 112 L891 134 L949 -6 L814 -50 ZM154 -58 L58 -20 L114 120 L256 75 L154 -58 ZM165 165 L148 459 L279 463 L272 360 L373 362 L373 322 L269 320 L268 294 L373 297 L373 255 L265 252 L260 167 L165 165 ZM625 144 L634 254 L733 240 L707 481 L860 485 L829 154 L625 144 ZM304 160 L310 237 L404 230 L394 391 L303 388 L303 484 L525 489 L503 169 L304 160 ZM295 -68 L270 126 L434 129 L419 34 L645 37 L639 98 L762 101 L741 -59 L295 -68 ZM103 472 L56 548 L482 810 L671 758 L611 728 L951 626 L874 497 L670 601 L670 529 L321 522 L321 582 L103 472 Z" /><glyph glyph-name="uni610F" unicode="&#x610f;" d="M896 109 L943 -17 L804 -55 L808 91 L896 109 ZM157 -59 L58 -24 L114 105 L256 60 L157 -59 ZM297 -70 L271 99 L434 103 L418 26 L647 29 L640 82 L764 85 L742 -62 L297 -70 ZM71 396 L71 488 L252 492 Q257 556 336 560 Q411 555 419 495 L586 499 L631 563 L789 544 L734 502 L936 506 L936 414 L71 396 ZM98 563 L98 693 L416 699 Q411 712 411 728 Q416 801 502 807 Q591 802 596 728 Q596 715 592 703 L909 710 L909 581 L98 563 ZM169 126 L148 344 L318 348 L303 269 L666 277 L666 228 L295 220 L290 193 L707 199 L691 307 L346 301 L346 370 L859 381 L833 139 L602 134 Q615 120 616 104 Q610 52 537 49 Q466 52 459 102 Q458 117 469 132 L169 126 Z" /><glyph glyph-name="uni611F" unicode="&#x611f;" d="M544 55 Q472 58 465 113 Q470 170 544 174 Q615 171 622 115 Q618 58 544 55 ZM813 -46 L799 121 L894 142 L947 -2 L813 -46 ZM155 -59 L58 -22 L114 129 L259 84 L155 -59 ZM273 427 L273 508 L564 512 L564 431 L273 427 ZM160 159 L58 182 L105 529 L257 507 L160 159 ZM274 185 L267 296 L371 300 L368 265 L450 266 L447 318 L286 316 L286 389 L558 393 L545 189 L274 185 ZM297 -70 L271 149 L434 153 L418 27 L656 31 L649 110 L764 114 L742 -62 L297 -70 ZM138 550 L138 677 L542 682 L507 788 L662 809 L694 684 L740 685 Q731 700 731 721 Q738 791 812 797 Q887 790 894 721 Q894 702 886 687 L936 688 L936 561 L726 558 L756 441 L852 532 L929 437 L785 328 L798 278 L931 341 L951 220 L718 164 L687 254 L618 202 L567 260 L656 345 L585 556 L138 550 Z" /><glyph glyph-name="uni613F" unicode="&#x613f;" d="M341 154 L261 194 L339 295 L457 253 L341 154 ZM671 50 Q594 54 586 102 Q592 151 671 155 Q749 151 756 102 Q748 55 671 50 ZM812 165 Q742 171 735 229 Q742 286 812 292 Q883 287 890 229 Q883 171 812 165 ZM820 -55 L805 98 L892 118 L949 -11 L820 -55 ZM303 -56 L210 -33 L255 104 L384 75 L303 -56 ZM446 159 L456 240 L538 234 L517 291 L684 294 L658 167 L446 159 ZM418 -70 L392 129 L556 133 L540 14 L643 18 L636 45 L788 47 L766 -62 L418 -70 ZM155 -38 L59 -8 L115 177 L123 596 L281 587 L232 155 L155 -38 ZM153 620 L153 744 L937 756 L937 633 L153 620 ZM316 309 L296 450 L451 453 L448 437 L721 442 L721 401 L440 396 L435 372 L758 377 L750 475 L317 471 L317 546 L506 547 Q504 555 504 564 Q511 613 594 618 Q686 615 692 564 Q692 556 689 549 L904 551 L883 317 L316 309 Z" /><glyph glyph-name="uni6155" unicode="&#x6155;" d="M770 -62 Q719 -57 714 -8 Q719 41 770 46 Q821 42 825 -8 Q820 -57 770 -62 ZM597 -66 L582 49 L654 71 L700 -31 L597 -66 ZM348 -79 L359 21 L419 12 L401 116 L561 119 L534 -69 L348 -79 ZM71 607 L71 734 L255 738 L247 805 L418 808 L410 741 L595 745 L589 788 L760 791 L754 748 L936 752 L936 626 L737 621 L732 586 L617 582 L612 619 L394 614 L390 578 L275 574 L270 611 L71 607 ZM70 140 L70 230 L406 237 L399 273 L573 277 L566 240 L936 248 L936 158 L766 154 L950 104 L900 -2 L592 151 L452 148 L253 64 L344 31 L242 -70 L170 -34 L224 52 L95 -2 L55 62 L237 143 L70 140 ZM147 285 L130 533 L293 537 L282 431 L690 437 L690 388 L277 383 L274 353 L726 358 L718 476 L320 469 L320 553 L880 562 L860 294 L147 285 Z" /><glyph glyph-name="uni61C2" unicode="&#x61c2;" d="M779 274 L715 272 L714 246 L759 247 L759 210 L712 209 L711 182 L786 184 L779 274 ZM364 602 L364 718 L465 720 L459 805 L608 808 L601 723 L697 725 L692 785 L841 788 L835 728 L935 730 L935 614 L825 612 L821 569 L712 566 L708 609 L592 607 L588 551 L479 548 L474 604 L364 602 ZM79 256 L58 575 L137 579 L129 421 L177 428 L169 732 L304 736 L296 446 L344 453 L350 298 L292 289 L284 -31 L189 -34 L181 272 L79 256 ZM405 440 L391 512 L872 562 L923 466 L723 456 L722 420 L936 424 L936 358 L718 353 L717 327 L918 332 L897 137 L709 132 L707 103 L911 108 L911 49 L705 44 L703 13 L936 18 L936 -57 L364 -69 L364 7 L597 11 L595 42 L389 37 L389 96 L593 100 L591 130 L401 126 L384 243 L523 247 L513 179 L589 180 L588 207 L543 206 L543 242 L586 243 L585 270 L410 266 L410 321 L583 324 L582 350 L365 346 L365 413 L579 417 L577 448 L405 440 Z" /><glyph glyph-name="uni61D2" unicode="&#x61d2;" d="M528 368 L499 367 L495 247 L532 248 L528 368 ZM561 -12 Q513 -7 508 40 Q512 86 561 90 Q611 86 615 40 Q610 -7 561 -12 ZM332 -44 L266 -19 L297 96 L391 62 L332 -44 ZM868 -53 Q812 -47 806 5 Q811 58 868 64 Q926 59 931 5 Q925 -48 868 -53 ZM626 103 L617 272 L699 275 L691 107 L626 103 ZM676 -55 L610 -11 L726 122 L714 262 L830 265 L812 80 L676 -55 ZM75 255 L57 574 L121 578 L114 421 L147 425 L139 730 L254 734 L247 438 L281 443 L287 288 L243 281 L235 -31 L159 -35 L151 267 L75 255 ZM692 454 L616 481 L678 754 L799 718 L778 666 L913 672 L913 543 L873 441 L933 443 L920 107 L854 103 L846 308 L633 303 L633 436 L777 439 L802 540 L751 538 L751 599 L692 454 ZM288 553 L288 693 L392 695 L390 805 L511 808 L508 697 L613 699 L613 559 L504 557 L502 481 L603 484 L590 132 L492 130 L486 -75 L407 -79 L403 128 L306 126 L299 333 L367 336 L364 244 L400 245 L398 365 L318 363 L318 477 L396 479 L394 555 L288 553 Z" /><glyph glyph-name="uni6210" unicode="&#x6210;" d="M813 641 Q739 648 732 720 Q739 794 813 801 Q887 794 894 720 Q887 648 813 641 ZM160 -38 L59 -7 L124 170 L132 435 L291 429 L272 317 L548 322 L521 -31 L271 -46 L280 69 L409 61 L393 199 L252 197 L244 150 L160 -38 ZM153 460 L153 608 L514 615 L458 786 L621 809 L671 618 L936 624 L936 476 L709 471 L761 274 L851 405 L953 314 L799 128 L819 53 L919 120 L951 -17 L742 -80 L709 20 L630 -76 L555 -24 L669 141 L562 468 L153 460 Z" /><glyph glyph-name="uni6211" unicode="&#x6211;" d="M833 535 Q753 543 745 621 Q753 697 834 704 Q915 697 923 620 Q916 542 833 535 ZM120 591 L80 684 L426 809 L498 668 L120 591 ZM71 311 L71 464 L246 467 L240 591 L412 595 L405 471 L582 474 L521 755 L691 778 L734 477 L936 482 L936 330 L756 326 L771 218 L879 275 L943 161 L789 95 L797 42 L929 81 L947 -45 L702 -80 L675 45 L500 -30 L455 51 L651 154 L615 323 L398 318 L394 243 L522 256 L534 165 L389 135 L379 -68 L140 -79 L149 45 L266 37 L262 110 L88 75 L57 210 L257 230 L253 315 L71 311 Z" /><glyph glyph-name="uni6216" unicode="&#x6216;" d="M785 645 Q710 653 703 721 Q710 793 785 800 Q860 793 867 721 Q860 651 785 645 ZM115 -60 L78 67 L528 117 L550 38 L115 -60 ZM106 136 L97 288 L246 291 L242 231 L358 233 L353 321 L119 316 L119 410 L502 417 L486 144 L106 136 ZM82 460 L82 607 L500 617 L447 775 L617 808 L665 621 L935 627 L935 480 L703 474 L755 276 L856 407 L949 310 L791 136 L813 53 L914 118 L952 -14 L738 -82 L698 33 L597 -79 L521 -27 L658 151 L550 471 L82 460 Z" /><glyph glyph-name="uni6218" unicode="&#x6218;" d="M857 605 Q784 611 778 678 Q784 746 856 752 Q928 745 934 678 Q928 613 857 605 ZM535 355 L535 510 L614 520 L565 780 L722 807 L758 538 L936 561 L936 407 L779 386 L794 274 L871 347 L951 237 L813 130 L826 39 L920 92 L949 -44 L729 -80 L705 45 L580 -52 L522 15 L682 167 L643 369 L535 355 ZM95 -52 L66 166 L223 170 L203 78 L366 82 L350 206 L94 200 L94 338 L204 340 L182 732 L341 736 L334 610 L509 615 L509 467 L325 462 L318 343 L508 348 L474 -43 L95 -52 Z" /><glyph glyph-name="uni623F" unicode="&#x623f;" d="M261 181 L261 293 L511 299 L511 307 Q519 373 594 380 Q669 373 676 306 L676 303 L926 309 L926 200 L439 186 L545 169 L521 137 L864 148 L834 -68 L520 -79 L532 10 L719 -5 L711 50 L485 41 L485 89 L364 -71 L269 -36 L393 185 L261 181 ZM159 -35 L59 -11 L102 179 L119 661 L282 651 L260 482 L772 491 L760 558 L309 550 L309 688 L430 690 Q426 703 426 717 Q434 799 523 807 Q611 799 619 717 Q619 705 615 694 L921 701 L889 397 L248 384 L219 158 L159 -35 Z" /><glyph glyph-name="uni6240" unicode="&#x6240;" d="M347 383 L223 379 L217 267 L361 271 L347 383 ZM747 -79 L721 225 L869 229 L842 -75 L747 -79 ZM543 -71 L444 -33 L521 191 L514 669 L857 810 L946 647 L671 594 L659 418 L936 426 L936 278 L650 270 L643 160 L543 -71 ZM157 -23 L62 3 L105 199 L98 664 L420 775 L483 634 L235 598 L228 481 L478 489 L449 163 L204 156 L157 -23 Z" /><glyph glyph-name="uni624B" unicode="&#x624b;" d="M129 553 L90 660 L838 808 L922 656 L129 553 ZM136 340 L136 450 L422 454 L417 573 L588 577 L582 457 L871 462 L871 353 L577 347 L573 272 L936 280 L936 151 L567 143 L557 -69 L292 -79 L302 55 L441 47 L437 140 L70 133 L70 262 L431 269 L427 345 L136 340 Z" /><glyph glyph-name="uni624D" unicode="&#x624d;" d="M126 -43 L58 31 L341 368 L475 259 L126 -43 ZM71 420 L71 577 L551 587 L544 804 L720 808 L712 591 L936 596 L936 440 L706 434 L689 -65 L338 -79 L347 65 L571 48 L557 431 L71 420 Z" /><glyph glyph-name="uni6253" unicode="&#x6253;" d="M433 611 L433 767 L936 778 L936 622 L433 611 ZM479 -79 L488 66 L626 51 L601 567 L772 570 L743 -69 L479 -79 ZM75 405 L75 563 L189 565 L183 732 L346 736 L339 568 L439 570 L439 413 L333 410 L329 319 L453 328 L464 232 L325 204 L316 -24 L93 -34 L103 103 L206 95 L203 179 L81 154 L57 300 L198 310 L194 407 L75 405 Z" /><glyph glyph-name="uni6258" unicode="&#x6258;" d="M434 545 L394 644 L816 808 L904 647 L434 545 ZM74 414 L74 571 L166 573 L160 732 L318 736 L311 576 L391 578 L391 421 L305 419 L302 330 L378 340 L386 241 L297 215 L288 -25 L93 -35 L103 101 L185 94 L181 182 L81 154 L57 300 L176 315 L172 416 L74 414 ZM410 184 L410 331 L576 354 L569 543 L740 546 L733 376 L927 403 L927 256 L727 228 L721 67 L818 69 L811 172 L950 177 L927 -62 L594 -69 L582 208 L410 184 Z" /><glyph glyph-name="uni626B" unicode="&#x626b;" d="M74 414 L74 571 L171 573 L165 732 L323 736 L316 576 L400 578 L400 421 L310 419 L306 322 L409 331 L421 235 L302 206 L293 -25 L93 -35 L103 101 L190 94 L186 179 L81 154 L57 300 L181 311 L177 416 L74 414 ZM464 286 L464 402 L776 409 L769 626 L420 619 L420 767 L923 777 L898 -18 L420 -28 L420 110 L785 117 L779 293 L464 286 Z" /><glyph glyph-name="uni627E" unicode="&#x627e;" d="M825 585 Q742 592 734 674 Q742 754 825 761 Q908 753 916 674 Q908 593 825 585 ZM74 414 L74 571 L167 573 L161 732 L319 736 L312 576 L398 578 L398 421 L306 419 L302 315 L403 322 L414 222 L298 198 L289 -25 L93 -35 L103 101 L186 94 L183 175 L81 154 L57 300 L177 307 L173 416 L74 414 ZM424 320 L424 477 L558 498 L496 771 L663 809 L706 521 L936 558 L936 401 L729 368 L744 269 L872 339 L952 217 L764 131 L776 54 L917 110 L950 -24 L692 -81 L654 81 L445 -14 L397 79 L626 204 L593 347 L424 320 Z" /><glyph glyph-name="uni6280" unicode="&#x6280;" d="M74 414 L74 571 L160 573 L154 732 L312 736 L305 576 L375 578 L375 421 L299 419 L296 328 L377 338 L388 242 L291 214 L282 -25 L93 -35 L103 101 L179 94 L175 181 L81 154 L57 300 L170 313 L166 416 L74 414 ZM392 526 L392 673 L578 677 L571 805 L743 808 L735 680 L936 684 L936 536 L726 532 L716 382 L916 386 L916 249 L789 101 L951 50 L855 -81 L655 15 L455 -81 L388 -8 L542 69 L418 129 L473 202 L666 140 L734 244 L427 238 L427 376 L595 379 L587 529 L392 526 Z" /><glyph glyph-name="uni628A" unicode="&#x628a;" d="M74 415 L74 571 L163 573 L159 732 L306 736 L300 576 L373 578 L373 421 L295 419 L292 328 L371 337 L383 241 L289 214 L281 -25 L92 -35 L102 101 L178 94 L175 181 L80 154 L57 300 L171 313 L168 417 L74 415 ZM430 -69 L405 588 L558 591 L548 347 L632 349 L620 578 L722 580 L710 350 L795 352 L784 626 L435 619 L435 767 L927 778 L901 227 L543 220 L537 54 L825 60 L814 164 L950 167 L931 -58 L430 -69 Z" /><glyph glyph-name="uni6298" unicode="&#x6298;" d="M690 -79 L664 225 L830 229 L803 -76 L690 -79 ZM74 414 L74 571 L169 573 L163 732 L326 736 L319 577 L408 579 L408 422 L312 419 L308 325 L394 334 L408 238 L303 211 L293 -25 L96 -35 L106 102 L189 94 L185 181 L80 154 L57 300 L180 312 L176 416 L74 414 ZM468 -71 L370 -33 L447 191 L440 669 L857 810 L946 647 L597 594 L585 418 L936 426 L936 278 L576 270 L569 160 L468 -71 Z" /><glyph glyph-name="uni62A2" unicode="&#x62a2;" d="M650 570 L514 435 L809 441 L650 570 ZM475 -69 L446 266 L602 269 L584 49 L804 52 L795 101 L944 105 L921 -60 L475 -69 ZM74 414 L74 571 L159 573 L154 732 L312 736 L306 576 L380 578 L380 448 L651 811 L805 723 L722 641 L952 507 L902 365 L872 389 L857 132 L642 120 L652 227 L748 215 L740 302 L475 298 L475 396 L430 352 L380 436 L380 421 L300 419 L296 320 L387 328 L399 233 L292 206 L284 -25 L93 -35 L103 101 L177 94 L174 177 L81 154 L57 300 L169 309 L165 416 L74 414 Z" /><glyph glyph-name="uni62A5" unicode="&#x62a5;" d="M425 -56 L399 587 L558 590 L533 -53 L425 -56 ZM608 -71 L550 -6 L649 62 L566 107 L606 177 L728 132 L773 229 L575 225 L575 339 L909 347 L909 228 L828 96 L950 52 L886 -65 L744 11 L608 -71 ZM620 391 L628 521 L779 506 L770 627 L428 622 L428 769 L925 778 L900 407 L620 391 ZM74 414 L74 571 L159 573 L153 732 L311 736 L304 576 L371 578 L371 421 L298 419 L295 327 L373 336 L385 241 L290 214 L281 -25 L93 -35 L103 101 L178 94 L174 180 L81 154 L57 300 L169 313 L165 416 L74 414 Z" /><glyph glyph-name="uni62B1" unicode="&#x62b1;" d="M429 -69 L412 403 L548 407 L540 233 L621 235 L617 319 L569 318 L569 440 L720 444 L706 149 L537 145 L533 54 L814 59 L807 102 L950 105 L928 -58 L429 -69 ZM74 414 L74 571 L161 573 L155 732 L302 736 L295 576 L367 578 L367 421 L289 419 L286 329 L372 340 L384 244 L281 213 L272 -25 L93 -35 L103 101 L180 94 L176 182 L81 154 L57 300 L171 314 L167 416 L74 414 ZM481 471 L379 515 L499 810 L669 768 L604 666 L923 673 L897 136 L729 124 L737 252 L792 245 L777 522 L557 517 L557 591 L481 471 Z" /><glyph glyph-name="uni62B5" unicode="&#x62b5;" d="M586 -77 Q510 -71 503 -4 Q510 64 586 70 Q662 64 669 -4 Q663 -71 586 -77 ZM576 291 L576 431 L672 432 L647 571 L797 590 L812 435 L926 437 L926 297 L826 295 L848 84 L921 132 L951 -14 L767 -74 L698 293 L576 291 ZM424 54 L397 670 L829 809 L924 658 L559 606 L536 192 L651 238 L683 114 L424 54 ZM74 414 L74 571 L162 573 L156 732 L303 736 L296 576 L373 578 L373 421 L290 419 L286 322 L372 330 L384 234 L282 207 L273 -25 L93 -35 L103 101 L180 94 L177 179 L81 154 L57 300 L172 311 L168 416 L74 414 Z" /><glyph glyph-name="uni62B9" unicode="&#x62b9;" d="M844 -35 Q767 -28 760 46 Q767 120 844 127 Q922 121 929 46 Q922 -29 844 -35 ZM437 -64 L356 -10 L452 156 L577 79 L437 -64 ZM74 414 L74 571 L156 572 L150 732 L304 736 L297 575 L366 577 L366 420 L291 418 L288 325 L367 334 L380 238 L283 210 L274 -25 L93 -35 L103 101 L174 94 L171 179 L81 154 L57 300 L166 312 L162 416 L74 414 ZM390 482 L390 635 L583 638 L578 805 L748 808 L743 641 L936 645 L936 493 L738 489 L734 360 L913 364 L913 220 L730 216 L721 -75 L607 -79 L597 213 L412 210 L412 354 L592 357 L588 486 L390 482 Z" /><glyph glyph-name="uni62CD" unicode="&#x62cd;" d="M667 616 Q571 625 561 713 Q570 800 667 808 Q762 800 771 713 Q762 625 667 616 ZM74 414 L74 571 L170 573 L164 732 L323 736 L316 576 L387 578 L387 421 L310 419 L307 329 L376 338 L389 242 L302 217 L293 -25 L93 -35 L103 101 L189 94 L185 184 L81 154 L57 300 L180 314 L176 416 L74 414 ZM434 -68 L406 399 L567 403 L559 272 L742 275 L742 174 L553 172 L546 56 L783 59 L764 435 L431 432 L431 579 L925 585 L894 -59 L434 -68 Z" /><glyph glyph-name="uni62D6" unicode="&#x62d6;" d="M467 461 L380 508 L503 807 L661 773 L607 687 L936 694 L936 546 L561 538 L561 612 L467 461 ZM74 414 L74 571 L161 573 L156 732 L305 736 L299 576 L371 578 L371 421 L294 419 L291 332 L357 341 L369 245 L287 219 L279 -25 L93 -35 L103 101 L176 90 L173 183 L81 154 L57 300 L169 315 L166 416 L74 414 ZM759 125 L764 225 L811 218 L803 302 L743 287 L733 85 L647 83 L638 261 L573 245 L565 41 L822 46 L817 99 L951 102 L934 -58 L460 -69 L448 214 L392 200 L392 322 L443 334 L438 447 L581 451 L578 368 L632 382 L626 507 L754 511 L749 411 L919 454 L895 135 L759 125 Z" /><glyph glyph-name="uni62DC" unicode="&#x62dc;" d="M107 493 L72 580 L397 738 L481 597 L107 493 ZM508 614 L508 768 L916 778 L916 624 L508 614 ZM92 276 L92 381 L196 383 L203 505 L357 492 L340 386 L432 388 L432 283 L324 281 L314 218 L456 221 L456 94 L294 91 L275 -36 L174 -23 L180 89 L70 87 L70 213 L187 215 L190 278 L92 276 ZM511 368 L511 473 L627 476 L623 577 L791 579 L787 480 L916 483 L916 378 L783 374 L781 303 L916 307 L916 203 L777 199 L775 141 L935 145 L935 27 L770 23 L767 -77 L649 -81 L645 20 L490 17 L490 135 L640 138 L638 196 L508 193 L508 297 L634 300 L631 371 L511 368 Z" /><glyph glyph-name="uni62E9" unicode="&#x62e9;" d="M445 171 L445 269 L570 272 L566 340 L731 343 L726 275 L852 278 L852 179 L720 176 L716 119 L921 124 L921 4 L708 -1 L703 -76 L594 -79 L589 -3 L375 -8 L375 112 L581 116 L577 173 L445 171 ZM74 414 L74 571 L159 573 L152 733 L316 736 L309 576 L378 578 L378 421 L302 419 L298 315 L359 319 L371 223 L293 204 L283 -25 L93 -35 L103 101 L180 94 L176 176 L81 154 L57 300 L170 307 L166 416 L74 414 ZM411 274 L360 352 L536 455 L404 515 L446 590 L639 530 L713 627 L402 621 L402 768 L895 779 L895 631 L769 490 L950 435 L899 292 L656 401 L411 274 Z" /><glyph glyph-name="uni62EC" unicode="&#x62ec;" d="M74 414 L74 571 L160 573 L155 732 L314 736 L308 576 L375 578 L375 421 L302 419 L298 316 L373 321 L384 226 L293 204 L285 -25 L93 -35 L103 101 L177 94 L174 176 L81 154 L57 300 L169 307 L166 416 L74 414 ZM431 568 L395 669 L828 808 L917 657 L602 599 L746 602 L738 478 L928 481 L928 345 L729 341 L724 254 L908 258 L880 -59 L445 -69 L422 109 L580 112 L568 37 L757 40 L749 145 L442 140 L442 248 L604 251 L598 339 L396 336 L396 472 L590 475 L582 596 L431 568 Z" /><glyph glyph-name="uni62F3" unicode="&#x62f3;" d="M476 406 L284 314 L674 357 L583 408 L476 406 ZM113 535 L113 654 L246 657 Q195 672 194 719 Q201 778 275 781 Q349 779 357 721 Q356 674 306 658 L426 661 L421 805 L586 808 L579 664 L641 666 L689 784 L828 743 L751 668 L896 671 L896 552 L573 545 L571 499 L936 507 L936 416 L724 411 L950 351 L884 238 L733 323 L781 272 L585 262 L581 222 L762 226 L762 160 L575 156 L572 123 L909 130 L909 42 L564 34 L554 -69 L312 -79 L322 7 L445 -1 L442 32 L98 25 L98 113 L433 120 L430 153 L243 149 L243 215 L424 219 L420 254 L226 245 L214 281 L100 226 L55 296 L267 402 L72 398 L72 489 L432 496 L431 542 L113 535 Z" /><glyph glyph-name="uni62FE" unicode="&#x62fe;" d="M647 574 L542 448 L756 453 L647 574 ZM447 -69 L421 229 L580 233 L563 48 L750 51 L738 148 L608 145 L608 254 L892 260 L867 -59 L447 -69 ZM435 319 L374 400 L622 810 L785 740 L713 654 L951 460 L861 338 L792 414 L792 328 L513 322 L513 413 L435 319 ZM74 425 L74 582 L162 584 L157 732 L314 736 L308 587 L378 589 L378 432 L302 430 L297 322 L387 331 L399 235 L293 208 L284 -25 L93 -35 L103 101 L181 94 L178 178 L81 154 L57 300 L173 311 L168 427 L74 425 Z" /><glyph glyph-name="uni62FF" unicode="&#x62ff;" d="M503 666 L400 606 L600 612 L503 666 ZM125 209 L95 277 L836 329 L902 239 L585 227 L583 193 L862 200 L862 148 L578 142 L576 114 L936 122 L936 44 L569 36 L561 -69 L301 -79 L310 6 L439 -2 L436 33 L71 25 L71 104 L429 111 L427 138 L144 132 L144 184 L422 190 L420 220 L125 209 ZM111 438 L56 524 L489 809 L643 748 L590 717 L951 589 L873 459 L802 499 L781 343 L223 331 L202 484 L360 487 L348 404 L652 412 L647 448 L387 442 L387 508 L771 516 L664 576 L664 546 L349 537 L349 576 L111 438 Z" /><glyph glyph-name="uni6301" unicode="&#x6301;" d="M480 -41 Q402 -37 396 34 Q399 110 480 116 Q554 109 561 38 Q554 -34 480 -41 ZM377 138 L377 253 L671 259 L668 305 L838 309 L834 262 L927 264 L927 149 L824 147 L807 -68 L567 -78 L579 54 L689 40 L680 144 L377 138 ZM74 415 L74 571 L146 573 L140 732 L297 736 L291 576 L345 578 L345 421 L285 419 L282 334 L343 344 L355 248 L277 221 L268 -25 L93 -35 L103 101 L165 94 L161 181 L81 154 L57 300 L156 315 L152 416 L74 415 ZM400 558 L400 687 L578 688 L571 805 L743 808 L735 689 L904 691 L904 561 L726 560 L719 459 L936 463 L936 342 L370 332 L370 453 L593 457 L587 559 L400 558 Z" /><glyph glyph-name="uni6309" unicode="&#x6309;" d="M614 222 L571 155 L686 121 L723 224 L614 222 ZM660 636 Q574 643 568 720 Q576 799 660 807 Q746 800 754 720 Q748 642 660 636 ZM403 390 L375 625 L946 637 L918 400 L806 396 L790 490 L531 484 L516 393 L403 390 ZM74 414 L74 571 L157 573 L152 732 L308 736 L301 576 L363 578 L363 421 L295 419 L292 324 L356 331 L368 235 L287 212 L278 -25 L93 -35 L103 101 L174 94 L171 179 L81 154 L57 300 L166 311 L163 416 L74 414 ZM395 217 L395 337 L537 340 L595 461 L738 413 L693 343 L934 349 L934 229 L861 227 L796 88 L949 43 L890 -80 L670 10 L433 -79 L382 -3 L549 60 L428 110 L480 219 L395 217 Z" /><glyph glyph-name="uni6311" unicode="&#x6311;" d="M852 157 L804 334 L865 379 L953 218 L852 157 ZM869 420 L807 466 L856 658 L953 583 L869 420 ZM686 -55 L668 779 L813 783 L795 70 L850 71 L845 140 L950 143 L939 -49 L686 -55 ZM74 415 L74 571 L153 573 L148 733 L295 736 L289 576 L339 578 L339 421 L284 420 L282 357 L331 370 L345 275 L279 244 L270 -25 L100 -35 L110 101 L167 94 L164 192 L81 154 L57 300 L160 326 L157 417 L74 415 ZM408 128 L316 208 L445 384 L494 332 L489 475 Q466 449 432 449 Q363 456 356 523 Q363 590 432 597 Q463 597 486 574 L478 805 L622 808 L613 130 L414 -80 L336 -25 L500 175 L495 302 L408 128 Z" /><glyph glyph-name="uni6362" unicode="&#x6362;" d="M841 -79 Q773 -73 766 -8 Q773 57 841 63 Q910 57 917 -8 Q910 -73 841 -79 ZM74 415 L74 571 L159 573 L155 732 L302 736 L296 576 L360 578 L360 421 L291 419 L289 335 L368 347 L380 251 L285 220 L277 -25 L92 -35 L102 101 L174 94 L171 183 L80 154 L57 300 L167 316 L164 417 L74 415 ZM440 469 L367 524 L524 809 L671 760 L611 684 L863 690 L863 544 L808 479 L909 482 L893 209 L936 210 L936 90 L703 85 L483 -79 L406 -20 L528 81 L383 78 L383 198 L426 199 L416 446 L528 448 L519 201 L591 202 L583 309 L738 312 L729 205 L801 207 L794 350 L555 346 L555 474 L676 476 L705 539 L533 536 L533 586 L440 469 Z" /><glyph glyph-name="uni636E" unicode="&#x636e;" d="M514 233 L514 339 L650 341 L646 394 L797 397 L792 343 L922 345 L922 239 L782 237 L776 165 L915 168 L895 -62 L543 -69 L525 59 L658 61 L651 22 L788 24 L782 88 L553 84 L553 161 L664 163 L659 235 L514 233 ZM74 415 L74 571 L155 573 L150 732 L298 736 L292 576 L345 578 L345 421 L287 420 L284 332 L342 340 L354 244 L281 220 L273 -25 L92 -35 L102 101 L170 94 L167 182 L81 154 L57 300 L163 315 L160 417 L74 415 ZM467 -56 L366 -40 L383 755 L527 746 L510 524 L784 529 L780 638 L554 633 L554 772 L925 779 L898 422 L502 414 L467 -56 Z" /><glyph glyph-name="uni6389" unicode="&#x6389;" d="M359 -10 L359 104 L570 108 L565 156 L736 159 L731 112 L951 117 L951 2 L719 -2 L711 -84 L593 -84 L584 -5 L359 -10 ZM74 415 L74 571 L159 573 L155 732 L302 736 L296 576 L367 578 L367 421 L291 419 L288 330 L364 340 L376 244 L285 216 L277 -25 L92 -35 L102 101 L174 94 L171 181 L81 154 L57 300 L167 314 L164 417 L74 415 ZM417 171 L389 378 L547 381 L542 355 L736 359 L736 305 L532 300 L526 263 L778 269 L760 414 L418 406 L418 517 L591 520 L567 805 L738 808 L730 709 L933 714 L933 584 L719 579 L715 523 L919 527 L887 182 L417 171 Z" /><glyph glyph-name="uni638C" unicode="&#x638c;" d="M188 337 L167 482 L318 486 L307 405 L693 414 L689 447 L346 440 L346 511 L839 522 L815 351 L188 337 ZM99 507 L58 672 L183 674 Q168 694 168 715 Q175 781 252 787 Q327 781 334 715 Q334 694 321 677 L442 680 L421 805 L585 808 L564 682 L669 685 L691 797 L849 763 L791 687 L952 691 L910 535 L799 533 L785 566 L224 554 L209 509 L99 507 ZM125 218 L102 289 L817 330 L886 243 L592 233 L589 197 L862 203 L862 148 L584 141 L582 115 L936 123 L936 43 L575 35 L567 -69 L301 -79 L310 7 L433 -1 L430 32 L71 24 L71 104 L424 112 L422 138 L143 132 L143 188 L418 193 L415 227 L125 218 Z" /><glyph glyph-name="uni6390" unicode="&#x6390;" d="M448 373 L363 417 L522 809 L684 755 L616 646 L907 651 L907 505 L767 349 L668 379 L741 501 L562 499 L562 557 L448 373 ZM74 415 L74 571 L149 573 L145 732 L292 736 L286 576 L350 578 L350 421 L281 419 L278 328 L343 337 L354 241 L275 216 L267 -25 L92 -35 L102 101 L164 94 L161 180 L80 154 L57 300 L157 313 L154 416 L74 415 ZM673 94 L673 166 L776 168 L770 223 L666 221 L666 325 L925 330 L897 -58 L409 -67 L378 262 L546 385 L651 291 L532 241 L525 164 L631 166 L631 94 L518 92 L514 45 L791 50 L785 96 L673 94 Z" /><glyph glyph-name="uni6392" unicode="&#x6392;" d="M707 -53 L680 775 L839 778 L834 618 L924 621 L924 474 L829 471 L826 382 L895 384 L895 275 L822 273 L820 202 L936 205 L936 67 L815 64 L812 -51 L707 -53 ZM74 414 L74 571 L150 573 L145 732 L298 736 L292 576 L354 578 L354 421 L287 419 L283 322 L349 329 L358 233 L279 210 L271 -25 L93 -35 L103 101 L168 94 L165 178 L81 154 L57 300 L160 310 L156 416 L74 414 ZM386 463 L386 610 L475 612 L470 805 L628 808 L602 -76 L495 -79 L491 58 L367 56 L367 194 L487 196 L485 267 L398 265 L398 374 L482 376 L479 465 L386 463 Z" /><glyph glyph-name="uni63A2" unicode="&#x63a2;" d="M425 -59 L361 4 L478 111 L576 25 L425 -59 ZM847 -47 Q774 -40 767 29 Q774 97 847 104 Q920 97 927 29 Q920 -40 847 -47 ZM462 313 L398 369 L566 566 L670 487 L462 313 ZM864 314 L678 503 L740 562 L949 422 L864 314 ZM411 535 L382 766 L940 778 L910 539 L803 535 L788 643 L532 638 L518 539 L411 535 ZM393 133 L393 274 L587 278 L581 370 L748 374 L741 281 L936 285 L936 144 L731 140 L716 -76 L611 -79 L596 137 L393 133 ZM74 414 L74 571 L149 573 L142 732 L306 736 L299 576 L364 578 L364 421 L292 419 L288 324 L357 332 L368 236 L283 212 L273 -25 L93 -35 L103 101 L170 94 L166 178 L81 154 L57 300 L160 311 L156 416 L74 414 Z" /><glyph glyph-name="uni63A5" unicode="&#x63a5;" d="M676 82 L698 89 L722 142 L586 139 L559 105 L676 82 ZM364 305 L364 410 L461 412 Q461 413 461 417 Q460 421 460 423 Q462 492 530 496 Q592 494 602 435 Q602 424 601 415 L681 416 L711 503 L855 475 L811 419 L933 422 L933 317 L364 305 ZM382 510 L382 658 L586 662 Q561 687 560 723 Q567 801 649 807 Q731 799 740 723 Q740 690 717 665 L916 669 L916 521 L382 510 ZM364 134 L364 235 L504 238 L542 306 L700 282 L667 241 L933 247 L933 147 L860 145 L808 57 L946 31 L892 -75 L673 -7 L400 -82 L368 -12 L527 37 L416 71 L450 136 L364 134 ZM74 414 L74 571 L146 573 L139 732 L303 736 L296 577 L346 578 L346 421 L290 419 L286 341 L343 352 L355 256 L281 228 L271 -25 L93 -35 L103 101 L167 94 L163 184 L81 154 L57 300 L157 318 L153 416 L74 414 Z" /><glyph glyph-name="uni63A7" unicode="&#x63a7;" d="M860 284 L674 396 L728 456 L948 386 L860 284 ZM411 282 L374 352 L588 464 L669 358 L411 282 ZM396 444 L368 654 L596 659 Q568 685 567 723 Q575 800 658 807 Q739 799 747 723 Q746 687 721 662 L947 667 L918 449 L806 447 L799 522 L515 515 L508 446 L396 444 ZM430 148 L430 255 L897 265 L897 158 L738 154 L727 59 L927 64 L927 -57 L404 -69 L404 52 L603 56 L592 151 L430 148 ZM74 414 L74 571 L148 573 L141 732 L303 736 L296 576 L355 578 L355 420 L290 418 L286 322 L356 329 L366 234 L281 210 L272 -25 L93 -35 L103 101 L169 94 L165 177 L81 154 L57 300 L159 310 L155 415 L74 414 Z" /><glyph glyph-name="uni63A8" unicode="&#x63a8;" d="M734 594 Q649 602 641 684 Q649 766 734 774 Q820 766 828 684 Q820 602 734 594 ZM446 418 L363 477 L491 811 L645 751 L536 570 L928 579 L928 433 L504 424 L504 515 L446 418 ZM74 415 L74 571 L150 573 L144 732 L301 736 L295 576 L353 578 L353 421 L289 419 L285 328 L352 337 L364 241 L281 215 L272 -25 L93 -35 L103 101 L169 94 L165 180 L80 154 L57 300 L160 313 L156 417 L74 415 ZM568 236 L568 325 L662 327 L658 400 L811 402 L807 330 L911 332 L911 243 L802 241 L799 183 L911 186 L911 93 L794 90 L792 45 L936 48 L936 -56 L412 -68 L385 395 L544 397 L521 39 L677 42 L675 88 L568 86 L568 179 L670 181 L667 238 L568 236 Z" /><glyph glyph-name="uni63B3" unicode="&#x63b3;" d="M467 -60 L368 -49 L388 421 L528 414 L467 -60 ZM601 -83 L521 -34 L607 73 L518 71 L518 174 L634 176 L632 213 L764 217 L758 179 L925 183 L904 -70 L709 -79 L717 29 L809 19 L805 78 L734 76 L601 -83 ZM74 415 L74 571 L163 573 L158 732 L306 736 L300 576 L358 578 L358 421 L295 419 L292 332 L349 340 L360 244 L289 221 L281 -25 L92 -35 L102 101 L178 94 L175 184 L80 154 L57 300 L171 315 L168 417 L74 415 ZM545 333 L545 398 L607 404 L604 448 L415 444 L415 564 L592 568 L570 805 L725 808 L719 748 L899 752 L899 623 L708 618 L703 570 L949 576 L919 402 L817 399 L812 453 L720 451 L718 415 L783 422 L783 356 L713 349 L711 318 L813 321 L808 369 L916 371 L902 243 L619 236 L611 339 L545 333 Z" /><glyph glyph-name="uni63D0" unicode="&#x63d0;" d="M74 415 L74 571 L155 573 L150 732 L298 736 L292 576 L362 578 L362 421 L287 419 L284 330 L340 337 L352 241 L281 218 L273 -25 L92 -35 L102 101 L170 94 L167 182 L80 154 L57 300 L163 314 L160 417 L74 415 ZM417 367 L389 753 L548 757 L535 579 L743 583 L743 519 L530 514 L526 457 L780 463 L763 645 L575 642 L575 771 L922 778 L889 377 L417 367 ZM375 207 L375 315 L936 326 L936 219 L738 214 L732 155 L912 159 L912 89 L726 85 L721 28 L953 31 L913 -82 L576 -60 L459 -15 L422 -79 L335 -52 L416 175 L547 137 L501 58 L604 27 L611 27 L594 211 L375 207 Z" /><glyph glyph-name="uni63E1" unicode="&#x63e1;" d="M640 170 L746 171 L743 137 L894 141 L894 60 L736 55 L734 24 L934 29 L934 -58 L500 -68 L500 20 L652 23 L649 53 L499 49 L499 131 L643 134 L640 170 ZM520 309 L520 402 L923 410 L923 316 L675 312 L774 297 L654 241 L798 250 L787 271 L845 300 L942 210 L854 148 L831 189 L536 170 L524 233 L625 311 L520 309 ZM74 415 L74 571 L151 573 L147 732 L289 736 L284 576 L344 578 L344 421 L279 419 L276 329 L333 337 L345 241 L272 217 L265 -25 L92 -35 L102 101 L165 94 L162 181 L80 154 L57 300 L159 313 L156 417 L74 415 ZM459 -58 L358 -43 L381 745 L528 736 L511 541 L783 547 L777 645 L555 641 L555 771 L927 778 L900 452 L502 443 L459 -58 Z" /><glyph glyph-name="uni63FD" unicode="&#x63fd;" d="M850 405 Q792 410 787 466 Q792 522 850 527 Q908 522 913 466 Q908 410 850 405 ZM389 114 L370 349 L520 352 L499 117 L389 114 ZM379 437 L364 744 L481 747 L467 440 L379 437 ZM530 411 L509 805 L653 808 L632 414 L530 411 ZM785 122 L770 275 L547 270 L547 379 L920 387 L896 125 L785 122 ZM745 420 L657 447 L706 778 L852 753 L831 689 L936 691 L936 547 L785 544 L745 420 ZM419 -81 L353 -17 L578 142 L565 239 L723 243 L704 104 L768 106 L753 39 L835 41 L827 86 L949 89 L932 -63 L647 -69 L631 55 L419 -81 ZM74 415 L74 571 L149 573 L144 733 L289 736 L283 576 L344 578 L344 421 L278 419 L275 328 L337 336 L349 240 L272 215 L264 -25 L93 -35 L103 101 L165 94 L162 180 L81 154 L57 300 L158 313 L154 417 L74 415 Z" /><glyph glyph-name="uni641E" unicode="&#x641e;" d="M537 15 L532 91 L606 93 L603 72 L677 73 L674 110 L548 108 L548 158 L753 162 L746 20 L537 15 ZM385 -69 L368 246 L509 250 L492 -69 L385 -69 ZM638 -78 L646 -2 L794 -9 L780 192 L538 188 L538 268 L922 275 L899 -71 L638 -78 ZM422 303 L400 497 L559 501 L550 388 L750 392 L745 442 L586 440 L586 517 L902 523 L876 312 L422 303 ZM366 556 L366 684 L565 688 Q555 704 555 727 Q562 801 641 808 Q718 801 725 727 Q725 707 716 691 L936 696 L936 568 L366 556 ZM74 415 L74 571 L151 573 L145 732 L285 736 L279 576 L347 578 L347 421 L273 419 L270 327 L334 336 L346 240 L266 214 L257 -25 L93 -35 L103 101 L169 94 L166 181 L81 154 L57 300 L161 313 L157 417 L74 415 Z" /><glyph glyph-name="uni6446" unicode="&#x6446;" d="M74 415 L74 571 L146 573 L141 733 L282 736 L276 576 L338 578 L338 421 L271 419 L268 327 L334 336 L346 240 L264 213 L256 -25 L93 -35 L103 101 L161 94 L158 179 L81 154 L57 300 L154 312 L151 416 L74 415 ZM375 438 L367 601 L493 604 L489 516 L545 517 L537 608 L622 610 L614 519 L676 520 L668 600 L753 603 L746 522 L800 523 L796 638 L394 630 L394 768 L930 778 L913 449 L375 438 ZM580 410 L708 415 L704 357 L906 362 L906 268 L698 263 L695 214 L934 219 L934 116 L575 108 L694 89 L532 23 L756 41 L740 75 L826 104 L943 -17 L813 -77 L797 -43 L392 -76 L370 11 L497 107 L357 104 L357 208 L592 212 L589 260 L385 256 L385 351 L583 355 L580 410 Z" /><glyph glyph-name="uni6469" unicode="&#x6469;" d="M608 439 L608 520 L698 522 L696 552 L830 555 L827 524 L915 526 L915 445 L821 443 L817 402 L868 434 L942 380 L867 335 L817 401 L812 337 L714 333 L710 380 L645 324 L589 347 L637 430 L708 405 L705 441 L608 439 ZM283 432 L283 513 L368 514 L366 551 L500 553 L497 517 L581 519 L581 438 L491 436 L488 400 Q504 421 533 422 Q582 418 586 379 Q582 340 533 336 Q500 337 485 362 L482 313 L383 309 L378 375 L312 314 L256 337 L307 423 L376 403 L374 434 L283 432 ZM158 -35 L58 -12 L98 175 L108 546 L263 534 L219 157 L158 -35 ZM137 571 L137 703 L470 709 Q465 721 465 735 Q473 801 555 808 Q635 801 643 735 Q643 723 639 713 L936 719 L936 587 L137 571 ZM279 208 L252 268 L878 326 L928 236 L652 224 L650 193 L866 198 L866 139 L645 133 L642 105 L927 112 L927 38 L636 31 L628 -69 L394 -79 L402 4 L519 -4 L516 28 L229 22 L229 96 L510 102 L508 130 L289 125 L289 185 L503 190 L501 217 L279 208 Z" /><glyph glyph-name="uni6492" unicode="&#x6492;" d="M467 513 L463 425 L526 426 L523 514 L467 513 ZM344 -69 L332 185 L443 188 L441 165 L510 166 L510 111 L437 109 L434 77 L508 79 L508 18 L429 16 L423 -67 L344 -69 ZM468 -80 L475 -3 L543 -9 L534 214 L358 210 L358 292 L646 299 L630 -70 L468 -80 ZM744 340 L671 373 L732 754 L855 711 L815 577 L936 580 L936 424 L789 420 L789 490 L744 340 ZM731 -55 L659 -24 L734 156 L667 278 L726 320 L775 256 L830 387 L929 318 L847 164 L952 29 L851 -55 L789 56 L731 -55 ZM74 414 L74 562 L148 563 L144 715 L268 719 L264 565 L314 566 L314 419 L260 418 L257 330 L313 339 L325 243 L254 217 L248 -24 L93 -34 L103 102 L161 95 L158 182 L81 154 L57 300 L155 315 L152 415 L74 414 ZM340 510 L340 656 L371 656 L366 805 L481 808 L474 659 L517 660 L513 784 L628 787 L621 662 L655 663 L655 517 L614 516 L609 428 L663 429 L663 334 L332 327 L332 422 L380 423 L377 511 L340 510 Z" /><glyph glyph-name="uni64C5" unicode="&#x64c5;" d="M522 359 L515 413 L592 414 L589 397 L670 399 L666 430 L532 427 L532 469 L749 475 L738 364 L522 359 ZM335 -69 L335 16 L936 29 L936 -57 L335 -69 ZM409 47 L391 227 L535 231 L529 171 L707 174 L707 133 L524 129 L522 105 L741 110 L731 200 L562 196 L562 249 L875 256 L854 56 L409 47 ZM335 584 L335 695 L557 699 Q552 713 552 728 Q559 803 637 809 Q716 802 723 728 Q723 714 718 702 L936 707 L936 596 L335 584 ZM379 272 L363 538 L497 542 L485 337 L784 343 L773 498 L524 493 L524 561 L908 569 L890 283 L379 272 ZM74 415 L74 571 L138 573 L132 732 L279 736 L273 576 L325 578 L325 422 L267 420 L263 327 L333 336 L346 240 L259 212 L250 -25 L93 -35 L103 101 L156 94 L153 177 L81 154 L57 300 L148 312 L144 417 L74 415 Z" /><glyph glyph-name="uni64E6" unicode="&#x64e6;" d="M415 -78 L358 -29 L434 56 L532 2 L415 -78 ZM830 -72 Q772 -67 767 -12 Q772 43 830 48 Q889 43 894 -12 Q889 -67 830 -72 ZM534 -79 L543 12 L597 5 L583 56 L717 60 L698 -69 L534 -79 ZM401 75 L401 167 L893 178 L893 86 L401 75 ZM842 508 L830 567 L473 564 L462 513 L365 511 L335 675 L576 678 Q562 697 560 725 Q563 806 648 808 Q719 804 731 735 Q733 704 715 680 L970 683 L939 511 L842 508 ZM389 340 L343 391 L502 533 L601 500 L569 475 L641 477 L641 386 L595 315 L557 287 L743 291 L691 328 L640 522 L724 544 L765 365 L798 349 L826 402 L768 401 L768 489 L919 492 L919 405 L854 321 L953 274 L908 175 L774 269 L774 213 L520 208 L520 259 L378 154 L338 206 L398 252 L395 252 Q362 255 359 285 Q362 316 395 319 Q428 316 431 285 Q431 280 429 275 L468 305 L466 305 Q437 308 434 336 Q437 364 466 367 Q495 364 498 336 Q498 330 496 326 L517 342 L533 383 L480 382 L480 408 L389 340 ZM74 415 L74 571 L150 573 L144 732 L289 736 L283 576 L344 578 L344 421 L277 419 L274 332 L333 341 L345 245 L269 219 L260 -25 L93 -35 L103 101 L168 94 L165 183 L81 154 L57 300 L160 315 L156 417 L74 415 Z" /><glyph glyph-name="uni6536" unicode="&#x6536;" d="M566 355 L472 393 L565 809 L728 760 L658 585 L936 591 L936 435 L639 428 L639 537 L566 355 ZM559 -72 L481 -18 L605 152 L490 268 L564 331 L674 246 L789 402 L926 323 L779 165 L955 29 L829 -72 L689 68 L559 -72 ZM107 124 L81 597 L217 601 L205 280 L314 302 L301 736 L452 740 L430 -32 L324 -36 L318 167 L107 124 Z" /><glyph glyph-name="uni653E" unicode="&#x653e;" d="M274 581 Q190 589 182 669 Q190 749 274 757 Q359 749 367 669 Q359 589 274 581 ZM74 386 L74 533 L474 541 L474 394 L74 386 ZM585 348 L491 387 L586 809 L748 760 L677 581 L936 587 L936 430 L652 424 L652 517 L585 348 ZM147 -2 L58 24 L143 386 L282 355 L260 296 L457 300 L429 -26 L216 -36 L226 96 L332 86 L325 173 L236 171 L236 233 L147 -2 ZM563 -72 L486 -9 L614 165 L524 266 L598 330 L683 258 L788 401 L925 321 L787 171 L955 30 L829 -72 L697 74 L563 -72 Z" /><glyph glyph-name="uni6548" unicode="&#x6548;" d="M113 223 L58 288 L184 457 L293 371 L113 223 ZM458 235 L308 402 L371 459 L555 343 L458 235 ZM129 -82 L65 -22 L194 112 L117 180 L178 249 L269 189 L358 281 L469 190 L379 118 L507 35 L412 -80 L278 37 L129 -82 ZM622 347 L531 383 L624 759 L778 710 L721 578 L936 583 L936 426 L690 419 L690 505 L622 347 ZM604 -34 L527 20 L640 172 L550 266 L621 326 L706 260 L805 394 L934 315 L808 181 L955 68 L841 -34 L721 89 L604 -34 ZM67 468 L67 624 L276 629 Q200 644 196 716 Q204 800 293 808 Q382 801 390 716 Q386 647 314 630 L520 635 L520 479 L67 468 Z" /><glyph glyph-name="uni654F" unicode="&#x654f;" d="M359 148 Q359 139 356 131 L399 132 L402 222 L220 217 L208 128 L254 129 Q251 138 251 148 Q255 198 306 202 Q354 197 359 148 ZM650 345 L562 381 L649 755 L790 713 L737 575 L933 580 L933 424 L707 418 L707 495 L650 345 ZM116 491 L51 546 L187 814 L326 761 L277 698 L568 706 L568 572 L220 563 L220 624 L116 491 ZM631 -32 L563 21 L668 176 L597 262 L660 326 L728 265 L813 392 L931 314 L819 185 L950 69 L841 -32 L738 92 L631 -32 ZM71 214 L71 315 L111 316 L114 379 L244 382 L235 319 L269 320 Q267 326 267 334 Q272 383 321 388 Q372 384 376 334 Q376 328 375 322 L405 323 L408 417 L141 410 L141 509 L546 519 L526 326 L570 327 L570 226 L516 224 L507 135 L552 136 L552 50 L499 49 L487 -70 L227 -81 L236 12 L395 2 L396 46 L102 40 L108 215 L71 214 Z" /><glyph glyph-name="uni6570" unicode="&#x6570;" d="M383 138 L264 135 L237 94 L324 73 L383 138 ZM454 619 L390 662 L457 782 L557 724 L454 619 ZM488 288 L389 376 L435 442 L562 384 L488 288 ZM126 280 L61 333 L143 442 L242 376 L126 280 ZM227 697 Q220 633 151 627 Q85 633 78 697 Q84 762 151 768 Q221 762 227 697 ZM660 346 L571 375 L646 759 L794 719 L743 577 L936 583 L936 426 L717 419 L717 504 L660 346 ZM647 -34 L577 20 L670 163 L576 263 L641 326 L729 254 L820 394 L934 315 L821 178 L955 68 L854 -34 L744 84 L647 -34 ZM86 450 L86 589 L248 593 L240 805 L389 808 L380 597 L544 601 L544 462 L374 457 L369 324 L260 321 L254 454 L86 450 ZM122 -79 L65 -11 L214 25 L105 65 L138 132 L72 131 L72 245 L194 248 L226 312 L368 293 L340 251 L538 256 L538 144 L435 46 L559 17 L505 -81 L342 -21 L122 -79 Z" /><glyph glyph-name="uni6574" unicode="&#x6574;" d="M396 501 L350 500 L348 459 L406 460 L396 501 ZM446 286 Q396 291 391 336 Q396 381 446 386 Q498 382 503 336 Q498 290 446 286 ZM94 273 L60 325 L160 382 L228 319 L94 273 ZM578 505 L512 548 L627 757 L760 726 L716 673 L927 678 L927 560 L669 554 L669 615 L578 505 ZM595 287 L537 334 L646 421 L574 459 L621 520 L722 482 L799 543 L919 501 L830 442 L951 397 L891 294 L731 377 L595 287 ZM106 174 L106 260 L901 278 L901 192 L106 174 ZM70 -70 L70 24 L270 28 L244 118 L348 168 L360 30 L476 32 L456 160 L615 164 L610 131 L836 134 L836 75 L600 72 L595 35 L936 42 L936 -52 L70 -70 ZM71 609 L71 726 L226 728 L222 805 L366 807 L362 730 L518 733 L518 616 L356 613 L354 573 L501 576 L479 400 L345 397 L339 283 L249 281 L243 395 L101 392 L84 480 L190 484 L178 456 L240 457 L238 499 L102 497 L102 569 L234 571 L232 611 L71 609 Z" /><glyph glyph-name="uni6587" unicode="&#x6587;" d="M504 619 Q403 626 396 713 Q403 800 504 807 Q604 800 611 713 Q604 626 504 619 ZM73 419 L73 576 L936 593 L936 437 L73 419 ZM136 -80 L61 2 L370 187 L149 313 L215 392 L498 264 L749 414 L884 313 L655 193 L952 59 L838 -80 L501 112 L136 -80 Z" /><glyph glyph-name="uni6597" unicode="&#x6597;" d="M372 247 Q275 255 266 348 Q275 439 372 447 Q467 439 476 348 Q467 255 372 247 ZM274 497 Q171 507 161 607 Q171 706 274 715 Q379 706 389 607 Q379 507 274 497 ZM71 21 L71 177 L614 221 L597 805 L768 808 L750 232 L936 247 L936 91 L745 75 L741 -74 L623 -78 L618 65 L71 21 Z" /><glyph glyph-name="uni6599" unicode="&#x6599;" d="M400 448 L326 472 L367 619 L480 579 L400 448 ZM348 25 L314 200 L393 224 L461 63 L348 25 ZM597 279 Q522 286 514 357 Q521 430 597 437 Q672 430 679 357 Q672 286 597 279 ZM595 507 Q513 514 505 591 Q513 670 595 677 Q675 669 683 591 Q675 515 595 507 ZM133 16 L59 31 L87 224 L185 204 L184 269 L69 267 L69 422 L180 424 L178 509 Q157 485 124 485 Q61 488 56 547 Q61 609 124 612 Q154 611 176 589 L172 736 L322 741 L312 427 L423 430 L423 275 L307 272 L297 -34 L192 -37 L186 181 L133 16 ZM479 46 L479 203 L735 234 L718 805 L872 808 L860 249 L936 258 L936 102 L856 92 L853 -75 L744 -79 L739 78 L479 46 Z" /><glyph glyph-name="uni65A9" unicode="&#x65a9;" d="M739 -79 L713 229 L862 233 L835 -75 L739 -79 ZM572 -72 L482 -43 L531 191 L527 669 L857 810 L946 647 L675 594 L663 419 L936 426 L936 278 L652 271 L645 160 L572 -72 ZM70 478 L70 626 L157 627 L193 758 L326 727 L290 630 L490 634 L490 486 L236 481 L183 336 L243 337 L240 443 L369 446 L366 340 L461 342 L461 234 L362 232 L361 172 L476 185 L489 93 L358 63 L355 -31 L253 -35 L251 39 L103 5 L71 141 L248 160 L246 229 L89 226 L76 334 L116 479 L70 478 Z" /><glyph glyph-name="uni65B0" unicode="&#x65b0;" d="M124 -18 L59 9 L95 107 L197 74 L124 -18 ZM428 -16 Q371 -11 366 42 Q371 94 428 99 Q483 94 488 42 Q483 -10 428 -16 ZM747 -79 L729 230 L867 234 L849 -75 L747 -79 ZM71 279 L71 378 L135 379 Q132 389 132 401 Q138 462 201 468 Q265 462 271 401 Q271 392 268 383 L309 384 L330 476 L453 449 L412 386 L506 389 L506 290 L71 279 ZM94 122 L94 219 L220 222 L217 260 L361 263 L357 226 L483 229 L483 132 L348 128 L334 -24 L186 -34 L194 60 L236 51 L229 125 L94 122 ZM92 485 L92 615 L251 618 Q209 641 207 688 Q214 758 289 765 Q362 758 369 688 Q368 644 329 620 L485 624 L485 494 L92 485 ZM603 -68 L513 -47 L550 187 L542 673 L857 808 L946 645 L680 599 L670 418 L936 425 L936 277 L663 270 L657 157 L603 -68 Z" /><glyph glyph-name="uni65B9" unicode="&#x65b9;" d="M503 606 Q395 616 383 711 Q393 802 503 810 Q614 802 623 711 Q611 615 503 606 ZM81 419 L81 567 L926 585 L926 437 L324 424 L471 387 L429 315 L839 323 L788 -54 L428 -70 L437 74 L670 59 L667 182 L398 178 L398 262 L199 -77 L84 -33 L290 423 L81 419 Z" /><glyph glyph-name="uni65C1" unicode="&#x65c1;" d="M98 295 L57 447 L275 451 Q274 457 274 464 Q280 523 352 526 Q428 523 434 464 Q434 462 434 459 Q433 456 433 455 L579 458 L595 534 L747 513 L715 461 L951 466 L909 306 L798 303 L787 361 L223 349 L209 298 L98 295 ZM128 537 L128 674 L437 681 Q414 704 414 732 Q422 801 504 808 Q585 801 593 732 Q593 705 572 684 L879 691 L879 553 L128 537 ZM118 168 L118 264 L423 270 L423 276 Q430 339 504 345 Q577 339 584 276 L584 274 L889 280 L889 184 L356 173 L440 160 L408 128 L808 137 L767 -64 L404 -79 L413 14 L652 1 L647 46 L372 39 L372 91 L213 -71 L128 -28 L272 171 L118 168 Z" /><glyph glyph-name="uni65D7" unicode="&#x65d7;" d="M822 -79 Q758 -74 752 -13 Q757 49 822 54 Q886 48 891 -13 Q885 -73 822 -79 ZM720 296 L609 293 L608 261 L720 264 L720 207 L605 204 L604 176 L752 180 L742 392 L613 390 L611 344 L720 347 L720 296 ZM471 -79 L433 -16 L589 56 L677 -33 L471 -79 ZM239 581 Q155 588 147 669 Q155 750 239 757 Q323 750 331 669 Q323 588 239 581 ZM74 386 L74 533 L405 541 L405 394 L74 386 ZM458 545 L388 599 L535 810 L673 767 L622 714 L936 720 L936 599 L557 592 L557 647 L458 545 ZM142 -2 L58 24 L133 386 L269 355 L248 297 L405 301 L377 -26 L200 -36 L209 96 L289 86 L282 174 L223 172 L223 225 L142 -2 ZM431 386 L431 489 L492 490 L489 551 L621 554 L618 492 L738 495 L735 561 L868 565 L865 497 L925 499 L925 396 L860 395 L851 182 L936 184 L936 71 L420 60 L420 172 L506 174 L496 387 L431 386 Z" /><glyph glyph-name="uni65E0" unicode="&#x65e0;" d="M543 -69 L512 222 L671 226 L653 65 L817 68 L809 169 L949 173 L917 -61 L543 -69 ZM133 595 L133 744 L876 760 L876 610 L133 595 ZM82 266 L82 404 L433 411 L422 565 L587 569 L577 414 L927 422 L927 285 L538 276 L155 -79 L59 -18 L358 272 L82 266 Z" /><glyph glyph-name="uni65E5" unicode="&#x65e5;" d="M721 87 L715 293 L289 282 L283 77 L721 87 ZM155 -64 L132 710 L302 714 L292 374 L713 384 L707 605 L338 597 L338 743 L877 755 L849 -49 L155 -64 Z" /></font>
</defs>
</svg>
