<?xml version="1.0" standalone="no"?><!DOCTYPE svg PUBLIC "-//W3C//DTD SVG 1.1//EN" "http://www.w3.org/Graphics/SVG/1.1/DTD/svg11.dtd" ><svg xmlns="http://www.w3.org/2000/svg"><metadata></metadata><defs><font id="fonteditor" horiz-adv-x="256"><font-face font-family="e¹kcQpN­Y'Ñ_GBK" font-weight="400" font-stretch="normal" units-per-em="256" panose-1="2 0 0 0 0 0 0 0 0 0" ascent="229" descent="-79" x-height="0" bbox="4 -35 252 215" underline-thickness="0" underline-position="0" unicode-range="U+002d-ff1a" /><missing-glyph horiz-adv-x="256"  /><glyph glyph-name="hyphen" unicode="-" d="M162 75 L16 75 L16 103 L162 103 L162 75 Z" /><glyph glyph-name="zero" unicode="0" d="M91 199 Q170 198 171 90 Q172 -18 92 -17 Q13 -16 12 90 Q14 196 91 199 ZM92 14 Q126 13 126 89 Q126 167 92 166 Q57 167 57 89 Q57 14 92 14 Z" /><glyph glyph-name="one" unicode="1" d="M72 -14 L72 136 Q43 113 6 101 L6 137 Q60 159 81 196 L114 196 L114 -14 L72 -14 Z" /><glyph glyph-name="two" unicode="2" d="M60 20 L162 20 L162 -14 L9 -14 L9 12 Q33 49 72 79 Q122 116 118 135 Q117 163 86 164 Q56 164 50 128 L10 136 Q22 198 92 198 Q157 196 162 139 Q166 99 115 69 Q82 46 60 20 Z" /><glyph glyph-name="five" unicode="5" d="M12 37 L54 47 Q61 13 91 13 Q124 16 126 51 Q125 89 90 90 Q66 89 55 75 L20 76 L28 194 L157 194 L157 159 L64 159 L59 107 Q77 120 101 120 Q165 117 168 54 Q166 -15 91 -17 Q27 -17 12 37 Z" /><glyph glyph-name="quotedblleft" unicode="&#x201c;" d="M183 159 L207 159 L207 113 L161 113 Q161 125 161 154 Q159 195 200 215 L211 200 Q183 185 183 159 ZM141 215 L152 200 Q124 185 123 159 L147 159 L147 113 L101 113 Q101 125 101 154 Q99 195 141 215 Z" /><glyph glyph-name="quotedblright" unicode="&#x201d;" d="M56 111 L45 126 Q73 141 73 167 L49 167 L49 213 L95 213 Q95 202 95 172 Q97 131 56 111 ZM115 111 L104 126 Q132 140 133 167 L108 167 L108 213 L154 213 Q154 202 154 172 Q156 131 115 111 Z" /><glyph glyph-name="uni4E00" unicode="&#x4e00;" d="M6 73 L6 113 L249 113 L249 73 L6 73 Z" /><glyph glyph-name="uni4E0A" unicode="&#x4e0a;" d="M9 -17 L9 18 L95 18 L95 209 L138 209 L138 141 L229 141 L229 104 L138 104 L138 18 L247 18 L247 -17 L9 -17 Z" /><glyph glyph-name="uni4E0D" unicode="&#x4e0d;" d="M15 158 L15 194 L244 194 L244 158 L159 158 Q147 134 132 114 L148 114 L148 -28 L107 -28 L107 84 Q78 52 29 20 Q14 44 5 55 Q84 101 113 158 L15 158 ZM221 25 Q201 44 161 78 Q152 85 148 89 L174 115 Q188 105 212 86 Q237 67 250 56 L221 25 Z" /><glyph glyph-name="uni4E16" unicode="&#x4e16;" d="M9 122 L9 157 L33 157 L33 199 L70 199 L70 157 L103 157 L103 209 L140 209 L140 157 L182 157 L182 209 L218 209 L218 157 L247 157 L247 122 L218 122 L218 42 L103 42 L103 122 L70 122 L70 14 L244 14 L244 -19 L33 -19 L33 122 L9 122 ZM140 122 L140 76 L182 76 L182 122 L140 122 Z" /><glyph glyph-name="uni4E24" unicode="&#x4e24;" d="M72 5 Q63 13 55 21 L55 -26 L19 -26 L19 140 L76 140 Q76 152 76 164 L7 164 L7 196 L248 196 L248 164 L179 164 L179 140 L236 140 L236 13 Q238 -26 201 -24 L163 -25 Q160 -9 156 6 Q169 5 186 5 Q202 4 201 19 L201 36 L190 21 Q182 31 165 48 Q156 24 134 0 Q130 2 123 9 Q113 17 108 21 Q142 59 144 108 L110 108 Q110 100 109 91 Q116 85 129 75 Q132 72 134 71 L115 42 L100 56 Q92 32 72 5 ZM55 108 L55 42 Q76 72 78 108 L55 108 ZM201 108 L177 108 Q177 96 175 84 Q180 80 188 72 Q197 64 201 60 L201 108 ZM111 164 Q111 152 111 140 L144 140 Q144 143 144 151 Q145 159 145 164 L111 164 Z" /><glyph glyph-name="uni4E2A" unicode="&#x4e2a;" d="M227 80 Q162 118 129 165 Q92 115 27 76 Q21 86 7 109 Q6 111 5 112 Q81 153 111 211 L156 209 Q153 203 150 197 Q181 150 250 117 Q248 114 245 109 Q232 89 227 80 ZM107 -29 L107 119 L148 119 L148 -29 L107 -29 Z" /><glyph glyph-name="uni4EBA" unicode="&#x4eba;" d="M221 -25 Q147 15 128 86 Q112 19 31 -28 Q19 -8 6 6 Q102 55 104 151 Q106 176 106 209 L146 209 Q146 209 146 205 Q145 186 145 172 Q149 53 249 10 Q234 -6 221 -25 Z" /><glyph glyph-name="uni4EE5" unicode="&#x4ee5;" d="M221 -25 Q213 -14 197 6 Q189 17 185 22 Q165 -3 116 -30 Q101 -11 91 0 Q144 29 160 53 Q177 76 179 130 Q180 150 180 204 L220 204 Q220 190 219 167 Q219 142 218 129 Q215 86 205 58 Q235 24 251 3 L221 -25 ZM35 -24 L9 7 Q21 17 20 39 L20 200 L60 200 L60 43 Q89 65 114 85 Q116 62 121 42 Q107 32 82 13 Q65 0 56 -5 Q46 -13 35 -24 ZM115 123 Q97 157 78 191 L109 208 Q126 183 150 143 L115 123 Z" /><glyph glyph-name="uni4F4D" unicode="&#x4f4d;" d="M14 56 Q10 81 5 105 Q33 148 51 211 L88 200 Q80 176 69 151 L69 -30 L33 -30 L33 84 Q24 69 14 56 ZM79 -20 L79 12 L161 12 Q181 74 196 127 L234 117 L198 12 L249 12 L249 -20 L79 -20 ZM83 136 L83 170 L145 170 Q144 176 140 189 Q137 202 135 207 L177 209 Q179 203 182 190 Q186 176 187 170 L245 170 L245 136 L83 136 ZM119 22 Q108 69 93 117 L127 127 Q142 79 156 33 L119 22 Z" /><glyph glyph-name="uni4F60" unicode="&#x4f60;" d="M14 54 Q13 62 10 78 Q7 93 5 101 Q36 147 54 211 L91 202 Q82 172 69 145 L69 -28 L33 -28 L33 80 Q28 73 18 59 Q15 56 14 54 ZM231 106 Q221 109 200 113 Q197 114 196 114 L208 145 L130 145 Q117 122 101 98 Q88 111 73 123 Q102 160 115 209 L153 204 Q152 199 148 190 Q146 183 145 180 L245 180 L245 149 L231 106 ZM115 -26 Q114 -23 113 -15 Q109 2 108 8 Q117 7 133 7 Q146 6 145 19 L145 132 L182 132 L182 11 Q183 -23 150 -25 Q141 -26 115 -26 ZM215 6 Q211 17 204 39 Q192 76 186 94 L220 103 Q225 89 235 60 Q246 29 250 17 L215 6 ZM107 7 Q88 16 74 20 Q93 64 107 105 L140 94 Q123 44 107 7 Z" /><glyph glyph-name="uni505A" unicode="&#x505a;" d="M232 -28 Q211 -11 197 5 Q181 -12 158 -31 Q146 -11 138 -2 L101 -2 L101 -15 L70 -15 L70 102 L93 102 L93 134 L67 134 L67 166 L93 166 L93 209 L127 209 L127 166 L151 166 L151 134 L127 134 L127 102 L149 102 L149 6 Q167 21 178 36 Q166 61 162 95 L155 85 Q149 101 143 119 Q161 149 175 209 L209 205 Q203 185 197 167 L249 167 L249 135 L239 135 Q235 72 216 35 Q230 20 249 4 Q238 -14 232 -28 ZM26 -28 L26 82 Q23 76 17 65 Q14 61 13 59 Q12 63 11 71 Q7 94 5 107 Q24 146 40 210 L74 204 Q67 177 58 153 L58 -28 L26 -28 ZM197 69 Q207 94 208 135 L186 135 Q187 93 197 69 ZM101 71 L101 27 L119 27 L119 71 L101 71 Z" /><glyph glyph-name="uni5206" unicode="&#x5206;" d="M31 -30 Q29 -27 25 -21 Q14 -6 8 0 Q75 24 74 72 L75 81 L45 81 L45 98 Q39 93 28 85 Q25 82 23 81 Q11 104 5 118 Q58 151 81 209 L117 194 Q95 147 63 115 L191 115 Q161 143 140 198 L172 211 Q199 145 251 119 Q248 112 240 97 Q234 87 232 82 Q222 90 211 97 L208 22 Q209 -24 158 -23 Q142 -24 118 -24 Q116 -13 111 11 Q139 9 151 10 Q171 9 170 29 Q171 37 172 59 Q173 74 173 81 L113 81 L112 70 Q113 1 31 -30 Z" /><glyph glyph-name="uni5230" unicode="&#x5230;" d="M9 168 L9 200 L142 200 L142 168 L81 168 Q75 158 63 141 Q58 133 55 129 Q62 130 76 130 Q90 131 97 131 L85 149 L110 164 L150 106 L122 88 L114 102 Q63 100 37 99 Q26 98 18 95 L7 125 Q13 128 16 132 Q27 143 42 168 L9 168 ZM13 42 L13 74 L58 74 L58 94 L92 94 L92 74 L137 74 L137 42 L92 42 L92 17 L143 21 Q142 3 142 -11 Q90 -14 10 -23 L7 12 Q31 14 58 15 L58 42 L13 42 ZM162 -26 Q161 -19 158 -2 Q157 5 156 9 Q175 8 187 8 Q204 7 203 25 L203 209 L239 209 L239 13 Q241 -26 203 -25 Q188 -26 162 -26 ZM151 34 L151 182 L184 182 L184 34 L151 34 Z" /><glyph glyph-name="uni524D" unicode="&#x524d;" d="M21 -28 L21 138 L136 138 L136 7 Q137 -25 107 -25 Q100 -26 74 -26 Q73 -21 71 -11 Q69 0 68 4 Q75 3 91 3 Q104 2 103 14 L103 22 L54 22 L54 -28 L21 -28 ZM7 153 L7 184 L65 184 Q57 195 48 207 L89 212 L109 184 L147 184 Q157 197 166 212 L207 207 L191 184 L248 184 L248 153 L7 153 ZM163 -26 Q162 -21 160 -10 Q157 0 156 5 Q171 5 186 5 Q202 4 201 20 L201 143 L235 143 L235 11 Q237 -27 200 -26 Q183 -26 163 -26 ZM153 20 L153 132 L183 132 L183 20 L153 20 ZM54 109 L54 93 L103 93 L103 109 L54 109 ZM54 66 L54 49 L103 49 L103 66 L54 66 Z" /><glyph glyph-name="uni5305" unicode="&#x5305;" d="M81 -22 Q31 -24 33 23 L33 112 Q30 110 25 105 Q20 100 17 98 Q12 119 6 138 Q43 168 62 211 L104 208 Q98 198 94 189 L226 189 Q226 144 226 122 Q225 97 224 77 Q224 59 218 49 Q236 43 250 40 Q248 32 246 18 Q244 8 243 4 Q238 -24 198 -22 L81 -22 ZM72 155 Q65 145 56 136 L158 136 L158 67 L173 67 Q188 67 188 82 Q190 124 190 155 L72 155 ZM148 32 L144 46 L69 46 L69 28 Q67 7 91 8 L188 8 Q207 7 209 23 Q210 26 211 35 Q212 39 212 41 Q203 33 186 33 Q167 32 148 32 ZM69 104 L69 78 L122 78 L122 104 L69 104 Z" /><glyph glyph-name="uni533A" unicode="&#x533a;" d="M24 -18 L24 198 L237 198 L237 164 L60 164 L60 15 L241 15 L241 -18 L24 -18 ZM196 16 Q172 42 149 64 Q123 40 95 17 Q93 19 90 23 Q75 39 68 46 Q106 73 123 89 Q98 113 71 137 L98 161 Q103 157 112 149 Q137 127 149 115 Q168 136 189 163 L221 144 Q197 113 176 91 Q194 76 227 42 L196 16 Z" /><glyph glyph-name="uni5355" unicode="&#x5355;" d="M25 52 L25 175 L73 175 Q64 185 55 197 L88 212 Q100 198 112 183 L94 175 L142 175 Q147 182 155 195 Q163 206 166 211 L203 202 Q194 189 184 175 L231 175 L231 52 L147 52 L147 36 L248 36 L248 3 L147 3 L147 -29 L109 -29 L109 3 L7 3 L7 36 L109 36 L109 52 L25 52 ZM194 145 L147 145 L147 126 L194 126 L194 145 ZM147 101 L147 82 L194 82 L194 101 L147 101 ZM62 101 L62 82 L109 82 L109 101 L62 101 ZM62 145 L62 126 L109 126 L109 145 L62 145 Z" /><glyph glyph-name="uni540D" unicode="&#x540d;" d="M22 43 Q17 56 6 77 Q59 87 94 102 Q81 113 66 123 L92 144 Q109 133 129 118 Q158 136 179 154 L91 154 Q70 133 31 107 Q19 124 9 135 Q66 169 94 210 L135 206 Q128 195 120 186 L228 186 L228 153 Q189 107 131 81 L231 81 L231 -29 L194 -29 L194 -17 L82 -17 L82 -29 L46 -29 L46 50 L22 43 ZM82 49 L82 13 L194 13 L194 49 L82 49 Z" /><glyph glyph-name="uni5858" unicode="&#x5858;" d="M10 118 L10 153 L26 153 L26 210 L59 210 L59 153 L73 153 L73 118 L59 118 L59 50 L74 55 Q74 37 74 21 Q81 46 81 98 L81 192 L148 192 L143 208 L183 211 L187 192 L248 192 L248 163 L189 163 L189 152 L239 152 L239 117 L248 117 L248 92 L239 92 L239 57 L189 57 L189 46 L239 46 L239 -29 L208 -29 L208 -20 L146 -20 L146 -29 L115 -29 L115 46 L157 46 L157 57 L120 57 L120 81 L157 81 L157 92 L113 92 Q115 18 90 -31 Q86 -28 77 -19 Q67 -11 63 -7 Q71 5 74 20 Q50 12 10 1 L5 38 Q6 38 8 38 Q14 39 26 42 L26 118 L10 118 ZM121 128 L121 152 L157 152 L157 163 L113 163 L113 117 L157 117 L157 128 L121 128 ZM146 20 L146 4 L208 4 L208 20 L146 20 ZM189 92 L189 81 L210 81 L210 92 L189 92 ZM210 128 L189 128 L189 117 L210 117 L210 128 Z" /><glyph glyph-name="uni5927" unicode="&#x5927;" d="M14 112 L14 149 L107 149 Q109 191 109 209 L149 209 Q149 200 148 179 Q148 158 147 149 L242 149 L242 112 L148 112 Q164 33 249 9 Q241 0 225 -22 Q227 -19 222 -26 Q149 3 128 65 Q111 10 32 -29 Q17 -7 7 4 Q97 40 104 112 L14 112 Z" /><glyph glyph-name="uni5947" unicode="&#x5947;" d="M18 162 L18 191 L112 191 Q112 198 112 211 L148 211 Q148 200 148 191 L237 191 L237 162 L140 162 Q139 162 139 161 Q191 149 234 137 L223 118 L247 118 L247 88 L220 88 L220 14 Q222 -25 182 -26 Q179 -26 169 -26 Q151 -27 141 -27 Q140 -19 136 -2 Q135 0 135 0 L67 0 L67 -9 L33 -9 L33 76 L158 76 L158 5 L167 5 Q185 4 184 23 L184 88 L8 88 L8 118 L30 118 Q26 127 19 138 Q91 145 103 162 L18 162 ZM197 118 Q181 122 146 132 Q132 136 125 138 Q107 125 72 118 L197 118 ZM67 47 L67 28 L123 28 L123 47 L67 47 Z" /><glyph glyph-name="uni5B66" unicode="&#x5b66;" d="M14 105 L14 166 L48 166 Q39 183 27 202 L66 210 Q78 192 88 176 L50 166 L158 166 Q168 184 186 211 L227 202 L202 166 L241 166 L241 105 L206 105 L206 87 L168 63 L246 63 L246 30 L155 30 L155 8 Q157 -27 119 -27 Q108 -27 91 -28 Q79 -28 74 -28 Q73 -23 71 -14 Q70 -8 66 6 Q78 5 100 5 Q119 3 117 20 L117 30 L11 30 L11 63 L117 63 L117 65 L148 86 L50 86 L50 105 L14 105 ZM51 134 L51 118 L205 118 L205 134 L51 134 ZM114 170 Q105 188 93 206 L133 212 Q144 194 154 176 L114 170 Z" /><glyph glyph-name="uni5DF2" unicode="&#x5df2;" d="M71 -19 Q26 -20 27 22 L27 139 L66 139 L66 116 L184 116 L184 164 L20 164 L20 199 L223 199 L223 81 L66 81 L66 32 Q65 12 85 13 L180 13 Q204 11 206 32 Q206 36 208 46 Q209 58 210 64 Q231 58 248 54 Q245 30 241 10 Q235 -20 194 -19 L71 -19 Z" /><glyph glyph-name="uni5E74" unicode="&#x5e74;" d="M27 97 Q17 118 8 132 Q47 166 64 211 L107 207 L95 185 L240 185 L240 153 L165 153 L165 121 L233 121 L233 89 L165 89 L165 52 L248 52 L248 19 L165 19 L165 -29 L127 -29 L127 19 L9 19 L9 52 L43 52 L43 114 L27 97 ZM75 153 Q70 145 56 128 Q52 124 50 121 L127 121 L127 153 L75 153 ZM79 89 L79 52 L127 52 L127 89 L79 89 Z" /><glyph glyph-name="uni5F00" unicode="&#x5f00;" d="M21 164 L21 198 L238 198 L238 164 L201 164 L201 108 L249 108 L249 73 L201 73 L201 -25 L162 -25 L162 73 L100 73 Q101 7 42 -30 Q32 -20 12 -2 Q62 26 62 73 L9 73 L9 108 L63 108 L63 164 L21 164 ZM101 164 L101 108 L162 108 L162 164 L101 164 Z" /><glyph glyph-name="uni5F3A" unicode="&#x5f3a;" d="M103 127 L103 201 L232 201 L232 127 L184 127 L184 111 L240 111 L240 32 L227 32 Q241 3 252 -21 L222 -31 L217 -19 Q157 -20 91 -25 L87 7 Q98 7 120 8 Q141 8 151 8 L151 32 L95 32 L95 111 L151 111 L151 127 L103 127 ZM46 110 L44 83 L86 83 Q86 77 85 65 Q84 24 83 9 Q83 -27 46 -27 Q30 -27 16 -27 Q16 -17 12 4 Q16 4 25 4 Q33 3 37 3 Q51 2 52 18 Q52 23 53 35 Q53 48 53 52 L10 52 L17 141 L55 141 L55 170 L11 170 L11 201 L87 201 L87 110 L46 110 ZM135 174 L135 154 L200 154 L200 174 L135 174 ZM208 84 L184 84 L184 59 L208 59 L208 84 ZM127 84 L127 59 L151 59 L151 84 L127 84 ZM184 9 L204 10 Q201 16 198 24 L226 32 L184 32 L184 9 Z" /><glyph glyph-name="uni6211" unicode="&#x6211;" d="M17 162 Q17 164 16 168 Q14 186 13 196 Q69 197 114 203 L121 170 L88 167 L88 142 L130 142 Q129 157 128 188 Q127 209 127 211 L165 211 Q165 171 167 142 L247 142 L247 108 L211 108 L239 87 Q211 52 184 29 Q185 28 186 25 Q189 21 191 18 Q198 8 204 8 Q210 8 212 18 Q215 32 218 53 Q232 46 249 37 Q244 7 238 -8 Q230 -29 205 -29 Q175 -30 158 0 Q155 3 154 6 Q146 1 130 -7 Q118 -14 112 -18 Q102 -2 90 13 Q119 25 141 42 Q135 68 132 108 L88 108 L88 81 Q108 83 126 86 Q126 79 125 66 Q125 56 125 51 L88 46 L88 7 Q89 -23 62 -25 Q50 -26 22 -26 Q21 -21 18 -11 Q16 1 14 7 Q18 7 26 7 Q34 6 38 6 Q51 5 50 20 L50 41 L12 36 L6 73 Q7 73 9 73 Q27 74 50 77 L50 108 L8 108 L8 142 L50 142 L50 164 L17 162 ZM214 144 Q211 148 204 155 Q183 176 172 185 L195 207 Q203 200 222 184 Q234 173 239 169 L214 144 ZM173 67 Q193 86 208 108 L168 108 Q170 84 173 67 Z" /><glyph glyph-name="uni624D" unicode="&#x624d;" d="M15 132 L15 168 L154 168 L154 210 L193 210 L193 168 L244 168 L244 132 L193 132 L193 17 Q195 -23 154 -24 Q122 -26 102 -26 Q100 -14 95 7 Q94 10 94 12 Q110 10 135 10 Q156 8 154 32 L154 103 Q109 39 30 -2 Q18 14 6 30 Q91 74 130 132 L15 132 Z" /><glyph glyph-name="uni6269" unicode="&#x6269;" d="M10 137 L10 170 L37 170 L37 209 L71 209 L71 170 L94 170 L94 137 L71 137 L71 102 Q75 103 82 105 Q90 106 93 107 L93 72 L71 66 L71 4 Q72 -24 45 -26 Q40 -26 32 -26 Q22 -27 16 -27 Q16 -25 15 -22 Q12 0 10 6 Q19 6 27 6 Q38 5 37 17 L37 57 Q33 56 25 54 Q14 51 8 50 L6 89 L37 95 L37 137 L10 137 ZM109 -30 Q95 -18 78 -5 Q94 17 99 39 Q104 59 104 103 L104 167 L167 167 Q165 172 159 182 Q152 194 149 200 L185 213 Q188 208 195 195 Q202 183 205 177 L182 167 L249 167 L249 133 L141 133 L141 99 Q141 50 135 24 Q128 -1 109 -30 Z" /><glyph glyph-name="uni627F" unicode="&#x627f;" d="M86 105 L86 133 L110 133 L110 150 L155 168 L32 168 L32 200 L213 200 L213 164 L147 136 L147 133 L168 133 L168 105 L147 105 L147 91 L172 91 L172 64 L147 64 L147 50 L184 50 L184 22 L147 22 L147 8 Q149 -26 112 -26 Q87 -26 70 -26 Q68 -17 64 0 Q63 3 62 5 Q73 4 93 4 Q111 3 110 19 L110 22 L71 22 L71 50 L110 50 L110 64 L82 64 L82 91 L110 91 L110 105 L86 105 ZM225 -11 Q175 43 173 139 L201 144 Q201 131 204 120 Q218 130 231 142 L251 115 Q249 114 245 111 Q224 96 211 87 Q220 51 251 19 L225 -11 ZM25 -15 Q16 2 5 19 Q38 55 44 105 L10 105 L10 137 L77 137 L77 105 Q70 32 25 -15 Z" /><glyph glyph-name="uni62DB" unicode="&#x62db;" d="M94 -28 L94 84 L239 84 L239 -28 L203 -28 L203 -15 L130 -15 L130 -28 L94 -28 ZM10 136 L10 169 L33 169 L33 209 L67 209 L67 169 L89 169 L89 136 L67 136 L67 102 Q68 102 69 102 Q77 103 86 106 Q86 80 87 71 L67 66 L67 4 Q68 -25 41 -26 Q31 -27 13 -27 Q12 -23 11 -16 Q9 -2 7 5 L24 5 Q33 5 33 16 L33 56 Q21 53 9 50 L6 88 Q20 91 33 94 L33 136 L10 136 ZM107 87 Q93 103 83 113 Q124 138 122 170 L93 170 L93 202 L241 202 Q241 194 240 176 Q238 145 238 136 Q238 97 198 98 Q184 98 161 98 Q157 109 153 131 Q166 130 186 130 Q203 129 202 145 L203 170 L158 170 Q159 120 107 87 ZM130 52 L130 14 L203 14 L203 52 L130 52 Z" /><glyph glyph-name="uni6559" unicode="&#x6559;" d="M18 156 L18 184 L48 184 L48 210 L81 210 L81 184 L107 184 L107 165 Q111 170 118 183 Q120 187 121 189 L146 175 Q144 172 141 168 Q135 156 123 139 L131 139 L131 122 Q150 159 159 210 L194 207 Q190 189 185 173 L248 173 L248 138 L233 138 Q227 78 207 40 Q223 21 250 5 Q249 4 248 1 Q236 -15 230 -28 Q203 -9 186 10 Q172 -5 138 -31 Q133 -25 135 -27 Q122 -11 114 -2 Q148 18 166 40 Q156 61 149 89 Q148 87 145 81 Q142 76 140 73 Q138 76 135 84 Q128 101 124 108 L125 111 L101 111 Q99 109 95 104 Q91 100 89 97 L123 97 L123 71 L97 49 L134 53 Q134 39 134 24 Q115 21 94 20 L94 6 Q94 -23 67 -26 Q63 -26 52 -26 Q38 -27 31 -27 Q30 -24 30 -20 Q27 -8 25 0 Q39 0 51 0 Q63 0 62 11 L62 17 Q35 15 10 12 L8 41 L62 46 L62 53 L84 70 L58 70 Q41 57 20 43 Q18 46 14 52 Q8 63 4 69 Q9 72 18 77 Q23 80 25 81 L25 97 L47 97 Q56 103 63 111 L9 111 L9 139 L48 139 L48 156 L18 156 ZM171 132 Q175 96 187 72 Q199 99 202 138 L173 138 Q173 135 171 132 ZM89 139 Q95 147 101 156 L81 156 L81 139 L89 139 Z" /><glyph glyph-name="uni6574" unicode="&#x6574;" d="M59 78 L59 98 Q46 83 25 73 L237 73 L237 48 L149 48 L149 37 L224 37 L224 14 L149 14 L149 2 L248 2 L248 -21 L7 -21 L7 2 L44 2 L44 40 L78 40 L78 2 L114 2 L114 48 L19 48 L19 72 Q12 83 6 93 Q31 103 41 111 L15 111 L15 165 L59 165 L59 174 L9 174 L9 198 L59 198 L59 211 L89 211 L89 198 L137 198 L137 174 L89 174 L89 165 L132 165 L132 152 Q149 173 161 211 L193 207 Q190 199 186 190 L247 190 L247 164 L236 164 Q226 133 215 118 Q229 111 250 106 Q242 91 236 77 Q209 86 192 97 Q174 84 146 75 Q140 88 131 102 Q155 108 169 117 Q163 126 157 137 Q152 130 146 122 Q143 127 136 136 Q133 140 132 142 L132 111 L89 111 L89 93 L103 111 Q106 109 112 106 Q130 97 135 93 L120 73 Q100 87 89 92 L89 78 L59 78 ZM191 135 Q200 147 205 164 L175 164 Q181 147 191 135 ZM42 145 L42 131 L59 131 L59 145 L42 145 ZM106 145 L89 145 L89 131 L106 131 L106 145 Z" /><glyph glyph-name="uni65F7" unicode="&#x65f7;" d="M121 -30 Q121 -30 120 -29 Q108 -18 91 -5 Q93 -2 94 -1 L46 -1 L46 -16 L15 -16 L15 196 L99 196 L99 7 Q118 36 116 102 L116 167 L172 167 Q161 189 154 200 L189 213 Q195 204 208 180 Q209 178 210 177 L186 167 L248 167 L248 133 L152 133 L152 99 Q155 15 121 -30 ZM46 29 L69 29 L69 82 L46 82 L46 29 ZM46 165 L46 113 L69 113 L69 165 L46 165 Z" /><glyph glyph-name="uni6682" unicode="&#x6682;" d="M189 86 L189 129 L168 129 Q167 103 151 79 L222 79 L222 -29 L187 -29 L187 -20 L69 -20 L69 -29 L34 -29 L34 79 L146 79 Q133 87 119 94 Q116 94 108 94 Q99 93 95 93 L95 83 L62 83 L62 92 L8 89 L7 116 Q35 116 62 117 L62 129 L15 129 L15 154 L26 170 L10 170 L10 196 L41 196 L49 211 L83 210 Q81 208 78 202 Q76 198 75 196 L127 196 L127 170 L60 170 L48 153 L65 153 L65 165 L95 165 L95 153 L123 153 L123 129 L95 129 L95 118 Q110 118 125 119 Q124 110 124 101 Q137 118 136 155 L136 199 Q188 201 234 209 L241 179 Q205 174 169 172 L169 156 L248 156 L248 129 L222 129 L222 86 L189 86 ZM69 17 L69 5 L187 5 L187 17 L69 17 ZM69 52 L69 40 L187 40 L187 52 L69 52 Z" /><glyph glyph-name="uni6807" unicode="&#x6807;" d="M10 133 L10 166 L34 166 L34 210 L67 210 L67 166 L89 166 L89 133 L67 133 L67 100 L76 110 Q79 107 85 102 Q98 88 104 82 L83 57 L67 77 L67 -29 L34 -29 L34 63 Q25 42 12 22 Q11 27 10 38 Q7 62 5 72 Q25 103 34 133 L10 133 ZM92 100 L92 132 L248 132 L248 100 L186 100 L186 5 Q187 -25 153 -27 Q138 -27 123 -27 Q122 -18 116 5 Q128 5 138 5 Q152 4 151 18 L151 100 L92 100 ZM101 165 L101 197 L238 197 L238 165 L101 165 ZM109 -4 Q102 0 86 5 Q81 7 78 8 Q100 53 113 87 L145 78 Q129 37 109 -4 ZM219 -2 Q214 10 204 37 Q193 63 188 76 L219 88 Q227 69 244 29 Q249 16 252 10 L219 -2 Z" /><glyph glyph-name="uni6821" unicode="&#x6821;" d="M8 134 L8 166 L33 166 L33 211 L67 211 L67 166 L88 166 L88 134 L67 134 L67 109 L97 85 L80 55 L67 68 L67 -29 L33 -29 L33 64 Q24 42 12 22 Q10 29 8 48 Q5 65 4 72 Q20 97 33 134 L8 134 ZM94 146 L94 179 L152 179 L144 207 L182 211 Q185 194 189 179 L245 179 L245 146 L198 146 Q227 126 249 108 L229 81 Q201 106 175 125 L194 146 L140 146 L161 126 Q129 97 105 80 Q93 96 84 105 Q113 123 135 146 L94 146 ZM228 -26 Q191 -11 166 4 Q141 -13 99 -29 Q90 -13 78 1 Q117 13 141 29 Q124 50 111 81 L142 94 Q153 69 166 52 Q181 70 189 95 L221 83 Q209 52 191 29 Q211 16 250 5 Q245 0 236 -15 Q231 -22 228 -26 Z" /><glyph glyph-name="uni7247" unicode="&#x7247;" d="M48 -31 L17 -2 Q33 22 39 45 Q44 68 44 112 L44 202 L82 202 L82 147 L152 147 L152 209 L190 209 L190 147 L246 147 L246 112 L82 112 Q82 106 81 95 Q81 85 81 80 L202 80 L202 -24 L165 -24 L165 46 L78 46 Q74 7 48 -31 Z" /><glyph glyph-name="uni751F" unicode="&#x751f;" d="M46 93 L11 111 Q39 151 51 199 L90 193 Q87 186 83 172 Q81 166 80 163 L117 163 L117 210 L156 210 L156 163 L237 163 L237 128 L156 128 L156 90 L228 90 L228 55 L156 55 L156 13 L248 13 L248 -20 L15 -20 L15 13 L117 13 L117 55 L34 55 L34 90 L117 90 L117 128 L65 128 Q56 110 46 93 Z" /><glyph glyph-name="uni7684" unicode="&#x7684;" d="M150 105 Q145 108 135 113 Q125 119 120 121 L120 -24 L84 -24 L84 -9 L50 -9 L50 -26 L15 -26 L15 172 L43 172 Q44 176 46 184 Q48 193 51 210 L91 205 Q87 187 82 172 L120 172 L120 126 Q142 174 153 211 L189 203 Q188 198 184 188 Q181 177 179 172 L243 172 Q241 65 240 24 Q240 -23 196 -24 Q191 -24 177 -24 Q160 -25 151 -25 Q150 -15 146 1 Q145 7 144 10 Q162 10 180 10 Q204 8 203 32 Q205 80 205 137 L165 137 Q158 120 150 105 ZM166 38 Q151 63 132 90 L160 109 Q163 105 169 97 Q189 72 198 58 L166 38 ZM50 138 L50 98 L84 98 L84 138 L50 138 ZM50 63 L50 24 L84 24 L84 63 L50 63 Z" /><glyph glyph-name="uni76EE" unicode="&#x76ee;" d="M28 -29 L28 198 L227 198 L227 -29 L189 -29 L189 -13 L67 -13 L67 -29 L28 -29 ZM67 165 L67 136 L189 136 L189 165 L67 165 ZM67 46 L67 18 L189 18 L189 46 L67 46 ZM67 105 L67 77 L189 77 L189 105 L67 105 Z" /><glyph glyph-name="uni79D1" unicode="&#x79d1;" d="M14 164 Q12 185 9 197 Q61 199 103 204 L109 172 Q105 172 98 171 Q84 170 76 169 L76 141 L105 141 L105 107 L76 107 L76 81 L85 91 Q101 80 117 67 L105 54 L184 61 L184 209 L220 209 L220 64 L248 67 L249 32 L220 29 L220 -28 L184 -28 L184 26 L104 19 L101 49 L95 42 Q90 47 76 59 L76 -28 L41 -28 L41 54 Q31 30 16 9 L6 50 Q28 79 37 107 L8 107 L8 141 L41 141 L41 166 Q37 165 27 165 Q19 164 14 164 ZM161 130 Q140 148 155 135 Q140 148 116 168 L137 191 Q161 173 184 155 L161 130 ZM151 68 Q130 88 106 104 L128 128 Q148 114 174 94 L151 68 Z" /><glyph glyph-name="uni7CBE" unicode="&#x7cbe;" d="M88 135 L69 142 L69 126 L95 126 L95 95 L69 95 L69 72 L80 81 Q84 77 91 68 Q103 55 108 50 L108 97 L238 97 L238 9 Q239 -26 206 -26 Q202 -26 194 -26 Q181 -27 172 -27 Q170 -15 165 0 Q178 0 193 0 Q206 -1 205 10 L140 10 L140 -28 L108 -28 L108 47 L86 29 L69 50 L69 -28 L39 -28 L39 44 Q29 19 14 0 Q12 18 5 40 Q24 63 36 95 L9 95 L9 126 L39 126 L39 210 L69 210 L69 145 Q71 152 75 165 Q82 184 84 194 L103 188 Q100 177 94 154 Q90 142 88 135 ZM104 171 L104 194 L156 194 L156 210 L189 210 L189 194 L245 194 L245 171 L189 171 L189 161 L239 161 L239 140 L189 140 L189 129 L249 129 L249 106 L100 106 L100 129 L156 129 L156 140 L108 140 L108 161 L156 161 L156 171 L104 171 ZM18 135 Q13 158 5 188 L25 194 Q27 185 32 168 Q36 151 38 142 L18 135 ZM140 73 L140 62 L205 62 L205 73 L140 73 ZM140 42 L140 31 L205 31 L205 42 L140 42 Z" /><glyph glyph-name="uni80B2" unicode="&#x80b2;" d="M9 162 L9 190 L109 190 L103 208 L147 210 L153 190 L247 190 L247 162 L191 162 Q222 142 243 127 L220 106 L224 106 L224 8 Q226 -26 187 -26 Q178 -27 140 -27 Q136 -13 133 1 Q148 0 172 0 Q187 0 187 12 L70 12 L70 -28 L33 -28 L33 106 L217 106 L200 119 Q176 119 138 118 Q93 118 74 117 Q42 115 33 113 L23 139 Q33 142 50 152 Q57 156 64 162 L9 162 ZM70 82 L70 69 L187 69 L187 82 L70 82 ZM70 47 L70 34 L187 34 L187 47 L70 47 ZM84 143 L166 143 Q153 153 141 162 L111 162 Q98 151 84 143 Z" /><glyph glyph-name="uni8BBE" unicode="&#x8bbe;" d="M87 -29 Q78 -13 68 1 Q103 9 128 22 Q111 40 93 65 L113 78 L87 78 L87 111 L235 111 L235 77 Q216 44 191 22 Q215 10 249 4 Q244 -3 236 -19 Q232 -24 231 -27 Q191 -18 159 0 Q129 -17 87 -29 ZM100 114 Q83 131 75 140 Q108 155 106 179 L106 202 L219 202 L219 165 Q218 153 230 154 L250 154 L245 122 L214 122 Q182 122 183 149 L183 170 L140 170 L140 167 Q142 136 100 114 ZM42 -20 L20 6 Q29 18 29 32 L29 98 L6 98 L6 133 L65 133 L65 47 L84 66 Q86 57 91 41 Q93 35 94 32 Q88 26 76 15 Q64 3 58 -2 Q50 -10 42 -20 ZM49 145 Q35 168 17 193 L49 211 Q51 208 56 202 Q73 179 83 165 L49 145 ZM125 78 Q141 55 160 40 Q177 53 195 78 L125 78 Z" /><glyph glyph-name="uni8D85" unicode="&#x8d85;" d="M16 152 L16 182 L49 182 L49 210 L82 210 L82 182 L110 182 L110 152 L82 152 L82 128 L114 128 L114 98 L90 98 L90 69 L114 69 L114 39 L90 39 L90 8 Q104 5 123 5 Q159 4 242 6 Q249 6 250 6 Q246 -5 240 -25 Q222 -24 195 -24 Q182 -24 165 -24 Q150 -24 122 -24 Q58 -24 40 5 Q36 -14 28 -30 Q10 -12 5 -6 Q18 20 17 87 L47 84 Q47 76 46 62 Q46 50 46 45 Q50 32 59 24 L59 98 L8 98 L8 128 L49 128 L49 152 L16 152 ZM124 18 L124 104 L235 104 L235 18 L124 18 ZM174 114 L169 141 Q160 124 134 108 Q131 111 124 119 Q116 127 112 131 Q145 146 146 172 L119 172 L119 200 L239 200 Q237 168 237 148 Q236 115 206 115 Q201 115 192 115 Q181 114 174 114 ZM156 76 L156 47 L203 47 L203 76 L156 76 ZM178 172 Q176 155 170 143 Q182 143 194 143 Q205 143 206 154 L206 172 L178 172 Z" /><glyph glyph-name="uni8FC7" unicode="&#x8fc7;" d="M20 -29 L6 11 Q9 14 15 19 Q19 24 34 36 L34 95 L7 95 L7 130 L70 130 L70 36 Q87 9 119 10 Q171 9 250 10 Q244 -4 239 -23 Q185 -23 162 -23 Q133 -22 109 -21 Q71 -21 51 4 Q47 0 40 -7 Q24 -23 20 -29 ZM87 140 L87 172 L177 172 L177 211 L215 211 L215 172 L246 172 L246 140 L215 140 L215 65 Q217 21 175 20 Q161 19 131 19 Q128 41 123 55 Q141 54 159 54 Q179 53 177 72 L177 140 L87 140 ZM50 143 Q35 169 18 195 L49 210 Q67 186 83 162 L50 143 ZM125 67 Q115 81 96 106 Q91 112 89 115 L116 134 Q137 110 155 88 L125 67 Z" /><glyph glyph-name="uni957F" unicode="&#x957f;" d="M225 -20 Q164 2 138 39 Q138 33 139 19 Q139 7 139 2 Q100 -10 80 -18 Q78 -19 73 -21 Q61 -26 54 -30 L33 0 Q44 9 43 28 L43 82 L10 82 L10 116 L43 116 L43 208 L81 208 L81 116 L244 116 L244 82 L152 82 Q175 32 247 14 L225 -20 ZM111 122 Q104 137 93 152 Q147 175 204 203 L226 173 Q169 145 111 122 ZM81 19 L137 40 Q125 58 116 82 L81 82 L81 19 Z" /><glyph glyph-name="uni95E8" unicode="&#x95e8;" d="M144 -26 Q141 -6 136 10 Q153 9 180 9 Q201 9 199 27 L199 159 L94 159 L94 196 L238 196 L238 16 Q240 -24 200 -25 L144 -26 ZM18 -27 L18 146 L57 146 L57 -27 L18 -27 ZM49 153 Q34 178 21 195 L54 212 Q71 192 84 174 L49 153 Z" /><glyph glyph-name="uniFF0C" unicode="&#xff0c;" d="M53 -35 L42 -20 Q70 -5 70 19 L46 19 L46 65 L92 65 Q92 53 92 24 Q94 -15 53 -35 Z" /><glyph glyph-name="uniFF1A" unicode="&#xff1a;" d="M92 52 L92 6 L46 6 L46 52 L92 52 ZM92 155 L92 109 L46 109 L46 155 L92 155 Z" /></font>
</defs>
</svg>
