<?xml version="1.0" standalone="no"?><!DOCTYPE svg PUBLIC "-//W3C//DTD SVG 1.1//EN" "http://www.w3.org/Graphics/SVG/1.1/DTD/svg11.dtd" ><svg xmlns="http://www.w3.org/2000/svg"><metadata></metadata><defs><font id="fonteditor" horiz-adv-x="1000"><font-face font-family="Source Han Sans K Normal" font-weight="350" font-stretch="normal" units-per-em="1000" panose-1="2 11 4 0 0 0 0 0 0 0" ascent="880" descent="-120" x-height="0" bbox="-42 -251 982 880" underline-thickness="50" underline-position="-125" unicode-range="U+0023-f8fc" /><missing-glyph horiz-adv-x="1000" d="M100 880 L900 880 L900 -120 L100 -120 L100 880 ZM818 830 L182 830 L500 421 L818 830 ZM850 -29 L850 789 L532 380 L850 -29 ZM818 -70 L500 339 L182 -70 L818 -70 ZM150 -29 L468 380 L150 789 L150 -29 Z" /><glyph glyph-name="numbersign" unicode="#" d="M129 230 L40 230 L40 289 L136 289 L157 459 L62 459 L62 517 L164 517 L190 724 L244 724 L219 517 L371 517 L398 724 L452 724 L425 517 L515 517 L515 459 L419 459 L398 289 L493 289 L493 230 L391 230 L364 0 L309 0 L336 230 L184 230 L156 0 L101 0 L129 230 ZM343 289 L364 459 L212 459 L191 289 L343 289 Z" /><glyph glyph-name="parenleft" unicode="(" d="M240 -196 Q93 42 93 310 Q93 578 240 816 L290 792 Q161 579 161 310 Q161 41 290 -172 L240 -196 Z" /><glyph glyph-name="parenright" unicode=")" d="M41 -172 Q170 41 170 310 Q170 579 41 792 L91 816 Q238 578 238 310 Q238 42 91 -196 L41 -172 Z" /><glyph glyph-name="plus" unicode="+" d="M241 337 L38 337 L38 398 L241 398 L241 618 L308 618 L308 398 L511 398 L511 337 L308 337 L308 117 L241 117 L241 337 Z" /><glyph glyph-name="hyphen" unicode="-&#x2011;" d="M46 311 L299 311 L299 247 L46 247 L46 311 Z" /><glyph glyph-name="period" unicode="." d="M134 -13 Q109 -13 91 5 Q73 23 73 51 Q73 80 91 99 Q109 117 134 117 Q160 117 178 99 Q196 80 196 51 Q196 23 178 5 Q160 -13 134 -13 Z" /><glyph glyph-name="zero" unicode="0" d="M275 -13 Q169 -13 111 82 Q50 181 50 369 Q50 555 111 652 Q169 745 275 745 Q380 745 438 652 Q498 555 498 369 Q498 181 438 82 Q380 -13 275 -13 ZM275 53 Q419 53 419 369 Q419 524 379 604 Q342 679 275 679 Q207 679 169 604 Q129 524 129 369 Q129 211 169 129 Q207 53 275 53 Z" /><glyph glyph-name="one" unicode="1" d="M89 68 L253 68 L253 629 L124 629 L124 682 Q216 698 272 732 L334 732 L334 68 L483 68 L483 0 L89 0 L89 68 Z" /><glyph glyph-name="two" unicode="2" d="M45 49 Q383 344 383 528 Q383 596 349 636 Q312 679 244 679 Q163 679 88 592 L40 638 Q139 745 253 745 Q350 745 407 687 Q463 629 463 531 Q463 341 168 64 Q227 70 288 70 L498 70 L498 0 L45 0 L45 49 Z" /><glyph glyph-name="three" unicode="3" d="M262 -13 Q122 -13 30 87 L72 140 Q155 55 257 55 Q325 55 367 93 Q410 133 410 197 Q410 349 178 349 L178 413 Q384 413 384 558 Q384 613 350 646 Q315 679 256 680 Q173 679 102 606 L57 659 Q151 745 259 746 Q352 745 408 698 Q467 649 467 564 Q467 433 336 386 L336 382 Q404 366 446 319 Q492 268 492 195 Q492 100 425 42 Q361 -13 262 -13 Z" /><glyph glyph-name="four" unicode="4" d="M340 269 L340 507 Q340 565 346 637 L341 637 Q318 592 283 531 L106 269 L340 269 ZM517 204 L417 204 L417 0 L340 0 L340 204 L19 204 L19 257 L330 732 L417 732 L417 269 L517 269 L517 204 Z" /><glyph glyph-name="five" unicode="5" d="M259 -13 Q125 -13 28 84 L69 138 Q150 55 252 55 Q320 55 366 104 Q413 154 413 235 Q413 315 370 362 Q328 408 256 408 Q198 408 132 364 L87 392 L110 732 L460 732 L460 662 L182 662 L162 440 Q217 471 276 471 Q373 471 431 415 Q495 353 495 237 Q495 123 422 52 Q355 -13 259 -13 Z" /><glyph glyph-name="six" unicode="6" d="M299 52 Q354 52 390 100 Q427 148 427 223 Q427 392 290 392 Q205 392 136 295 Q152 52 299 52 ZM446 621 Q398 677 328 677 Q139 677 134 364 Q208 453 303 453 Q398 453 451 395 Q505 336 505 223 Q505 120 444 53 Q384 -13 299 -13 Q190 -13 125 78 Q57 174 57 348 Q57 551 139 655 Q209 745 325 745 Q422 745 492 672 L446 621 Z" /><glyph glyph-name="seven" unicode="7" d="M200 0 Q217 397 408 662 L49 662 L49 732 L502 732 L502 683 Q380 525 333 365 Q295 233 285 0 L200 0 Z" /><glyph glyph-name="eight" unicode="8" d="M277 -13 Q176 -13 111 42 Q45 97 45 182 Q45 311 181 386 L181 390 Q82 457 82 558 Q82 640 139 692 Q194 743 279 743 Q371 743 425 689 Q478 636 478 550 Q478 450 379 372 L379 367 Q503 295 503 175 Q503 95 441 42 Q377 -13 277 -13 ZM327 394 Q407 462 407 546 Q407 604 373 641 Q337 681 277 681 Q225 681 191 647 Q157 612 157 558 Q157 497 209 455 Q245 426 327 394 ZM278 48 Q343 48 385 85 Q425 121 425 177 Q425 245 365 291 Q328 318 225 360 Q119 293 119 188 Q119 128 164 88 Q210 48 278 48 Z" /><glyph glyph-name="nine" unicode="9" d="M258 340 Q344 340 416 441 Q403 681 251 681 Q196 681 160 633 Q123 585 123 509 Q123 431 156 387 Q192 340 258 340 ZM104 111 Q155 55 229 55 Q308 55 356 125 Q412 206 417 372 Q341 279 245 279 Q152 279 99 337 Q45 398 45 509 Q45 612 106 680 Q165 745 251 745 Q361 745 425 658 Q494 567 494 400 Q494 190 414 81 Q344 -13 231 -13 Q129 -13 59 60 L104 111 Z" /><glyph glyph-name="question" unicode="?" d="M179 216 Q166 313 247 417 Q333 528 333 579 Q333 628 305 658 Q275 692 221 692 Q146 692 89 627 L42 670 Q123 760 230 760 Q314 760 364 712 Q413 664 413 584 Q413 514 325 404 Q241 299 251 216 L179 216 ZM218 -13 Q192 -13 174 5 Q156 23 156 51 Q156 80 174 99 Q192 117 218 117 Q243 117 261 99 Q279 80 279 51 Q279 23 261 5 Q243 -13 218 -13 Z" /><glyph glyph-name="A" unicode="a" d="M415 296 L377 415 Q349 499 301 663 L297 663 Q265 548 222 415 L184 296 L415 296 ZM436 231 L163 231 L88 0 L5 0 L255 732 L346 732 L597 0 L509 0 L436 231 Z" /><glyph glyph-name="B" unicode="b" d="M102 732 L314 732 Q564 732 564 553 Q564 430 455 394 L455 390 Q607 361 607 214 Q607 110 530 53 Q457 0 330 0 L102 0 L102 732 ZM297 418 Q482 418 482 543 Q482 609 437 638 Q394 666 302 666 L185 666 L185 418 L297 418 ZM317 66 Q526 66 526 217 Q526 354 317 354 L185 354 L185 66 L317 66 Z" /><glyph glyph-name="C" unicode="c" d="M374 -13 Q235 -13 149 88 Q59 192 59 366 Q59 539 150 644 Q239 745 380 745 Q498 745 579 656 L533 602 Q470 672 381 672 Q273 672 209 591 Q144 508 144 368 Q144 226 207 143 Q270 60 378 60 Q476 60 551 144 L597 92 Q508 -13 374 -13 Z" /><glyph glyph-name="D" unicode="d" d="M102 732 L282 732 Q449 732 537 637 Q624 543 624 369 Q624 194 538 98 Q450 0 285 0 L102 0 L102 732 ZM275 68 Q406 68 474 148 Q539 226 539 369 Q539 664 275 664 L185 664 L185 68 L275 68 Z" /><glyph glyph-name="E" unicode="e" d="M102 732 L519 732 L519 662 L185 662 L185 421 L466 421 L466 351 L185 351 L185 70 L530 70 L530 0 L102 0 L102 732 Z" /><glyph glyph-name="F" unicode="f" d="M102 732 L518 732 L518 662 L185 662 L185 404 L467 404 L467 334 L185 334 L185 0 L102 0 L102 732 Z" /><glyph glyph-name="G" unicode="g" d="M385 -13 Q239 -13 150 88 Q59 191 59 366 Q59 540 153 644 Q244 745 391 745 Q513 745 600 656 L554 602 Q488 672 393 672 Q279 672 212 591 Q144 509 144 368 Q144 225 209 143 Q275 60 393 60 Q484 60 532 106 L532 306 L373 306 L373 375 L609 375 L609 71 Q528 -13 385 -13 Z" /><glyph glyph-name="H" unicode="h" d="M102 732 L185 732 L185 422 L538 422 L538 732 L620 732 L620 0 L538 0 L538 350 L185 350 L185 0 L102 0 L102 732 Z" /><glyph glyph-name="I" unicode="i" d="M102 732 L185 732 L185 0 L102 0 L102 732 Z" /><glyph glyph-name="J" unicode="j" d="M234 -13 Q101 -13 37 101 L97 143 Q143 60 227 60 Q348 60 348 219 L348 732 L431 732 L431 211 Q431 111 385 53 Q334 -13 234 -13 Z" /><glyph glyph-name="K" unicode="k" d="M102 732 L185 732 L185 355 L187 355 L504 732 L599 732 L369 455 L633 0 L540 0 L316 390 L185 236 L185 0 L102 0 L102 732 Z" /><glyph glyph-name="L" unicode="l" d="M102 732 L185 732 L185 70 L508 70 L508 0 L102 0 L102 732 Z" /><glyph glyph-name="M" unicode="m" d="M102 732 L204 732 L348 332 L401 176 L406 176 L457 332 L600 732 L702 732 L702 0 L625 0 L625 423 Q625 475 635 635 L631 635 L573 469 L430 75 L373 75 L229 469 L171 635 L167 635 Q177 475 177 423 L177 0 L102 0 L102 732 Z" /><glyph glyph-name="N" unicode="n" d="M102 732 L187 732 L464 258 L543 108 L548 108 Q537 269 537 336 L537 732 L616 732 L616 0 L530 0 L255 474 L175 624 L170 624 Q180 442 180 401 L180 0 L102 0 L102 732 Z" /><glyph glyph-name="O" unicode="o" d="M368 -13 Q231 -13 146 90 Q59 195 59 369 Q59 541 146 644 Q230 745 368 745 Q506 745 591 644 Q678 542 678 369 Q678 195 591 90 Q506 -13 368 -13 ZM368 60 Q470 60 532 144 Q593 228 593 369 Q593 509 532 591 Q471 672 368 672 Q266 672 205 591 Q144 508 144 369 Q144 228 205 144 Q267 60 368 60 Z" /><glyph glyph-name="P" unicode="p" d="M102 732 L305 732 Q577 732 577 520 Q577 409 503 351 Q434 296 309 296 L185 296 L185 0 L102 0 L102 732 ZM297 364 Q495 364 495 520 Q495 600 444 634 Q397 665 293 665 L185 665 L185 364 L297 364 Z" /><glyph glyph-name="Q" unicode="q" d="M144 369 Q144 226 205 141 Q266 56 368 56 Q470 56 532 141 Q593 226 593 369 Q593 509 532 591 Q471 672 368 672 Q266 672 205 591 Q144 508 144 369 ZM691 -166 Q652 -181 590 -181 Q396 -181 327 -10 Q206 6 133 106 Q59 209 59 369 Q59 541 146 644 Q230 745 368 745 Q506 745 591 644 Q678 542 678 369 Q678 211 606 109 Q535 9 416 -9 Q466 -111 599 -111 Q637 -111 675 -101 L691 -166 Z" /><glyph glyph-name="R" unicode="r" d="M185 384 L313 384 Q496 384 496 529 Q496 665 313 665 L185 665 L185 384 ZM505 0 L322 316 L185 316 L185 0 L102 0 L102 732 L326 732 Q579 732 579 529 Q579 362 409 324 L598 0 L505 0 Z" /><glyph glyph-name="S" unicode="s" d="M302 -13 Q150 -13 48 96 L98 153 Q184 60 303 60 Q377 60 421 95 Q464 129 464 186 Q464 239 428 272 Q405 292 339 321 L233 368 Q84 432 84 554 Q84 637 148 691 Q212 745 310 745 Q438 745 523 655 L479 602 Q406 672 310 672 Q246 672 207 642 Q168 611 168 560 Q168 510 208 477 Q231 458 290 433 L396 388 Q548 321 548 192 Q548 104 482 46 Q413 -13 302 -13 Z" /><glyph glyph-name="T" unicode="t" d="M255 662 L32 662 L32 732 L563 732 L563 662 L339 662 L339 0 L255 0 L255 662 Z" /><glyph glyph-name="U" unicode="u" d="M358 -13 Q99 -13 99 297 L99 732 L182 732 L182 296 Q182 60 358 60 Q538 60 538 296 L538 732 L617 732 L617 297 Q617 -13 358 -13 Z" /><glyph glyph-name="V" unicode="v" d="M2 732 L89 732 L212 328 Q287 78 284 86 L288 86 Q304 134 325 207 Q350 294 361 328 L482 732 L566 732 L332 0 L237 0 L2 732 Z" /><glyph glyph-name="W" unicode="w" d="M27 732 L112 732 L193 325 Q216 208 238 88 L242 88 Q262 181 295 325 L399 732 L476 732 L581 325 Q599 248 635 88 L640 88 Q666 237 683 325 L763 732 L843 732 L689 0 L591 0 L474 456 L438 622 L433 622 Q427 590 415 539 L396 456 L282 0 L185 0 L27 732 Z" /><glyph glyph-name="X" unicode="x" d="M232 378 L31 732 L123 732 L227 538 L285 433 L290 433 Q326 509 342 538 L446 732 L532 732 L331 374 L546 0 L455 0 L279 322 L275 322 Q246 263 215 204 L104 0 L17 0 L232 378 Z" /><glyph glyph-name="Y" unicode="y" d="M220 287 L0 732 L88 732 L260 360 L264 360 Q323 485 338 520 L437 732 L522 732 L302 287 L302 0 L220 0 L220 287 Z" /><glyph glyph-name="Z" unicode="z" d="M51 49 L446 662 L87 662 L87 732 L548 732 L548 683 L154 70 L552 70 L552 0 L51 0 L51 49 Z" /><glyph glyph-name="a" unicode="a" d="M217 -13 Q148 -13 105 26 Q60 68 60 139 Q60 227 141 275 Q219 321 395 341 Q397 486 280 486 Q201 486 116 426 L83 483 Q191 554 293 554 Q476 554 476 335 L476 0 L409 0 L402 66 L399 66 Q306 -13 217 -13 ZM239 53 Q311 53 395 128 L395 286 Q256 270 195 235 Q139 201 139 144 Q139 53 239 53 Z" /><glyph glyph-name="b" unicode="b" d="M326 -13 Q245 -13 170 56 L168 56 L159 0 L95 0 L95 796 L176 796 L176 575 L172 476 Q265 554 346 554 Q450 554 507 479 Q562 406 562 279 Q562 145 491 64 Q424 -13 326 -13 ZM314 56 Q386 56 431 116 Q477 177 477 278 Q477 485 327 485 Q259 485 176 407 L176 115 Q242 56 314 56 Z" /><glyph glyph-name="c" unicode="c" d="M304 -13 Q194 -13 125 61 Q53 139 53 269 Q53 400 130 479 Q202 554 310 554 Q397 554 468 489 L425 435 Q372 485 313 485 Q237 485 187 425 Q137 365 137 269 Q137 173 185 114 Q233 55 311 55 Q380 55 442 110 L478 56 Q401 -13 304 -13 Z" /><glyph glyph-name="d" unicode="d" d="M277 -13 Q174 -13 115 61 Q54 135 54 269 Q54 396 125 477 Q192 554 289 554 Q366 554 444 490 L440 584 L440 796 L521 796 L521 0 L454 0 L446 65 L444 65 Q366 -13 277 -13 ZM294 56 Q368 56 440 133 L440 425 Q372 485 302 485 Q232 485 186 425 Q139 364 139 270 Q139 170 179 113 Q220 56 294 56 Z" /><glyph glyph-name="e" unicode="e" d="M309 -13 Q199 -13 128 62 Q53 140 53 269 Q53 396 127 478 Q197 554 294 554 Q395 554 451 486 Q507 419 507 301 Q507 269 503 252 L134 252 Q138 162 188 107 Q238 52 319 52 Q391 52 456 96 L486 42 Q400 -13 309 -13 ZM435 311 Q435 488 295 488 Q233 488 188 442 Q141 393 133 311 L435 311 Z" /><glyph glyph-name="f" unicode="f" d="M329 728 Q298 743 267 743 Q189 743 189 633 L189 540 L305 540 L305 473 L189 473 L189 0 L107 0 L107 473 L33 473 L33 535 L107 540 L107 634 Q107 809 260 809 Q306 809 347 791 L329 728 Z" /><glyph glyph-name="g" unicode="g" d="M275 -251 Q174 -251 114 -213 Q52 -174 52 -105 Q52 -34 132 19 L132 23 Q83 53 83 112 Q83 168 143 212 L143 216 Q73 272 73 361 Q73 447 132 501 Q189 554 273 554 Q310 554 348 540 L535 540 L535 477 L421 477 Q468 432 468 360 Q468 275 411 222 Q356 171 273 171 Q228 171 190 191 Q154 160 154 123 Q154 62 250 62 L358 62 Q544 62 544 -66 Q544 -142 471 -195 Q394 -251 275 -251 ZM273 227 Q323 227 358 264 Q394 302 394 361 Q394 421 358 458 Q324 493 273 493 Q221 493 187 458 Q152 422 152 361 Q152 302 188 264 Q223 227 273 227 ZM286 -194 Q364 -194 416 -158 Q464 -124 464 -78 Q464 -7 351 -7 L252 -7 Q221 -7 183 2 Q124 -40 124 -95 Q124 -140 167 -167 Q210 -194 286 -194 Z" /><glyph glyph-name="h" unicode="h" d="M95 796 L176 796 L176 575 L173 462 Q269 554 354 554 Q519 554 519 343 L519 0 L437 0 L437 333 Q437 483 330 483 Q261 483 176 395 L176 0 L95 0 L95 796 Z" /><glyph glyph-name="i" unicode="i" d="M95 540 L176 540 L176 0 L95 0 L95 540 ZM136 656 Q110 656 94 672 Q77 687 77 711 Q77 767 136 767 Q161 767 178 752 Q195 736 195 711 Q195 687 178 672 Q160 656 136 656 Z" /><glyph glyph-name="j" unicode="j" d="M35 -245 Q-10 -245 -42 -231 L-26 -169 Q9 -179 27 -179 Q66 -179 82 -149 Q95 -125 95 -70 L95 540 L176 540 L176 -71 Q176 -245 35 -245 ZM136 656 Q111 656 95 672 Q78 687 78 711 Q78 767 136 767 Q195 767 195 711 Q195 687 178 672 Q161 656 136 656 Z" /><glyph glyph-name="k" unicode="k" d="M95 796 L174 796 L174 245 L177 245 L417 540 L507 540 L327 324 L532 0 L443 0 L280 267 L174 143 L174 0 L95 0 L95 796 Z" /><glyph glyph-name="l" unicode="l" d="M183 -13 Q95 -13 95 99 L95 796 L176 796 L176 93 Q176 55 201 55 Q210 55 220 57 L232 -6 Q209 -13 183 -13 Z" /><glyph glyph-name="m" unicode="m" d="M95 540 L161 540 L169 460 L172 460 Q257 554 340 554 Q455 554 489 449 Q587 554 669 554 Q833 554 833 343 L833 0 L751 0 L751 333 Q751 483 646 483 Q582 483 504 395 L504 0 L423 0 L423 333 Q423 483 317 483 Q252 483 176 395 L176 0 L95 0 L95 540 Z" /><glyph glyph-name="n" unicode="n" d="M95 540 L161 540 L169 461 L172 461 Q267 554 354 554 Q519 554 519 343 L519 0 L437 0 L437 333 Q437 483 330 483 Q261 483 176 395 L176 0 L95 0 L95 540 Z" /><glyph glyph-name="o" unicode="o" d="M301 -13 Q198 -13 128 61 Q53 140 53 269 Q53 400 128 479 Q197 554 301 554 Q405 554 475 479 Q550 400 550 269 Q550 140 475 61 Q405 -13 301 -13 ZM301 55 Q374 55 420 114 Q466 173 466 269 Q466 365 420 425 Q374 485 301 485 Q228 485 183 425 Q137 366 137 269 Q137 173 183 114 Q228 55 301 55 Z" /><glyph glyph-name="p" unicode="p" d="M95 540 L161 540 L169 477 L172 477 Q268 554 346 554 Q450 554 507 479 Q562 406 562 279 Q562 145 491 64 Q424 -13 326 -13 Q254 -13 174 50 L176 -45 L176 -232 L95 -232 L95 540 ZM314 56 Q386 56 431 116 Q477 177 477 278 Q477 485 327 485 Q260 485 176 407 L176 115 Q244 56 314 56 Z" /><glyph glyph-name="q" unicode="q" d="M440 -36 L444 65 Q364 -13 277 -13 Q174 -13 115 61 Q54 135 54 269 Q54 396 125 477 Q192 554 289 554 Q369 554 445 489 L448 489 L456 540 L521 540 L521 -232 L440 -232 L440 -36 ZM294 56 Q368 56 440 133 L440 425 Q372 485 302 485 Q232 485 186 425 Q139 364 139 270 Q139 170 179 113 Q220 56 294 56 Z" /><glyph glyph-name="r" unicode="r" d="M95 540 L161 540 L169 441 L172 441 Q233 554 325 554 Q358 554 382 542 L366 471 Q339 480 315 480 Q226 480 176 352 L176 0 L95 0 L95 540 Z" /><glyph glyph-name="s" unicode="s" d="M233 -13 Q122 -13 32 61 L73 116 Q151 51 236 51 Q290 51 320 77 Q348 102 348 141 Q348 202 222 247 Q146 275 112 301 Q59 342 59 403 Q59 468 107 510 Q157 554 242 554 Q331 554 406 494 L367 441 Q301 489 242 489 Q191 489 163 465 Q137 442 137 407 Q137 371 175 347 Q197 332 259 310 Q343 277 372 255 Q426 213 426 145 Q426 77 376 34 Q323 -13 233 -13 Z" /><glyph glyph-name="t" unicode="t" d="M259 -13 Q110 -13 110 163 L110 473 L28 473 L28 535 L113 540 L122 693 L191 693 L191 540 L340 540 L340 473 L191 473 L191 160 Q191 54 276 54 Q303 54 339 68 L355 7 Q295 -13 259 -13 Z" /><glyph glyph-name="u" unicode="u" d="M251 -13 Q87 -13 87 197 L87 540 L168 540 L168 207 Q168 129 193 94 Q218 58 275 58 Q349 58 427 153 L427 540 L508 540 L508 0 L441 0 L434 86 L431 86 Q345 -13 251 -13 Z" /><glyph glyph-name="v" unicode="v" d="M13 540 L98 540 L205 226 Q224 162 256 67 L260 67 L311 226 L418 540 L498 540 L305 0 L210 0 L13 540 Z" /><glyph glyph-name="w" unicode="w" d="M27 540 L110 540 L195 219 L228 70 L232 70 L251 144 Q262 190 270 219 L357 540 L439 540 L527 219 L565 70 L569 70 L604 219 L687 540 L765 540 L617 0 L518 0 L436 301 Q430 323 398 457 L393 457 Q370 350 354 300 L275 0 L179 0 L27 540 Z" /><glyph glyph-name="x" unicode="x" d="M194 282 L29 540 L117 540 L193 417 Q210 387 248 327 L252 327 L373 540 L457 540 L293 274 L471 0 L382 0 L299 131 Q273 177 240 229 L235 229 L101 0 L15 0 L194 282 Z" /><glyph glyph-name="y" unicode="y" d="M96 -236 Q61 -236 34 -225 L51 -159 Q73 -167 93 -167 Q177 -167 219 -45 L231 -3 L13 540 L98 540 L213 231 L267 79 L272 79 Q277 94 295 156 Q309 204 318 231 L419 540 L499 540 L293 -50 Q228 -236 96 -236 Z" /><glyph glyph-name="z" unicode="z" d="M34 44 L326 473 L66 473 L66 540 L430 540 L430 497 L137 67 L439 67 L439 0 L34 0 L34 44 Z" /><glyph glyph-name="asciitilde" unicode="~" d="M373 289 Q326 289 264 337 Q202 385 174 385 Q125 385 88 316 L41 348 Q97 447 176 447 Q223 447 285 399 Q347 351 375 351 Q425 351 461 419 L507 386 Q452 289 373 289 Z" /><glyph glyph-name="emdash" unicode="&#x2014;" d="M46 309 L846 309 L846 251 L46 251 L46 309 Z" /><glyph glyph-name="uni2015" unicode="&#x2015;" d="M928 400 L928 360 L72 360 L72 400 L928 400 Z" /><glyph glyph-name="uniFF0D" unicode="&#x2212;&#xff0d;" d="M865 406 L865 343 L135 343 L135 406 L865 406 Z" /><glyph glyph-name="uni6C11" unicode="&#x2ea0;&#x6c11;" d="M520 348 Q507 411 501 489 L230 489 L230 348 L520 348 ZM230 719 L230 551 L796 551 L796 719 L230 719 ZM605 285 Q644 154 712 73 Q780 -8 851 -7 Q873 -6 884 27 Q893 59 898 140 Q926 119 957 109 Q948 4 924 -35 Q901 -72 848 -72 Q748 -72 662 29 Q580 126 536 285 L230 285 L230 29 L554 76 L557 12 L75 -63 L58 6 L162 20 L162 782 L863 782 L863 489 L570 489 Q574 423 589 348 L936 348 L936 285 L605 285 Z" /><glyph glyph-name="uni897F" unicode="&#x2ec4;&#x897f;" d="M567 703 L412 703 L412 553 L567 553 L567 703 ZM829 491 L630 491 L630 305 Q630 289 636 284 Q641 280 662 280 L747 280 Q764 280 769 294 Q774 308 776 361 Q795 346 829 337 L829 491 ZM829 53 L829 292 Q822 251 805 236 Q789 221 754 221 L654 221 Q602 221 584 238 Q567 255 567 305 L567 491 L412 491 L412 437 Q412 248 227 158 Q213 185 184 207 Q349 284 349 439 L349 491 L173 491 L173 53 L829 53 ZM632 703 L632 553 L896 553 L896 -69 L829 -69 L829 -9 L173 -9 L173 -69 L108 -69 L108 553 L347 553 L347 703 L65 703 L65 767 L934 767 L934 703 L632 703 Z" /><glyph glyph-name="uni89C1" unicode="&#x2ec5;&#x89c1;" d="M813 778 L813 211 L743 211 L743 711 L252 711 L252 211 L184 211 L184 778 L813 778 ZM526 615 Q517 286 454 163 Q366 -9 89 -76 Q79 -47 51 -19 Q314 40 394 196 Q449 305 457 615 L526 615 ZM586 297 L586 45 Q586 23 597 16 Q608 10 646 10 L820 10 Q856 10 866 37 Q876 63 880 165 Q903 146 941 138 Q934 22 912 -15 Q889 -52 825 -52 L642 -52 Q571 -52 547 -33 Q521 -13 521 44 L521 297 L586 297 Z" /><glyph glyph-name="uni8D1D" unicode="&#x2ec9;&#x8d1d;" d="M536 645 L536 434 Q536 271 468 168 Q368 18 105 -74 Q86 -42 60 -21 Q316 64 408 200 Q467 288 467 435 L467 645 L536 645 ZM568 157 Q795 62 911 -19 L871 -71 Q738 23 530 111 L568 157 ZM822 782 L822 200 L753 200 L753 720 L249 720 L249 198 L183 198 L183 782 L822 782 Z" /><glyph glyph-name="uni8F66" unicode="&#x2ecb;&#x8f66;" d="M938 117 L579 117 L579 -76 L509 -76 L509 117 L66 117 L66 182 L509 182 L509 341 L276 341 Q189 341 171 327 Q163 358 146 395 Q171 401 214 474 Q242 514 297 626 L81 626 L81 690 L327 690 Q362 766 387 840 L461 818 Q425 732 404 690 L919 690 L919 626 L374 626 Q311 501 245 404 L509 404 L509 559 L579 559 L579 404 L854 404 L854 341 L579 341 L579 182 L938 182 L938 117 Z" /><glyph glyph-name="uni957F" unicode="&#x2ed3;&#x957f;" d="M837 785 Q698 619 451 498 Q428 528 396 550 Q636 651 772 812 L837 785 ZM553 378 Q672 98 963 14 Q937 -9 917 -47 Q609 56 485 378 L323 378 L323 29 L568 92 Q568 53 574 30 Q273 -52 243 -71 Q233 -36 216 -11 Q254 7 254 48 L254 378 L60 378 L60 444 L254 444 L254 830 L323 830 L323 444 L941 444 L941 378 L553 378 Z" /><glyph glyph-name="uni9752" unicode="&#x2ed8;&#x9752;" d="M738 138 L738 216 L270 216 L270 138 L738 138 ZM270 341 L270 265 L738 265 L738 341 L270 341 ZM804 0 Q804 -52 765 -64 Q735 -74 601 -74 Q595 -47 579 -19 Q641 -20 717 -20 Q738 -19 738 0 L738 89 L270 89 L270 -78 L204 -78 L204 393 L804 393 L804 0 ZM937 512 L937 459 L63 459 L63 512 L465 512 L465 590 L161 590 L161 642 L465 642 L465 712 L128 712 L128 766 L465 766 L465 836 L532 836 L532 766 L884 766 L884 712 L532 712 L532 642 L842 642 L842 590 L532 590 L532 512 L937 512 Z" /><glyph glyph-name="uni97E6" unicode="&#x2ed9;&#x97e6;" d="M921 319 Q920 298 918 288 Q898 65 860 29 Q839 5 798 4 Q754 0 679 5 Q675 40 660 68 Q709 63 773 63 Q799 63 808 72 Q833 94 851 256 L524 256 L524 -75 L453 -75 L453 256 L85 256 L85 319 L453 319 L453 455 L147 455 L147 517 L453 517 L453 652 L99 652 L99 715 L453 715 L453 834 L524 834 L524 715 L894 715 L894 652 L524 652 L524 517 L848 517 L848 455 L524 455 L524 319 L921 319 Z" /><glyph glyph-name="uni98CE" unicode="&#x2edb;&#x98ce;" d="M671 632 Q624 484 549 350 Q677 183 734 85 L673 50 Q624 138 514 289 Q409 124 292 37 Q266 68 242 88 Q363 169 473 344 Q387 456 285 577 L339 606 Q418 515 508 403 Q573 522 613 648 L671 632 ZM831 785 Q828 369 838 220 Q851 3 898 3 Q916 3 920 154 Q943 126 965 109 Q960 7 945 -28 Q930 -65 892 -65 Q806 -65 782 134 Q767 262 765 721 L232 721 L232 487 Q232 105 99 -77 Q79 -49 45 -32 Q164 133 164 487 L164 785 L831 785 Z" /><glyph glyph-name="uni98DE" unicode="&#x2edc;&#x98de;" d="M901 259 Q828 325 671 414 Q709 21 859 22 Q898 22 904 195 Q932 169 956 157 Q948 39 928 -3 Q907 -46 856 -46 Q710 -46 649 156 Q598 322 589 706 L72 706 L72 774 L655 774 Q657 625 664 502 Q783 599 865 696 L926 663 Q819 551 702 462 Q867 373 937 311 L901 259 Z" /><glyph glyph-name="uni98DF" unicode="&#x2edd;&#x98df;" d="M660 630 Q555 707 496 776 Q436 702 343 630 L660 630 ZM342 629 Q216 532 81 470 Q66 498 41 523 Q319 644 460 839 L525 839 Q697 637 963 534 Q941 512 920 476 Q792 533 661 629 L661 580 L342 580 L342 629 ZM284 250 L716 250 L716 341 L284 341 L284 250 ZM284 471 L284 390 L716 390 L716 471 L284 471 ZM904 208 Q807 140 666 74 Q780 6 952 -19 Q927 -43 911 -78 Q582 -19 461 198 L284 198 L284 13 L555 42 L556 -17 Q219 -55 115 -66 L106 -4 L219 7 L219 522 L782 522 L782 198 L531 198 Q563 149 616 108 Q753 171 854 243 L904 208 Z" /><glyph glyph-name="uni9A6C" unicode="&#x2ee2;&#x9a6c;" d="M709 136 L60 136 L60 200 L709 200 L709 136 ZM913 390 Q913 367 911 358 Q879 8 827 -44 Q800 -71 748 -74 Q695 -77 591 -71 Q589 -37 571 -7 Q647 -14 726 -14 Q758 -14 771 -3 Q815 35 842 327 L221 328 L199 328 Q218 450 231 632 L296 627 Q289 529 272 390 L673 390 Q694 568 708 709 L137 709 L137 773 L720 773 L731 777 L779 772 Q767 613 738 390 L913 390 Z" /><glyph glyph-name="uni9C7C" unicode="&#x2ee5;&#x9c7c;" d="M331 692 Q270 617 224 575 L512 575 Q557 620 603 692 L331 692 ZM778 518 L533 518 L533 382 L778 382 L778 518 ZM778 328 L533 328 L533 190 L778 190 L778 328 ZM468 382 L468 518 L235 518 L235 382 L468 382 ZM235 328 L235 190 L468 190 L468 328 L235 328 ZM171 529 Q146 507 105 479 Q92 506 60 531 Q246 650 349 839 L421 825 Q407 799 375 752 L644 752 L655 755 L699 726 Q662 656 594 575 L844 575 L844 133 L171 133 L171 529 ZM937 34 L937 -29 L66 -29 L66 34 L937 34 Z" /><glyph glyph-name="uni9E1F" unicode="&#x2ee6;&#x9e1f;" d="M724 125 L53 125 L53 184 L724 184 L724 125 ZM915 370 Q914 348 913 339 Q888 3 843 -42 Q821 -67 775 -71 Q717 -73 649 -68 Q645 -33 629 -8 Q681 -13 751 -13 Q778 -13 788 -2 Q823 29 845 309 L191 309 L191 737 L408 737 Q426 772 450 839 L525 827 Q503 780 476 737 L807 737 L805 709 Q785 484 751 449 Q731 429 697 426 Q665 423 606 426 Q604 457 589 486 Q624 482 670 482 Q691 482 699 491 Q723 513 739 676 L256 676 L256 370 L915 370 ZM536 474 Q452 532 331 586 L368 627 Q504 567 573 520 L536 474 Z" /><glyph glyph-name="uni9EA6" unicode="&#x2ee8;&#x9ea6;" d="M327 270 Q391 180 505 115 Q633 182 701 270 L327 270 ZM801 302 Q728 174 571 82 Q738 9 962 -12 Q941 -35 923 -74 Q669 -42 502 46 Q327 -39 84 -76 Q76 -46 54 -16 Q265 10 439 83 Q337 151 274 240 Q204 187 105 140 Q90 165 58 187 Q255 273 367 410 L55 410 L55 467 L466 467 L466 558 L165 558 L165 613 L466 613 L466 697 L107 697 L107 754 L466 754 L466 835 L532 835 L532 754 L901 754 L901 697 L532 697 L532 613 L847 613 L847 558 L532 558 L532 467 L945 467 L945 410 L452 410 Q417 366 376 326 L745 326 L757 329 L801 302 Z" /><glyph glyph-name="uni9EC4" unicode="&#x2ee9;&#x9ec4;" d="M416 48 Q298 -25 109 -78 Q86 -48 64 -29 Q248 17 355 85 L416 48 ZM635 85 Q808 28 939 -31 L889 -76 Q770 -17 595 43 L635 85 ZM375 583 L628 583 L628 685 L375 685 L375 583 ZM533 394 L533 301 L772 301 L772 394 L533 394 ZM772 253 L533 253 L533 158 L772 158 L772 253 ZM232 158 L466 158 L466 253 L232 253 L232 158 ZM232 301 L466 301 L466 394 L232 394 L232 301 ZM944 583 L944 521 L533 521 L533 445 L839 445 L839 107 L168 107 L168 445 L466 445 L466 521 L58 521 L58 583 L309 583 L309 685 L130 685 L130 745 L309 745 L309 836 L375 836 L375 745 L628 745 L628 836 L695 836 L695 745 L878 745 L878 685 L695 685 L695 583 L944 583 Z" /><glyph glyph-name="uni9F50" unicode="&#x2eec;&#x9f50;" d="M266 350 L333 350 L333 237 Q333 134 303 69 Q261 -22 150 -80 Q129 -56 94 -33 Q266 52 266 238 L266 350 ZM680 350 L748 350 L748 -75 L680 -75 L680 350 ZM312 681 Q385 583 508 515 Q624 583 686 681 L312 681 ZM765 681 Q695 562 573 483 Q735 410 961 383 Q939 361 921 323 Q677 358 509 446 Q348 361 83 314 Q69 346 45 374 Q288 408 446 482 Q320 564 243 681 L62 681 L62 739 L463 739 L463 836 L533 836 L533 739 L940 739 L940 681 L765 681 Z" /><glyph glyph-name="uni9F99" unicode="&#x2ef0;&#x9f99;" d="M780 627 Q714 695 599 775 L641 811 Q759 732 824 669 L780 627 ZM842 16 Q872 16 882 38 Q891 59 895 132 Q921 112 956 105 Q950 17 928 -14 Q906 -46 846 -46 L649 -46 Q578 -46 553 -24 Q527 -1 527 62 L527 76 Q443 17 354 -24 Q328 12 308 27 Q427 79 527 155 L527 532 L412 532 Q385 313 315 179 Q238 32 90 -60 Q74 -33 40 -4 Q181 73 254 208 Q320 330 344 532 L58 532 L58 595 L351 595 Q360 689 365 835 L434 833 Q430 706 419 595 L939 595 L939 532 L594 532 L594 210 Q731 330 809 475 L869 450 Q770 269 594 126 L594 63 Q594 34 605 25 Q616 16 654 16 L842 16 Z" /><glyph glyph-name="uni4E00" unicode="&#x2f00;&#x4e00;" d="M953 425 L953 353 L48 353 L48 425 L953 425 Z" /><glyph glyph-name="uni4E8C" unicode="&#x2f06;&#x4e8c;" d="M857 692 L857 621 L144 621 L144 692 L857 692 ZM941 100 L941 27 L60 27 L60 100 L941 100 Z" /><glyph glyph-name="uni4EBA" unicode="&#x2f08;&#x4eba;" d="M527 803 Q526 796 526 782 L525 758 Q538 561 609 388 Q725 99 965 -10 Q932 -34 912 -68 Q596 82 496 527 Q408 101 93 -65 Q72 -34 39 -14 Q296 116 395 422 Q441 565 454 803 L527 803 Z" /><glyph glyph-name="uni513F" unicode="&#x2f09;&#x513f;" d="M700 794 L700 52 Q700 18 707 9 Q714 0 739 0 L848 0 Q874 0 883 42 Q891 80 894 210 Q925 186 957 179 Q952 37 933 -10 Q911 -64 852 -64 L732 -64 Q675 -64 654 -40 Q633 -16 633 53 L633 794 L700 794 ZM329 793 L329 472 Q329 288 289 176 Q232 21 83 -76 Q62 -44 34 -25 Q174 64 226 204 Q263 305 263 472 L263 793 L329 793 Z" /><glyph glyph-name="uni5165" unicode="&#x2f0a;&#x5165;" d="M543 773 Q543 237 957 -12 Q926 -35 908 -69 Q593 122 506 496 Q391 96 98 -75 Q72 -44 38 -20 Q353 143 452 583 L491 576 Q480 639 477 707 L229 707 L229 773 L543 773 Z" /><glyph glyph-name="uni516B" unicode="&#x2f0b;&#x516b;" d="M367 561 Q291 104 93 -78 Q72 -49 43 -25 Q235 148 291 571 L367 561 ZM673 755 Q727 155 955 -21 Q926 -37 891 -72 Q667 116 612 686 L265 686 L265 755 L673 755 Z" /><glyph glyph-name="uni5200" unicode="&#x2f11;&#x5200;" d="M904 726 L903 688 Q880 39 828 -23 Q799 -60 743 -65 Q678 -70 575 -62 Q571 -22 551 9 Q625 2 719 2 Q750 2 764 18 Q814 68 832 660 L469 660 Q456 399 399 250 Q312 24 98 -79 Q73 -41 48 -25 Q253 69 334 281 Q385 415 396 660 L89 660 L89 726 L904 726 Z" /><glyph glyph-name="uniF98A" unicode="&#x2f12;&#x529b;&#xf98a;" d="M903 616 Q902 589 901 580 Q869 31 812 -31 Q785 -65 730 -69 Q679 -74 572 -65 Q568 -26 549 2 Q630 -5 707 -5 Q738 -5 753 10 Q804 59 831 549 L481 549 Q453 133 109 -80 Q87 -46 58 -28 Q384 168 412 549 L87 549 L87 616 L415 616 Q416 634 416 667 L416 834 L485 834 L485 667 Q485 634 484 616 L903 616 Z" /><glyph glyph-name="uni5341" unicode="&#x2f17;&#x5341;" d="M948 394 L536 394 L536 -75 L466 -75 L466 394 L58 394 L58 462 L466 462 L466 834 L536 834 L536 462 L948 462 L948 394 Z" /><glyph glyph-name="uni535C" unicode="&#x2f18;&#x535c;" d="M851 248 Q722 336 450 463 L450 -74 L377 -74 L377 833 L450 833 L450 495 L472 524 Q738 411 893 312 L851 248 Z" /><glyph glyph-name="uni5382" unicode="&#x2f1a;&#x5382;" d="M931 694 L218 694 L218 467 Q218 102 104 -72 Q76 -47 44 -34 Q149 126 149 467 L149 762 L931 762 L931 694 Z" /><glyph glyph-name="uni53C8" unicode="&#x2f1c;&#x53c8;" d="M851 712 Q765 401 553 195 Q722 46 957 -14 Q931 -36 910 -75 Q670 -8 502 148 Q328 0 89 -79 Q74 -43 45 -16 Q285 58 452 198 Q293 370 205 635 L262 653 Q343 408 503 243 Q686 418 763 667 L98 667 L98 732 L792 732 L805 736 L851 712 Z" /><glyph glyph-name="uni53E3" unicode="&#x2f1d;&#x53e3;" d="M800 103 L800 663 L201 663 L201 103 L800 103 ZM871 730 L871 -45 L800 -45 L800 36 L201 36 L201 -50 L133 -50 L133 730 L871 730 Z" /><glyph glyph-name="uni571F" unicode="&#x2f1f;&#x571f;" d="M946 34 L946 -31 L56 -31 L56 34 L464 34 L464 447 L120 447 L120 513 L464 513 L464 831 L533 831 L533 513 L883 513 L883 447 L533 447 L533 34 L946 34 Z" /><glyph glyph-name="uni58EB" unicode="&#x2f20;&#x58eb;" d="M533 450 L533 47 L893 47 L893 -18 L113 -18 L113 47 L464 47 L464 450 L57 450 L57 515 L464 515 L464 832 L533 832 L533 515 L947 515 L947 450 L533 450 Z" /><glyph glyph-name="uni5927" unicode="&#x2f24;&#x5927;" d="M557 479 Q675 105 953 -12 Q926 -37 904 -74 Q626 57 501 437 Q414 70 98 -75 Q81 -47 48 -20 Q363 117 440 479 L66 479 L66 547 L452 547 Q465 638 468 834 L538 834 Q536 652 521 547 L938 547 L938 479 L557 479 Z" /><glyph glyph-name="uniF981" unicode="&#x2f25;&#x5973;&#xf981;" d="M381 528 Q319 381 281 296 Q414 250 553 186 Q666 303 715 528 L381 528 ZM789 528 Q740 287 622 154 Q813 62 920 -19 L870 -80 Q770 0 568 102 Q411 -28 99 -74 Q86 -38 63 -12 Q351 26 497 136 Q372 195 254 238 Q242 211 230 187 L165 212 Q223 328 307 528 L54 528 L54 595 L334 595 Q392 734 428 834 L499 820 Q462 723 409 595 L946 595 L946 528 L789 528 Z" /><glyph glyph-name="uni5B50" unicode="&#x2f26;&#x5b50;" d="M947 324 L535 324 L535 15 Q535 -50 486 -65 Q448 -76 291 -76 Q284 -42 264 -8 Q393 -11 439 -9 Q467 -8 467 16 L467 324 L51 324 L51 389 L467 389 L467 550 L516 550 Q640 618 732 699 L153 699 L153 764 L799 764 L813 767 L865 729 Q735 596 535 487 L535 389 L947 389 L947 324 Z" /><glyph glyph-name="uni5C0F" unicode="&#x2f29;&#x5c0f;" d="M539 820 L539 22 Q539 -46 491 -63 Q452 -76 304 -76 Q295 -40 277 -4 Q327 -6 441 -6 Q469 -5 469 22 L469 820 L539 820 ZM769 596 Q924 352 967 159 L898 127 Q857 326 708 570 L769 596 ZM281 573 Q212 277 91 133 Q63 157 33 173 Q155 314 208 587 L281 573 Z" /><glyph glyph-name="uni5C71" unicode="&#x2f2d;&#x5c71;" d="M894 599 L894 -59 L825 -59 L825 21 L177 21 L177 -59 L110 -59 L110 599 L177 599 L177 87 L462 87 L462 816 L530 816 L530 87 L825 87 L825 599 L894 599 Z" /><glyph glyph-name="uni5DE5" unicode="&#x2f2f;&#x5de5;" d="M947 69 L947 2 L56 2 L56 69 L462 69 L462 653 L107 653 L107 721 L898 721 L898 653 L535 653 L535 69 L947 69 Z" /><glyph glyph-name="uni5DFE" unicode="&#x2f31;&#x5dfe;" d="M890 153 Q890 92 846 78 Q811 67 658 67 Q654 92 633 132 Q757 127 798 131 Q822 132 822 154 L822 564 L536 564 L536 -78 L465 -78 L465 564 L192 564 L192 62 L122 62 L122 630 L465 630 L465 836 L536 836 L536 630 L890 630 L890 153 Z" /><glyph glyph-name="uni5E72" unicode="&#x2f32;&#x5e72;" d="M945 362 L533 362 L533 -75 L461 -75 L461 362 L58 362 L58 431 L461 431 L461 695 L109 695 L109 762 L899 762 L899 695 L533 695 L533 431 L945 431 L945 362 Z" /><glyph glyph-name="uni5E7F" unicode="&#x2f34;&#x5e7f;" d="M937 637 L214 637 L214 428 Q214 87 95 -82 Q73 -52 44 -35 Q147 115 147 428 L147 701 L493 701 L493 834 L562 834 L562 701 L937 701 L937 637 Z" /><glyph glyph-name="uni5F0B" unicode="&#x2f37;&#x5f0b;" d="M806 642 Q733 704 601 764 L644 805 Q779 745 851 687 L806 642 ZM526 486 Q567 264 648 130 Q733 -9 835 -9 Q864 -9 878 27 Q891 63 897 159 Q922 134 955 125 Q944 8 918 -34 Q893 -76 832 -76 Q697 -76 597 84 Q504 231 459 481 L66 448 L60 512 L449 544 Q427 685 426 833 L495 833 Q495 694 516 550 L938 584 L944 521 L526 486 Z" /><glyph glyph-name="uni5FC3" unicode="&#x2f3c;&#x5fc3;" d="M783 507 Q928 323 972 137 L907 108 Q864 296 723 479 L783 507 ZM207 463 Q170 187 83 68 L26 115 Q114 228 143 476 L207 463 ZM355 832 Q553 764 701 665 L661 606 Q515 710 315 779 L355 832 ZM375 559 L375 56 Q375 22 387 12 Q400 2 442 2 L631 2 Q676 2 690 41 Q703 78 708 213 Q732 193 772 182 Q764 37 739 -10 Q712 -61 634 -61 L439 -61 Q362 -61 334 -37 Q307 -13 307 57 L307 559 L375 559 Z" /><glyph glyph-name="uni6208" unicode="&#x2f3d;&#x6208;" d="M777 654 Q702 716 565 777 L608 821 Q742 767 821 705 L777 654 ZM869 468 Q763 301 588 169 Q689 -4 816 -4 Q848 -4 863 34 Q877 72 885 174 Q917 148 950 140 Q937 14 908 -30 Q880 -74 814 -74 Q648 -74 529 127 Q354 11 136 -65 Q120 -36 91 -2 Q318 67 497 188 Q429 334 397 521 L65 493 L58 558 L387 585 Q369 711 368 832 L441 832 Q442 709 458 591 L936 630 L942 567 L468 527 Q498 356 557 231 Q711 351 805 500 L869 468 Z" /><glyph glyph-name="uni624B" unicode="&#x2f3f;&#x624b;" d="M949 254 L535 254 L535 21 Q535 -44 484 -60 Q443 -73 279 -71 Q271 -40 250 -6 Q293 -7 436 -7 Q467 -6 467 22 L467 254 L53 254 L53 319 L467 319 L467 489 L119 489 L119 553 L467 553 L467 713 Q308 697 137 689 Q134 712 120 748 Q609 773 799 834 L848 780 Q728 744 535 720 L535 553 L893 553 L893 489 L535 489 L535 319 L949 319 L949 254 Z" /><glyph glyph-name="uni652F" unicode="&#x2f40;&#x652f;" d="M285 387 Q358 238 504 139 Q659 237 733 387 L285 387 ZM828 425 Q747 227 565 102 Q728 12 954 -20 Q927 -47 912 -83 Q669 -43 501 62 Q330 -35 83 -81 Q67 -43 44 -18 Q279 19 441 103 Q303 208 225 368 L276 387 L126 387 L126 452 L465 452 L465 612 L82 612 L82 677 L465 677 L465 832 L533 832 L533 677 L916 677 L916 612 L533 612 L533 452 L773 452 L782 454 L828 425 Z" /><glyph glyph-name="uni6587" unicode="&#x2f42;&#x6587;" d="M276 600 Q352 387 498 238 Q640 380 718 600 L276 600 ZM795 600 Q707 347 549 191 Q715 48 956 -10 Q928 -36 908 -74 Q666 -11 495 141 Q333 3 88 -76 Q75 -44 45 -12 Q290 59 445 190 Q291 351 205 600 L55 600 L55 665 L466 665 L466 836 L532 836 L532 665 L947 665 L947 600 L795 600 Z" /><glyph glyph-name="uni6597" unicode="&#x2f43;&#x6597;" d="M478 587 Q389 655 241 723 L279 773 Q435 705 517 643 L478 587 ZM392 356 Q296 423 129 494 L167 544 Q336 477 431 414 L392 356 ZM697 217 L697 -74 L628 -74 L628 206 L72 125 L64 189 L628 271 L628 835 L697 835 L697 281 L931 315 L940 252 L697 217 Z" /><glyph glyph-name="uni65B9" unicode="&#x2f45;&#x65b9;" d="M437 597 Q432 495 422 427 L822 427 L820 394 Q795 15 741 -37 Q716 -66 657 -69 Q589 -71 491 -65 Q487 -32 469 -4 Q568 -14 637 -11 Q669 -12 684 0 Q726 37 751 365 L412 365 Q349 42 95 -79 Q76 -46 46 -23 Q231 61 305 247 Q353 370 365 597 L56 597 L56 661 L461 661 L461 837 L528 837 L528 661 L939 661 L939 597 L437 597 Z" /><glyph glyph-name="uni65E0" unicode="&#x2f46;&#x65e0;" d="M500 408 Q472 225 388 116 Q288 -13 88 -78 Q73 -46 45 -20 Q233 37 326 150 Q407 247 433 408 L56 408 L56 472 L441 472 Q450 555 452 704 L118 704 L118 767 L886 767 L886 704 L519 704 Q517 570 508 472 L943 472 L943 408 L500 408 ZM827 -2 Q865 -2 876 27 Q887 54 892 158 Q922 137 957 130 Q949 11 926 -26 Q901 -66 831 -66 L640 -66 Q565 -66 539 -45 Q512 -24 512 38 L512 368 L580 368 L580 38 Q580 13 592 6 Q604 -2 644 -2 L827 -2 Z" /><glyph glyph-name="uni65E5" unicode="&#x2f47;&#x65e5;" d="M757 67 L757 354 L250 354 L250 67 L757 67 ZM250 699 L250 420 L757 420 L757 699 L250 699 ZM826 766 L826 -59 L757 -59 L757 1 L250 1 L250 -64 L182 -64 L182 766 L826 766 Z" /><glyph glyph-name="uni6708" unicode="&#x2f49;&#x6708;" d="M746 302 L746 479 L280 479 Q280 387 269 302 L746 302 ZM280 717 L280 542 L746 542 L746 717 L280 717 ZM815 27 Q815 -41 765 -58 Q725 -71 556 -71 Q548 -39 528 -1 Q642 -5 716 -2 Q746 -2 746 27 L746 237 L257 237 Q213 38 84 -77 Q63 -48 34 -29 Q213 130 213 480 L213 782 L815 782 L815 27 Z" /><glyph glyph-name="uni6728" unicode="&#x2f4a;&#x6728;" d="M564 522 Q721 229 965 92 Q934 67 914 35 Q698 170 534 453 L534 -76 L465 -76 L465 452 Q307 167 83 33 Q60 65 34 88 Q279 221 434 522 L71 522 L71 588 L465 588 L465 834 L534 834 L534 588 L932 588 L932 522 L564 522 Z" /><glyph glyph-name="uni6BDB" unicode="&#x2f51;&#x6bdb;" d="M814 7 Q858 7 873 35 Q886 60 892 149 Q917 132 957 122 Q947 16 921 -19 Q893 -58 816 -58 L554 -58 Q466 -58 436 -31 Q404 -4 404 73 L404 219 L74 175 L65 237 L404 281 L404 445 L104 403 L94 466 L404 509 L404 668 Q242 638 97 619 Q93 649 78 676 Q559 742 763 828 L821 775 Q700 729 472 680 L472 519 L856 571 L866 510 L472 455 L472 290 L925 350 L933 288 L472 227 L472 72 Q472 33 488 20 Q504 7 556 7 L814 7 Z" /><glyph glyph-name="uni6C0F" unicode="&#x2f52;&#x6c0f;" d="M546 452 Q532 574 529 700 Q369 675 240 661 L240 452 L546 452 ZM625 386 Q655 203 712 99 Q771 -9 848 -9 Q872 -8 883 26 Q893 59 898 144 Q926 119 958 111 Q948 2 924 -37 Q900 -76 845 -76 Q734 -76 658 53 Q588 171 555 386 L240 386 L240 40 L559 97 L564 35 L79 -60 L59 9 L113 18 Q159 26 174 28 L174 733 L219 719 Q614 765 814 829 L866 773 Q753 740 600 712 Q602 568 616 452 L942 452 L942 386 L625 386 Z" /><glyph glyph-name="uni6C14" unicode="&#x2f53;&#x6c14;" d="M260 664 Q186 520 93 425 Q66 448 35 465 Q184 601 262 838 L328 822 Q310 771 287 722 L924 722 L924 664 L260 664 ZM255 529 L255 586 L852 586 L852 529 L255 529 ZM767 447 Q783 -10 884 -10 Q908 -10 911 125 Q933 103 958 88 Q953 -3 938 -38 Q921 -75 880 -75 Q791 -75 748 59 Q713 166 702 387 L156 387 L156 447 L767 447 Z" /><glyph glyph-name="uni6C34" unicode="&#x2f54;&#x6c34;" d="M409 563 Q334 184 83 21 Q63 53 33 77 Q252 209 326 512 L58 512 L58 578 L351 578 L365 581 L409 563 ZM923 627 Q788 478 650 366 Q777 142 970 61 Q938 33 919 1 Q667 122 534 483 L534 26 Q534 -41 489 -57 Q450 -71 310 -69 Q298 -26 283 0 Q381 -4 439 -1 Q466 -1 466 25 L466 833 L534 833 L534 652 Q566 532 622 419 Q765 543 864 671 L923 627 Z" /><glyph glyph-name="uni706B" unicode="&#x2f55;&#x706b;" d="M530 494 Q530 370 607 245 Q717 64 947 -16 Q926 -37 903 -76 Q708 -4 594 149 Q515 254 495 363 Q475 255 399 151 Q290 0 99 -77 Q77 -42 54 -21 Q278 64 386 244 Q461 370 461 494 L461 819 L530 819 L530 494 ZM902 602 Q798 407 736 325 L684 352 Q770 475 834 634 L902 602 ZM271 618 Q237 388 129 303 L75 354 Q178 430 207 633 L271 618 Z" /><glyph glyph-name="uni7236" unicode="&#x2f57;&#x7236;" d="M892 485 Q799 623 607 784 L663 823 Q862 660 954 531 L892 485 ZM390 795 Q276 603 97 468 Q65 508 43 524 Q216 641 321 819 L390 795 ZM747 527 Q676 332 551 197 Q713 46 955 -12 Q927 -38 907 -76 Q664 -11 501 146 Q342 3 87 -77 Q70 -43 41 -14 Q296 57 452 197 Q334 331 264 522 L328 541 Q390 370 502 247 Q614 370 675 549 L747 527 Z" /><glyph glyph-name="uni725B" unicode="&#x2f5c;&#x725b;" d="M946 277 L545 277 L545 -74 L476 -74 L476 277 L56 277 L56 342 L476 342 L476 586 L226 586 Q176 486 121 419 Q102 435 60 456 Q176 581 240 808 L306 794 Q290 735 256 652 L476 652 L476 836 L545 836 L545 652 L891 652 L891 586 L545 586 L545 342 L946 342 L946 277 Z" /><glyph glyph-name="uni7389" unicode="&#x2f5f;&#x7389;" d="M946 30 L946 -35 L56 -35 L56 30 L460 30 L460 357 L147 357 L147 421 L460 421 L460 703 L106 703 L106 769 L897 769 L897 703 L530 703 L530 421 L859 421 L859 357 L530 357 L530 30 L946 30 ZM673 303 Q805 183 861 121 L811 77 Q748 153 625 266 L673 303 Z" /><glyph glyph-name="uni74DC" unicode="&#x2f60;&#x74dc;" d="M655 270 Q743 92 776 -45 L719 -65 Q711 -28 686 46 L242 -1 L233 65 Q323 73 447 85 L447 673 L512 673 L512 91 Q535 93 588 99 L664 107 Q636 182 602 255 L655 270 ZM852 767 Q820 758 773 748 Q807 142 964 -23 Q931 -47 914 -77 Q748 113 715 735 Q506 693 244 666 L244 522 Q244 129 90 -74 Q73 -49 39 -32 Q180 153 180 522 L180 745 L253 724 Q619 766 795 818 L852 767 Z" /><glyph glyph-name="uni74E6" unicode="&#x2f61;&#x74e6;" d="M854 -5 Q876 -5 883 29 Q890 62 892 178 Q920 155 954 148 Q949 21 931 -22 Q912 -67 859 -67 L759 -67 Q705 -67 686 -46 Q667 -25 667 35 L667 482 L325 482 Q295 193 272 37 L586 73 L588 11 Q482 -3 306 -24 L63 -53 L50 14 Q55 14 200 30 Q249 323 279 704 L73 704 L73 768 L920 768 L920 704 L347 704 Q345 676 340 626 L332 545 L703 544 L733 544 L733 35 Q733 9 739 2 Q745 -5 767 -5 L854 -5 ZM408 388 Q544 287 597 190 L542 149 Q490 247 357 352 L408 388 Z" /><glyph glyph-name="uni7518" unicode="&#x2f62;&#x7518;" d="M692 578 L309 578 L309 353 L692 353 L692 578 ZM692 60 L692 288 L309 288 L309 60 L692 60 ZM947 578 L763 578 L763 -70 L692 -70 L692 -6 L309 -6 L309 -76 L239 -76 L239 578 L53 578 L53 644 L239 644 L239 832 L309 832 L309 644 L692 644 L692 832 L763 832 L763 644 L947 644 L947 578 Z" /><glyph glyph-name="uni751F" unicode="&#x2f63;&#x751f;" d="M945 21 L945 -44 L58 -44 L58 21 L467 21 L467 285 L166 285 L166 349 L467 349 L467 575 L226 575 Q182 483 120 408 Q94 430 60 448 Q180 577 246 818 L312 804 Q286 714 255 640 L467 640 L467 835 L536 835 L536 640 L898 640 L898 575 L536 575 L536 349 L862 349 L862 285 L536 285 L536 21 L945 21 Z" /><glyph glyph-name="uni7528" unicode="&#x2f64;&#x7528;" d="M816 295 L816 470 L537 470 L537 295 L816 295 ZM471 295 L471 470 L223 470 L223 404 Q223 346 219 295 L471 295 ZM223 701 L223 532 L471 532 L471 701 L223 701 ZM816 701 L537 701 L537 532 L816 532 L816 701 ZM882 19 Q882 -43 838 -59 Q803 -72 653 -70 Q650 -41 630 -6 Q728 -10 790 -7 Q816 -6 816 19 L816 232 L537 232 L537 -67 L471 -67 L471 232 L213 232 Q186 29 87 -81 Q68 -54 37 -37 Q158 99 158 404 L158 764 L882 764 L882 19 Z" /><glyph glyph-name="uni7530" unicode="&#x2f65;&#x7530;" d="M834 60 L834 351 L529 351 L529 60 L834 60 ZM168 60 L462 60 L462 351 L168 351 L168 60 ZM168 701 L168 417 L462 417 L462 701 L168 701 ZM834 701 L529 701 L529 417 L834 417 L834 701 ZM902 766 L902 -67 L834 -67 L834 -6 L168 -6 L168 -67 L102 -67 L102 766 L902 766 Z" /><glyph glyph-name="uni767D" unicode="&#x2f69;&#x767d;" d="M783 65 L783 305 L216 305 L216 65 L783 65 ZM216 606 L216 371 L783 371 L783 606 L216 606 ZM852 673 L852 -70 L783 -70 L783 -2 L216 -2 L216 -76 L150 -76 L150 673 L393 673 Q428 754 451 839 L531 823 Q502 746 466 673 L852 673 Z" /><glyph glyph-name="uni76AE" unicode="&#x2f6a;&#x76ae;" d="M374 382 Q442 238 567 143 Q700 240 763 382 L374 382 ZM220 444 L493 444 L493 633 L220 633 L220 444 ZM853 422 Q785 228 624 104 Q762 18 956 -17 Q935 -38 914 -78 Q709 -36 566 63 Q423 -28 222 -75 Q209 -45 183 -14 Q376 27 510 106 Q379 213 305 382 L219 382 Q207 83 87 -72 Q69 -47 34 -28 Q154 130 154 452 L154 698 L493 698 L493 837 L561 837 L561 698 L859 698 L872 701 L921 686 Q864 542 828 480 L768 499 Q794 546 828 633 L561 633 L561 444 L796 444 L809 447 L853 422 Z" /><glyph glyph-name="uni76EE" unicode="&#x2f6c;&#x76ee;" d="M763 63 L763 237 L230 237 L230 63 L763 63 ZM230 473 L230 300 L763 300 L763 473 L230 473 ZM230 707 L230 536 L763 536 L763 707 L230 707 ZM832 772 L832 -71 L763 -71 L763 -2 L230 -2 L230 -71 L163 -71 L163 772 L832 772 Z" /><glyph glyph-name="uni77F3" unicode="&#x2f6f;&#x77f3;" d="M315 361 L315 60 L802 60 L802 361 L315 361 ZM436 693 Q382 544 312 425 L871 425 L871 -75 L802 -75 L802 -4 L315 -4 L315 -76 L248 -76 L248 329 Q171 224 76 151 Q60 176 30 201 Q249 365 361 693 L70 693 L70 758 L933 758 L933 693 L436 693 Z" /><glyph glyph-name="uni793A" unicode="&#x2f70;&#x793a;" d="M850 693 L151 693 L151 759 L850 759 L850 693 ZM310 333 Q231 137 99 15 Q80 33 40 55 Q169 165 242 350 L310 333 ZM745 347 Q881 176 928 44 L862 15 Q819 148 684 323 L745 347 ZM937 518 L937 452 L536 452 L536 13 Q536 -46 492 -63 Q455 -75 312 -75 Q308 -47 288 -5 Q412 -9 440 -7 Q465 -6 465 15 L465 452 L62 452 L62 518 L937 518 Z" /><glyph glyph-name="uni79BE" unicode="&#x2f72;&#x79be;" d="M576 418 Q729 185 961 70 Q934 45 911 13 Q694 135 534 374 L534 -75 L464 -75 L464 370 Q313 138 92 13 Q72 43 43 70 Q277 186 424 418 L64 418 L64 485 L464 485 L464 683 Q293 663 125 651 Q122 681 106 712 Q584 747 800 812 L857 755 Q731 721 534 692 L534 485 L940 485 L940 418 L576 418 Z" /><glyph glyph-name="uniF9F7" unicode="&#x2f74;&#x7acb;&#xf9f7;" d="M916 571 L90 571 L90 635 L464 635 L464 834 L532 834 L532 635 L916 635 L916 571 ZM320 87 Q309 285 225 500 L286 517 Q373 305 387 105 L320 87 ZM944 34 L944 -31 L57 -31 L57 34 L558 34 Q643 238 702 522 L775 504 Q696 209 626 34 L944 34 Z" /><glyph glyph-name="uni7AF9" unicode="&#x2f75;&#x7af9;" d="M318 566 L318 -76 L252 -76 L252 566 L197 566 Q146 448 89 371 Q79 381 31 411 Q149 560 214 836 L283 822 Q257 721 223 631 L501 631 L501 566 L318 566 ZM956 566 L801 566 L801 15 Q801 -47 760 -62 Q726 -75 597 -75 Q593 -46 573 -4 Q637 -6 712 -6 Q734 -5 734 15 L734 566 L580 566 Q530 447 475 372 Q464 382 419 412 Q535 560 596 836 L662 823 Q637 719 605 631 L956 631 L956 566 Z" /><glyph glyph-name="uni7C73" unicode="&#x2f76;&#x7c73;" d="M889 757 Q797 598 726 508 L669 534 Q756 647 817 785 L889 757 ZM261 515 Q224 620 123 750 L182 775 Q280 658 325 544 L261 515 ZM590 384 Q737 156 963 39 Q934 14 913 -18 Q689 114 534 359 L534 -76 L464 -76 L464 357 Q318 112 90 -27 Q66 7 41 27 Q266 149 409 384 L62 384 L62 451 L464 451 L464 834 L534 834 L534 451 L937 451 L937 384 L590 384 Z" /><glyph glyph-name="uni7F51" unicode="&#x2f79;&#x7f51;" d="M911 13 Q911 -44 870 -60 Q838 -71 709 -71 Q701 -36 685 -9 Q771 -13 822 -10 Q846 -10 846 13 L846 711 L691 711 Q683 523 665 410 Q764 298 806 228 L759 187 Q724 245 652 334 Q611 133 512 16 Q498 32 461 58 Q564 168 603 392 Q534 471 474 528 L518 562 Q549 533 613 467 Q624 556 629 711 L426 711 Q416 521 395 395 Q477 302 519 233 L472 193 Q442 244 381 321 Q339 131 247 17 Q231 35 196 58 Q293 167 333 379 Q256 467 200 519 L243 552 Q294 505 344 451 Q358 555 365 711 L156 711 L156 -73 L92 -73 L92 773 L911 773 L911 13 Z" /><glyph glyph-name="uni7F8A" unicode="&#x2f7a;&#x7f8a;" d="M942 160 L533 160 L533 -75 L465 -75 L465 160 L59 160 L59 225 L465 225 L465 383 L161 383 L161 447 L465 447 L465 597 L113 597 L113 662 L311 662 Q282 733 227 810 L283 836 Q347 755 376 683 L333 662 L642 662 L623 671 Q675 746 713 837 L778 809 Q712 698 685 662 L894 662 L894 597 L533 597 L533 447 L832 447 L832 383 L533 383 L533 225 L942 225 L942 160 Z" /><glyph glyph-name="uniF934" unicode="&#x2f7c;&#x8001;&#xf934;" d="M545 493 Q634 564 704 636 L468 636 L468 493 L545 493 ZM569 430 Q487 367 393 310 L393 197 Q634 260 760 327 L819 279 Q651 202 393 141 L393 45 Q393 17 410 9 Q428 0 485 0 L762 0 Q812 0 827 26 Q842 51 847 140 Q872 123 911 115 Q902 7 875 -26 Q847 -61 765 -61 L485 -61 Q391 -61 358 -40 Q325 -18 325 45 L325 270 Q210 204 85 154 Q66 184 38 210 Q256 291 460 430 L56 430 L56 493 L400 493 L400 636 L142 636 L142 698 L400 698 L400 836 L468 836 L468 698 L721 698 L721 653 Q788 724 840 797 L900 767 Q789 615 646 493 L945 493 L945 430 L569 430 Z" /><glyph glyph-name="uni8012" unicode="&#x2f7e;&#x8012;" d="M584 284 Q737 96 961 6 Q930 -19 912 -52 Q691 53 532 251 L532 -75 L464 -75 L464 247 Q312 57 87 -44 Q72 -17 40 13 Q265 102 413 284 L66 284 L66 347 L464 347 L464 468 L143 468 L143 530 L464 530 L464 652 Q301 637 115 630 Q113 656 99 689 Q292 697 464 713 L464 833 L532 833 L532 720 Q719 739 832 766 L882 711 Q757 682 532 658 L532 530 L863 530 L863 468 L532 468 L532 347 L935 347 L935 284 L584 284 Z" /><glyph glyph-name="uni8033" unicode="&#x2f7f;&#x8033;" d="M294 113 Q554 129 708 140 L708 272 L294 272 L294 113 ZM294 707 L294 555 L708 555 L708 707 L294 707 ZM294 335 L708 335 L708 493 L294 493 L294 335 ZM943 93 L778 81 L778 -75 L708 -75 L708 76 Q436 56 61 31 L53 99 L225 109 L225 707 L68 707 L68 773 L935 773 L935 707 L778 707 L778 145 L945 157 L943 93 Z" /><glyph glyph-name="uni8089" unicode="&#x2f81;&#x8089;" d="M724 51 Q644 130 485 241 Q411 111 248 52 Q232 84 209 101 Q428 173 476 408 L545 408 Q532 345 513 297 Q690 178 772 100 L724 51 ZM899 13 Q899 -50 858 -65 Q823 -78 682 -78 Q677 -44 661 -9 Q763 -14 811 -11 Q834 -10 834 14 L834 622 L520 622 Q515 599 507 581 Q677 484 780 403 L735 352 Q643 430 482 525 Q413 399 253 339 Q239 368 214 388 Q394 453 451 622 L167 622 L167 -76 L101 -76 L101 687 L466 687 Q477 743 484 832 L554 832 Q547 742 536 687 L899 687 L899 13 Z" /><glyph glyph-name="uni81EA" unicode="&#x2f83;&#x81ea;" d="M778 43 L778 199 L236 199 L236 43 L778 43 ZM236 415 L236 261 L778 261 L778 415 L236 415 ZM236 635 L236 477 L778 477 L778 635 L236 635 ZM847 699 L847 -72 L778 -72 L778 -20 L236 -20 L236 -77 L169 -77 L169 699 L419 699 Q444 763 461 837 L536 826 Q509 750 486 699 L847 699 Z" /><glyph glyph-name="uni81F3" unicode="&#x2f84;&#x81f3;" d="M100 502 L254 506 Q313 598 361 708 L80 708 L80 770 L927 770 L927 708 L444 708 Q368 569 329 509 Q400 511 526 516 L734 524 Q663 586 593 636 L648 673 Q837 541 931 428 L872 385 Q845 420 799 464 L104 434 L100 502 ZM942 30 L942 -33 L59 -33 L59 30 L463 30 L463 227 L145 227 L145 288 L463 288 L463 417 L530 417 L530 288 L861 288 L861 227 L530 227 L530 30 L942 30 Z" /><glyph glyph-name="uni821F" unicode="&#x2f88;&#x821f;" d="M459 299 L524 299 L524 -10 L459 -10 L459 299 ZM429 617 Q554 534 610 461 L562 420 Q502 500 383 580 L429 617 ZM743 396 L743 655 L275 655 L275 396 L743 396 ZM943 333 L810 333 L810 11 Q810 -49 769 -65 Q736 -76 605 -76 Q595 -35 580 -11 Q682 -14 720 -12 Q743 -11 743 11 L743 333 L272 333 Q250 56 83 -81 Q68 -52 36 -32 Q189 93 206 333 L56 333 L56 396 L209 396 L209 717 L417 717 Q443 773 461 837 L532 817 L484 717 L810 717 L810 396 L943 396 L943 333 Z" /><glyph glyph-name="uni8272" unicode="&#x2f8a;&#x8272;" d="M329 708 Q282 646 227 589 L506 589 Q552 643 587 708 L329 708 ZM805 528 L540 528 L540 337 L805 337 L805 528 ZM229 337 L475 337 L475 528 L229 528 L229 337 ZM762 -3 Q832 -3 854 26 Q874 53 883 148 Q911 131 949 123 Q937 11 904 -25 Q867 -65 762 -65 L366 -65 Q247 -65 206 -38 Q162 -9 162 76 L162 528 Q120 491 89 470 Q69 501 39 518 Q228 645 331 836 L406 822 Q384 786 371 767 L624 767 L637 771 L682 742 Q646 669 585 589 L871 589 L871 228 L805 228 L805 277 L229 277 L229 75 Q229 27 252 13 Q277 -3 359 -3 L762 -3 Z" /><glyph glyph-name="uni8840" unicode="&#x2f8e;&#x8840;" d="M211 44 L363 44 L363 574 L211 574 L211 44 ZM578 574 L426 574 L426 44 L578 44 L578 574 ZM641 574 L641 44 L795 44 L795 574 L641 574 ZM955 44 L955 -20 L45 -20 L45 44 L146 44 L146 638 L375 638 Q422 739 448 835 L522 811 Q453 655 444 638 L863 638 L863 44 L955 44 Z" /><glyph glyph-name="uniFA08" unicode="&#x2f8f;&#x884c;&#xfa08;" d="M922 711 L432 711 L432 774 L922 774 L922 711 ZM333 811 Q230 671 79 566 Q61 592 38 617 Q184 712 270 836 L333 811 ZM373 600 Q327 527 261 448 L261 -79 L195 -79 L195 375 Q137 315 73 263 Q55 288 24 317 Q199 440 310 623 L373 600 ZM950 436 L797 436 L797 12 Q797 -45 754 -60 Q720 -69 570 -69 Q565 -42 546 -9 Q663 -12 705 -10 Q730 -9 730 13 L730 436 L389 436 L389 500 L950 500 L950 436 Z" /><glyph glyph-name="uni8863" unicode="&#x2f90;&#x8863;" d="M918 486 Q797 380 661 290 Q756 113 965 -11 Q931 -34 916 -69 Q725 52 628 211 Q542 352 501 579 Q430 487 332 407 L332 44 L615 103 L621 39 Q417 -6 132 -65 L112 1 L266 31 L266 356 Q173 290 70 243 Q58 268 34 301 Q295 414 441 612 L64 612 L64 675 L463 675 L463 835 L531 835 L531 675 L933 675 L933 612 L560 612 Q589 451 635 345 Q779 443 864 528 L918 486 Z" /><glyph glyph-name="uni89D2" unicode="&#x2f93;&#x89d2;" d="M800 204 L800 351 L553 351 L553 204 L800 204 ZM260 351 Q260 275 246 204 L489 204 L489 351 L260 351 ZM350 718 Q308 658 262 608 L527 608 Q564 654 599 718 L350 718 ZM260 409 L489 409 L489 548 L260 548 L260 409 ZM800 548 L553 548 L553 409 L800 409 L800 548 ZM866 16 Q866 -49 818 -64 Q776 -76 617 -74 Q610 -41 590 -9 Q704 -13 771 -10 Q800 -9 800 16 L800 144 L231 144 Q188 3 81 -78 Q64 -51 36 -29 Q195 93 195 361 L195 542 Q157 507 108 472 Q85 503 60 519 Q247 646 343 837 L416 824 Q398 792 388 776 L636 776 L647 779 L693 750 Q662 687 601 608 L866 608 L866 16 Z" /><glyph glyph-name="uni8C37" unicode="&#x2f95;&#x8c37;" d="M864 534 Q775 648 594 777 L644 816 Q833 682 917 578 L864 534 ZM399 787 Q290 633 128 524 Q103 553 75 572 Q237 669 334 811 L399 787 ZM760 321 Q590 447 496 582 Q411 448 246 321 L760 321 ZM717 25 L717 261 L291 261 L291 25 L717 25 ZM525 650 Q688 408 960 279 Q944 264 916 222 Q848 259 786 303 L786 -77 L717 -77 L717 -35 L291 -35 L291 -77 L225 -77 L225 305 Q153 253 86 216 Q69 245 45 268 Q324 415 459 650 L525 650 Z" /><glyph glyph-name="uni8C46" unicode="&#x2f96;&#x8c46;" d="M927 769 L927 707 L76 707 L76 769 L927 769 ZM941 25 L941 -38 L58 -38 L58 25 L941 25 ZM743 227 Q675 85 643 34 L590 58 Q640 143 675 252 L743 227 ZM328 246 Q387 143 402 61 L338 41 Q324 127 269 229 L328 246 ZM257 327 L749 327 L749 534 L257 534 L257 327 ZM817 595 L817 267 L192 267 L192 595 L817 595 Z" /><glyph glyph-name="uni8D64" unicode="&#x2f9a;&#x8d64;" d="M266 339 Q195 173 81 76 Q65 93 33 118 Q147 216 199 357 L266 339 ZM658 435 L658 5 Q658 -53 620 -66 Q588 -79 468 -79 Q461 -44 443 -12 Q472 -13 570 -13 Q589 -12 589 6 L589 435 L430 435 L430 372 Q430 233 395 140 Q344 4 209 -85 Q191 -59 160 -37 Q364 95 364 373 L364 435 L62 435 L62 499 L465 499 L465 647 L160 647 L160 711 L465 711 L465 833 L531 833 L531 711 L862 711 L862 647 L531 647 L531 499 L940 499 L940 435 L658 435 ZM793 363 Q909 222 963 112 L901 79 Q846 198 735 335 L793 363 Z" /><glyph glyph-name="uni8D70" unicode="&#x2f9b;&#x8d70;" d="M532 18 Q608 1 723 1 Q919 1 959 2 Q941 -27 935 -63 L720 -63 Q541 -63 438 -21 Q313 29 243 155 Q185 -3 88 -78 Q69 -55 39 -34 Q195 85 225 383 L294 375 Q285 305 267 236 Q328 90 465 37 L465 446 L66 446 L66 509 L464 509 L464 653 L152 653 L152 715 L464 715 L464 834 L532 834 L532 715 L860 715 L860 653 L532 653 L532 509 L933 509 L933 446 L532 446 L532 283 L867 283 L867 222 L532 222 L532 18 Z" /><glyph glyph-name="uni8DB3" unicode="&#x2f9c;&#x8db3;" d="M239 515 L780 515 L780 722 L239 722 L239 515 ZM538 18 Q612 3 715 3 L959 3 Q942 -24 934 -61 L712 -61 Q537 -61 438 -19 Q319 30 253 156 Q194 -3 96 -77 Q69 -46 49 -31 Q203 85 233 374 L303 366 Q292 290 279 241 Q334 89 470 37 L470 451 L173 451 L173 786 L849 786 L849 451 L538 451 L538 291 L876 291 L876 229 L538 229 L538 18 Z" /><glyph glyph-name="uni8EAB" unicode="&#x2f9d;&#x8eab;" d="M281 266 Q469 277 669 292 Q681 301 703 321 L703 376 L281 376 L281 266 ZM281 674 L281 578 L703 578 L703 674 L281 674 ZM703 526 L281 526 L281 428 L703 428 L703 526 ZM933 477 Q864 378 770 291 L770 22 Q770 -47 722 -63 Q684 -74 521 -74 Q513 -37 494 -4 Q601 -9 674 -6 Q703 -5 703 22 L703 234 Q459 40 92 -68 Q68 -25 50 -6 Q359 76 582 227 L68 186 L57 253 L131 257 Q188 261 215 262 L215 734 L416 734 Q443 783 461 836 L534 815 Q508 767 487 734 L770 735 L770 385 Q827 447 871 511 L933 477 Z" /><glyph glyph-name="uni8F9B" unicode="&#x2f9f;&#x8f9b;" d="M875 643 L130 643 L130 705 L463 705 L463 836 L531 836 L531 705 L875 705 L875 643 ZM336 456 Q319 524 262 620 L319 641 Q374 557 397 482 L336 456 ZM531 388 L531 228 L896 228 L896 166 L531 166 L531 -75 L463 -75 L463 166 L106 166 L106 228 L463 228 L463 388 L59 388 L59 451 L598 451 Q653 545 687 642 L755 620 Q687 488 664 451 L942 451 L942 388 L531 388 Z" /><glyph glyph-name="uniF971" unicode="&#x2fa0;&#x8fb0;&#xf971;" d="M907 291 Q804 210 686 145 Q788 23 962 -20 Q938 -43 919 -78 Q611 12 512 361 L390 361 L390 30 L628 77 L634 17 L417 -27 Q260 -58 228 -65 L214 -2 Q278 10 326 18 L326 361 L209 361 Q194 81 95 -72 Q66 -45 40 -34 Q147 133 147 490 L147 776 L182 777 L916 777 L916 713 L213 713 L213 489 Q213 445 212 422 L944 422 L944 361 L574 361 Q603 262 653 189 Q767 256 850 329 L907 291 ZM290 541 L290 602 L833 602 L833 541 L290 541 Z" /><glyph glyph-name="uni9091" unicode="&#x2fa2;&#x9091;" d="M734 735 L254 735 L254 617 L734 617 L734 735 ZM802 564 L188 564 L188 789 L802 789 L802 564 ZM200 436 L200 282 L462 282 L462 436 L200 436 ZM798 436 L526 436 L526 282 L798 282 L798 436 ZM753 -2 Q820 -2 841 22 Q860 44 868 123 Q900 104 935 98 Q923 0 891 -31 Q855 -65 753 -65 L341 -65 Q219 -65 177 -39 Q133 -13 133 67 L133 496 L864 496 L864 183 L798 183 L798 223 L200 223 L200 67 Q200 25 224 12 Q250 -2 334 -2 L753 -2 Z" /><glyph glyph-name="uniF9E9" unicode="&#x2fa5;&#x91cc;&#xf9e9;" d="M224 410 L471 410 L471 545 L224 545 L224 410 ZM224 602 L471 602 L471 735 L224 735 L224 602 ZM788 735 L534 735 L534 602 L788 602 L788 735 ZM788 545 L534 545 L534 410 L788 410 L788 545 ZM944 16 L944 -47 L58 -47 L58 16 L467 16 L467 167 L125 167 L125 230 L467 230 L467 350 L158 350 L158 795 L856 795 L856 350 L538 350 L538 230 L890 230 L890 167 L538 167 L538 16 L944 16 Z" /><glyph glyph-name="uniF90A" unicode="&#x2fa6;&#x91d1;&#xf90a;" d="M532 17 L925 17 L925 -43 L78 -43 L78 17 L464 17 L464 273 L122 273 L122 332 L464 332 L464 472 L252 472 L252 531 Q164 466 85 424 Q70 454 44 478 Q323 619 459 837 L525 837 Q690 612 960 490 Q934 463 916 431 Q645 573 496 770 Q412 650 252 531 L747 531 L747 472 L532 472 L532 332 L881 332 L881 273 L532 273 L532 17 ZM263 241 Q338 142 361 56 L303 32 Q280 121 209 221 L263 241 ZM622 54 Q690 148 731 244 L792 216 Q718 91 670 29 L622 54 Z" /><glyph glyph-name="uni961C" unicode="&#x2fa9;&#x961c;" d="M248 297 L760 297 L760 402 L248 402 L248 297 ZM248 685 L248 590 L728 590 L728 685 L248 685 ZM944 96 L534 96 L534 -75 L465 -75 L465 96 L57 96 L57 157 L465 157 L465 243 L181 243 L181 739 L403 739 Q426 776 451 838 L529 828 Q490 761 474 739 L795 739 L795 536 L248 536 L248 456 L827 456 L827 243 L534 243 L534 157 L944 157 L944 96 Z" /><glyph glyph-name="uni96E8" unicode="&#x2fac;&#x96e8;" d="M243 246 Q355 180 427 125 L388 83 Q327 131 205 209 L243 246 ZM253 441 Q363 379 430 331 L390 289 Q324 338 215 405 L253 441 ZM748 85 Q678 139 558 210 L596 248 Q725 173 787 129 L748 85 ZM756 290 Q686 341 573 405 L610 442 Q736 373 794 334 L756 290 ZM529 706 L529 568 L898 568 L898 14 Q898 -42 858 -57 Q827 -68 690 -68 Q681 -31 667 -7 Q700 -8 811 -8 Q833 -7 833 14 L833 505 L529 505 L529 -64 L464 -64 L464 505 L169 505 L169 -74 L105 -74 L105 568 L464 568 L464 706 L56 706 L56 772 L944 772 L944 706 L529 706 Z" /><glyph glyph-name="uni9762" unicode="&#x2faf;&#x9762;" d="M824 510 L667 510 L667 39 L824 39 L824 510 ZM173 39 L323 39 L323 510 L173 510 L173 39 ZM606 510 L384 510 L384 393 L606 393 L606 510 ZM384 39 L606 39 L606 163 L384 163 L384 39 ZM606 338 L384 338 L384 218 L606 218 L606 338 ZM527 704 Q509 637 486 572 L891 572 L891 -76 L824 -76 L824 -23 L173 -23 L173 -76 L108 -76 L108 572 L418 572 Q438 637 450 704 L63 704 L63 767 L940 767 L940 704 L527 704 Z" /><glyph glyph-name="uni97F3" unicode="&#x2fb3;&#x97f3;" d="M271 302 L271 190 L736 190 L736 302 L271 302 ZM736 22 L736 136 L271 136 L271 22 L736 22 ZM205 360 L805 360 L805 -75 L736 -75 L736 -36 L271 -36 L271 -75 L205 -75 L205 360 ZM942 510 L942 449 L59 449 L59 510 L649 510 L616 523 Q662 608 687 682 L319 682 Q368 605 382 532 L317 510 Q303 585 254 668 L300 682 L115 682 L115 743 L464 743 L464 838 L532 838 L532 743 L892 743 L892 682 L697 682 L756 661 Q692 539 675 510 L942 510 Z" /><glyph glyph-name="uni9996" unicode="&#x2fb8;&#x9996;" d="M760 478 L239 478 L239 372 L760 372 L760 478 ZM760 43 L760 155 L239 155 L239 43 L760 43 ZM760 318 L239 318 L239 209 L760 209 L760 318 ZM540 635 Q510 544 507 537 L828 537 L828 -76 L760 -76 L760 -17 L239 -17 L239 -76 L174 -76 L174 537 L437 537 Q449 573 463 635 L56 635 L56 697 L320 697 Q293 746 234 814 L291 839 Q355 777 385 720 L342 697 L613 697 Q670 768 706 837 L779 817 Q728 744 687 697 L946 697 L946 635 L540 635 Z" /><glyph glyph-name="uni9999" unicode="&#x2fb9;&#x9999;" d="M274 262 L274 165 L738 165 L738 262 L274 262 ZM738 15 L738 115 L274 115 L274 15 L738 15 ZM208 316 L806 316 L806 -73 L738 -73 L738 -39 L274 -39 L274 -75 L208 -75 L208 316 ZM609 546 Q757 398 960 328 Q941 313 916 275 Q686 367 533 546 L533 345 L465 345 L464 546 Q319 357 87 262 Q72 289 43 315 Q248 390 391 546 L61 546 L61 606 L465 606 L465 717 Q333 703 158 694 Q155 719 141 751 Q580 774 780 827 L832 775 Q718 745 533 723 L533 606 L941 606 L941 546 L609 546 Z" /><glyph glyph-name="uni9AA8" unicode="&#x2fbb;&#x9aa8;" d="M702 138 L702 224 L296 224 L296 138 L702 138 ZM296 355 L296 274 L702 274 L702 355 L296 355 ZM767 -5 Q767 -58 729 -70 Q701 -81 575 -81 Q572 -53 553 -21 Q649 -24 681 -22 Q702 -21 702 -5 L702 86 L296 86 L296 -76 L233 -76 L233 409 L767 409 L767 -5 ZM286 533 L446 533 L446 670 L712 670 L712 738 L286 738 L286 533 ZM712 622 L506 622 L506 533 L712 533 L712 622 ZM914 533 L914 344 L850 344 L850 474 L145 474 L145 344 L84 344 L84 533 L223 533 L223 792 L778 792 L778 533 L914 533 Z" /><glyph glyph-name="uni9AD8" unicode="&#x2fbc;&#x9ad8;" d="M372 178 L372 67 L630 67 L630 178 L372 178 ZM372 17 L372 -33 L312 -33 L312 228 L690 228 L690 17 L372 17 ZM892 2 Q892 -54 852 -67 Q815 -80 684 -78 Q677 -45 660 -15 Q727 -16 804 -16 Q826 -15 826 3 L826 294 L179 294 L179 -78 L114 -78 L114 352 L892 352 L892 2 ZM700 571 L299 571 L299 467 L700 467 L700 571 ZM767 620 L767 417 L235 417 L235 620 L767 620 ZM929 738 L929 679 L69 679 L69 738 L461 738 L461 835 L527 835 L527 738 L929 738 Z" /><glyph glyph-name="uniF940" unicode="&#x2fc5;&#x9e7f;&#xf940;" d="M194 523 L194 453 Q194 413 193 391 L361 391 L361 523 L194 523 ZM424 523 L424 391 L605 391 L605 523 L424 523 ZM668 523 L668 391 L852 391 L852 523 L668 523 ZM191 335 Q177 72 92 -71 Q68 -47 38 -33 Q131 121 131 453 L131 748 L495 748 L495 834 L563 834 L563 748 L939 748 L939 688 L194 688 L194 579 L361 579 L361 668 L424 668 L424 579 L605 579 L605 668 L668 668 L668 579 L916 579 L916 335 L191 335 ZM341 8 L560 32 L562 -25 Q252 -61 186 -68 L179 -9 L279 1 L279 312 L341 312 L341 215 L547 215 L547 159 L341 159 L341 8 ZM846 -15 Q871 -15 879 4 Q887 23 889 92 Q911 76 947 68 Q942 -16 923 -44 Q904 -72 852 -72 L702 -72 Q638 -72 617 -54 Q595 -36 595 18 L595 311 L659 311 L659 183 Q800 227 865 269 L916 224 Q826 175 659 129 L659 18 Q659 -3 668 -9 Q676 -15 707 -15 L846 -15 Z" /><glyph glyph-name="uni9ED1" unicode="&#x2fca;&#x9ed1;" d="M581 553 Q627 626 662 713 L713 693 Q664 595 625 535 L581 553 ZM329 713 Q383 629 397 564 L349 546 Q333 618 284 697 L329 713 ZM466 518 L466 740 L223 740 L223 518 L466 518 ZM770 740 L532 740 L532 518 L770 518 L770 740 ZM942 161 L59 161 L59 221 L466 221 L466 318 L141 318 L141 374 L466 374 L466 462 L159 462 L159 797 L837 797 L837 462 L532 462 L532 374 L857 374 L857 318 L532 318 L532 221 L942 221 L942 161 ZM62 -50 Q129 7 174 116 L237 101 Q191 -17 122 -80 L62 -50 ZM405 98 Q427 10 427 -61 L363 -70 Q361 11 344 93 L405 98 ZM611 104 Q652 15 669 -53 L604 -69 Q588 2 550 91 L611 104 ZM811 116 Q894 36 946 -51 L882 -77 Q844 -5 752 95 L811 116 Z" /><glyph glyph-name="uni9F0E" unicode="&#x2fcd;&#x9f0e;" d="M645 756 L344 756 L344 687 L645 687 L645 756 ZM645 641 L344 641 L344 572 L645 572 L645 641 ZM645 525 L344 525 L344 456 L645 456 L645 525 ZM711 408 L280 408 L280 804 L711 804 L711 408 ZM179 356 L424 356 L424 -79 L360 -79 L360 160 L221 160 Q207 -21 94 -84 Q80 -55 54 -35 Q147 14 160 160 L49 160 L49 218 L360 218 L360 300 L114 300 L114 751 L179 751 L179 356 ZM952 160 L848 160 L848 -78 L783 -78 L783 160 L632 160 L632 -76 L568 -76 L568 356 L632 356 L632 354 L815 354 L815 750 L879 750 L879 297 L632 297 L632 218 L952 218 L952 160 Z" /><glyph glyph-name="uni9F13" unicode="&#x2fce;&#x9f13;" d="M243 687 L55 687 L55 744 L243 744 L243 836 L308 836 L308 744 L501 744 L501 687 L308 687 L308 594 L475 594 L475 537 L78 537 L78 594 L243 594 L243 687 ZM392 413 L159 413 L159 291 L392 291 L392 413 ZM457 236 L97 236 L97 467 L457 467 L457 236 ZM174 44 Q165 120 125 202 L181 219 Q224 139 233 63 L174 44 ZM500 25 L54 -44 L43 19 Q120 28 319 56 L301 63 Q334 136 357 225 L417 205 Q369 83 359 62 L496 82 L500 25 ZM597 400 Q638 268 718 167 Q808 266 851 400 L597 400 ZM933 443 Q882 250 761 117 Q853 24 972 -19 Q946 -45 927 -76 Q807 -26 715 72 Q611 -23 470 -77 Q454 -45 426 -21 Q571 30 673 122 Q586 234 539 387 L585 400 L502 400 L502 461 L690 461 L690 614 L493 614 L493 675 L690 675 L690 835 L756 835 L756 675 L953 675 L953 614 L756 614 L756 461 L878 461 L891 464 L933 443 Z" /><glyph glyph-name="uni4E01" unicode="&#x4e01;" d="M934 674 L566 674 L566 37 Q566 -37 510 -53 Q465 -66 279 -66 Q270 -29 248 8 Q391 3 459 6 Q492 7 492 37 L492 674 L64 674 L64 742 L934 742 L934 674 Z" /><glyph glyph-name="uni4E03" unicode="&#x4e03;" d="M765 26 Q813 26 829 61 Q843 93 850 204 Q881 183 918 173 Q909 48 882 7 Q851 -40 765 -40 L497 -40 Q407 -40 375 -11 Q342 19 342 102 L342 415 L65 371 L53 436 L342 483 L342 819 L413 819 L413 494 L939 580 L949 513 L413 427 L413 100 Q413 55 429 41 Q446 26 499 26 L765 26 Z" /><glyph glyph-name="uni4E07" unicode="&#x4e07;" d="M410 694 Q406 565 397 483 L842 483 Q842 459 841 450 Q817 16 767 -36 Q740 -66 685 -69 Q629 -74 510 -65 Q508 -31 487 0 Q562 -8 661 -8 Q696 -8 708 4 Q750 42 771 419 L389 419 Q336 60 87 -78 Q71 -50 39 -28 Q225 70 293 292 Q335 429 341 694 L66 694 L66 759 L935 759 L935 694 L410 694 Z" /><glyph glyph-name="uni4E08" unicode="&#x4e08;" d="M641 574 Q626 271 513 135 Q673 19 950 -14 Q925 -41 910 -76 Q628 -38 466 87 Q347 -19 109 -70 Q102 -44 72 -12 Q301 34 413 132 Q275 266 211 510 L273 526 Q328 305 459 180 Q557 300 569 574 L67 574 L67 639 L571 639 Q573 696 573 821 L645 821 Q645 697 643 639 L934 639 L934 574 L641 574 Z" /><glyph glyph-name="uni4E09" unicode="&#x4e09;" d="M876 738 L876 671 L126 671 L126 738 L876 738 ZM798 413 L798 346 L188 346 L188 413 L798 413 ZM928 67 L928 0 L68 0 L68 67 L928 67 Z" /><glyph glyph-name="uni4E0A" unicode="&#x4e0a;" d="M943 38 L943 -28 L56 -28 L56 38 L432 38 L432 819 L502 819 L502 509 L880 509 L880 442 L502 442 L502 38 L943 38 Z" /><glyph glyph-name="uni4E0B" unicode="&#x4e0b;" d="M515 695 L515 517 L526 530 Q749 421 884 320 L838 259 Q731 347 515 461 L515 -72 L445 -72 L445 695 L59 695 L59 762 L942 762 L942 695 L515 695 Z" /><glyph glyph-name="uni4E0E" unicode="&#x4e0e;" d="M940 193 L753 193 Q724 8 676 -37 Q647 -67 586 -70 Q524 -73 406 -65 Q402 -31 383 -4 Q488 -15 568 -12 Q605 -13 621 0 Q660 32 686 193 L57 193 L57 257 L696 257 Q706 332 713 409 L284 409 Q276 374 269 350 L200 359 Q253 542 309 836 L377 828 Q371 794 349 690 L839 690 L839 626 L335 626 L300 472 L741 471 L785 471 Q784 447 782 437 Q774 343 762 257 L940 257 L940 193 Z" /><glyph glyph-name="uni4E13" unicode="&#x4e13;" d="M385 468 Q376 438 346 352 L784 352 L796 357 L846 326 Q765 244 577 62 Q685 15 743 -19 L703 -76 Q540 26 261 111 L299 160 Q402 130 511 88 Q640 209 719 290 L251 290 Q274 348 316 468 L60 468 L60 532 L337 532 Q362 604 378 657 L140 657 L140 720 L397 720 Q406 748 430 834 L500 834 L466 720 L852 720 L852 657 L446 657 Q420 573 406 532 L923 532 L923 468 L385 468 Z" /><glyph glyph-name="uni4E14" unicode="&#x4e14;" d="M282 33 L727 33 L727 217 L282 217 L282 33 ZM282 712 L282 531 L727 531 L727 712 L282 712 ZM727 468 L282 468 L282 281 L727 281 L727 468 ZM944 33 L944 -32 L58 -32 L58 33 L216 33 L216 776 L795 776 L795 33 L944 33 Z" /><glyph glyph-name="uni4E16" unicode="&#x4e16;" d="M727 303 L727 520 L530 520 L530 303 L727 303 ZM727 196 L727 240 L530 240 L530 190 L464 190 L464 520 L269 520 L269 65 L916 65 L916 0 L269 0 L269 -73 L202 -73 L202 520 L52 520 L52 584 L202 584 L202 809 L269 809 L269 584 L464 584 L464 830 L530 830 L530 584 L727 584 L727 818 L794 818 L794 584 L948 584 L948 520 L794 520 L794 196 L727 196 Z" /><glyph glyph-name="uni4E18" unicode="&#x4e18;" d="M279 32 L627 32 L627 412 L279 412 L279 32 ZM946 32 L946 -33 L54 -33 L54 32 L213 32 L213 726 L272 709 Q606 757 762 818 L818 766 Q620 695 279 650 L279 476 L896 476 L896 412 L695 412 L695 32 L946 32 Z" /><glyph glyph-name="uni4E1A" unicode="&#x4e1a;" d="M916 572 Q833 377 742 230 L688 260 Q794 433 856 601 L916 572 ZM226 239 Q188 376 88 585 L149 604 Q251 398 293 263 L226 239 ZM938 43 L938 -23 L65 -23 L65 43 L347 43 L347 823 L414 823 L414 43 L588 43 L588 822 L655 822 L655 43 L938 43 Z" /><glyph glyph-name="uni4E1B" unicode="&#x4e1b;" d="M719 818 Q711 698 699 614 Q770 269 944 138 Q918 115 895 80 Q751 200 674 468 Q613 201 456 66 Q436 93 400 117 Q526 216 584 400 Q633 554 648 822 L719 818 ZM452 243 Q413 329 312 469 Q261 212 125 74 Q103 100 69 124 Q257 298 280 825 L351 821 Q340 653 326 556 Q448 403 503 292 L452 243 ZM60 23 L942 23 L942 -45 L60 -45 L60 23 Z" /><glyph glyph-name="uni4E1C" unicode="&#x4e1c;" d="M329 244 Q256 84 133 -32 Q90 4 77 12 Q196 110 264 262 L329 244 ZM578 344 L578 20 Q578 -38 540 -54 Q505 -67 389 -67 Q384 -35 364 2 Q476 0 491 1 Q511 2 511 21 L511 344 L288 344 Q199 344 182 330 Q170 374 157 399 Q182 406 231 478 Q272 534 329 639 L82 639 L82 703 L361 703 Q390 758 424 841 L492 810 Q472 763 441 703 L911 703 L911 639 L408 639 Q344 521 265 409 L511 409 L511 559 L578 559 L578 409 L870 409 L870 344 L578 344 ZM720 264 Q868 122 934 13 L876 -21 Q806 99 666 235 L720 264 Z" /><glyph glyph-name="uni4E1D" unicode="&#x4e1d;" d="M909 242 Q903 214 903 182 Q557 162 526 152 Q520 180 505 213 Q530 220 594 287 Q645 338 717 433 Q537 420 517 411 Q511 439 495 474 Q516 478 557 538 Q646 655 715 832 L777 806 Q686 612 588 484 L761 492 Q813 563 858 639 L917 607 Q776 390 614 228 L909 242 ZM472 238 Q466 202 468 179 Q147 157 122 146 Q108 190 99 208 Q127 215 186 284 Q228 328 299 425 Q137 415 110 405 Q103 437 88 467 Q109 471 149 532 Q236 649 303 830 L366 805 Q277 610 180 477 L341 485 Q401 571 441 645 L501 614 Q360 385 208 224 L472 238 ZM941 47 L941 -15 L56 -15 L56 47 L941 47 Z" /><glyph glyph-name="uni4E24" unicode="&#x4e24;" d="M592 557 L592 701 L402 701 L402 557 L592 557 ZM657 557 L896 557 L896 13 Q896 -50 853 -65 Q819 -76 669 -76 Q664 -43 646 -9 Q745 -13 806 -10 Q830 -10 830 14 L830 494 L655 494 Q653 440 645 393 Q766 251 811 167 L771 117 Q727 201 630 320 Q593 172 491 69 Q471 99 444 116 Q578 243 591 494 L400 494 Q399 453 390 390 Q469 294 496 241 L456 188 Q431 239 374 316 Q334 167 236 69 Q220 96 190 116 Q323 245 336 494 L172 494 L172 -77 L106 -77 L106 557 L337 557 L337 701 L63 701 L63 765 L938 765 L938 701 L657 701 L657 557 Z" /><glyph glyph-name="uni4E2A" unicode="&#x4e2a;" d="M496 764 Q351 542 67 375 Q46 407 23 428 Q317 595 458 834 L525 834 Q705 579 982 440 Q962 421 936 381 Q655 541 496 764 ZM531 510 L531 -72 L463 -72 L463 510 L531 510 Z" /><glyph glyph-name="uni4E2D" unicode="&#x4e2d;" d="M829 318 L829 592 L532 592 L532 318 L829 318 ZM463 318 L463 592 L167 592 L167 318 L463 318 ZM897 657 L897 194 L829 194 L829 252 L532 252 L532 -74 L463 -74 L463 252 L167 252 L167 189 L101 189 L101 657 L463 657 L463 836 L532 836 L532 657 L897 657 Z" /><glyph glyph-name="uni4E30" unicode="&#x4e30;" d="M945 166 L535 166 L535 -74 L465 -74 L465 166 L57 166 L57 233 L465 233 L465 403 L144 403 L144 466 L465 466 L465 623 L94 623 L94 689 L465 689 L465 836 L535 836 L535 689 L905 689 L905 623 L535 623 L535 466 L860 466 L860 403 L535 403 L535 233 L945 233 L945 166 Z" /><glyph glyph-name="uniF905" unicode="&#x4e32;&#xf905;" d="M824 152 L824 305 L532 305 L532 152 L824 152 ZM463 152 L463 305 L178 305 L178 152 L463 152 ZM463 513 L463 659 L216 659 L216 513 L463 513 ZM532 659 L532 513 L780 513 L780 659 L532 659 ZM895 366 L895 51 L824 51 L824 91 L532 91 L532 -75 L463 -75 L463 91 L178 91 L178 49 L110 49 L110 366 L463 366 L463 453 L149 453 L149 719 L463 719 L463 835 L532 835 L532 719 L850 719 L850 453 L532 453 L532 366 L895 366 Z" /><glyph glyph-name="uni4E34" unicode="&#x4e34;" d="M92 713 L154 713 L154 59 L92 59 L92 713 ZM256 822 L321 822 L321 -69 L256 -69 L256 822 ZM491 314 L491 41 L642 41 L642 314 L491 314 ZM852 314 L704 314 L704 41 L852 41 L852 314 ZM427 378 L920 378 L920 -71 L852 -71 L852 -21 L491 -21 L491 -75 L427 -75 L427 378 ZM750 418 Q691 483 581 573 L625 612 Q742 520 796 465 L750 418 ZM948 717 L948 653 L530 653 Q474 528 408 452 Q378 475 350 489 Q467 612 527 840 L592 827 Q573 761 556 717 L948 717 Z" /><glyph glyph-name="uniF95E" unicode="&#x4e39;&#xf95e;" d="M422 664 Q556 563 623 483 L571 440 Q501 526 373 626 L422 664 ZM740 399 L740 718 L267 718 L267 445 Q267 415 266 399 L740 399 ZM940 335 L807 335 L807 18 Q807 -48 760 -64 Q720 -77 562 -75 Q553 -38 535 -10 Q645 -14 711 -11 Q740 -10 740 18 L740 335 L263 335 Q240 59 85 -78 Q68 -48 38 -29 Q178 95 197 335 L57 335 L57 399 L200 399 Q201 415 201 446 L201 781 L807 781 L807 399 L940 399 L940 335 Z" /><glyph glyph-name="uni4E3A" unicode="&#x4e3a;" d="M276 632 Q242 700 169 782 L226 808 Q299 729 336 661 L276 632 ZM896 595 L895 560 Q874 30 825 -28 Q798 -61 747 -65 Q702 -68 589 -62 Q585 -23 566 7 Q633 0 721 0 Q752 0 764 15 Q806 56 825 529 L474 529 Q429 150 110 -62 Q90 -35 58 -14 Q360 183 406 529 L87 529 L87 595 L413 595 Q417 654 417 719 L417 834 L484 834 L484 718 Q484 652 480 595 L896 595 ZM641 176 Q599 261 503 374 L556 401 Q656 292 699 209 L641 176 Z" /><glyph glyph-name="uni4E3B" unicode="&#x4e3b;" d="M945 23 L945 -42 L60 -42 L60 23 L465 23 L465 278 L151 278 L151 342 L465 342 L465 570 L107 570 L107 634 L555 634 Q494 708 380 794 L434 831 Q555 744 616 668 L569 634 L895 634 L895 570 L535 570 L535 342 L854 342 L854 278 L535 278 L535 23 L945 23 Z" /><glyph glyph-name="uni4E3D" unicode="&#x4e3d;" d="M385 324 L385 536 L176 536 L176 324 L385 324 ZM451 3 Q451 -48 419 -63 Q392 -77 298 -75 Q293 -48 278 -12 Q345 -15 369 -13 Q385 -13 385 3 L385 262 L176 262 L176 -73 L113 -73 L113 598 L451 598 L451 3 ZM85 775 L461 775 L461 714 L85 714 L85 775 ZM833 324 L833 536 L606 536 L606 324 L833 324 ZM900 4 Q900 -47 867 -62 Q839 -75 739 -73 Q734 -42 720 -11 Q797 -13 816 -11 Q833 -11 833 5 L833 262 L606 262 L606 -73 L543 -73 L543 598 L900 598 L900 4 ZM928 775 L928 714 L526 714 L526 775 L928 775 Z" /><glyph glyph-name="uni4E43" unicode="&#x4e43;" d="M924 507 L923 472 Q898 29 843 -27 Q812 -60 756 -63 Q692 -66 580 -60 Q576 -24 556 6 Q644 -2 734 -2 Q769 -2 783 11 Q828 51 852 441 L663 441 Q657 399 651 366 L581 373 Q607 507 624 701 L355 701 L355 630 Q355 161 92 -75 Q70 -46 38 -24 Q287 193 287 630 L287 701 L92 701 L92 766 L630 767 L701 767 Q685 605 672 506 L924 507 Z" /><glyph glyph-name="uni4E45" unicode="&#x4e45;" d="M676 653 Q642 515 586 400 Q701 92 961 -17 Q934 -39 913 -75 Q674 37 547 327 Q384 51 100 -79 Q78 -41 49 -21 Q463 155 591 605 L321 605 Q226 424 97 307 Q65 337 38 354 Q241 519 341 835 L411 819 Q391 754 354 672 L617 672 L630 675 L676 653 Z" /><glyph glyph-name="uni4E48" unicode="&#x4e48;" d="M505 801 Q340 534 101 360 Q78 391 53 413 Q299 583 435 827 L505 801 ZM870 -69 Q850 -28 817 22 Q376 -11 124 -27 L115 43 L227 49 Q419 296 565 586 L635 555 Q477 272 311 54 Q562 68 775 83 Q691 194 610 275 L669 310 Q850 134 934 -27 L870 -69 Z" /><glyph glyph-name="uni4E49" unicode="&#x4e49;" d="M545 478 Q496 561 389 659 L436 692 Q546 595 594 515 L545 478 ZM827 745 Q738 391 560 196 Q717 48 953 -16 Q935 -31 907 -74 Q670 -7 510 146 Q359 6 112 -78 Q93 -44 66 -19 Q312 55 463 193 Q286 388 192 726 L258 742 Q339 433 513 243 Q679 426 758 760 L827 745 Z" /><glyph glyph-name="uni4E4B" unicode="&#x4e4b;" d="M898 608 Q704 292 370 70 Q475 5 700 5 Q913 5 957 6 Q936 -26 931 -61 L697 -61 Q516 -61 412 -22 Q290 23 222 136 Q160 13 100 -73 L37 -35 Q150 109 223 302 L285 273 L254 204 Q279 150 317 112 Q604 296 788 571 L101 571 L101 635 L464 635 L464 833 L530 833 L530 635 L834 635 L848 639 L898 608 Z" /><glyph glyph-name="uni4E4C" unicode="&#x4e4c;" d="M758 134 L61 134 L61 194 L758 194 L758 134 ZM915 342 Q895 5 854 -39 Q831 -66 782 -69 Q736 -72 637 -67 Q634 -33 615 -4 Q689 -10 759 -10 Q787 -10 799 1 Q830 31 848 312 L196 312 L196 733 L390 733 Q425 803 436 841 L506 829 Q465 750 455 733 L818 733 Q817 711 816 702 Q800 510 768 477 Q747 456 703 454 Q643 452 576 457 Q574 485 560 514 Q622 508 678 508 Q703 508 713 517 Q734 541 746 672 L261 672 L261 373 L915 373 L915 342 Z" /><glyph glyph-name="uni4E4D" unicode="&#x4e4d;" d="M473 599 L473 446 L883 446 L883 382 L473 382 L473 223 L896 223 L896 158 L473 158 L473 -76 L404 -76 L404 599 L274 599 Q194 470 105 381 Q79 405 45 423 Q216 575 316 838 L383 821 Q354 747 311 664 L938 664 L938 599 L473 599 Z" /><glyph glyph-name="uni4E50" unicode="&#x4e50;" d="M305 256 Q221 112 97 -12 Q93 -8 43 31 Q164 140 242 277 L305 256 ZM553 368 L553 13 Q553 -47 513 -62 Q479 -75 346 -75 Q338 -39 322 -8 Q355 -9 462 -9 Q486 -8 486 13 L486 368 L247 368 Q145 368 131 355 Q122 390 108 419 Q124 424 139 482 Q174 626 175 757 Q634 769 830 823 L870 765 Q658 711 241 699 Q230 578 195 435 L486 435 L486 640 L553 640 L553 435 L921 435 L921 368 L553 368 ZM750 276 Q896 120 956 23 L896 -9 Q829 102 694 250 L750 276 Z" /><glyph glyph-name="uni4E54" unicode="&#x4e54;" d="M303 378 L370 378 L370 262 Q370 153 334 83 Q284 -15 154 -76 Q137 -48 104 -27 Q225 28 271 112 Q303 171 303 264 L303 378 ZM619 378 L687 378 L687 -74 L619 -74 L619 378 ZM652 523 Q763 377 964 313 Q941 295 919 257 Q696 335 578 523 L416 523 Q298 345 82 250 Q55 288 36 305 Q225 379 336 523 L58 523 L58 587 L379 587 Q414 649 437 715 Q273 704 128 701 Q126 729 113 758 Q588 770 810 819 L859 766 Q724 737 511 721 Q489 656 454 587 L943 587 L943 523 L652 523 Z" /><glyph glyph-name="uni4E5D" unicode="&#x4e5d;" d="M868 6 Q891 6 898 33 Q905 58 908 149 Q929 131 970 120 Q965 16 946 -21 Q927 -59 874 -59 L756 -59 Q699 -59 679 -38 Q659 -16 659 46 L659 512 L421 512 Q403 298 338 167 Q259 6 90 -79 Q74 -48 37 -21 Q198 54 273 199 Q335 318 351 512 L84 512 L84 578 L356 578 Q360 657 360 824 L430 824 Q428 631 425 578 L726 578 L726 46 Q726 21 733 13 Q740 6 764 6 L868 6 Z" /><glyph glyph-name="uni4E5F" unicode="&#x4e5f;" d="M764 6 Q833 6 855 41 Q876 74 885 186 Q914 169 948 159 Q936 33 904 -8 Q866 -55 763 -55 L406 -55 Q297 -55 259 -25 Q220 6 220 96 L220 417 L53 366 L35 425 L220 481 L220 768 L284 768 L284 501 L501 568 L501 834 L566 834 L566 587 L805 661 L812 667 L826 676 L873 656 L869 642 Q864 350 837 276 Q813 211 756 202 Q704 195 640 199 Q635 239 623 261 Q659 258 725 258 Q763 258 779 305 Q801 368 804 597 L566 524 L566 135 L501 135 L501 504 L284 436 L284 94 Q284 41 307 24 Q330 6 403 6 L764 6 Z" /><glyph glyph-name="uni4E60" unicode="&#x4e60;" d="M718 267 Q445 171 131 64 L107 131 Q324 197 705 329 L718 267 ZM279 608 Q464 485 547 406 L501 355 Q412 443 235 565 L279 608 ZM882 721 Q873 35 831 -23 Q803 -62 751 -66 Q699 -72 595 -64 Q593 -31 573 -1 Q642 -6 728 -6 Q756 -6 768 10 Q805 51 815 696 L122 696 L122 760 L882 760 L882 721 Z" /><glyph glyph-name="uni4E61" unicode="&#x4e61;" d="M883 430 Q788 215 587 92 Q409 -17 113 -72 Q102 -40 77 -4 Q530 65 715 292 Q194 251 153 235 Q149 265 131 303 Q172 308 277 365 Q378 418 524 518 Q216 495 185 483 Q174 525 163 552 Q190 554 250 599 Q371 677 504 830 L566 791 Q434 654 297 559 L610 581 Q672 626 737 683 L797 639 Q569 450 328 324 L761 355 Q791 404 811 454 L883 430 Z" /><glyph glyph-name="uni4E66" unicode="&#x4e66;" d="M904 617 Q844 677 721 759 L761 802 Q878 728 946 667 L904 617 ZM492 391 L730 391 L730 595 L492 595 L492 391 ZM940 391 L938 360 Q916 91 878 54 Q853 28 805 25 Q765 22 654 28 Q650 64 631 92 Q695 85 781 85 Q813 85 823 95 Q851 118 868 328 L492 328 L492 -75 L424 -75 L424 328 L63 328 L63 391 L424 391 L424 595 L131 595 L131 659 L424 659 L424 831 L492 831 L492 659 L796 659 L796 391 L940 391 Z" /><glyph glyph-name="uni4E73" unicode="&#x4e73;" d="M518 785 Q400 738 177 713 Q134 571 74 491 Q41 517 24 525 Q94 620 130 785 L193 771 Q388 802 468 836 L518 785 ZM280 518 Q278 592 242 682 L298 695 Q334 614 340 532 L280 518 ZM543 210 L329 189 L329 -2 Q329 -57 294 -69 Q263 -80 152 -80 Q147 -53 130 -16 Q184 -17 247 -17 Q265 -16 265 -1 L265 184 Q186 176 54 165 L43 231 Q61 232 265 249 L265 329 L293 329 Q352 374 398 425 L91 425 L91 485 L438 486 L455 486 L469 490 L514 456 Q445 373 329 289 L329 254 L542 273 L543 210 ZM450 720 Q516 635 544 540 L488 517 Q467 602 398 701 L450 720 ZM835 1 Q866 1 877 39 Q886 74 891 194 Q919 171 954 164 Q947 32 926 -12 Q903 -61 839 -61 L692 -61 Q625 -61 602 -36 Q579 -10 579 64 L579 818 L647 818 L647 62 Q647 23 656 12 Q666 1 698 1 L835 1 Z" /><glyph glyph-name="uni4E7E" unicode="&#x4e7e;" d="M152 304 L406 304 L406 390 L152 390 L152 304 ZM152 440 L406 440 L406 525 L152 525 L152 440 ZM308 252 L308 163 L500 163 L500 102 L308 102 L308 -76 L243 -76 L243 102 L45 102 L45 163 L243 163 L243 252 L91 252 L91 577 L243 577 L243 666 L57 666 L57 725 L243 725 L243 835 L308 835 L308 725 L494 725 L494 666 L308 666 L308 577 L469 577 L469 521 Q565 632 616 834 L682 820 Q664 751 637 684 L954 684 L954 622 L610 622 Q566 529 515 468 Q497 484 469 505 L469 252 L308 252 ZM851 1 Q876 1 884 26 Q893 53 896 146 Q921 131 956 124 Q950 6 927 -31 Q907 -64 849 -64 L646 -64 Q521 -64 521 25 Q521 108 767 409 L544 409 L544 470 L828 470 L844 472 L887 453 Q884 445 878 439 Q589 91 589 32 Q589 1 644 1 L851 1 Z" /><glyph glyph-name="uniF9BA" unicode="&#x4e86;&#xf9ba;" d="M883 722 Q740 552 534 434 L534 17 Q534 -47 485 -62 Q445 -73 281 -73 Q277 -44 254 -5 Q383 -10 437 -7 Q466 -6 466 18 L466 497 L513 497 Q648 577 756 690 L100 690 L100 756 L816 756 L830 760 L883 722 Z" /><glyph glyph-name="uni4E8B" unicode="&#x4e8b;" d="M780 209 L531 209 L531 129 L780 129 L780 209 ZM531 263 L780 263 L780 338 L531 338 L531 263 ZM464 511 L464 587 L239 587 L239 511 L464 511 ZM531 587 L531 511 L764 511 L764 587 L531 587 ZM950 209 L847 209 L847 32 L780 32 L780 77 L531 77 L531 3 Q531 -54 489 -68 Q455 -79 323 -79 Q319 -58 299 -22 Q390 -25 439 -22 Q464 -21 464 3 L464 77 L137 77 L137 129 L464 129 L464 209 L52 209 L52 263 L464 263 L464 338 L146 338 L146 389 L464 389 L464 463 L175 463 L175 635 L464 635 L464 697 L70 697 L70 753 L464 753 L464 835 L531 835 L531 753 L932 753 L932 697 L531 697 L531 635 L832 635 L832 463 L531 463 L531 389 L847 389 L847 263 L950 263 L950 209 Z" /><glyph glyph-name="uni4E8E" unicode="&#x4e8e;" d="M943 370 L543 370 L543 25 Q543 -43 493 -58 Q452 -72 292 -70 Q284 -39 263 -1 Q377 -5 445 -2 Q474 -1 474 25 L474 370 L58 370 L58 436 L474 436 L474 697 L127 697 L127 763 L873 763 L873 697 L543 697 L543 436 L943 436 L943 370 Z" /><glyph glyph-name="uni4E91" unicode="&#x4e91;" d="M833 691 L167 691 L167 758 L833 758 L833 691 ZM453 390 Q372 188 300 54 Q586 64 781 72 Q709 175 630 262 L691 295 Q860 117 937 -38 L872 -79 Q858 -47 822 12 Q419 -10 74 -23 L67 47 L225 52 Q304 194 369 390 L60 390 L60 458 L938 458 L938 390 L453 390 Z" /><glyph glyph-name="uni4E94" unicode="&#x4e94;" d="M427 380 Q382 159 356 46 L707 46 L707 380 L427 380 ZM942 46 L942 -19 L59 -19 L59 46 L282 46 Q313 169 356 380 L163 380 L163 445 L368 445 Q398 601 410 671 L123 671 L123 737 L868 737 L868 671 L481 671 Q470 608 439 445 L774 445 L774 46 L942 46 Z" /><glyph glyph-name="uni4E95" unicode="&#x4e95;" d="M646 317 L646 560 L360 560 L360 442 Q360 368 355 317 L646 317 ZM937 250 L715 250 L715 -76 L646 -76 L646 250 L347 250 Q310 33 130 -86 Q113 -62 75 -38 Q239 66 276 250 L65 250 L65 317 L286 317 Q291 368 291 443 L291 560 L97 560 L97 627 L291 627 L291 831 L360 831 L360 627 L646 627 L646 832 L715 832 L715 627 L914 627 L914 560 L715 560 L715 317 L937 317 L937 250 Z" /><glyph glyph-name="uni4E9A" unicode="&#x4e9a;" d="M408 49 L577 49 L577 709 L408 709 L408 49 ZM950 49 L950 -15 L50 -15 L50 49 L338 49 L338 709 L75 709 L75 774 L928 774 L928 709 L647 709 L647 49 L950 49 ZM146 560 Q246 361 287 233 L225 208 Q185 340 88 540 L146 560 ZM684 234 Q783 395 841 559 L904 536 Q829 354 743 212 L684 234 Z" /><glyph glyph-name="uni4EA4" unicode="&#x4ea4;" d="M934 637 L65 637 L65 702 L464 702 L464 835 L530 835 L530 702 L934 702 L934 637 ZM673 607 Q857 484 944 382 L887 335 Q798 444 621 566 L673 607 ZM390 577 Q281 425 105 319 Q71 363 56 376 Q226 467 324 602 L390 577 ZM718 412 Q659 258 553 154 Q709 26 958 -16 Q930 -44 913 -80 Q660 -29 501 108 Q348 -17 87 -84 Q77 -55 46 -20 Q301 35 451 155 Q351 261 293 407 L355 426 Q406 295 501 200 Q598 296 648 432 L718 412 Z" /><glyph glyph-name="uni4EA7" unicode="&#x4ea7;" d="M898 648 L113 648 L113 712 L495 712 Q463 776 430 817 L494 835 Q548 772 570 715 L562 712 L898 712 L898 648 ZM353 468 Q324 538 268 613 L324 636 Q385 562 414 494 L353 468 ZM924 396 L197 396 L197 323 Q197 58 94 -83 Q71 -53 40 -37 Q129 87 129 325 L129 461 L608 461 Q656 539 691 631 L761 608 Q707 510 674 461 L924 461 L924 396 Z" /><glyph glyph-name="uni4EA8" unicode="&#x4ea8;" d="M880 296 Q754 207 538 141 L538 -7 Q538 -62 492 -75 Q455 -86 294 -84 Q288 -57 269 -23 Q401 -26 444 -24 Q470 -23 470 -5 L470 199 L527 199 Q638 233 723 275 L102 275 L102 332 L815 332 L829 336 L880 296 ZM732 563 L273 563 L273 453 L732 453 L732 563 ZM802 403 L207 403 L207 613 L802 613 L802 403 ZM932 739 L932 679 L63 679 L63 739 L463 739 L463 835 L531 835 L531 739 L932 739 Z" /><glyph glyph-name="uni4EA9" unicode="&#x4ea9;" d="M205 458 L205 287 L467 287 L467 458 L205 458 ZM789 458 L532 458 L532 287 L789 287 L789 458 ZM789 43 L789 225 L532 225 L532 43 L789 43 ZM205 43 L467 43 L467 225 L205 225 L205 43 ZM140 522 L857 522 L857 -71 L789 -71 L789 -20 L205 -20 L205 -75 L140 -75 L140 522 ZM936 697 L936 632 L65 632 L65 697 L492 697 Q471 743 423 820 L485 841 Q541 762 563 707 L540 697 L936 697 Z" /><glyph glyph-name="uni4EAB" unicode="&#x4eab;" d="M931 686 L66 686 L66 744 L463 744 L463 835 L531 835 L531 744 L931 744 L931 686 ZM259 471 L739 471 L739 569 L259 569 L259 471 ZM193 420 L193 619 L809 619 L809 420 L193 420 ZM941 118 L531 118 L531 -11 Q531 -64 489 -77 Q457 -87 311 -87 Q306 -61 286 -26 Q402 -29 439 -27 Q463 -26 463 -9 L463 118 L58 118 L58 177 L463 177 L463 238 L512 238 Q604 264 691 303 L150 303 L150 358 L785 358 L800 362 L847 324 Q730 247 531 189 L531 177 L941 177 L941 118 Z" /><glyph glyph-name="uni4EAC" unicode="&#x4eac;" d="M928 653 L68 653 L68 717 L462 717 L462 836 L531 836 L531 717 L928 717 L928 653 ZM302 186 Q218 46 95 -43 Q75 -21 46 0 Q174 89 235 207 L302 186 ZM257 324 L746 324 L746 498 L257 498 L257 324 ZM531 265 L531 2 Q531 -56 488 -67 Q456 -78 312 -78 Q308 -52 288 -14 Q358 -16 440 -16 Q463 -15 463 3 L463 265 L191 265 L191 558 L816 558 L816 265 L531 265 ZM746 207 Q878 77 937 -10 L874 -46 Q812 50 687 177 L746 207 Z" /><glyph glyph-name="uni4EAD" unicode="&#x4ead;" d="M196 236 L806 236 L806 179 L535 179 L535 1 Q535 -56 490 -69 Q455 -79 298 -79 Q293 -53 274 -16 Q408 -18 441 -16 Q466 -16 466 2 L466 179 L196 179 L196 236 ZM79 369 L924 369 L924 171 L862 171 L862 315 L139 315 L139 171 L79 171 L79 369 ZM732 580 L267 580 L267 479 L732 479 L732 580 ZM802 629 L802 430 L201 430 L201 629 L802 629 ZM933 747 L933 689 L64 689 L64 747 L463 747 L463 839 L531 839 L531 747 L933 747 Z" /><glyph glyph-name="uniF977" unicode="&#x4eae;&#xf977;" d="M934 689 L65 689 L65 747 L464 747 L464 838 L532 838 L532 747 L934 747 L934 689 ZM863 179 L863 306 L140 306 L140 179 L80 179 L80 360 L925 360 L925 179 L863 179 ZM733 576 L268 576 L268 473 L733 473 L733 576 ZM803 625 L803 424 L202 424 L202 625 L803 625 ZM398 255 Q384 103 324 33 Q255 -47 80 -81 Q70 -54 44 -26 Q206 2 266 68 Q319 124 329 255 L398 255 ZM833 -16 Q859 -16 868 5 Q876 27 879 104 Q903 86 941 78 Q936 -14 916 -45 Q895 -76 839 -76 L688 -76 Q621 -76 598 -57 Q575 -39 575 16 L575 252 L646 252 L646 16 Q646 -5 655 -10 Q663 -16 695 -16 L833 -16 Z" /><glyph glyph-name="uni4EB2" unicode="&#x4eb2;" d="M875 652 L142 652 L142 710 L466 710 L466 835 L531 835 L531 710 L874 710 L875 652 ZM600 484 Q647 562 678 644 L747 631 Q691 520 659 470 L600 484 ZM326 473 Q305 548 257 624 L315 639 Q369 557 388 492 L326 473 ZM570 242 Q714 72 938 -3 Q911 -28 893 -59 Q681 25 533 203 L533 -76 L468 -76 L468 209 Q321 41 111 -55 Q89 -20 70 -2 Q275 77 420 242 L93 242 L93 301 L468 301 L468 409 L74 409 L74 468 L927 468 L927 409 L533 409 L533 301 L910 301 L910 242 L570 242 Z" /><glyph glyph-name="uni4EB3" unicode="&#x4eb3;" d="M934 693 L65 693 L65 750 L463 750 L463 836 L531 836 L531 750 L934 750 L934 693 ZM863 221 L863 339 L136 339 L136 220 L76 220 L76 392 L925 392 L925 221 L863 221 ZM741 591 L267 591 L267 493 L741 493 L741 591 ZM811 636 L811 448 L201 448 L201 636 L811 636 ZM813 -19 Q850 -19 861 -4 Q871 11 875 68 Q900 51 936 45 Q929 -29 906 -52 Q883 -76 818 -76 L573 -76 Q485 -76 456 -58 Q426 -40 426 17 L426 89 L75 68 L70 122 L426 143 L426 218 Q337 207 201 198 Q198 220 186 243 Q563 271 725 318 L771 276 Q665 246 493 225 L493 146 L917 171 L922 118 L493 93 L493 18 Q493 -6 508 -12 Q522 -19 573 -19 L813 -19 Z" /><glyph glyph-name="uni4EBF" unicode="&#x4ebf;" d="M350 814 Q307 708 255 615 L255 -73 L190 -73 L190 511 Q137 432 75 368 Q56 409 36 432 Q195 586 287 833 L350 814 ZM800 36 Q840 36 853 73 Q865 111 870 239 Q898 222 930 217 Q923 64 896 17 Q871 -28 798 -28 L537 -28 Q372 -28 372 83 Q372 138 431 227 Q519 359 787 665 L391 665 L391 728 L853 728 L869 731 L912 708 Q907 702 901 697 Q438 177 438 89 Q438 36 532 36 L800 36 Z" /><glyph glyph-name="uniF9FD" unicode="&#x4ec0;&#xf9fd;" d="M361 813 Q320 710 260 605 L260 -74 L195 -74 L195 503 Q133 414 79 360 Q63 395 41 424 Q207 585 298 832 L361 813 ZM951 424 L678 424 L678 -76 L610 -76 L610 424 L327 424 L327 489 L610 489 L610 826 L678 826 L678 489 L951 489 L951 424 Z" /><glyph glyph-name="uni4EC1" unicode="&#x4ec1;" d="M902 596 L387 596 L387 665 L902 665 L902 596 ZM366 813 Q315 688 257 590 L257 -74 L191 -74 L191 488 Q145 424 82 358 Q68 390 41 423 Q206 580 301 834 L366 813 ZM947 69 L947 -1 L329 -1 L329 69 L947 69 Z" /><glyph glyph-name="uni4EC6" unicode="&#x4ec6;" d="M398 811 Q358 716 294 611 L294 -71 L228 -71 L228 514 Q150 409 66 332 Q44 367 19 394 Q220 561 331 831 L398 811 ZM933 251 Q810 343 623 445 L623 -74 L555 -74 L555 830 L623 830 L623 518 Q832 411 975 309 L933 251 Z" /><glyph glyph-name="uni4ECA" unicode="&#x4eca;" d="M772 330 L823 314 Q732 107 632 -82 L565 -64 Q644 86 726 264 L155 264 L155 326 L761 326 L772 330 ZM723 520 L723 457 L281 457 L281 520 L723 520 ZM524 839 Q696 594 963 454 Q943 435 917 397 Q646 559 495 770 Q354 555 83 390 Q69 415 40 442 Q322 606 459 839 L524 839 Z" /><glyph glyph-name="uni4ECB" unicode="&#x4ecb;" d="M496 767 Q361 539 85 387 Q72 413 43 440 Q325 589 458 838 L526 838 Q688 579 962 454 Q940 432 917 394 Q643 539 496 767 ZM711 488 L711 -72 L642 -72 L642 488 L711 488 ZM354 485 L354 343 Q354 209 317 121 Q264 -3 128 -81 Q110 -54 78 -31 Q205 39 253 150 Q286 226 286 344 L286 485 L354 485 Z" /><glyph glyph-name="uni4ECE" unicode="&#x4ece;" d="M435 144 Q388 238 293 356 Q239 76 104 -77 Q85 -58 41 -31 Q159 90 212 312 Q255 489 269 801 L340 798 Q328 575 308 440 Q432 302 491 189 L435 144 ZM692 800 Q690 736 686 654 Q741 153 965 -12 Q934 -39 913 -75 Q728 76 659 434 Q591 82 377 -70 Q357 -44 323 -22 Q510 104 579 388 Q617 541 622 800 L692 800 Z" /><glyph glyph-name="uni4ED1" unicode="&#x4ed1;" d="M695 23 Q745 23 761 51 Q776 77 782 171 Q809 151 845 145 Q837 33 809 -2 Q780 -40 696 -40 L413 -40 Q320 -40 287 -17 Q253 7 253 76 L253 483 L319 483 L319 276 Q590 361 703 447 L763 397 Q616 298 319 213 L319 76 Q319 43 336 33 Q354 23 412 23 L695 23 ZM565 810 Q554 792 542 779 Q706 574 963 484 Q933 460 913 425 Q676 524 506 732 Q336 529 92 421 Q71 455 45 478 Q356 605 505 837 L565 810 Z" /><glyph glyph-name="uni4ED3" unicode="&#x4ed3;" d="M562 808 Q550 789 539 774 Q690 590 966 461 Q938 441 921 405 Q658 541 503 725 Q396 590 238 481 L761 481 L759 450 Q748 217 721 186 Q701 163 656 160 Q601 156 520 162 Q518 192 503 221 Q569 215 629 215 Q655 215 665 225 Q683 247 691 418 L303 418 L303 73 Q303 38 322 28 Q340 17 403 17 L699 17 Q755 17 772 46 Q788 72 795 170 Q824 149 862 144 Q851 27 822 -9 Q791 -49 701 -49 L403 -49 Q304 -49 270 -25 Q234 0 234 73 L234 478 Q150 423 84 392 Q58 429 36 448 Q346 585 500 836 L562 808 Z" /><glyph glyph-name="uni4ED4" unicode="&#x4ed4;" d="M366 809 Q322 702 256 594 L256 -71 L191 -71 L191 498 Q130 415 67 354 Q49 384 22 415 Q200 575 300 828 L366 809 ZM961 339 L670 339 L670 15 Q670 -47 624 -62 Q587 -73 438 -73 Q430 -35 414 -7 Q533 -10 577 -8 Q603 -7 603 15 L603 339 L298 339 L298 404 L603 404 L603 551 L645 551 Q736 614 816 702 L383 702 L383 765 L869 765 L882 768 L928 736 Q830 607 670 498 L670 404 L961 404 L961 339 Z" /><glyph glyph-name="uni4ED5" unicode="&#x4ed5;" d="M367 813 Q321 703 257 598 L257 -74 L191 -74 L191 501 Q134 423 68 359 Q51 395 26 422 Q203 582 303 833 L367 813 ZM669 452 L669 30 L945 30 L945 -34 L337 -34 L337 30 L601 30 L601 452 L314 452 L314 517 L601 517 L601 820 L669 820 L669 517 L962 517 L962 452 L669 452 Z" /><glyph glyph-name="uni4ED6" unicode="&#x4ed6;" d="M334 813 Q287 696 231 600 L231 -74 L166 -74 L166 499 Q116 428 60 368 Q43 405 22 431 Q182 586 273 832 L334 813 ZM816 -2 Q861 -2 876 27 Q890 53 896 144 Q922 125 958 116 Q949 10 924 -24 Q895 -63 817 -63 L549 -63 Q462 -63 431 -36 Q400 -9 400 68 L400 402 L298 363 L273 421 L400 470 L400 739 L465 739 L465 496 L621 557 L621 834 L684 834 L684 581 L851 646 L870 662 L916 644 L913 632 Q913 314 899 259 Q889 201 840 190 Q802 182 740 184 Q736 223 723 246 Q752 245 802 245 Q830 245 838 276 Q848 309 850 577 L684 513 L684 144 L621 144 L621 488 L465 427 L465 68 Q465 25 481 12 Q497 -2 550 -2 L816 -2 Z" /><glyph glyph-name="uni4ED9" unicode="&#x4ed9;" d="M345 814 Q304 711 243 607 L243 -72 L180 -72 L180 510 Q126 434 64 372 Q45 406 23 431 Q191 588 283 832 L345 814 ZM916 566 L916 -48 L851 -48 L851 27 L417 27 L417 -57 L354 -57 L354 566 L417 566 L417 89 L596 89 L596 804 L661 804 L661 89 L851 89 L851 566 L916 566 Z" /><glyph glyph-name="uni4EDF" unicode="&#x4edf;" d="M336 813 Q292 701 231 597 L231 -74 L166 -74 L166 496 Q114 421 61 366 Q43 406 22 431 Q182 586 273 832 L336 813 ZM957 369 L670 369 L670 -76 L603 -76 L603 369 L312 369 L312 434 L603 434 L603 672 Q502 654 366 638 Q362 658 346 693 Q700 738 855 800 L909 747 Q824 716 670 685 L670 434 L957 434 L957 369 Z" /><glyph glyph-name="uni4EE3" unicode="&#x4ee3;" d="M879 615 Q821 693 713 780 L761 811 Q870 727 930 652 L879 615 ZM382 805 Q333 693 272 600 L272 -73 L205 -73 L205 505 Q140 419 65 352 Q49 386 26 415 Q215 575 320 825 L382 805 ZM644 469 Q704 16 860 3 Q900 0 917 178 Q935 160 972 144 Q944 -78 862 -75 Q645 -59 580 462 L332 430 L322 493 L572 524 Q559 661 551 821 L618 821 Q622 678 637 532 L940 569 L950 508 L644 469 Z" /><glyph glyph-name="uni4EEA" unicode="&#x4eea;" d="M656 579 Q622 670 542 785 L595 811 Q681 693 712 611 L656 579 ZM336 813 Q292 701 231 597 L231 -73 L168 -73 L168 499 Q119 428 61 367 Q40 411 22 431 Q182 586 273 832 L336 813 ZM907 766 Q835 374 671 176 Q788 42 961 -19 Q932 -44 914 -77 Q741 -9 625 124 Q500 -3 312 -76 Q302 -57 272 -25 Q463 47 585 174 Q436 376 367 754 L431 762 Q491 418 631 227 Q778 415 842 779 L907 766 Z" /><glyph glyph-name="uni4EF0" unicode="&#x4ef0;" d="M335 815 Q295 713 233 606 L233 -71 L170 -71 L170 509 Q115 432 58 374 Q33 415 17 432 Q181 587 274 833 L335 815 ZM621 789 Q536 719 423 658 L423 171 L592 221 L602 164 Q507 133 317 74 L293 136 Q330 145 360 154 L360 713 L395 702 Q503 768 557 828 L621 789 ZM932 180 Q932 127 897 111 Q868 99 757 99 Q752 130 735 164 Q761 163 850 163 Q868 164 868 181 L868 674 L684 674 L684 -72 L622 -72 L622 734 L932 734 L932 180 Z" /><glyph glyph-name="uni4EF2" unicode="&#x4ef2;" d="M331 816 Q293 708 234 598 L234 -74 L170 -74 L170 492 Q126 423 77 370 Q58 406 38 433 Q185 588 269 835 L331 816 ZM866 312 L866 567 L661 567 L661 312 L866 312 ZM595 312 L595 567 L394 567 L394 312 L595 312 ZM932 629 L932 192 L866 192 L866 250 L661 250 L661 -74 L595 -74 L595 250 L394 250 L394 186 L331 186 L331 629 L595 629 L595 825 L661 825 L661 629 L932 629 Z" /><glyph glyph-name="uni4EF6" unicode="&#x4ef6;" d="M337 813 Q293 697 237 595 L237 -74 L174 -74 L174 492 Q130 426 76 366 Q61 400 38 431 Q189 587 274 832 L337 813 ZM947 272 L673 272 L673 -76 L607 -76 L607 272 L318 272 L318 336 L607 336 L607 565 L443 565 Q411 473 369 409 Q337 431 312 443 Q395 560 435 786 L498 774 Q483 690 463 629 L607 629 L607 823 L673 823 L673 629 L904 629 L904 565 L673 565 L673 336 L947 336 L947 272 Z" /><glyph glyph-name="uni4EF7" unicode="&#x4ef7;" d="M333 814 Q290 702 230 600 L230 -72 L167 -72 L167 501 Q115 427 60 371 Q38 409 18 431 Q181 589 271 832 L333 814 ZM449 475 L514 475 L514 331 Q514 53 334 -86 Q319 -63 287 -41 Q449 76 449 332 L449 475 ZM727 475 L793 475 L793 -67 L727 -67 L727 475 ZM640 818 Q773 597 973 477 Q958 461 933 418 Q727 557 612 749 Q503 550 298 413 Q283 444 260 468 Q475 606 576 818 L640 818 Z" /><glyph glyph-name="uni4EFB" unicode="&#x4efb;" d="M365 816 Q321 710 257 603 L257 -76 L191 -76 L191 504 Q131 423 68 361 Q46 402 25 426 Q201 585 301 836 L365 816 ZM669 344 L669 27 L940 27 L940 -37 L340 -37 L340 27 L602 27 L602 344 L302 344 L302 408 L602 408 L602 680 Q492 661 356 644 Q354 662 336 700 Q697 748 864 809 L913 754 Q836 727 669 692 L669 408 L957 408 L957 344 L669 344 Z" /><glyph glyph-name="uni4EFD" unicode="&#x4efd;" d="M333 812 Q290 700 230 598 L230 -74 L167 -74 L167 499 Q115 425 60 369 Q38 407 18 429 Q181 587 271 830 L333 812 ZM511 711 Q434 501 304 377 Q287 401 261 423 Q388 541 446 727 L511 711 ZM844 438 L843 406 Q831 13 799 -27 Q778 -54 734 -59 Q701 -62 622 -58 Q620 -26 602 4 Q672 -2 708 0 Q730 -1 740 12 Q766 40 775 377 L591 377 Q559 47 348 -77 Q327 -43 306 -27 Q500 77 526 377 L382 377 L382 438 L844 438 ZM771 807 Q820 559 971 449 Q938 425 918 400 Q777 512 720 747 L504 747 L504 807 L771 807 Z" /><glyph glyph-name="uni4F01" unicode="&#x4f01;" d="M524 840 Q691 587 963 449 Q937 423 917 390 Q647 547 495 770 Q354 544 83 384 Q65 415 40 436 Q321 596 458 840 L524 840 ZM539 15 L925 15 L925 -46 L78 -46 L78 15 L207 15 L207 388 L272 388 L272 15 L471 15 L471 569 L539 569 L539 332 L833 332 L833 272 L539 272 L539 15 Z" /><glyph glyph-name="uni4F0A" unicode="&#x4f0a;" d="M344 813 Q305 715 241 606 L241 -75 L177 -75 L177 508 Q119 427 61 370 Q44 410 23 435 Q187 588 282 832 L344 813 ZM815 469 L606 469 L606 417 Q606 344 599 295 L815 295 L815 469 ZM606 531 L815 531 L815 703 L606 703 L606 531 ZM954 469 L879 469 L879 179 L815 179 L815 233 L589 233 Q541 23 331 -78 Q313 -48 287 -27 Q475 56 522 233 L345 233 L345 295 L534 295 Q540 345 540 417 L540 469 L289 469 L289 531 L540 531 L540 703 L360 703 L360 766 L879 766 L879 531 L954 531 L954 469 Z" /><glyph glyph-name="uni4F0D" unicode="&#x4f0d;" d="M330 810 Q292 711 241 617 L241 -73 L177 -73 L177 511 Q123 429 57 359 Q37 396 16 419 Q179 581 269 828 L330 810 ZM575 380 Q534 142 512 30 L793 30 L793 380 L575 380 ZM958 30 L958 -33 L300 -33 L300 30 L442 30 Q470 155 508 380 L349 380 L349 443 L518 443 Q539 572 556 691 L349 691 L349 754 L918 754 L918 691 L623 691 Q606 572 585 443 L860 443 L860 30 L958 30 Z" /><glyph glyph-name="uni4F0F" unicode="&#x4f0f;" d="M849 596 Q809 673 728 773 L778 803 Q861 706 903 630 L849 596 ZM346 814 Q303 705 246 606 L246 -74 L180 -74 L180 501 Q126 423 70 365 Q50 408 31 430 Q190 586 283 834 L346 814 ZM659 473 Q738 99 959 -18 Q927 -44 910 -75 Q714 43 625 357 Q570 91 351 -75 Q325 -47 297 -31 Q542 150 575 473 L314 473 L314 539 L580 539 Q581 563 581 607 L581 834 L648 834 L648 606 Q648 562 647 539 L945 539 L945 473 L659 473 Z" /><glyph glyph-name="uni4F11" unicode="&#x4f11;" d="M365 808 Q320 696 255 593 L255 -74 L190 -74 L190 498 Q133 420 66 358 Q47 395 24 424 Q201 576 300 829 L365 808 ZM697 515 Q807 242 974 105 Q942 82 924 52 Q768 195 655 470 L655 -76 L590 -76 L590 449 Q480 185 321 48 Q297 79 271 99 Q443 233 552 515 L304 515 L304 579 L590 579 L590 822 L655 822 L655 579 L949 579 L949 515 L697 515 Z" /><glyph glyph-name="uni4F17" unicode="&#x4f17;" d="M527 836 Q693 605 965 491 Q941 465 919 429 Q647 563 496 766 Q357 562 83 423 Q65 455 39 478 Q319 614 457 836 L527 836 ZM454 89 Q393 166 297 248 Q235 38 99 -76 Q70 -47 41 -30 Q229 109 272 473 L341 465 Q329 375 315 317 Q443 219 506 140 L454 89 ZM713 464 Q704 406 697 370 Q768 84 965 -16 Q937 -41 916 -78 Q751 20 668 256 Q599 38 451 -76 Q420 -47 393 -30 Q597 110 643 473 L713 464 Z" /><glyph glyph-name="uni4F18" unicode="&#x4f18;" d="M864 636 Q813 704 715 777 L759 811 Q860 741 912 674 L864 636 ZM331 811 Q297 713 242 608 L242 -75 L177 -75 L177 495 Q126 414 74 355 Q55 392 34 417 Q179 575 269 828 L331 811 ZM849 14 Q877 14 885 42 Q894 69 897 167 Q919 150 957 139 Q952 27 932 -10 Q911 -48 854 -48 L701 -48 Q638 -48 616 -27 Q594 -6 594 53 L594 283 Q530 34 332 -76 Q310 -45 285 -27 Q432 52 499 205 Q552 328 566 535 L311 535 L311 598 L568 598 Q571 709 571 825 L637 825 Q637 697 633 598 L942 598 L942 535 L630 535 Q626 479 623 452 L660 452 L660 53 Q660 29 669 22 Q678 14 708 14 L849 14 Z" /><glyph glyph-name="uni4F1A" unicode="&#x4f1a;" d="M91 333 L913 333 L913 271 L438 271 Q373 124 322 32 Q554 39 740 47 Q669 130 601 189 L657 221 Q816 82 895 -43 L836 -81 Q823 -57 788 -12 Q453 -27 109 -41 L100 26 Q205 28 247 30 Q310 141 360 271 L91 271 L91 333 ZM736 523 L736 462 L259 462 L259 523 L736 523 ZM524 837 Q687 605 963 490 Q937 463 919 431 Q643 563 494 769 Q357 566 81 426 Q68 452 40 480 Q320 613 456 837 L524 837 Z" /><glyph glyph-name="uni4F26" unicode="&#x4f26;" d="M330 815 Q287 700 230 595 L230 -74 L166 -74 L166 489 Q123 424 73 369 Q51 411 34 432 Q183 589 268 834 L330 815 ZM775 3 Q815 3 827 28 Q838 52 843 140 Q868 122 904 115 Q896 11 873 -22 Q849 -57 778 -57 L553 -57 Q473 -57 445 -35 Q417 -13 417 51 L417 470 L483 470 L483 254 Q659 333 790 421 L833 366 Q673 267 483 189 L483 51 Q483 21 496 12 Q510 3 556 3 L775 3 ZM678 828 L652 779 Q781 584 970 479 Q945 462 923 428 Q752 534 618 724 Q496 534 305 417 Q289 446 261 466 Q500 606 607 841 L678 828 Z" /><glyph glyph-name="uni4F2F" unicode="&#x4f2f;" d="M345 818 Q305 686 241 566 L241 -78 L176 -78 L176 458 Q131 392 80 338 Q63 370 38 397 Q198 553 282 832 L345 818 ZM808 38 L808 286 L432 286 L432 38 L808 38 ZM432 591 L432 351 L808 351 L808 591 L432 591 ZM876 654 L876 -67 L808 -67 L808 -28 L432 -28 L432 -74 L366 -74 L366 654 L530 654 Q565 747 585 836 L660 823 Q631 732 598 654 L876 654 Z" /><glyph glyph-name="uni4F38" unicode="&#x4f38;" d="M333 814 Q290 702 230 600 L230 -72 L167 -72 L167 501 Q115 427 60 371 Q38 409 18 431 Q181 589 271 832 L333 814 ZM870 264 L870 412 L659 412 L659 264 L870 264 ZM594 264 L594 412 L390 412 L390 264 L594 264 ZM390 618 L390 472 L594 472 L594 618 L390 618 ZM659 618 L659 472 L870 472 L870 618 L659 618 ZM936 678 L936 157 L870 157 L870 203 L659 203 L659 -74 L594 -74 L594 203 L390 203 L390 151 L328 151 L328 678 L594 678 L594 830 L659 830 L659 678 L936 678 Z" /><glyph glyph-name="uni4F3D" unicode="&#x4f3d;" d="M293 818 Q267 729 219 618 L219 -75 L158 -75 L158 495 Q123 432 70 362 Q57 393 35 424 Q163 583 236 835 L293 818 ZM614 624 Q614 599 613 590 Q597 34 561 -17 Q542 -45 504 -50 Q476 -54 413 -50 Q411 -18 396 11 Q431 8 478 8 Q498 7 508 23 Q538 65 553 564 L451 564 Q437 92 296 -78 Q275 -51 246 -35 Q379 119 391 564 L288 564 L288 624 L393 624 Q394 690 394 831 L454 831 Q454 756 452 624 L614 624 ZM857 106 L857 658 L718 658 L718 106 L857 106 ZM917 718 L917 -36 L857 -36 L857 46 L718 46 L718 -44 L660 -44 L660 718 L917 718 Z" /><glyph glyph-name="uni4F4D" unicode="&#x4f4d;" d="M590 636 L590 823 L657 823 L657 636 L932 636 L932 573 L328 573 L328 636 L590 636 ZM488 81 Q476 263 412 493 L470 505 Q538 271 552 98 L488 81 ZM346 814 Q307 716 243 607 L243 -72 L180 -72 L180 512 Q126 436 65 375 Q46 408 23 435 Q190 589 283 832 L346 814 ZM960 35 L960 -27 L302 -27 L302 35 L649 35 Q728 238 779 512 L850 497 Q775 203 711 35 L960 35 Z" /><glyph glyph-name="uni4F4E" unicode="&#x4f4e;" d="M333 814 Q290 702 230 600 L230 -72 L167 -72 L167 501 Q115 427 60 371 Q38 409 18 431 Q181 589 271 832 L333 814 ZM327 12 L755 12 L755 -48 L327 -48 L327 12 ZM651 485 Q641 578 638 692 Q546 676 431 664 L431 485 L651 485 ZM724 424 Q746 249 790 140 Q833 32 879 32 Q908 32 914 170 Q936 148 968 136 Q961 39 940 3 Q919 -33 874 -33 Q796 -33 739 95 Q685 216 658 424 L431 424 L431 157 L674 202 L679 144 L316 73 L299 135 L367 146 L367 732 L412 717 Q705 752 854 802 L907 752 Q827 727 705 704 Q707 587 717 485 L954 485 L954 424 L724 424 Z" /><glyph glyph-name="uni4F4F" unicode="&#x4f4f;" d="M345 814 Q304 711 243 607 L243 -72 L180 -72 L180 510 Q126 434 64 372 Q45 406 23 431 Q191 588 283 832 L345 814 ZM958 24 L958 -40 L313 -40 L313 24 L606 24 L606 283 L373 283 L373 346 L606 346 L606 572 L339 572 L339 636 L689 636 Q606 715 476 791 L521 837 Q665 755 740 684 L698 636 L940 636 L940 572 L672 572 L672 346 L912 346 L912 283 L672 283 L672 24 L958 24 Z" /><glyph glyph-name="uni4F50" unicode="&#x4f50;" d="M344 813 Q303 710 242 606 L242 -73 L179 -73 L179 509 Q125 433 63 371 Q44 405 22 430 Q190 587 282 831 L344 813 ZM555 567 Q532 468 499 373 L938 373 L938 310 L726 310 L726 20 L954 20 L954 -43 L406 -43 L406 20 L661 20 L661 310 L487 310 L487 341 Q414 147 300 23 Q272 53 246 73 Q405 234 487 567 L297 567 L297 629 L501 629 Q518 707 536 827 L604 819 Q590 730 569 629 L955 629 L955 567 L555 567 Z" /><glyph glyph-name="uni4F51" unicode="&#x4f51;" d="M344 816 Q304 715 241 609 L241 -74 L177 -74 L177 511 Q119 430 61 373 Q41 417 23 437 Q189 593 282 835 L344 816 ZM520 307 L520 53 L845 53 L845 307 L520 307 ZM585 575 Q546 455 503 370 L912 370 L912 -63 L845 -63 L845 -9 L520 -9 L520 -72 L455 -72 L455 286 Q389 184 306 117 Q286 146 263 168 Q430 302 517 575 L301 575 L301 640 L536 640 Q562 745 576 833 L643 822 Q630 741 603 640 L958 640 L958 575 L585 575 Z" /><glyph glyph-name="uni4F53" unicode="&#x4f53;" d="M320 814 Q281 701 229 598 L229 -74 L166 -74 L166 489 Q128 426 76 366 Q64 398 37 431 Q178 586 258 832 L320 814 ZM692 566 Q797 273 967 142 Q937 118 916 89 Q752 234 647 535 L647 173 L813 173 L813 113 L647 113 L647 -71 L583 -71 L583 113 L413 113 L413 173 L583 173 L583 531 Q476 235 309 87 Q283 119 261 137 Q434 274 540 566 L297 566 L297 630 L583 630 L583 833 L647 833 L647 630 L950 630 L950 566 L692 566 Z" /><glyph glyph-name="uni4F55" unicode="&#x4f55;" d="M334 815 Q297 713 243 611 L243 -75 L177 -75 L177 500 Q131 430 80 373 Q67 406 42 437 Q186 589 272 834 L334 815 ZM434 467 L434 245 L617 245 L617 467 L434 467 ZM434 186 L434 115 L371 115 L371 526 L679 526 L679 186 L434 186 ZM958 673 L883 673 L883 20 Q883 -46 835 -62 Q791 -76 635 -74 Q631 -44 610 -5 Q745 -10 790 -6 Q817 -6 817 20 L817 673 L339 673 L339 737 L958 737 L958 673 Z" /><glyph glyph-name="uni4F57" unicode="&#x4f57;" d="M345 813 Q304 710 243 606 L243 -73 L180 -73 L180 509 Q126 433 64 371 Q45 405 23 430 Q191 587 283 831 L345 813 ZM795 -1 Q840 -1 854 31 Q866 60 871 168 Q900 147 935 140 Q926 18 902 -21 Q874 -64 797 -64 L570 -64 Q488 -64 459 -40 Q429 -16 429 52 L429 521 L495 521 L495 293 Q705 375 818 459 L865 416 Q737 321 495 230 L495 51 Q495 19 509 9 Q524 -1 572 -1 L795 -1 ZM941 695 L941 497 L876 497 L876 634 L403 634 L403 493 L340 493 L340 695 L600 695 L600 835 L666 835 L666 695 L941 695 Z" /><glyph glyph-name="uni4F59" unicode="&#x4f59;" d="M525 834 Q697 617 960 509 Q940 487 916 450 Q651 578 496 769 Q353 577 84 443 Q73 468 44 497 Q320 626 459 834 L525 834 ZM332 185 Q236 52 98 -41 Q70 -11 46 6 Q187 88 270 207 L332 185 ZM531 274 L531 10 Q531 -48 491 -62 Q458 -73 331 -73 Q326 -44 306 -8 Q406 -11 441 -9 Q463 -9 463 11 L463 274 L97 274 L97 336 L463 336 L463 470 L238 470 L238 530 L755 530 L755 470 L531 470 L531 336 L910 336 L910 274 L531 274 ZM704 215 Q860 98 934 5 L880 -38 Q808 58 654 178 L704 215 Z" /><glyph glyph-name="uni4F5B" unicode="&#x4f5b;" d="M336 812 Q293 700 233 598 L233 -74 L170 -74 L170 499 Q118 425 63 369 Q41 407 21 429 Q184 587 274 830 L336 812 ZM671 310 L671 432 L548 432 L548 381 Q548 333 546 310 L671 310 ZM486 310 Q488 356 488 381 L488 432 L382 432 Q376 398 358 310 L486 310 ZM548 491 L671 491 L671 631 L548 631 L548 491 ZM730 631 L730 491 L850 491 L850 631 L730 631 ZM942 310 L941 282 Q933 74 911 47 Q893 26 858 25 Q827 22 770 25 Q768 59 753 81 Q788 78 835 78 Q854 76 861 85 Q875 101 880 251 L730 251 L730 -72 L671 -72 L671 251 L541 251 Q512 26 322 -75 Q301 -49 277 -32 Q451 59 480 251 L344 251 L334 210 L275 214 Q307 335 332 491 L488 491 L488 631 L310 631 L310 689 L488 689 L488 823 L548 823 L548 689 L671 689 L671 823 L730 823 L730 689 L910 689 L910 432 L730 432 L730 310 L942 310 Z" /><glyph glyph-name="uni4F5C" unicode="&#x4f5c;" d="M356 812 Q312 702 253 597 L253 -74 L186 -74 L186 494 Q141 429 80 366 Q60 409 41 431 Q201 586 292 832 L356 812 ZM643 604 L643 454 L935 454 L935 392 L643 392 L643 234 L948 234 L948 171 L643 171 L643 -75 L576 -75 L576 604 L502 604 Q437 481 358 393 Q328 423 306 438 Q446 581 527 822 L591 806 Q572 754 534 668 L957 668 L957 604 L643 604 Z" /><glyph glyph-name="uni4F60" unicode="&#x4f60;" d="M334 813 Q287 695 230 598 L230 -74 L166 -74 L166 499 Q118 430 59 366 Q41 406 20 431 Q180 586 271 832 L334 813 ZM518 400 Q468 192 371 59 Q333 85 314 96 Q404 206 454 413 L518 400 ZM680 579 L680 7 Q680 -48 647 -63 Q616 -77 517 -77 Q510 -44 493 -9 Q517 -10 598 -10 Q615 -10 615 7 L615 579 L456 579 Q413 479 359 403 Q319 436 305 445 Q412 579 468 831 L533 816 Q506 711 480 641 L898 641 L909 644 L953 633 Q933 513 909 424 L853 435 Q863 483 880 579 L680 579 ZM818 420 Q918 238 946 84 L883 63 Q853 223 759 401 L818 420 Z" /><glyph glyph-name="uni4F70" unicode="&#x4f70;" d="M335 817 Q300 689 240 568 L240 -79 L177 -79 L177 458 Q133 389 77 333 Q51 383 39 397 Q197 548 272 832 L335 817 ZM810 497 L454 497 L454 307 L810 307 L810 497 ZM810 51 L810 246 L454 246 L454 51 L810 51 ZM653 721 Q624 607 610 559 L876 559 L876 -68 L810 -68 L810 -10 L454 -10 L454 -74 L391 -74 L391 559 L545 559 Q562 624 579 721 L343 721 L343 784 L920 784 L920 721 L653 721 Z" /><glyph glyph-name="uni4F73" unicode="&#x4f73;" d="M597 639 L377 639 L377 701 L597 701 L597 836 L663 836 L663 701 L890 701 L890 639 L663 639 L663 489 L935 489 L935 426 L329 426 L329 489 L597 489 L597 639 ZM337 814 Q300 708 239 594 L239 -76 L174 -76 L174 485 Q131 420 85 367 Q70 399 46 431 Q191 584 274 832 L337 814 ZM956 27 L956 -38 L295 -38 L295 27 L597 27 L597 202 L357 202 L357 265 L597 265 L597 385 L663 385 L663 265 L907 265 L907 202 L663 202 L663 27 L956 27 Z" /><glyph glyph-name="uni4F9B" unicode="&#x4f9b;" d="M338 814 Q293 698 234 597 L234 -74 L169 -74 L169 496 Q123 430 63 367 Q44 410 25 432 Q185 587 276 833 L338 814 ZM549 159 Q474 25 359 -74 Q336 -49 306 -32 Q419 54 487 177 L549 159 ZM765 175 Q884 61 944 -40 L888 -77 Q835 22 714 145 L765 175 ZM532 302 L734 302 L734 555 L532 555 L532 302 ZM956 302 L956 237 L310 237 L310 302 L467 302 L467 555 L335 555 L335 619 L467 619 L467 824 L532 824 L532 619 L734 619 L734 824 L799 824 L799 619 L944 619 L944 555 L799 555 L799 302 L956 302 Z" /><glyph glyph-name="uni4F9D" unicode="&#x4f9d;" d="M338 814 Q296 707 235 604 L235 -72 L172 -72 L172 508 Q121 435 61 375 Q37 417 19 435 Q184 590 276 832 L338 814 ZM952 442 Q852 355 744 283 Q829 75 977 -6 Q950 -28 929 -62 Q694 81 611 552 Q556 469 483 396 L483 47 Q576 67 718 101 L724 41 L507 -12 Q372 -45 314 -60 L293 5 Q300 7 352 18 L420 33 L420 338 Q357 285 286 241 Q269 267 238 294 Q443 407 557 586 L279 586 L279 649 L584 649 L584 823 L651 823 L651 649 L937 649 L937 586 L662 586 Q686 443 724 335 Q831 412 903 488 L952 442 Z" /><glyph glyph-name="uni4FA7" unicode="&#x4fa7;" d="M352 156 L297 156 L297 771 L630 771 L630 157 L573 157 L573 720 L352 720 L352 156 ZM271 820 Q243 720 203 620 L203 -73 L146 -73 L146 495 Q109 423 67 362 Q55 392 31 424 Q145 574 212 834 L271 820 ZM489 316 Q489 40 301 -76 Q291 -56 266 -36 Q436 69 436 317 L436 648 L489 648 L489 316 ZM521 130 Q605 42 653 -32 L609 -65 Q567 11 481 104 L521 130 ZM769 148 L715 148 L715 740 L769 740 L769 148 ZM918 828 L918 5 Q918 -47 886 -60 Q860 -72 756 -72 Q753 -51 738 -14 Q763 -15 842 -15 Q862 -14 862 5 L862 828 L918 828 Z" /><glyph glyph-name="uni4FA8" unicode="&#x4fa8;" d="M331 813 Q288 703 228 596 L228 -75 L166 -75 L166 498 Q113 421 59 366 Q46 401 22 431 Q181 587 270 831 L331 813 ZM453 333 L517 333 L517 273 Q517 45 347 -81 Q333 -58 298 -38 Q453 73 453 275 L453 333 ZM710 332 L775 332 L775 -74 L710 -74 L710 332 ZM733 510 Q825 378 965 319 Q942 299 921 269 Q761 347 668 510 L563 510 Q475 350 295 262 Q283 286 254 315 Q407 382 489 510 L294 510 L294 570 L523 570 Q555 637 572 711 Q474 701 373 696 Q371 716 355 752 Q679 772 832 814 L871 758 Q785 735 639 718 Q623 640 592 570 L931 570 L931 510 L733 510 Z" /><glyph glyph-name="uni4FAF" unicode="&#x4faf;" d="M333 816 Q290 704 230 602 L230 -70 L167 -70 L167 503 Q115 429 60 373 Q38 411 18 433 Q181 591 271 834 L333 816 ZM663 190 Q748 24 967 -20 Q941 -46 925 -78 Q719 -25 626 137 Q564 -1 330 -77 Q316 -51 288 -27 Q536 45 577 190 L291 190 L291 250 L586 250 Q587 258 587 274 L587 384 L436 384 Q397 312 355 264 Q329 286 300 301 Q388 390 434 539 L300 539 L300 599 L756 599 L756 730 L400 730 L400 788 L821 788 L821 599 L949 599 L949 539 L452 539 L498 528 Q482 482 465 442 L896 442 L896 384 L653 384 L653 274 Q653 258 652 250 L949 250 L949 190 L663 190 Z" /><glyph glyph-name="uniF965" unicode="&#x4fbf;&#xf965;" d="M326 814 Q282 691 230 592 L230 -73 L166 -73 L166 482 Q127 420 81 366 Q69 394 41 431 Q182 585 263 832 L326 814 ZM603 308 Q604 326 604 364 L604 417 L419 417 L419 308 L603 308 ZM419 468 L604 468 L604 576 L419 576 L419 468 ZM669 576 L669 468 L842 468 L842 576 L669 576 ZM842 417 L669 417 L669 364 Q669 326 667 308 L842 308 L842 417 ZM662 255 Q645 147 582 74 Q734 8 964 -9 Q939 -32 925 -69 Q687 -47 535 29 Q455 -37 308 -78 Q292 -47 269 -23 Q402 7 478 61 Q385 120 331 207 L388 228 Q435 153 526 102 Q582 162 597 255 L357 255 L357 629 L604 629 L604 717 L328 717 L328 777 L943 777 L943 717 L669 717 L669 629 L906 629 L906 255 L662 255 Z" /><glyph glyph-name="uni4FD7" unicode="&#x4fd7;" d="M882 567 Q820 665 684 790 L735 823 Q871 705 938 606 L882 567 ZM549 798 Q470 656 347 559 Q322 584 293 604 Q414 689 484 817 L549 798 ZM332 815 Q291 709 230 602 L230 -71 L166 -71 L166 502 Q114 428 59 372 Q37 410 17 432 Q180 590 270 833 L332 815 ZM457 249 L457 32 L790 32 L790 249 L457 249 ZM394 309 L856 309 L856 -72 L790 -72 L790 -29 L457 -29 L457 -76 L394 -76 L394 309 ZM643 636 Q778 436 970 328 Q954 308 930 269 Q734 394 615 569 Q502 383 304 260 Q289 289 266 315 Q475 441 579 636 L643 636 Z" /><glyph glyph-name="uni4FDA" unicode="&#x4fda;" d="M330 814 Q285 691 239 603 L239 -73 L173 -73 L173 488 Q134 425 83 366 Q69 397 44 431 Q184 584 267 832 L330 814 ZM419 392 L598 392 L598 532 L419 532 L419 392 ZM419 586 L598 586 L598 723 L419 723 L419 586 ZM838 723 L660 723 L660 586 L838 586 L838 723 ZM838 532 L660 532 L660 392 L838 392 L838 532 ZM952 16 L952 -46 L290 -46 L290 16 L594 16 L594 160 L349 160 L349 220 L594 220 L594 335 L356 335 L356 780 L903 780 L903 335 L664 335 L664 220 L914 220 L914 160 L664 160 L664 16 L952 16 Z" /><glyph glyph-name="uni4FDD" unicode="&#x4fdd;" d="M344 813 Q299 704 241 605 L241 -73 L177 -73 L177 506 Q126 433 64 370 Q49 404 26 435 Q189 588 282 832 L344 813 ZM443 536 L827 536 L827 728 L443 728 L443 536 ZM708 285 Q813 108 976 20 Q950 -1 929 -33 Q774 66 667 248 L667 -76 L600 -76 L600 246 Q486 61 323 -31 Q300 3 277 21 Q444 103 559 285 L304 285 L304 346 L600 346 L600 476 L379 476 L379 788 L894 788 L894 476 L667 476 L667 346 L950 346 L950 285 L708 285 Z" /><glyph glyph-name="uni4FE1" unicode="&#x4fe1;" d="M866 730 L402 730 L402 786 L866 786 L866 730 ZM344 814 Q303 711 242 607 L242 -72 L179 -72 L179 510 Q125 434 63 372 Q44 406 22 431 Q190 588 282 832 L344 814 ZM445 184 L445 30 L822 30 L822 184 L445 184 ZM381 239 L889 239 L889 -72 L822 -72 L822 -26 L445 -26 L445 -75 L381 -75 L381 239 ZM391 375 L881 375 L881 320 L391 320 L391 375 ZM881 457 L391 457 L391 513 L881 513 L881 457 ZM954 650 L954 593 L309 593 L309 650 L954 650 Z" /><glyph glyph-name="uni4FED" unicode="&#x4fed;" d="M311 815 Q276 707 222 596 L222 -74 L158 -74 L158 480 Q116 411 69 355 Q54 390 33 422 Q170 578 250 832 L311 815 ZM641 820 Q632 801 623 784 Q747 619 961 506 Q938 481 926 448 Q727 567 590 732 Q472 551 281 436 Q261 468 241 490 Q473 614 583 840 L641 820 ZM799 466 L411 466 L411 524 L799 524 L799 466 ZM600 159 Q592 259 556 395 L610 404 Q646 268 657 170 L600 159 ZM404 379 Q462 238 479 134 L425 117 Q407 227 352 365 L404 379 ZM882 372 Q790 156 724 41 L929 41 L929 -20 L279 -20 L279 41 L664 41 Q753 194 819 389 L882 372 Z" /><glyph glyph-name="uni4FEE" unicode="&#x4fee;" d="M300 814 Q269 715 223 621 L223 -72 L159 -72 L159 501 Q112 422 58 357 Q40 390 17 417 Q159 576 238 830 L300 814 ZM545 665 Q591 590 672 531 Q747 591 791 670 L548 670 L545 665 ZM861 670 Q812 573 724 497 Q835 431 978 404 Q958 384 941 350 Q789 385 676 461 Q567 385 411 337 Q402 355 373 392 Q519 429 626 498 Q556 555 514 620 Q465 554 417 510 Q403 526 372 550 L372 94 L312 94 L312 720 L372 720 L372 556 Q501 667 565 836 L625 819 Q607 775 581 726 L946 726 L946 670 L861 670 ZM842 267 Q739 152 501 83 Q488 107 465 130 Q691 183 791 289 L842 267 ZM749 364 Q660 269 488 211 Q466 240 448 253 Q616 304 697 385 L749 364 ZM945 156 Q812 -9 450 -74 Q438 -44 415 -18 Q761 33 887 181 L945 156 Z" /><glyph glyph-name="uni5019" unicode="&#x5019;" d="M303 811 Q272 712 226 618 L226 -75 L162 -75 L162 498 Q115 419 61 354 Q43 387 20 414 Q162 573 241 827 L303 811 ZM312 721 L372 721 L372 90 L312 90 L312 721 ZM714 191 Q767 26 970 -25 Q944 -51 930 -81 Q748 -28 679 126 Q621 -6 424 -82 Q408 -55 380 -33 Q599 40 632 191 L402 191 L402 249 L639 249 L639 381 L523 381 Q486 314 444 267 Q418 291 394 305 Q479 391 523 535 L401 535 L401 593 L772 593 L772 727 L472 727 L472 785 L834 785 L834 593 L935 593 L935 535 L541 535 L584 525 Q571 484 552 439 L928 439 L928 381 L704 381 L704 249 L959 249 L959 191 L714 191 Z" /><glyph glyph-name="uni503C" unicode="&#x503c;" d="M331 815 Q289 697 227 586 L227 -75 L165 -75 L165 485 Q126 427 75 369 Q60 403 38 433 Q187 591 271 835 L331 815 ZM444 14 L800 14 L800 101 L444 101 L444 14 ZM444 522 L444 433 L800 433 L800 522 L444 522 ZM800 382 L444 382 L444 292 L800 292 L800 382 ZM444 151 L800 151 L800 242 L444 242 L444 151 ZM954 14 L954 -44 L287 -44 L287 14 L384 14 L384 574 L556 574 Q566 615 576 672 L329 672 L329 731 L586 731 Q596 790 600 836 L672 830 Q657 751 652 731 L923 731 L923 672 L640 672 Q635 649 616 574 L862 574 L862 14 L954 14 Z" /><glyph glyph-name="uni5043" unicode="&#x5043;" d="M287 814 Q258 716 212 613 L212 -72 L152 -72 L152 494 Q113 424 62 360 Q43 395 22 420 Q154 575 227 829 L287 814 ZM957 -24 L383 -24 L383 -67 L322 -67 L322 782 L941 782 L941 726 L383 726 L383 32 L957 32 L957 -24 ZM603 310 L567 251 Q632 232 703 204 Q755 246 779 310 L603 310 ZM531 457 L819 457 L819 521 L531 521 L531 457 ZM531 563 L819 563 L819 625 L531 625 L531 563 ZM841 310 Q818 233 762 180 Q861 138 921 101 L885 54 Q831 91 713 143 Q617 83 438 58 Q429 89 410 111 Q559 126 649 169 Q597 190 540 208 L527 188 L475 208 Q509 258 539 310 L416 310 L416 361 L569 361 Q584 385 599 414 L472 414 L472 669 L880 669 L880 414 L664 414 L633 361 L941 361 L941 310 L841 310 Z" /><glyph glyph-name="uni5047" unicode="&#x5047;" d="M907 487 L628 487 L628 545 L846 545 L846 732 L628 732 L628 790 L907 790 L907 487 ZM279 815 Q249 703 211 605 L211 -75 L148 -75 L148 467 Q113 401 77 354 Q67 385 41 420 Q154 569 216 830 L279 815 ZM378 733 L378 543 L528 543 L528 733 L378 733 ZM378 127 L378 -73 L316 -73 L316 790 L587 790 L587 486 L378 486 L378 373 L564 373 L564 316 L378 316 L378 184 L575 184 L575 127 L378 127 ZM675 348 Q702 242 760 153 Q819 235 849 348 L675 348 ZM921 394 Q884 218 795 104 Q867 16 962 -22 Q940 -42 921 -73 Q829 -31 757 58 Q675 -27 551 -77 Q538 -49 517 -28 Q636 14 722 107 Q658 205 622 337 L666 348 L600 348 L600 405 L871 405 L882 407 L921 394 Z" /><glyph glyph-name="uni505C" unicode="&#x505c;" d="M595 737 L595 831 L661 831 L661 737 L949 737 L949 678 L313 678 L313 737 L595 737 ZM456 470 L804 470 L804 571 L456 571 L456 470 ZM393 420 L393 620 L869 620 L869 420 L393 420 ZM334 814 Q291 702 231 600 L231 -72 L168 -72 L168 501 Q116 427 61 371 Q39 409 19 431 Q182 589 272 832 L334 814 ZM408 236 L863 236 L863 180 L662 180 L662 -2 Q662 -57 623 -68 Q594 -79 470 -79 Q466 -51 447 -16 Q551 -18 576 -16 Q596 -16 596 -1 L596 180 L408 180 L408 236 ZM960 362 L960 194 L898 194 L898 307 L359 307 L359 193 L299 193 L299 362 L960 362 Z" /><glyph glyph-name="uni5065" unicode="&#x5065;" d="M282 815 Q251 718 211 630 L211 -71 L151 -71 L151 515 Q107 438 58 381 Q43 414 19 441 Q151 591 222 830 L282 815 ZM474 467 Q455 250 393 115 Q479 2 688 2 Q921 2 960 3 Q941 -27 936 -59 L685 -59 Q458 -59 363 57 Q319 -16 253 -66 Q233 -37 214 -22 Q278 22 326 111 Q280 192 254 320 L307 337 Q324 245 356 177 Q396 283 412 422 L320 422 L295 370 L239 384 Q312 533 379 697 L270 697 L270 753 L408 753 L418 757 L461 743 Q411 621 343 473 L426 473 L437 475 L474 467 ZM843 562 L721 562 L721 475 L843 475 L843 562 ZM721 614 L843 614 L843 696 L721 696 L721 614 ZM964 614 L964 562 L901 562 L901 424 L721 424 L721 344 L916 344 L916 292 L721 292 L721 209 L948 209 L948 157 L721 157 L721 38 L660 38 L660 157 L462 157 L462 209 L660 209 L660 292 L492 292 L492 344 L660 344 L660 424 L507 424 L507 475 L660 475 L660 562 L442 562 L442 614 L660 614 L660 696 L507 696 L507 748 L660 748 L660 828 L721 828 L721 748 L901 748 L901 614 L964 614 Z" /><glyph glyph-name="uni5085" unicode="&#x5085;" d="M661 566 L661 500 L839 500 L839 566 L661 566 ZM839 388 L839 455 L661 455 L661 388 L839 388 ZM597 388 L597 455 L423 455 L423 388 L597 388 ZM423 566 L423 500 L597 500 L597 566 L423 566 ZM597 734 L597 832 L661 832 L661 734 L822 734 Q782 762 719 796 L756 829 Q844 784 883 758 L861 734 L947 734 L947 679 L661 679 L661 614 L903 614 L903 285 L839 285 L839 342 L661 342 L661 292 L597 292 L597 342 L423 342 L423 284 L361 284 L361 614 L597 614 L597 679 L320 679 L320 734 L597 734 ZM334 813 Q288 697 230 597 L230 -74 L166 -74 L166 499 Q118 430 59 366 Q40 409 20 431 Q180 586 271 832 L334 813 ZM447 158 Q535 80 581 24 L531 -12 Q476 54 399 128 L447 158 ZM961 179 L814 179 L814 -1 Q814 -51 777 -66 Q747 -75 621 -75 Q617 -49 599 -17 Q697 -20 730 -18 Q749 -17 749 0 L749 179 L292 179 L292 234 L749 234 L749 310 L814 310 L814 234 L961 234 L961 179 Z" /><glyph glyph-name="uni508D" unicode="&#x508d;" d="M707 546 Q738 606 762 675 L503 675 Q541 608 549 554 L525 546 L707 546 ZM457 675 L337 675 L337 732 L591 732 L591 829 L656 829 L656 732 L929 732 L929 675 L802 675 L828 668 Q791 590 767 546 L944 546 L944 398 L879 398 L879 491 L374 491 L374 398 L311 398 L311 546 L486 546 Q473 604 438 669 L457 675 ZM332 812 Q291 706 230 599 L230 -74 L166 -74 L166 499 Q114 425 59 369 Q37 407 17 429 Q180 587 270 830 L332 812 ZM583 299 Q579 255 571 214 L869 214 L867 184 Q849 -24 815 -58 Q791 -80 748 -81 Q708 -84 623 -79 Q621 -46 604 -21 Q669 -26 726 -26 Q753 -26 762 -17 Q785 3 800 159 L558 159 Q509 -14 328 -80 Q316 -54 289 -31 Q411 10 464 97 Q506 166 519 299 L308 299 L308 354 L592 354 L592 459 L657 459 L657 354 L953 354 L953 299 L583 299 Z" /><glyph glyph-name="uni50A8" unicode="&#x50a8;" d="M405 606 Q370 671 293 748 L339 780 Q421 702 454 642 L405 606 ZM280 821 Q255 730 204 611 L204 -73 L145 -73 L145 491 Q109 424 64 364 Q51 395 29 426 Q148 576 224 837 L280 821 ZM508 134 Q515 106 525 80 Q367 -17 348 -40 Q339 -10 315 16 Q349 38 349 90 L349 452 L248 452 L248 516 L408 516 L408 76 L508 134 ZM849 304 L624 304 L624 198 L849 198 L849 304 ZM849 37 L849 147 L624 147 L624 37 L849 37 ZM698 530 L721 530 Q770 589 815 662 L698 662 L698 530 ZM748 469 Q695 406 643 360 L910 360 L910 -68 L849 -68 L849 -19 L624 -19 L624 -72 L566 -72 L566 297 Q524 267 486 241 Q470 267 443 294 Q565 364 667 469 L473 469 L473 530 L636 530 L636 662 L502 662 L502 720 L636 720 L636 836 L698 836 L698 720 L818 720 L818 667 Q859 735 885 799 L945 783 Q885 646 797 530 L954 530 L954 469 L748 469 Z" /><glyph glyph-name="uni50CF" unicode="&#x50cf;" d="M300 815 Q265 711 222 620 L222 -72 L158 -72 L158 500 Q107 415 58 358 Q40 391 17 418 Q159 577 238 831 L300 815 ZM399 470 L592 470 L592 591 L399 591 L399 470 ZM472 718 Q436 671 407 641 L614 641 Q642 671 671 718 L472 718 ZM853 591 L653 591 L653 470 L853 470 L853 591 ZM946 353 Q863 283 774 229 Q849 83 961 20 Q936 0 916 -32 Q726 86 644 419 L616 419 Q590 399 558 378 Q672 283 693 139 Q713 6 646 -44 Q612 -73 553 -75 Q533 -75 475 -73 Q475 -42 458 -15 Q490 -18 541 -18 Q583 -18 602 -2 Q651 35 632 145 Q488 22 298 -50 Q284 -22 261 1 Q483 71 616 202 Q603 236 585 265 Q468 173 317 118 Q300 147 281 165 Q442 213 556 305 Q532 333 511 350 Q424 299 311 259 Q295 283 272 306 Q419 350 528 419 L338 419 L338 575 Q318 558 295 541 Q274 568 249 581 Q394 682 474 833 L539 821 Q519 787 508 770 L694 770 L694 772 L708 772 L720 776 L762 748 Q733 696 688 641 L917 641 L917 419 L703 419 Q724 338 752 274 Q833 328 896 391 L946 353 Z" /><glyph glyph-name="uni5112" unicode="&#x5112;" d="M579 745 L332 745 L332 800 L899 800 L899 745 L640 745 L640 680 L933 680 L933 546 L879 546 L879 629 L640 629 L640 396 L579 396 L579 629 L348 629 L348 546 L296 546 L296 680 L579 680 L579 745 ZM675 472 L871 472 L871 430 L675 430 L675 472 ZM856 569 L856 528 L675 528 L675 569 L856 569 ZM350 472 L543 472 L543 431 L350 431 L350 472 ZM542 569 L542 528 L370 528 L370 569 L542 569 ZM313 815 Q274 699 215 585 L215 -75 L154 -75 L154 479 Q113 415 71 365 Q49 404 32 425 Q174 582 253 832 L313 815 ZM640 315 L627 280 Q619 259 614 248 L909 248 L909 -10 Q909 -53 883 -65 Q862 -75 786 -75 Q784 -54 767 -21 Q822 -23 836 -21 Q848 -21 848 -9 L848 193 L729 193 L729 -63 L673 -63 L673 193 L559 193 L559 -63 L503 -63 L503 193 L391 193 L391 -75 L331 -75 L331 248 L550 248 Q561 279 569 315 L281 315 L281 370 L952 370 L952 315 L640 315 Z" /><glyph glyph-name="uni5143" unicode="&#x5143;" d="M855 692 L150 692 L150 756 L855 756 L855 692 ZM838 5 Q869 5 878 38 Q887 69 891 187 Q912 170 953 157 Q947 28 927 -13 Q905 -57 843 -57 L695 -57 Q631 -57 609 -36 Q586 -15 586 46 L586 411 L392 411 Q376 224 322 123 Q253 -9 96 -73 Q78 -40 54 -22 Q201 34 262 153 Q308 242 321 411 L63 411 L63 476 L938 476 L938 411 L654 411 L654 46 Q654 21 663 13 Q672 5 702 5 L838 5 Z" /><glyph glyph-name="uni5145" unicode="&#x5145;" d="M101 441 L257 445 Q310 534 358 650 L71 650 L71 713 L465 713 L465 835 L532 835 L532 713 L931 713 L931 650 L434 650 Q369 520 326 448 Q456 452 737 464 Q668 530 597 584 L649 620 Q836 480 921 360 L865 319 Q840 356 796 403 Q327 381 106 373 L101 441 ZM406 346 Q391 167 334 80 Q262 -27 87 -75 Q73 -41 47 -17 Q210 23 274 115 Q324 189 336 346 L406 346 ZM839 -6 Q870 -6 879 25 Q888 56 891 169 Q916 150 953 140 Q948 14 927 -26 Q905 -68 843 -68 L701 -68 Q637 -68 615 -48 Q592 -28 592 30 L592 352 L659 352 L659 30 Q659 7 668 1 Q676 -6 707 -6 L839 -6 Z" /><glyph glyph-name="uni5146" unicode="&#x5146;" d="M908 720 Q807 561 732 475 L681 504 Q775 616 843 753 L908 720 ZM241 474 Q198 582 89 714 L144 743 Q255 611 301 509 L241 474 ZM351 822 L417 822 L417 443 Q417 254 364 146 Q292 1 100 -82 Q83 -48 60 -27 Q313 81 344 318 Q236 263 83 192 L52 256 Q134 288 350 385 Q351 404 351 443 L351 822 ZM850 0 Q876 0 885 25 Q893 47 897 122 Q928 102 959 94 Q952 4 932 -28 Q909 -63 853 -63 L682 -63 Q617 -63 594 -39 Q570 -14 570 58 L570 822 L636 822 L636 400 L657 424 Q853 322 950 233 L908 179 Q814 268 636 367 L636 57 Q636 21 646 11 Q655 0 688 0 L850 0 Z" /><glyph glyph-name="uni5148" unicode="&#x5148;" d="M841 4 Q870 4 878 31 Q887 58 890 156 Q910 139 951 128 Q945 15 925 -22 Q904 -59 847 -59 L701 -59 Q638 -59 617 -39 Q595 -19 595 39 L595 341 L397 341 Q380 176 323 85 Q253 -27 95 -81 Q76 -45 52 -26 Q200 20 264 118 Q315 195 330 341 L65 341 L65 405 L467 405 L467 612 L255 612 Q217 524 165 458 Q128 480 108 489 Q205 607 252 810 L320 797 Q302 734 281 676 L467 676 L467 835 L534 835 L534 676 L867 676 L867 612 L534 612 L534 405 L936 405 L936 341 L662 341 L662 38 Q662 16 670 10 Q679 4 708 4 L841 4 Z" /><glyph glyph-name="uni5149" unicode="&#x5149;" d="M864 767 Q771 580 721 509 L671 535 Q745 652 799 796 L864 767 ZM266 512 Q235 624 144 763 L202 785 Q297 647 328 538 L266 512 ZM840 -13 Q871 -13 880 17 Q889 47 892 155 Q916 135 955 127 Q949 5 928 -35 Q906 -76 845 -76 L699 -76 Q635 -76 613 -55 Q590 -34 590 26 L590 389 L398 389 Q382 199 325 101 Q253 -24 80 -82 Q65 -50 37 -22 Q199 26 265 136 Q314 219 328 389 L59 389 L59 452 L465 452 L465 834 L531 834 L531 452 L942 452 L942 389 L657 389 L657 26 Q657 1 666 -6 Q674 -13 705 -13 L840 -13 Z" /><glyph glyph-name="uni514B" unicode="&#x514b;" d="M248 325 L754 325 L754 495 L248 495 L248 325 ZM840 -3 Q871 -3 881 23 Q890 49 893 146 Q915 129 955 118 Q949 6 928 -29 Q906 -66 845 -66 L682 -66 Q615 -66 592 -46 Q569 -26 569 31 L569 265 L414 265 Q394 123 331 50 Q256 -38 88 -78 Q77 -49 49 -17 Q204 15 271 87 Q327 147 343 265 L184 265 L184 555 L464 555 L464 672 L72 672 L72 733 L464 733 L464 836 L531 836 L531 733 L931 733 L931 672 L531 672 L531 555 L821 555 L821 265 L636 265 L636 31 Q636 9 646 3 Q655 -3 688 -3 L840 -3 Z" /><glyph glyph-name="uni5154" unicode="&#x5154;" d="M542 518 Q532 398 513 321 L807 321 L807 518 L542 518 ZM444 321 Q463 399 473 518 L215 518 L215 321 L444 321 ZM324 700 Q274 633 220 577 L490 577 Q538 630 580 700 L324 700 ZM838 -10 Q872 -10 882 14 Q892 36 896 121 Q914 108 956 96 Q950 -5 928 -37 Q906 -70 842 -70 L652 -70 Q578 -70 553 -51 Q528 -32 528 26 L528 261 L496 261 Q410 8 88 -78 Q75 -46 51 -22 Q341 51 424 261 L150 261 L150 512 Q125 491 85 461 Q72 484 38 509 Q232 638 331 837 L403 824 Q393 805 364 758 L619 758 L630 761 L675 730 Q634 653 567 577 L875 577 L875 261 L594 261 L594 26 Q594 3 605 -3 Q617 -10 656 -10 L838 -10 ZM694 238 Q799 161 847 96 L800 57 Q752 125 649 202 L694 238 Z" /><glyph glyph-name="uni5156" unicode="&#x5156;" d="M937 681 L62 681 L62 740 L464 740 L464 836 L533 836 L533 740 L937 740 L937 681 ZM537 547 Q460 445 384 364 Q538 369 688 376 Q629 420 591 446 L641 477 Q791 382 871 292 L818 255 Q797 281 752 321 Q436 306 165 297 L155 357 L307 362 Q400 461 469 567 L537 547 ZM880 449 Q777 538 598 617 L645 657 Q827 582 931 494 L880 449 ZM394 632 Q289 523 111 441 Q75 481 62 491 Q238 562 331 655 L394 632 ZM322 265 L389 265 L389 194 Q389 110 340 52 Q272 -27 104 -75 Q89 -47 63 -23 Q219 18 279 82 Q322 128 322 196 L322 265 ZM843 9 Q869 9 877 28 Q885 47 888 120 Q909 103 950 93 Q944 5 924 -25 Q904 -54 849 -54 L691 -54 Q626 -54 603 -35 Q581 -16 581 38 L581 274 L648 274 L648 39 Q648 20 657 14 Q666 9 697 9 L843 9 Z" /><glyph glyph-name="uni515A" unicode="&#x515a;" d="M144 454 L82 454 L82 669 L255 669 Q224 730 171 794 L229 819 Q289 752 320 692 L275 669 L464 669 L464 835 L530 835 L530 669 L697 669 L674 682 Q726 745 767 822 L829 791 Q759 696 735 669 L923 669 L923 454 L860 454 L860 608 L144 608 L144 454 ZM287 289 L709 289 L709 449 L287 449 L287 289 ZM835 -8 Q864 -8 873 14 Q882 36 885 119 Q904 104 946 92 Q940 -6 919 -38 Q898 -70 840 -70 L681 -70 Q614 -70 591 -51 Q568 -33 568 23 L568 229 L419 229 Q402 95 336 29 Q261 -47 87 -81 Q74 -45 49 -20 Q209 7 275 67 Q332 118 348 229 L224 229 L224 509 L776 509 L776 229 L633 229 L633 23 Q633 3 643 -3 Q652 -8 686 -8 L835 -8 Z" /><glyph glyph-name="uni515C" unicode="&#x515c;" d="M827 694 L684 694 L684 755 L893 755 L893 263 L827 263 L827 306 L687 306 L687 368 L827 368 L827 694 ZM593 674 L402 674 L402 546 L593 546 L593 674 ZM593 495 L402 495 L402 365 L593 365 L593 495 ZM431 728 Q454 785 468 836 L537 816 Q516 767 497 728 L653 728 L653 311 L344 311 L344 728 L431 728 ZM184 254 L120 254 L120 740 L166 724 Q253 769 293 803 L347 756 Q281 713 184 672 L184 368 L316 368 L316 306 L184 306 L184 254 ZM398 274 Q382 122 323 47 Q252 -43 83 -85 Q70 -52 42 -24 Q198 9 262 84 Q314 145 328 274 L398 274 ZM837 -10 Q867 -10 876 15 Q885 40 888 134 Q913 117 951 107 Q945 -2 924 -37 Q903 -73 843 -73 L691 -73 Q625 -73 602 -54 Q579 -35 579 22 L579 274 L646 274 L646 23 Q646 2 655 -4 Q665 -10 697 -10 L837 -10 Z" /><glyph glyph-name="uni5168" unicode="&#x5168;" d="M531 14 L926 14 L926 -47 L79 -47 L79 14 L463 14 L463 188 L178 188 L178 248 L463 248 L463 408 L220 408 L220 468 L780 468 L780 408 L531 408 L531 248 L818 248 L818 188 L531 188 L531 14 ZM534 808 Q687 580 959 463 Q930 439 909 407 Q664 528 498 744 Q327 528 82 395 Q64 428 41 450 Q254 553 422 745 L237 745 L237 808 L534 808 Z" /><glyph glyph-name="uni516C" unicode="&#x516c;" d="M694 789 Q792 552 966 420 Q933 400 907 372 Q755 499 648 724 L333 724 L333 789 L694 789 ZM340 669 Q242 469 94 358 Q77 379 43 405 Q195 516 269 689 L340 669 ZM684 286 Q850 104 934 -47 L870 -85 Q850 -46 820 0 Q630 -10 105 -34 L96 35 L236 40 Q349 246 426 482 L501 461 Q397 198 313 43 Q609 56 776 64 Q699 172 624 256 L684 286 Z" /><glyph glyph-name="uniF9D1" unicode="&#x516d;&#xf9d1;" d="M933 528 L64 528 L64 597 L461 597 L461 829 L531 829 L531 597 L933 597 L933 528 ZM372 366 Q266 95 106 -74 Q65 -36 44 -22 Q202 129 298 386 L372 366 ZM686 385 Q863 144 934 -30 L863 -64 Q790 127 622 358 L686 385 Z" /><glyph glyph-name="uni5170" unicode="&#x5170;" d="M332 626 Q297 706 215 804 L269 831 Q357 732 390 658 L332 626 ZM901 543 L100 543 L100 608 L583 608 Q669 723 719 835 L787 813 Q726 704 655 608 L901 608 L901 543 ZM153 270 L153 335 L832 335 L832 270 L153 270 ZM938 43 L938 -23 L59 -23 L59 43 L938 43 Z" /><glyph glyph-name="uni5171" unicode="&#x5171;" d="M403 161 Q291 24 117 -76 Q100 -56 66 -29 Q249 72 334 187 L403 161 ZM647 188 Q839 52 929 -34 L867 -75 Q772 20 590 154 L647 188 ZM353 314 L647 314 L647 557 L353 557 L353 314 ZM953 314 L953 249 L52 249 L52 314 L285 314 L285 557 L93 557 L93 621 L285 621 L285 826 L353 826 L353 621 L647 621 L647 826 L715 826 L715 621 L916 621 L916 557 L715 557 L715 314 L953 314 Z" /><glyph glyph-name="uni5173" unicode="&#x5173;" d="M330 625 Q302 703 231 796 L285 825 Q353 745 389 657 L330 625 ZM558 304 Q675 64 954 -7 Q927 -30 907 -69 Q641 12 513 255 Q438 45 102 -75 Q85 -44 55 -17 Q392 99 450 304 L73 304 L73 370 L463 370 Q466 405 466 435 L466 556 L132 556 L132 621 L602 621 Q666 717 713 831 L784 806 Q731 705 673 621 L877 621 L877 556 L540 556 L540 434 Q540 403 537 370 L931 370 L931 304 L558 304 Z" /><glyph glyph-name="uni5174" unicode="&#x5174;" d="M940 354 L940 290 L57 290 L57 354 L940 354 ZM669 233 Q852 74 940 -32 L880 -73 Q793 39 614 199 L669 233 ZM380 207 Q266 41 97 -75 Q74 -44 49 -22 Q219 86 309 233 L380 207 ZM124 743 Q235 589 280 455 L217 425 Q174 559 64 718 L124 743 ZM422 816 Q512 655 539 515 L474 490 Q447 629 360 795 L422 816 ZM923 764 Q799 520 693 377 L633 404 Q760 573 853 790 L923 764 Z" /><glyph glyph-name="uni5176" unicode="&#x5176;" d="M309 199 L690 199 L690 315 L309 315 L309 199 ZM309 653 L309 547 L690 547 L690 653 L309 653 ZM309 373 L690 373 L690 489 L309 489 L309 373 ZM942 138 L58 138 L58 199 L244 199 L244 653 L86 653 L86 715 L244 715 L244 834 L309 834 L309 715 L690 715 L690 834 L757 834 L757 715 L919 715 L919 653 L757 653 L757 199 L942 199 L942 138 ZM425 76 Q294 -6 92 -73 Q71 -43 49 -23 Q253 39 364 117 L425 76 ZM621 113 Q816 43 945 -27 L886 -71 Q768 -1 577 70 L621 113 Z" /><glyph glyph-name="uni5177" unicode="&#x5177;" d="M278 205 L732 205 L732 301 L278 301 L278 205 ZM278 730 L278 638 L732 638 L732 730 L278 730 ZM278 445 L278 353 L732 353 L732 445 L278 445 ZM732 586 L278 586 L278 497 L732 497 L732 586 ZM943 144 L56 144 L56 205 L214 205 L214 786 L799 786 L799 205 L943 205 L943 144 ZM393 93 Q268 -6 86 -79 Q71 -56 40 -29 Q228 43 330 132 L393 93 ZM649 135 Q830 54 953 -25 L905 -76 Q778 10 609 89 L649 135 Z" /><glyph glyph-name="uni5178" unicode="&#x5178;" d="M406 98 Q291 0 105 -77 Q83 -52 55 -29 Q242 42 342 135 L406 98 ZM644 137 Q821 52 936 -27 L878 -72 Q767 9 598 94 L644 137 ZM208 222 L359 222 L359 415 L208 415 L208 222 ZM208 652 L208 477 L359 477 L359 652 L208 652 ZM422 652 L422 477 L577 477 L577 652 L422 652 ZM640 652 L640 477 L798 477 L798 652 L640 652 ZM577 415 L422 415 L422 222 L577 222 L577 415 ZM640 222 L798 222 L798 415 L640 415 L640 222 ZM956 222 L956 158 L43 158 L43 222 L144 222 L144 714 L359 714 L359 837 L422 837 L422 714 L577 714 L577 837 L640 837 L640 714 L864 714 L864 222 L956 222 Z" /><glyph glyph-name="uni5180" unicode="&#x5180;" d="M671 560 Q601 560 578 577 Q555 594 555 646 L555 837 L618 837 L618 740 Q790 776 867 812 L912 770 Q807 726 618 692 L618 646 Q618 627 628 622 Q638 617 675 617 L843 617 Q870 617 878 630 Q887 644 889 696 Q913 679 947 673 Q941 605 921 582 Q902 560 850 560 L671 560 ZM71 629 Q162 638 349 661 L349 720 L86 720 L86 770 L349 770 L349 835 L413 835 L413 557 L349 557 L349 610 Q218 591 79 573 L71 629 ZM376 117 L622 117 L622 179 L376 179 L376 117 ZM376 227 L622 227 L622 281 L376 281 L376 227 ZM234 326 L466 326 L466 388 L234 388 L234 326 ZM234 431 L466 431 L466 491 L234 491 L234 431 ZM767 491 L528 491 L528 431 L767 431 L767 491 ZM767 388 L528 388 L528 326 L767 326 L767 388 ZM953 69 L644 69 Q830 18 937 -35 L880 -75 Q781 -20 589 34 L630 69 L358 69 L409 46 Q290 -27 94 -78 Q64 -45 45 -30 Q228 7 342 69 L52 69 L52 117 L312 117 L312 179 L94 179 L94 227 L312 227 L312 281 L172 281 L172 536 L831 536 L831 281 L686 281 L686 227 L907 227 L907 179 L686 179 L686 117 L953 117 L953 69 Z" /><glyph glyph-name="uni5185" unicode="&#x5185;" d="M899 16 Q899 -48 855 -63 Q818 -75 671 -75 Q666 -41 648 -7 Q746 -11 808 -8 Q833 -7 833 16 L833 599 L533 599 Q530 525 514 465 Q697 307 803 181 L749 139 Q666 244 495 402 Q429 234 247 128 Q226 158 200 177 Q455 316 466 599 L169 599 L169 -78 L103 -78 L103 664 L467 664 L467 836 L534 836 L534 664 L899 664 L899 16 Z" /><glyph glyph-name="uni5188" unicode="&#x5188;" d="M697 86 Q643 166 523 297 Q408 149 279 48 Q244 77 221 89 Q360 190 478 343 Q362 464 245 561 L292 599 Q392 519 517 394 Q604 517 668 657 L732 637 Q662 488 562 349 Q684 222 747 133 L697 86 ZM901 19 Q901 -42 856 -59 Q818 -72 675 -70 Q670 -39 649 -5 Q745 -9 805 -6 Q832 -5 832 19 L832 717 L169 717 L169 -76 L101 -76 L101 782 L901 782 L901 19 Z" /><glyph glyph-name="uni5199" unicode="&#x5199;" d="M149 565 L83 565 L83 779 L918 779 L918 565 L850 565 L850 717 L149 717 L149 565 ZM942 153 L733 153 Q709 -6 669 -44 Q640 -72 586 -73 Q524 -77 424 -69 Q422 -39 403 -11 Q487 -17 567 -17 Q602 -17 615 -7 Q646 21 667 153 L59 153 L59 215 L676 215 L690 339 L290 339 L279 300 L213 309 Q262 481 304 707 L371 699 Q359 638 347 584 L781 584 L781 524 L334 524 L305 399 L761 399 L758 367 Q754 321 742 215 L942 215 L942 153 Z" /><glyph glyph-name="uni519B" unicode="&#x519b;" d="M145 588 L81 588 L81 793 L921 793 L921 588 L854 588 L854 734 L145 734 L145 588 ZM930 93 L567 93 L567 -75 L501 -75 L501 93 L79 93 L79 155 L501 155 L501 285 L311 285 Q226 285 210 271 Q204 299 188 335 Q206 339 244 400 Q265 434 305 516 L182 516 L182 575 L331 575 Q363 646 378 700 L446 679 Q411 595 402 575 L816 575 L816 516 L374 516 Q328 419 279 345 L501 345 L501 466 L567 466 L567 345 L845 345 L845 285 L567 285 L567 155 L930 155 L930 93 Z" /><glyph glyph-name="uni519C" unicode="&#x519c;" d="M868 422 Q773 335 656 258 Q774 76 960 -1 Q931 -25 912 -57 Q594 89 468 535 Q410 433 326 357 L326 25 L562 93 Q564 55 569 34 Q272 -60 246 -77 Q235 -42 216 -16 Q260 0 260 47 L260 304 Q182 249 87 209 Q63 243 38 263 Q335 371 450 646 L165 646 L165 507 L100 507 L100 708 L474 708 Q492 759 509 836 L575 824 Q557 748 542 708 L904 708 L904 507 L836 507 L836 646 L521 646 L509 619 Q551 442 626 308 Q739 388 815 465 L868 422 Z" /><glyph glyph-name="uni51A0" unicode="&#x51a0;" d="M832 134 Q832 84 798 70 Q768 58 667 60 Q662 88 646 118 Q729 116 751 118 Q769 119 769 135 L769 449 L510 449 L510 510 L769 510 L769 640 L832 640 L832 510 L945 510 L945 449 L832 449 L832 134 ZM599 391 Q665 304 691 220 L635 195 Q610 281 547 369 L599 391 ZM148 619 L83 619 L83 786 L919 786 L919 619 L852 619 L852 724 L148 724 L148 619 ZM125 598 L474 598 L474 536 L125 536 L125 598 ZM809 -3 Q862 -3 878 21 Q893 45 898 133 Q925 116 959 109 Q950 4 923 -28 Q894 -63 810 -63 L513 -63 Q417 -63 384 -42 Q350 -20 350 44 L350 340 L237 340 L237 267 Q237 42 85 -77 Q64 -45 40 -30 Q175 73 175 268 L175 340 L57 340 L57 402 L512 402 L512 340 L413 340 L413 44 Q413 15 431 6 Q450 -3 511 -3 L809 -3 Z" /><glyph glyph-name="uni51AF" unicode="&#x51af;" d="M41 5 Q124 163 192 352 L250 320 Q188 145 106 -27 L41 5 ZM113 794 Q220 652 262 557 L199 526 Q159 625 54 767 L113 794 ZM767 146 L292 146 L292 208 L767 208 L767 146 ZM916 400 Q915 378 913 369 Q882 12 827 -40 Q801 -67 748 -70 Q688 -74 582 -66 Q580 -33 562 -5 Q642 -13 726 -13 Q760 -13 774 -1 Q818 39 847 338 L387 339 L365 339 Q384 459 397 639 L462 634 Q452 510 438 400 L723 400 Q742 535 758 710 L318 710 L318 774 L770 774 L781 778 L829 772 Q820 664 790 400 L916 400 Z" /><glyph glyph-name="uni51B2" unicode="&#x51b2;" d="M226 570 Q172 643 57 732 L105 775 Q221 691 277 619 L226 570 ZM42 62 Q137 201 230 388 L280 344 Q202 179 102 17 L42 62 ZM863 334 L863 580 L659 580 L659 334 L863 334 ZM592 334 L592 580 L405 580 L405 334 L592 334 ZM930 647 L930 203 L863 203 L863 268 L659 268 L659 -75 L592 -75 L592 268 L405 268 L405 199 L339 199 L339 647 L592 647 L592 833 L659 833 L659 647 L930 647 Z" /><glyph glyph-name="uni51B6" unicode="&#x51b6;" d="M242 562 Q181 640 61 725 L108 770 Q234 684 292 614 L242 562 ZM45 62 Q136 183 246 382 L296 337 Q201 161 103 15 L45 62 ZM436 262 L436 42 L818 42 L818 262 L436 262 ZM374 326 L882 326 L882 -72 L818 -72 L818 -21 L436 -21 L436 -76 L374 -76 L374 326 ZM761 690 Q904 538 965 409 L905 376 Q892 408 857 463 Q615 448 281 432 L275 497 Q288 497 329 499 L389 501 Q484 658 548 832 L619 807 Q544 642 465 505 Q577 509 818 521 Q773 587 706 663 L761 690 Z" /><glyph glyph-name="uniF92E" unicode="&#x51b7;&#xf92e;" d="M228 570 Q169 646 55 729 L102 773 Q223 688 278 620 L228 570 ZM40 52 Q143 184 243 358 L291 311 Q188 131 96 3 L40 52 ZM877 100 Q877 47 841 32 Q813 22 696 22 Q691 54 673 86 Q762 83 794 85 Q813 86 813 101 L813 297 L587 297 L587 -78 L522 -78 L522 297 L329 297 L329 360 L877 360 L877 100 ZM779 536 L779 474 L426 474 L426 536 L779 536 ZM628 833 Q767 622 967 513 Q945 488 926 453 Q723 577 599 764 Q477 560 270 431 Q253 464 231 487 Q449 616 563 833 L628 833 Z" /><glyph glyph-name="uni51C6" unicode="&#x51c6;" d="M251 573 Q194 644 71 727 L116 771 Q238 694 298 623 L251 573 ZM41 48 Q141 178 232 339 L280 294 Q191 135 96 2 L41 48 ZM460 36 L642 36 L642 179 L460 179 L460 36 ZM642 577 L460 577 L460 439 L642 439 L642 577 ZM642 379 L460 379 L460 239 L642 239 L642 379 ZM954 -26 L460 -26 L460 -73 L396 -73 L396 514 Q351 445 305 394 Q280 423 253 442 Q397 586 476 835 L541 818 Q508 721 466 638 L653 638 Q689 728 715 831 L779 808 Q732 680 713 638 L929 638 L929 577 L706 577 L706 439 L911 439 L911 379 L706 379 L706 239 L911 239 L911 179 L706 179 L706 36 L954 36 L954 -26 Z" /><glyph glyph-name="uniF979" unicode="&#x51c9;&#xf979;" d="M939 655 L294 655 L294 718 L583 718 L583 834 L648 834 L648 718 L939 718 L939 655 ZM220 564 Q168 641 58 727 L105 767 Q218 684 270 611 L220 564 ZM281 360 Q199 195 100 41 L43 85 Q142 226 232 403 L281 360 ZM470 189 Q398 55 299 -33 Q270 -4 249 10 Q351 92 409 208 L470 189 ZM437 334 L800 334 L800 503 L437 503 L437 334 ZM648 276 L648 -2 Q648 -54 613 -67 Q582 -78 473 -78 Q467 -50 448 -16 Q503 -17 566 -17 Q583 -16 583 -2 L583 276 L375 276 L375 562 L865 562 L865 276 L648 276 ZM798 214 Q902 108 956 17 L902 -20 Q847 78 747 183 L798 214 Z" /><glyph glyph-name="uniF955" unicode="&#x51cc;&#xf955;" d="M543 529 Q526 445 481 398 Q430 345 327 317 Q311 350 289 368 Q457 405 481 529 L299 529 L299 587 L582 587 L582 687 L363 687 L363 745 L582 745 L582 835 L647 835 L647 745 L879 745 L879 687 L647 687 L647 587 L939 587 L939 529 L737 529 L737 434 Q737 420 743 417 Q748 413 770 413 L867 413 Q885 413 890 425 Q896 438 897 487 Q913 475 951 466 Q947 402 930 380 Q914 359 873 359 L765 359 Q712 359 694 374 Q677 389 677 434 L677 529 L543 529 ZM223 569 Q169 642 54 731 L101 773 Q215 688 273 616 L223 569 ZM42 63 Q131 195 218 375 L269 332 Q188 165 100 20 L42 63 ZM506 234 Q553 163 633 107 Q718 166 758 239 L511 239 L506 234 ZM848 277 Q802 154 689 72 Q809 7 963 -19 Q939 -42 920 -77 Q755 -43 632 34 Q506 -39 309 -77 Q296 -50 272 -23 Q452 8 577 73 Q511 125 462 193 Q407 144 337 103 Q318 130 290 151 Q471 243 551 393 L612 375 Q591 334 557 292 L777 292 L777 294 L791 294 L803 297 L848 277 Z" /><glyph glyph-name="uni51E4" unicode="&#x51e4;" d="M697 575 Q654 389 561 251 Q661 153 710 82 L662 34 Q612 107 522 199 Q416 66 274 -3 Q255 30 235 49 Q371 109 477 244 Q393 325 303 396 L346 437 Q426 376 515 295 Q584 398 620 527 L298 527 L298 588 L645 588 L657 591 L697 575 ZM837 782 Q836 423 845 260 Q858 6 899 6 Q916 6 920 161 Q938 132 961 114 Q956 13 942 -24 Q928 -65 892 -66 Q813 -66 789 168 Q776 297 772 721 L222 721 L222 536 Q222 128 98 -79 Q72 -51 41 -40 Q156 147 156 536 L156 782 L837 782 Z" /><glyph glyph-name="uni51EB" unicode="&#x51eb;" d="M919 450 L917 421 Q902 207 874 178 Q854 155 820 154 Q783 150 722 155 Q718 188 705 214 Q742 210 791 210 Q811 209 820 219 Q838 237 849 388 L180 388 L180 746 L388 746 Q410 784 431 836 L501 822 Q485 793 456 746 L802 746 L802 719 Q794 557 774 536 Q758 517 722 514 Q679 512 624 516 Q622 545 608 567 Q646 563 693 563 Q712 563 719 571 Q730 584 735 684 L246 684 L246 450 L919 450 ZM537 506 Q466 555 339 595 L368 640 Q496 603 567 557 L537 506 ZM800 5 Q848 5 860 8 Q882 11 889 29 Q895 50 897 113 Q922 93 955 85 Q951 8 938 -14 Q925 -38 889 -46 Q862 -53 803 -53 L694 -53 Q633 -53 603 -38 Q568 -22 568 49 L568 251 L334 251 L334 206 Q334 8 91 -73 Q72 -43 42 -23 Q266 50 266 209 L266 310 L635 310 L635 46 Q635 14 653 9 Q668 5 702 5 L800 5 Z" /><glyph glyph-name="uni51ED" unicode="&#x51ed;" d="M585 726 Q467 714 358 706 Q355 724 341 755 Q693 783 844 824 L892 776 Q803 753 651 733 L651 610 L942 610 L942 552 L651 552 L651 425 L924 425 L924 367 L336 367 L336 425 L585 425 L585 552 L301 552 L301 610 L585 610 L585 726 ZM179 593 Q134 546 77 503 Q57 527 29 549 Q194 661 279 836 L340 819 Q304 745 243 667 L243 336 L179 336 L179 593 ZM869 1 Q891 1 897 23 Q904 44 906 126 Q925 112 965 101 Q961 5 942 -27 Q924 -59 875 -59 L754 -59 Q699 -59 679 -41 Q659 -22 659 30 L659 226 L336 226 L336 189 Q336 3 85 -77 Q72 -48 47 -20 Q269 45 269 191 L269 286 L725 286 L725 30 Q725 12 732 7 Q739 1 762 1 L869 1 Z" /><glyph glyph-name="uni51EF" unicode="&#x51ef;" d="M487 548 L89 548 L89 772 L145 772 L145 603 L258 603 L258 831 L317 831 L317 603 L430 603 L430 772 L487 772 L487 548 ZM438 104 Q438 86 444 47 Q131 -32 109 -45 Q100 -12 84 12 Q105 22 105 64 L105 277 L405 277 L405 401 L86 401 L86 461 L466 461 L466 218 L443 217 L163 217 L163 39 L438 104 ZM887 -7 Q899 -7 903 19 Q906 43 908 124 Q930 107 960 100 Q956 9 943 -23 Q928 -57 892 -57 L835 -57 Q794 -57 780 -38 Q767 -20 767 34 L767 721 L628 721 L628 485 Q628 107 499 -76 Q481 -52 449 -35 Q566 130 566 486 L566 779 L828 779 L828 33 Q828 7 831 0 Q834 -7 845 -7 L887 -7 Z" /><glyph glyph-name="uni51F0" unicode="&#x51f0;" d="M530 25 L792 25 L792 -30 L200 -30 L200 25 L466 25 L466 111 L280 111 L280 163 L466 163 L466 240 L249 240 L249 293 L746 293 L746 240 L530 240 L530 163 L720 163 L720 111 L530 111 L530 25 ZM653 586 L346 586 L346 516 L653 516 L653 586 ZM653 471 L346 471 L346 401 L653 401 L653 471 ZM542 704 L508 633 L714 633 L714 353 L287 353 L287 633 L443 633 Q462 680 472 716 L542 704 ZM844 780 Q844 407 851 257 Q864 1 902 1 Q919 1 921 156 Q941 126 962 110 Q956 10 943 -27 Q929 -67 895 -68 Q818 -68 796 167 Q784 292 781 721 L217 721 L217 535 Q217 128 93 -76 Q70 -50 39 -39 Q153 148 153 535 L153 780 L844 780 Z" /><glyph glyph-name="uni51FA" unicode="&#x51fa;" d="M887 335 L887 -75 L819 -75 L819 -13 L183 -13 L183 -79 L117 -79 L117 335 L183 335 L183 52 L461 52 L461 400 L155 400 L155 740 L221 740 L221 465 L461 465 L461 830 L528 830 L528 465 L778 465 L778 740 L847 740 L847 400 L528 400 L528 52 L819 52 L819 335 L887 335 Z" /><glyph glyph-name="uni51FB" unicode="&#x51fb;" d="M536 47 L779 47 L779 302 L846 302 L846 -76 L779 -76 L779 -17 L153 -17 L153 303 L223 303 L223 47 L467 47 L467 382 L71 382 L71 449 L467 449 L467 612 L145 612 L145 678 L467 678 L467 835 L536 835 L536 678 L862 678 L862 612 L536 612 L536 449 L932 449 L932 382 L536 382 L536 47 Z" /><glyph glyph-name="uni5206" unicode="&#x5206;" d="M336 717 Q254 491 96 357 Q75 382 41 406 Q194 523 268 733 L336 717 ZM790 442 L788 409 Q764 11 719 -37 Q695 -65 643 -68 Q597 -71 503 -66 Q501 -34 482 -6 Q569 -13 622 -11 Q650 -13 662 1 Q701 39 719 379 L452 379 Q390 50 135 -80 Q118 -54 84 -26 Q323 81 380 379 L186 379 L186 442 L790 442 ZM679 817 Q760 542 965 424 Q933 398 914 367 Q721 496 630 755 L370 755 L370 817 L679 817 Z" /><glyph glyph-name="uni5211" unicode="&#x5211;" d="M401 441 L401 716 L236 716 L236 441 L401 441 ZM465 441 L587 441 L587 377 L465 377 L465 -65 L401 -65 L401 377 L236 377 Q231 79 87 -77 Q67 -52 38 -34 Q167 106 173 377 L49 377 L49 441 L173 441 L173 716 L71 716 L71 780 L559 780 L559 716 L465 716 L465 441 ZM708 175 L645 175 L645 723 L708 723 L708 175 ZM910 817 L910 15 Q910 -45 869 -63 Q833 -78 699 -76 Q694 -44 676 -9 Q782 -12 820 -10 Q845 -9 845 15 L845 817 L910 817 Z" /><glyph glyph-name="uniF99C" unicode="&#x5217;&#xf99c;" d="M234 505 Q210 450 183 405 Q291 343 373 280 Q422 381 447 505 L234 505 ZM63 782 L558 782 L558 719 L306 719 Q289 646 259 567 L472 567 L480 569 L522 552 Q443 93 132 -82 Q114 -49 84 -29 Q245 55 343 222 Q267 285 152 355 Q111 295 65 252 Q46 277 22 299 Q172 439 237 719 L63 719 L63 782 ZM598 720 L663 720 L663 178 L598 178 L598 720 ZM908 816 L908 15 Q908 -46 865 -62 Q831 -73 691 -73 Q686 -44 668 -10 Q702 -11 817 -11 Q842 -10 842 15 L842 816 L908 816 Z" /><glyph glyph-name="uni5218" unicode="&#x5218;" d="M457 582 Q424 404 365 271 Q460 149 497 78 L444 32 Q410 98 333 204 Q241 31 86 -74 Q68 -47 38 -23 Q197 75 290 260 Q202 374 102 475 L149 514 Q234 428 319 327 Q366 443 392 593 L457 582 ZM334 670 L561 670 L561 608 L48 608 L48 670 L271 670 L271 831 L334 831 L334 670 ZM605 719 L670 719 L670 177 L605 177 L605 719 ZM908 816 L908 13 Q908 -46 867 -62 Q835 -73 706 -73 Q697 -36 682 -10 Q714 -11 818 -11 Q842 -10 842 13 L842 816 L908 816 Z" /><glyph glyph-name="uni5219" unicode="&#x5219;" d="M368 159 Q486 66 547 -1 L504 -50 Q438 28 326 117 L368 159 ZM533 781 L533 181 L469 181 L469 720 L174 720 L174 179 L111 179 L111 781 L533 781 ZM902 829 L902 22 Q902 -41 859 -58 Q820 -71 683 -70 Q675 -33 658 -3 Q769 -6 811 -4 Q837 -3 837 21 L837 829 L902 829 ZM715 746 L715 154 L652 154 L652 746 L715 746 ZM351 649 L351 367 Q351 51 92 -77 Q79 -46 51 -28 Q194 44 248 159 Q287 240 287 369 L287 649 L351 649 Z" /><glyph glyph-name="uni521B" unicode="&#x521b;" d="M453 -3 Q488 -3 498 23 Q508 48 512 139 Q542 120 572 114 Q565 9 543 -25 Q521 -61 457 -61 L267 -61 Q197 -61 172 -41 Q146 -20 146 41 L146 471 L504 471 L502 443 Q489 211 460 180 Q442 159 405 156 Q370 153 308 156 Q306 187 291 214 Q328 210 378 210 Q398 210 407 219 Q426 242 437 412 L210 412 L210 41 Q210 13 222 5 Q233 -3 272 -3 L453 -3 ZM378 815 Q372 799 359 772 Q524 603 593 503 L544 459 Q473 569 329 718 Q233 547 81 429 Q61 453 32 474 Q227 615 318 833 L378 815 ZM710 170 L647 170 L647 719 L710 719 L710 170 ZM908 820 L908 17 Q908 -44 864 -60 Q826 -73 687 -72 Q678 -33 663 -9 Q699 -10 816 -10 Q842 -9 842 16 L842 820 L908 820 Z" /><glyph glyph-name="uni521D" unicode="&#x521d;" d="M389 194 Q357 241 272 338 L272 -77 L207 -77 L207 304 Q138 228 68 177 Q51 209 27 229 Q227 371 331 591 L60 591 L60 652 L207 652 L207 835 L272 835 L272 652 L368 652 L376 654 L415 629 Q368 511 284 398 Q289 394 301 381 Q314 368 321 360 Q367 415 397 466 L441 430 Q378 354 352 328 Q407 270 429 244 L389 194 ZM935 741 L934 702 Q918 40 873 -18 Q846 -57 796 -61 Q749 -65 655 -60 Q653 -23 634 6 Q695 1 772 1 Q799 1 812 18 Q852 64 866 678 L655 678 Q648 402 608 252 Q549 28 395 -79 Q372 -46 341 -26 Q490 72 546 281 Q582 418 588 678 L414 678 L414 741 L935 741 Z" /><glyph glyph-name="uniF9DD" unicode="&#x5229;&#xf9dd;" d="M330 535 L525 535 L525 473 L330 473 L330 398 Q404 341 524 232 L481 180 Q428 240 330 327 L330 -72 L266 -72 L266 365 Q175 168 71 64 Q58 90 31 126 Q168 254 252 473 L53 473 L53 535 L266 535 L266 709 Q159 690 68 678 Q62 706 47 731 Q341 773 464 827 L515 777 Q444 748 330 723 L330 535 ZM595 717 L660 717 L660 174 L595 174 L595 717 ZM908 815 L908 15 Q908 -47 864 -64 Q830 -75 688 -75 Q681 -43 664 -11 Q699 -12 816 -12 Q842 -11 842 14 L842 815 L908 815 Z" /><glyph glyph-name="uni522B" unicode="&#x522b;" d="M427 731 L159 731 L159 529 L427 529 L427 731 ZM491 469 L98 469 L98 791 L491 791 L491 469 ZM507 352 L506 321 Q490 1 459 -37 Q438 -63 399 -66 Q357 -70 289 -65 Q287 -31 271 -2 Q315 -6 371 -6 Q393 -6 403 5 Q426 30 439 291 L293 291 Q258 21 80 -79 Q65 -47 38 -31 Q200 55 230 291 L59 291 L59 352 L237 352 Q241 409 242 443 L306 443 L300 352 L507 352 ZM694 167 L630 167 L630 715 L694 715 L694 167 ZM908 816 L908 14 Q908 -47 866 -64 Q834 -77 696 -77 Q687 -38 671 -10 Q706 -11 817 -11 Q842 -10 842 14 L842 816 L908 816 Z" /><glyph glyph-name="uni5230" unicode="&#x5230;" d="M344 61 L565 92 L567 31 L54 -43 L44 23 Q141 34 279 52 L279 236 L84 236 L84 297 L279 297 L279 420 L344 420 L344 297 L539 297 L539 236 L344 236 L344 61 ZM420 653 Q537 519 583 428 L531 394 Q518 422 494 460 L60 433 L52 497 L144 501 Q184 585 224 709 L55 709 L55 769 L563 769 L563 709 L299 709 Q241 560 215 505 L455 517 Q414 573 372 623 L420 653 ZM673 168 L610 168 L610 715 L673 715 L673 168 ZM911 805 L911 16 Q911 -50 868 -65 Q832 -79 698 -79 Q690 -39 672 -7 Q718 -9 822 -9 Q846 -8 846 16 L846 805 L911 805 Z" /><glyph glyph-name="uni5237" unicode="&#x5237;" d="M171 578 L507 578 L507 717 L171 717 L171 578 ZM575 106 Q575 62 549 50 Q527 39 448 39 Q445 63 428 95 Q489 93 507 95 Q520 95 520 107 L520 358 L408 358 L408 -73 L350 -73 L350 358 L244 358 L244 31 L192 31 L192 416 L350 416 L350 518 L171 518 L171 439 Q171 104 83 -56 Q62 -31 34 -16 Q111 127 111 439 L111 777 L570 777 L570 518 L408 518 L408 416 L575 416 L575 106 ZM713 178 L650 178 L650 729 L713 729 L713 178 ZM913 816 L913 17 Q913 -47 872 -63 Q834 -77 716 -75 Q711 -42 692 -5 Q790 -8 827 -6 Q849 -6 849 16 L849 816 L913 816 Z" /><glyph glyph-name="uni523B" unicode="&#x523b;" d="M483 539 Q344 298 96 159 Q79 183 50 209 Q146 258 233 334 Q155 412 54 477 L93 521 Q123 501 138 490 Q198 559 251 643 L55 643 L55 704 L282 704 L282 829 L347 829 L347 704 L572 704 L572 643 L316 643 L326 638 Q250 530 185 456 Q245 411 279 377 Q371 468 426 564 L483 539 ZM560 354 Q497 246 402 151 Q525 45 579 -17 L527 -65 Q461 15 356 107 Q232 -5 83 -77 Q60 -44 36 -24 Q348 113 502 379 L560 354 ZM686 173 L623 173 L623 724 L686 724 L686 173 ZM909 815 L909 13 Q909 -47 867 -62 Q832 -75 706 -73 Q700 -39 683 -11 Q715 -12 820 -12 Q844 -11 844 12 L844 815 L909 815 Z" /><glyph glyph-name="uni524D" unicode="&#x524d;" d="M416 200 L416 307 L185 307 L185 200 L416 200 ZM185 464 L185 360 L416 360 L416 464 L185 464 ZM480 5 Q480 -46 446 -60 Q416 -71 307 -71 Q300 -40 285 -12 Q368 -15 397 -13 Q416 -12 416 5 L416 147 L185 147 L185 -71 L121 -71 L121 522 L480 522 L480 5 ZM810 543 L875 543 L875 11 Q875 -45 836 -60 Q803 -72 680 -72 Q673 -40 655 -8 Q754 -11 788 -9 Q810 -8 810 11 L810 543 ZM670 106 L608 106 L608 513 L670 513 L670 106 ZM944 676 L944 615 L57 615 L57 676 L309 676 Q277 742 215 814 L276 837 Q343 761 377 695 L328 676 L631 676 Q689 761 727 841 L796 817 Q741 725 705 676 L944 676 Z" /><glyph glyph-name="uni5251" unicode="&#x5251;" d="M590 115 L592 57 L99 -35 L81 30 Q138 38 385 80 Q452 218 505 405 L565 389 Q506 218 448 91 L590 115 ZM509 478 L172 478 L172 535 L509 535 L509 478 ZM325 170 Q315 268 280 393 L333 405 Q371 276 382 184 L325 170 ZM155 370 Q203 264 224 151 L168 131 Q153 232 104 355 L155 370 ZM378 823 Q378 824 358 786 Q533 649 623 545 L583 496 Q499 597 329 738 Q218 568 64 454 Q45 496 30 513 Q222 645 322 844 L378 823 ZM736 166 L677 166 L677 716 L736 716 L736 166 ZM915 816 L915 12 Q915 -46 875 -60 Q841 -74 708 -72 Q703 -42 686 -12 Q784 -15 830 -12 Q856 -12 856 12 L856 816 L915 816 Z" /><glyph glyph-name="uni5267" unicode="&#x5267;" d="M361 428 L361 542 L181 542 Q181 488 178 428 L361 428 ZM181 725 L181 602 L504 602 L504 725 L181 725 ZM513 192 L263 192 L263 32 L513 32 L513 192 ZM421 428 L611 428 L611 368 L421 368 L421 250 L574 250 L574 -67 L513 -67 L513 -26 L263 -26 L263 -70 L204 -70 L204 250 L361 250 L361 368 L174 368 Q153 111 85 -29 Q64 -2 36 21 Q118 202 118 565 L118 784 L567 784 L567 542 L421 542 L421 428 ZM735 169 L675 169 L675 717 L735 717 L735 169 ZM909 816 L909 5 Q909 -49 875 -65 Q848 -77 740 -77 Q732 -44 719 -14 Q800 -17 827 -15 Q847 -14 847 5 L847 816 L909 816 Z" /><glyph glyph-name="uni526F" unicode="&#x526f;" d="M152 297 L152 198 L311 198 L311 297 L152 297 ZM531 297 L372 297 L372 198 L531 198 L531 297 ZM531 39 L531 145 L372 145 L372 39 L531 39 ZM311 39 L311 145 L152 145 L152 39 L311 39 ZM91 351 L594 351 L594 -61 L531 -61 L531 -15 L152 -15 L152 -73 L91 -73 L91 351 ZM487 600 L188 600 L188 481 L487 481 L487 600 ZM551 654 L551 427 L127 427 L127 654 L551 654 ZM64 789 L610 789 L610 731 L64 731 L64 789 ZM739 167 L679 167 L679 715 L739 715 L739 167 ZM917 816 L917 13 Q917 -47 877 -63 Q841 -78 713 -76 Q708 -46 691 -10 Q723 -11 828 -11 Q853 -10 853 13 L853 816 L917 816 Z" /><glyph glyph-name="uni529D" unicode="&#x529d;" d="M379 103 Q340 175 287 251 Q201 93 75 2 Q59 29 29 55 Q152 135 245 311 Q143 453 57 555 L107 590 Q194 487 276 378 Q329 502 356 655 L55 655 L55 719 L375 719 L385 722 L428 707 Q397 487 320 317 Q395 214 432 146 L379 103 ZM925 591 Q907 30 864 -24 Q840 -55 794 -61 Q749 -64 663 -59 Q659 -19 642 5 Q698 1 767 1 Q792 0 806 16 Q842 57 858 561 L668 561 Q660 146 403 -73 Q384 -52 349 -29 Q593 176 601 561 L451 561 L451 626 L601 626 L601 835 L668 835 L668 626 L925 626 L925 591 Z" /><glyph glyph-name="uni529E" unicode="&#x529e;" d="M749 612 Q727 40 678 -18 Q650 -53 598 -57 Q553 -61 437 -55 Q435 -16 415 15 Q483 9 571 9 Q599 8 614 24 Q658 70 676 584 L465 584 Q457 385 392 244 Q304 50 100 -79 Q73 -43 47 -26 Q376 179 395 584 L91 584 L91 650 L397 650 L397 835 L467 835 L467 650 L749 650 L749 612 ZM250 469 Q187 282 113 188 L53 224 Q136 319 190 493 L250 469 ZM841 501 Q925 330 954 193 L888 170 Q862 311 779 481 L841 501 Z" /><glyph glyph-name="uni529F" unicode="&#x529f;" d="M443 219 Q323 184 60 111 L43 178 L118 197 Q172 211 206 219 L206 652 L56 652 L56 715 L420 715 L420 652 L272 652 L272 237 L436 281 L443 219 ZM937 571 Q915 29 866 -29 Q841 -62 792 -66 Q747 -70 645 -63 Q641 -26 625 2 Q687 -4 766 -4 Q796 -4 808 11 Q850 56 870 542 L661 542 Q647 317 589 182 Q516 13 357 -76 Q334 -42 309 -25 Q459 55 527 210 Q581 334 594 542 L426 542 L426 606 L597 606 Q600 708 600 818 L667 818 Q667 708 664 606 L937 606 L937 571 Z" /><glyph glyph-name="uni52A0" unicode="&#x52a0;" d="M489 609 Q477 34 442 -14 Q421 -46 375 -51 Q335 -55 258 -50 Q256 -16 238 12 Q287 8 350 8 Q374 8 383 23 Q413 61 424 580 L265 580 Q249 99 86 -76 Q66 -49 34 -31 Q188 129 200 580 L57 580 L57 645 L202 645 Q203 702 203 821 L269 821 Q269 761 267 645 L489 645 L489 609 ZM845 77 L845 644 L637 644 L637 77 L845 77 ZM911 709 L911 -53 L845 -53 L845 12 L637 12 L637 -60 L573 -60 L573 709 L911 709 Z" /><glyph glyph-name="uni52A1" unicode="&#x52a1;" d="M864 280 Q863 259 861 250 Q830 2 784 -38 Q757 -63 707 -64 Q655 -66 562 -61 Q558 -29 541 -2 Q612 -9 689 -9 Q720 -9 732 1 Q770 33 792 221 L482 221 Q396 -2 96 -74 Q85 -46 60 -17 Q333 34 412 221 L131 221 L131 280 L431 280 Q445 329 451 382 L520 376 Q511 316 500 280 L864 280 ZM323 658 Q386 574 511 522 Q667 585 750 674 L338 674 L323 658 ZM853 707 Q769 581 587 494 Q733 446 956 431 Q933 405 919 371 Q674 392 509 460 Q328 389 76 358 Q68 391 49 417 Q259 436 436 495 Q339 548 280 620 Q206 561 138 523 Q119 555 96 571 Q292 676 387 837 L457 823 Q425 772 390 732 L801 732 L813 735 L853 707 Z" /><glyph glyph-name="uni52A8" unicode="&#x52a8;" d="M477 693 L95 693 L95 753 L477 753 L477 693 ZM450 65 Q437 115 431 134 Q115 64 93 50 Q83 86 70 113 Q87 116 115 182 Q162 286 199 453 L58 453 L58 515 L495 515 L495 453 L267 453 Q228 290 162 138 L412 190 Q379 283 351 349 L406 364 Q473 210 509 85 L450 65 ZM941 569 Q923 29 880 -26 Q853 -57 810 -61 Q750 -65 671 -59 Q669 -24 650 6 Q709 0 783 0 Q810 0 822 15 Q859 56 874 540 L717 540 Q694 96 514 -75 Q490 -43 462 -28 Q630 126 653 540 L508 540 L508 604 L656 604 Q659 711 659 819 L724 819 Q724 699 720 604 L941 604 L941 569 Z" /><glyph glyph-name="uni52B2" unicode="&#x52b2;" d="M494 764 Q447 629 338 533 Q422 478 515 453 Q495 435 473 399 Q381 429 288 494 Q195 429 81 394 Q67 426 43 448 Q150 477 239 534 Q154 607 104 701 L159 720 Q201 641 288 569 Q371 639 411 723 L65 723 L65 782 L444 782 L456 785 L494 764 ZM481 56 Q304 20 57 -28 L42 37 L253 73 L253 233 L69 233 L69 293 L253 293 L253 415 L316 415 L316 293 L481 293 L481 233 L316 233 L316 84 L476 113 L481 56 ZM926 563 Q913 11 877 -38 Q855 -68 813 -72 Q776 -76 695 -71 Q693 -36 678 -9 Q726 -13 788 -13 Q809 -14 821 1 Q851 37 863 535 L725 535 Q713 309 660 175 Q595 12 450 -77 Q432 -50 403 -30 Q541 50 602 201 Q652 325 663 535 L504 535 L504 597 L665 597 Q667 671 667 831 L729 831 Q729 671 726 597 L926 597 L926 563 Z" /><glyph glyph-name="uni52B3" unicode="&#x52b3;" d="M846 325 L844 293 Q828 3 790 -36 Q766 -62 716 -65 Q659 -68 552 -62 Q548 -27 528 3 Q598 -4 690 -4 Q723 -4 733 6 Q761 32 775 262 L473 262 Q444 129 363 53 Q273 -31 90 -73 Q80 -44 53 -15 Q219 19 302 89 Q376 151 403 262 L138 262 L138 325 L415 325 Q421 366 427 449 L496 449 Q492 383 484 325 L846 325 ZM84 542 L913 542 L913 376 L846 376 L846 482 L148 482 L148 371 L84 371 L84 542 ZM940 739 L940 676 L707 676 L707 589 L640 589 L640 676 L359 676 L359 589 L290 589 L290 676 L62 676 L62 739 L290 739 L290 835 L359 835 L359 739 L640 739 L640 835 L707 835 L707 739 L940 739 Z" /><glyph glyph-name="uni52BF" unicode="&#x52bf;" d="M54 547 Q158 563 221 574 L221 676 L68 676 L68 736 L221 736 L221 835 L282 835 L282 736 L414 736 L414 676 L282 676 L282 584 L418 609 L421 550 L282 524 L282 416 Q282 368 251 356 Q224 345 122 345 Q118 368 102 402 Q149 401 204 401 Q221 401 221 416 L221 513 L68 485 L54 547 ZM835 736 Q831 554 837 491 Q846 410 878 410 Q902 410 906 499 Q929 479 957 474 Q951 403 933 377 Q916 351 876 351 Q808 351 787 439 Q771 502 773 679 L643 679 Q634 600 613 538 Q701 482 745 445 L708 393 Q676 423 589 482 Q542 398 442 351 L499 351 Q492 307 485 278 L858 278 Q857 257 855 248 Q831 5 787 -36 Q763 -60 711 -63 Q667 -66 557 -59 Q553 -23 535 1 Q614 -5 690 -5 Q721 -5 732 4 Q764 32 786 219 L469 219 Q395 -8 85 -76 Q74 -44 49 -19 Q327 36 399 219 L96 219 L96 278 L417 278 Q424 307 431 351 Q417 376 395 394 Q495 437 537 517 Q479 555 433 581 L468 626 Q497 610 559 572 Q573 611 581 679 L436 679 L436 736 L586 736 Q588 768 590 836 L652 836 Q650 768 648 736 L835 736 Z" /><glyph glyph-name="uni52C3" unicode="&#x52c3;" d="M266 672 L59 672 L59 730 L266 730 L266 831 L329 831 L329 730 L536 730 L536 672 L329 672 L329 571 L533 571 L533 424 L475 424 L475 515 L127 515 L127 424 L69 424 L69 571 L266 571 L266 672 ZM549 213 L328 184 L328 -4 Q328 -55 293 -68 Q264 -80 159 -80 Q155 -55 135 -17 Q218 -20 247 -18 Q265 -17 265 -4 L265 176 L61 149 L51 211 Q122 218 265 236 L265 307 L297 307 Q341 340 379 378 L132 378 L132 432 L432 432 L442 435 L484 404 Q418 327 328 266 L328 243 L546 271 L549 213 ZM929 604 L928 570 Q914 18 874 -31 Q852 -64 806 -67 Q760 -70 679 -65 Q674 -28 660 -7 Q728 -12 783 -12 Q808 -12 819 3 Q853 43 866 541 L719 541 Q710 314 669 179 Q618 13 504 -79 Q484 -49 452 -30 Q561 53 609 206 Q649 330 658 541 L541 541 L541 604 L660 604 Q662 742 662 821 L724 821 Q724 708 721 604 L929 604 Z" /><glyph glyph-name="uniFA33" unicode="&#x52c9;&#xfa33;" d="M343 425 Q343 376 339 333 L475 333 L475 522 L343 522 L343 425 ZM279 333 Q283 376 283 426 L283 522 L160 522 L160 333 L279 333 ZM228 690 Q195 633 153 579 L305 579 Q342 633 366 690 L228 690 ZM812 2 Q861 2 876 23 Q891 44 896 120 Q925 102 955 97 Q947 5 920 -23 Q893 -53 815 -53 L511 -53 Q412 -53 378 -34 Q344 -14 344 46 L344 277 L332 277 Q292 52 79 -74 Q59 -48 34 -30 Q230 82 270 277 L100 277 L100 518 L82 500 Q64 523 34 541 Q160 656 229 834 L294 823 Q278 784 258 746 L396 746 L406 749 L446 724 Q417 650 371 579 L530 579 L530 629 L660 629 L663 826 L726 826 Q724 695 722 629 L928 629 Q928 607 927 597 Q913 171 875 126 Q855 98 814 95 Q771 91 711 96 Q709 128 693 154 Q749 150 790 150 Q812 150 821 163 Q851 197 864 567 L719 567 Q708 380 669 270 Q622 140 523 66 Q505 94 475 114 Q638 230 657 567 L538 567 L538 277 L407 277 L407 46 Q407 19 426 11 Q446 2 509 2 L812 2 Z" /><glyph glyph-name="uni52D0" unicode="&#x52d0;" d="M271 529 L59 529 L59 587 L271 587 L271 639 L294 639 Q347 671 397 718 L106 718 L106 774 L454 774 L464 777 L506 748 Q440 666 335 602 L335 587 L531 587 L531 529 L335 529 L335 387 Q335 337 300 324 Q270 313 168 313 Q160 340 138 374 Q228 372 253 374 Q271 374 271 388 L271 529 ZM142 41 L212 47 L212 239 L142 239 L142 41 ZM328 239 L258 239 L258 51 L328 58 L328 239 ZM445 239 L375 239 L375 63 L445 70 L445 239 ZM923 561 Q910 14 872 -33 Q851 -65 806 -68 Q771 -72 687 -68 Q685 -35 669 -9 Q719 -13 782 -13 Q807 -13 817 2 Q848 41 860 534 L723 534 Q702 84 519 -83 Q501 -58 466 -35 Q491 -14 518 18 Q285 -8 45 -31 L36 32 L92 36 L92 293 L496 293 L496 75 L545 80 L545 56 Q646 210 662 534 L543 534 L543 595 L664 595 Q667 671 667 829 L729 829 Q729 709 726 595 L923 595 L923 561 Z" /><glyph glyph-name="uniF952" unicode="&#x52d2;&#xf952;" d="M142 303 L267 303 L267 418 L142 418 L142 303 ZM451 418 L325 418 L325 303 L451 303 L451 418 ZM217 594 L377 594 L377 682 L217 682 L217 594 ZM328 106 L328 -76 L265 -76 L265 106 L45 106 L45 164 L265 164 L265 249 L86 249 L86 472 L265 472 L265 540 L159 540 L159 682 L54 682 L54 736 L159 736 L159 833 L217 833 L217 736 L377 736 L377 833 L436 833 L436 736 L534 736 L534 682 L436 682 L436 540 L328 540 L328 472 L509 472 L509 249 L328 249 L328 164 L537 164 L537 106 L328 106 ZM926 571 Q912 18 874 -34 Q851 -65 807 -69 Q773 -73 682 -67 Q678 -29 662 -5 Q715 -9 783 -9 Q806 -10 817 5 Q850 45 862 543 L716 543 Q695 88 490 -76 Q469 -45 441 -29 Q634 116 653 543 L507 543 L507 605 L656 605 Q658 678 658 831 L721 831 Q721 678 718 605 L926 605 L926 571 Z" /><glyph glyph-name="uniFA34" unicode="&#x52e4;&#xfa34;" d="M265 376 L265 483 L141 483 L141 376 L265 376 ZM327 483 L327 376 L454 376 L454 483 L327 483 ZM214 625 L382 625 L382 699 L214 699 L214 625 ZM941 566 Q927 22 889 -28 Q866 -61 821 -64 Q795 -66 705 -64 Q703 -29 686 -4 Q735 -8 799 -8 Q821 -8 833 7 Q864 44 877 537 L725 537 Q716 309 677 175 Q628 11 520 -82 Q501 -56 468 -32 Q486 -17 501 -2 L52 -44 L43 15 Q147 24 265 32 L265 112 L86 112 L86 160 L265 160 L265 224 L70 224 L70 273 L265 273 L265 327 L83 327 L83 532 L265 532 L265 579 L153 579 L153 699 L47 699 L47 751 L153 751 L153 835 L214 835 L214 751 L382 751 L382 835 L445 835 L445 751 L546 751 L546 699 L445 699 L445 579 L327 579 L327 532 L515 532 L515 327 L327 327 L327 273 L533 273 L533 224 L327 224 L327 160 L511 160 L511 112 L327 112 L327 38 L530 55 L530 30 Q650 179 663 537 L533 537 L533 600 L665 600 Q667 672 667 827 L729 827 Q729 744 727 600 L941 600 L941 566 Z" /><glyph glyph-name="uni5305" unicode="&#x5305;" d="M269 637 Q190 524 95 446 Q55 483 40 494 Q214 623 306 841 L373 822 Q345 761 310 701 L869 701 Q869 677 868 668 Q854 227 819 181 Q798 155 757 150 Q711 146 641 151 Q637 190 623 214 Q668 210 726 210 Q749 210 760 223 Q788 258 800 637 L269 637 ZM264 468 L264 298 L538 298 L538 468 L264 468 ZM782 9 Q845 9 866 34 Q885 57 893 137 Q919 119 956 113 Q946 13 914 -19 Q880 -54 782 -54 L395 -54 Q280 -54 240 -28 Q198 -1 198 77 L198 528 L602 528 L602 237 L264 237 L264 77 Q264 36 287 23 Q311 9 390 9 L782 9 Z" /><glyph glyph-name="uni5316" unicode="&#x5316;" d="M384 798 Q335 687 269 586 L269 -74 L203 -74 L203 494 Q138 411 69 348 Q47 385 25 410 Q212 566 319 818 L384 798 ZM820 13 Q856 13 868 44 Q879 73 884 170 Q911 150 947 140 Q939 29 917 -9 Q891 -51 824 -51 L628 -51 Q554 -51 528 -25 Q502 1 502 77 L502 316 Q471 297 406 261 Q393 284 368 316 Q444 355 502 391 L502 822 L569 822 L569 434 Q751 556 848 666 L910 633 Q771 491 569 358 L569 76 Q569 37 580 25 Q592 13 632 13 L820 13 Z" /><glyph glyph-name="uniF963" unicode="&#x5317;&#xf963;" d="M328 816 L396 816 L396 -66 L328 -66 L328 161 L69 52 L38 118 Q112 142 328 228 L328 514 L68 514 L68 579 L328 579 L328 816 ZM840 14 Q875 14 886 55 Q896 92 901 222 Q927 201 965 190 Q959 49 937 2 Q913 -52 844 -52 L684 -52 Q616 -52 592 -26 Q568 0 568 75 L568 816 L636 816 L636 478 Q807 581 890 663 L944 609 Q846 529 636 409 L636 73 Q636 35 646 25 Q655 14 689 14 L840 14 Z" /><glyph glyph-name="uni533A" unicode="&#x533a;" d="M945 -17 L165 -17 L165 -75 L99 -75 L99 772 L921 772 L921 709 L165 709 L165 46 L945 46 L945 -17 ZM769 134 Q699 223 561 340 Q432 195 281 94 Q268 112 228 144 Q381 237 511 381 Q393 475 271 553 L319 594 Q433 523 553 430 Q644 540 712 670 L775 648 Q706 515 604 390 Q750 272 823 183 L769 134 Z" /><glyph glyph-name="uni533B" unicode="&#x533b;" d="M945 -27 L166 -27 L166 -74 L100 -74 L100 777 L922 777 L922 714 L166 714 L166 36 L945 36 L945 -27 ZM600 354 Q679 181 914 135 Q891 116 872 79 Q660 131 567 289 Q505 148 268 75 Q249 105 226 126 Q487 198 518 354 L227 354 L227 414 L524 414 L524 541 L365 541 Q325 488 278 447 Q254 467 224 485 Q329 565 380 695 L443 680 Q429 643 403 599 L859 599 L859 541 L590 541 L590 414 L907 414 L907 354 L600 354 Z" /><glyph glyph-name="uni5343" unicode="&#x5343;" d="M946 378 L533 378 L533 -76 L463 -76 L463 378 L56 378 L56 443 L463 443 L463 689 Q328 669 128 650 Q125 677 110 708 Q582 753 796 821 L847 766 Q713 727 533 700 L533 443 L946 443 L946 378 Z" /><glyph glyph-name="uni5347" unicode="&#x5347;" d="M947 369 L729 369 L729 -76 L662 -76 L662 369 L347 369 Q341 223 294 127 Q234 3 92 -78 Q72 -48 45 -28 Q268 97 281 369 L55 369 L55 433 L282 433 L282 663 Q181 635 87 613 Q82 639 64 667 Q364 735 499 818 L550 764 Q465 720 348 683 L348 433 L662 433 L662 815 L729 815 L729 433 L947 433 L947 369 Z" /><glyph glyph-name="uni5348" unicode="&#x5348;" d="M944 311 L534 311 L534 -77 L466 -77 L466 311 L57 311 L57 377 L466 377 L466 635 L250 635 Q194 526 121 445 Q99 464 61 486 Q191 611 259 838 L327 822 Q309 765 281 700 L867 700 L867 635 L534 635 L534 377 L944 377 L944 311 Z" /><glyph glyph-name="uni534A" unicode="&#x534a;" d="M864 503 Q790 617 638 746 L688 782 Q847 653 918 544 L864 503 ZM352 755 Q255 592 120 488 Q105 506 70 533 Q211 640 282 777 L352 755 ZM938 232 L531 232 L531 -72 L463 -72 L463 232 L60 232 L60 297 L463 297 L463 471 L204 471 L204 535 L463 535 L463 836 L531 836 L531 535 L787 535 L787 471 L531 471 L531 297 L938 297 L938 232 Z" /><glyph glyph-name="uni534E" unicode="&#x534e;" d="M531 560 L383 519 Q378 540 360 571 Q467 600 531 621 L531 822 L597 822 L597 643 Q772 706 854 765 L906 715 Q800 647 597 581 L597 463 Q597 439 608 432 Q618 425 654 425 L824 425 Q853 425 862 445 Q871 465 875 537 Q896 522 934 511 Q928 425 907 396 Q886 366 829 366 L648 366 Q579 366 555 386 Q531 406 531 463 L531 560 ZM228 612 Q171 556 102 507 Q76 539 52 556 Q228 665 330 837 L392 815 Q357 756 294 682 L294 338 L228 338 L228 612 ZM945 157 L534 157 L534 -76 L465 -76 L465 157 L55 157 L55 221 L465 221 L465 339 L534 339 L534 221 L944 221 L945 157 Z" /><glyph glyph-name="uni534F" unicode="&#x534f;" d="M232 541 L232 -74 L168 -74 L168 541 L52 541 L52 603 L168 603 L168 836 L232 836 L232 603 L341 603 L341 541 L232 541 ZM452 462 Q416 288 347 181 Q331 195 296 218 Q359 306 392 473 L452 462 ZM826 611 Q812 26 771 -28 Q747 -59 701 -65 Q664 -69 563 -63 Q559 -23 543 1 Q613 -5 675 -5 Q703 -5 714 11 Q749 51 762 581 L616 581 Q604 149 333 -77 Q311 -49 283 -33 Q541 181 553 581 L372 581 L372 646 L554 646 L554 825 L617 825 L617 646 L826 646 L826 611 ZM897 469 Q948 316 966 192 L904 176 Q889 292 840 458 L897 469 Z" /><glyph glyph-name="uni5353" unicode="&#x5353;" d="M232 297 L776 297 L776 400 L232 400 L232 297 ZM232 454 L776 454 L776 554 L232 554 L232 454 ZM942 90 L531 90 L531 -75 L463 -75 L463 90 L60 90 L60 151 L463 151 L463 241 L166 241 L166 610 L454 610 L454 835 L522 835 L522 753 L906 753 L906 695 L522 695 L522 610 L844 610 L844 241 L531 241 L531 151 L942 151 L942 90 Z" /><glyph glyph-name="uni5355" unicode="&#x5355;" d="M464 324 L464 439 L217 439 L217 324 L464 324 ZM217 493 L464 493 L464 606 L217 606 L217 493 ZM790 606 L532 606 L532 493 L790 493 L790 606 ZM790 439 L532 439 L532 324 L790 324 L790 439 ZM945 105 L532 105 L532 -75 L464 -75 L464 105 L58 105 L58 168 L464 168 L464 267 L153 267 L153 663 L340 663 Q299 738 242 804 L296 831 Q374 747 404 683 L367 663 L611 663 Q674 748 713 832 L783 807 Q728 719 685 663 L857 663 L857 267 L532 267 L532 168 L945 168 L945 105 Z" /><glyph glyph-name="uni5356" unicode="&#x5356;" d="M761 398 Q793 440 831 512 L86 512 L86 571 L468 571 L468 668 L147 668 L147 727 L468 727 L468 833 L536 833 L536 727 L866 727 L866 668 L536 668 L536 571 L865 571 L876 574 L922 555 Q860 427 812 369 L761 398 ZM427 359 Q354 414 237 449 L272 490 Q395 453 464 403 L427 359 ZM171 395 Q286 365 362 314 L327 269 Q261 317 139 354 L171 395 ZM542 188 Q454 -17 104 -76 Q93 -45 70 -20 Q385 30 468 188 L67 188 L67 248 L493 248 Q519 328 527 486 L595 486 Q585 328 562 248 L936 248 L936 188 L542 188 ZM572 128 Q796 58 943 -20 L905 -74 Q754 9 542 79 L572 128 Z" /><glyph glyph-name="uni5357" unicode="&#x5357;" d="M371 478 Q417 412 431 360 L377 342 Q358 406 319 464 L371 478 ZM529 123 L529 -58 L466 -58 L466 123 L246 123 L246 179 L466 179 L466 287 L266 287 L266 342 L562 342 Q600 414 623 482 L681 468 Q653 402 621 342 L741 342 L741 287 L529 287 L529 179 L757 179 L757 123 L529 123 ZM527 670 L510 558 L882 558 L882 5 Q882 -51 841 -66 Q806 -77 672 -77 Q666 -48 649 -16 Q738 -20 792 -17 Q815 -16 815 5 L815 497 L187 497 L187 -75 L121 -75 L121 558 L447 558 Q455 612 461 670 L64 670 L64 732 L467 732 Q473 806 474 837 L545 829 L533 732 L938 732 L938 670 L527 670 Z" /><glyph glyph-name="uni535A" unicode="&#x535a;" d="M670 563 L670 500 L844 500 L844 563 L670 563 ZM844 393 L844 453 L670 453 L670 393 L844 393 ZM608 393 L608 453 L448 453 L448 393 L608 393 ZM448 563 L448 500 L608 500 L608 563 L448 563 ZM608 670 L336 670 L336 724 L608 724 L608 837 L670 837 L670 724 L853 724 Q795 763 727 794 L759 833 Q843 799 903 755 L880 724 L950 724 L950 670 L670 670 L670 613 L904 613 L904 274 L844 274 L844 346 L670 346 L670 281 L608 281 L608 346 L448 346 L448 274 L390 274 L390 613 L608 613 L608 670 ZM233 510 L233 -72 L169 -72 L169 510 L43 510 L43 571 L169 571 L169 836 L233 836 L233 571 L353 571 L353 510 L233 510 ZM460 156 Q550 88 593 25 L545 -15 Q505 49 414 122 L460 156 ZM955 168 L802 168 L802 -6 Q802 -57 767 -69 Q740 -79 625 -79 Q620 -48 605 -19 Q689 -22 720 -20 Q738 -19 738 -5 L738 168 L306 168 L306 225 L738 225 L738 305 L802 305 L802 225 L955 225 L955 168 Z" /><glyph glyph-name="uni5360" unicode="&#x5360;" d="M771 317 L226 317 L226 54 L771 54 L771 317 ZM517 582 L517 379 L839 379 L839 -71 L771 -71 L771 -9 L226 -9 L226 -75 L161 -75 L161 379 L449 379 L449 835 L517 835 L517 645 L920 645 L920 582 L517 582 Z" /><glyph glyph-name="uni5361" unicode="&#x5361;" d="M515 400 L515 292 L528 312 Q733 259 871 195 L835 134 Q724 192 515 254 L515 -74 L446 -74 L446 400 L56 400 L56 466 L446 466 L446 834 L515 834 L515 687 L838 687 L838 623 L515 623 L515 466 L943 466 L943 400 L515 400 Z" /><glyph glyph-name="uni5362" unicode="&#x5362;" d="M773 500 L255 500 L255 389 Q255 368 253 324 L773 324 L773 500 ZM532 674 L532 559 L840 559 L840 208 L773 208 L773 265 L248 265 Q224 45 106 -79 Q87 -57 51 -40 Q187 103 187 390 L187 559 L465 559 L465 836 L532 836 L532 735 L931 735 L931 674 L532 674 Z" /><glyph glyph-name="uni5367" unicode="&#x5367;" d="M147 77 L296 77 L296 252 L147 252 L147 77 ZM147 717 L147 557 L296 557 L296 717 L147 717 ZM464 495 L147 495 L147 315 L464 315 L464 495 ZM359 77 L550 77 L550 14 L147 14 L147 -47 L83 -47 L83 779 L540 779 L540 717 L359 717 L359 557 L528 557 L528 252 L359 252 L359 77 ZM925 284 Q846 352 683 449 L683 -56 L618 -56 L618 822 L683 822 L683 521 Q869 418 966 340 L925 284 Z" /><glyph glyph-name="uni536B" unicode="&#x536b;" d="M947 28 L947 -37 L55 -37 L55 28 L423 28 L423 696 L119 696 L119 762 L865 762 L865 337 Q865 278 821 262 Q785 251 629 251 Q624 280 603 317 Q732 312 773 316 Q798 316 798 338 L798 696 L494 696 L494 28 L947 28 Z" /><glyph glyph-name="uni5370" unicode="&#x5370;" d="M474 779 Q357 723 174 670 L174 485 L458 485 L458 421 L174 421 L174 172 L462 172 L462 107 L174 107 L174 24 L107 24 L107 744 L152 726 Q312 776 413 832 L474 779 ZM916 171 Q916 108 876 93 Q844 80 718 80 Q713 113 692 151 Q791 148 828 150 Q850 151 850 171 L850 698 L590 698 L590 -72 L524 -72 L524 764 L916 764 L916 171 Z" /><glyph glyph-name="uni5373" unicode="&#x5373;" d="M177 718 L177 584 L419 584 L419 718 L177 718 ZM419 394 L419 524 L177 524 L177 394 L419 394 ZM348 281 Q470 130 517 7 L460 -25 Q443 22 410 80 Q218 21 69 -22 L44 43 L113 62 L113 780 L481 780 L481 331 L177 331 L177 80 L376 138 Q339 198 296 253 L348 281 ZM916 176 Q916 115 879 99 Q846 85 735 85 Q728 121 710 159 Q784 155 830 158 Q849 158 849 177 L849 713 L626 713 L626 -74 L560 -74 L560 779 L916 779 L916 176 Z" /><glyph glyph-name="uni5385" unicode="&#x5385;" d="M256 547 L929 547 L929 483 L652 483 L652 14 Q652 -47 606 -63 Q568 -74 418 -74 Q411 -39 394 -7 Q496 -11 558 -8 Q583 -7 583 15 L583 483 L256 483 L256 547 ZM949 708 L197 708 L197 440 Q197 95 94 -70 Q71 -45 39 -29 Q131 120 131 440 L131 771 L949 771 L949 708 Z" /><glyph glyph-name="uni5386" unicode="&#x5386;" d="M889 499 Q889 476 888 467 Q864 24 817 -27 Q793 -56 743 -60 Q688 -63 591 -57 Q587 -17 569 9 Q644 2 718 2 Q748 2 760 15 Q800 52 820 436 L552 436 Q534 251 475 139 Q404 3 257 -71 Q242 -43 213 -23 Q350 43 415 166 Q469 268 485 436 L255 436 L255 499 L489 499 Q493 553 495 668 L564 668 Q560 557 557 499 L889 499 ZM943 722 L188 722 L188 474 Q188 107 98 -72 Q77 -50 41 -35 Q121 129 121 474 L121 785 L943 785 L943 722 Z" /><glyph glyph-name="uni538B" unicode="&#x538b;" d="M601 31 L949 31 L949 -33 L194 -33 L194 31 L534 31 L534 383 L259 383 L259 446 L534 446 L534 665 L601 665 L601 446 L899 446 L899 383 L601 383 L601 31 ZM732 305 Q829 222 875 153 L823 115 Q776 193 684 271 L732 305 ZM951 723 L184 723 L184 467 Q184 102 92 -76 Q70 -54 38 -39 Q120 120 120 467 L120 787 L951 787 L951 723 Z" /><glyph glyph-name="uni5398" unicode="&#x5398;" d="M205 481 Q205 115 98 -64 Q77 -43 41 -28 Q139 134 139 481 L139 776 L940 776 L940 713 L205 713 L205 481 ZM545 328 L545 431 L348 431 L348 328 L545 328 ZM348 483 L545 483 L545 584 L348 584 L348 483 ZM806 584 L604 584 L604 483 L806 483 L806 584 ZM806 431 L604 431 L604 328 L806 328 L806 431 ZM953 18 L953 -43 L204 -43 L204 18 L540 18 L540 126 L273 126 L273 183 L540 183 L540 264 L545 264 L545 273 L286 273 L286 639 L870 639 L870 273 L604 273 L604 264 L608 264 L608 183 L880 183 L880 126 L608 126 L608 18 L953 18 Z" /><glyph glyph-name="uni539A" unicode="&#x539a;" d="M200 718 L200 490 Q200 109 91 -77 Q70 -54 35 -39 Q135 128 135 490 L135 779 L936 779 L936 718 L200 718 ZM359 428 L769 428 L769 500 L359 500 L359 428 ZM359 545 L769 545 L769 616 L359 616 L359 545 ZM295 381 L295 662 L835 662 L835 381 L295 381 ZM948 105 L607 105 L607 -8 Q607 -60 568 -70 Q537 -80 403 -80 Q396 -51 379 -22 Q485 -25 521 -23 Q542 -22 542 -7 L542 105 L211 105 L211 160 L542 160 L542 217 L596 217 Q661 241 720 273 L294 273 L294 323 L793 323 L806 326 L850 293 Q759 222 607 168 L607 160 L948 160 L948 105 Z" /><glyph glyph-name="uni539D" unicode="&#x539d;" d="M388 265 L388 172 L769 172 L769 265 L388 265 ZM769 21 L769 118 L388 118 L388 21 L769 21 ZM325 322 L835 322 L835 -72 L769 -72 L769 -35 L388 -35 L388 -76 L325 -76 L325 322 ZM472 450 L674 450 L674 559 L472 559 L472 450 ZM739 450 L925 450 L925 394 L232 394 L232 450 L407 450 L407 559 L261 559 L261 615 L407 615 L407 701 L472 701 L472 615 L674 615 L674 701 L739 701 L739 615 L892 615 L892 559 L739 559 L739 450 ZM932 723 L201 723 L201 495 Q201 115 95 -71 Q68 -46 40 -34 Q136 133 136 495 L136 784 L932 784 L932 723 Z" /><glyph glyph-name="uni539F" unicode="&#x539f;" d="M436 185 Q356 57 229 -39 Q211 -19 176 4 Q300 87 374 206 L436 185 ZM361 312 L787 312 L787 412 L361 412 L361 312 ZM361 463 L787 463 L787 561 L361 561 L361 463 ZM605 258 L605 -2 Q605 -53 568 -65 Q535 -76 414 -76 Q408 -50 391 -16 Q486 -19 521 -17 Q540 -16 540 -1 L540 258 L296 258 L296 615 L505 615 Q519 661 532 717 L202 717 L202 492 Q202 109 95 -74 Q69 -50 39 -37 Q137 131 137 492 L137 777 L938 777 L938 717 L608 717 L571 615 L854 615 L854 258 L605 258 ZM747 211 Q892 98 954 8 L901 -31 Q837 66 697 177 L747 211 Z" /><glyph glyph-name="uni53A6" unicode="&#x53a6;" d="M196 495 Q196 113 93 -74 Q69 -50 37 -36 Q132 134 132 495 L132 786 L939 786 L939 726 L196 726 L196 495 ZM425 138 Q475 88 562 54 Q647 88 699 138 L425 138 ZM378 274 L756 274 L756 328 L378 328 L378 274 ZM378 370 L756 370 L756 423 L378 423 L378 370 ZM378 464 L756 464 L756 516 L378 516 L378 464 ZM796 163 Q740 83 634 29 Q770 -11 953 -20 Q933 -41 917 -76 Q704 -58 561 -3 Q421 -55 215 -75 Q205 -48 187 -24 Q358 -11 491 28 Q422 65 376 111 Q311 74 236 45 Q220 73 197 87 Q365 145 460 232 L316 232 L316 558 L518 558 Q527 581 538 618 L232 618 L232 668 L913 668 L913 618 L606 618 L578 558 L820 558 L820 232 L540 232 Q516 208 486 184 L745 184 L757 187 L796 163 Z" /><glyph glyph-name="uni53BF" unicode="&#x53bf;" d="M280 276 L732 276 L732 392 L280 392 L280 276 ZM280 729 L280 615 L732 615 L732 729 L280 729 ZM280 449 L732 449 L732 559 L280 559 L280 449 ZM434 215 Q341 106 246 28 L741 50 Q673 118 616 165 L670 191 Q819 74 912 -45 L855 -76 Q826 -38 792 -3 Q178 -34 144 -46 Q140 -19 124 20 Q149 24 191 60 Q261 113 346 215 L62 215 L62 276 L216 276 L216 787 L798 787 L798 276 L942 276 L942 215 L434 215 Z" /><glyph glyph-name="uni53C9" unicode="&#x53c9;" d="M856 718 Q774 394 555 186 Q726 41 965 -14 Q940 -38 918 -75 Q672 -12 504 141 Q330 -2 86 -77 Q71 -40 42 -15 Q284 54 454 189 Q291 360 201 636 L258 653 Q341 396 505 233 Q693 407 770 672 L99 672 L99 738 L797 738 L810 742 L856 718 ZM547 410 Q496 481 383 577 L432 614 Q549 515 599 451 L547 410 Z" /><glyph glyph-name="uni53CB" unicode="&#x53cb;" d="M385 400 Q446 255 566 153 Q683 260 733 400 L385 400 ZM820 447 Q763 244 619 113 Q761 18 955 -16 Q929 -42 912 -76 Q709 -34 568 71 Q441 -26 259 -77 Q247 -43 222 -20 Q389 21 516 113 Q404 213 337 362 Q257 92 98 -44 Q79 -22 40 0 Q257 173 321 601 L72 601 L72 666 L329 666 Q338 742 342 836 L410 836 Q401 700 397 666 L930 666 L930 601 L388 601 Q378 530 363 464 L764 464 L775 468 L820 447 Z" /><glyph glyph-name="uni53CC" unicode="&#x53cc;" d="M409 53 Q378 124 315 223 Q229 36 89 -75 Q64 -38 41 -23 Q179 77 272 289 Q165 446 81 547 L130 584 Q225 470 301 362 Q355 514 379 694 L69 694 L69 757 L396 757 L407 760 L450 748 Q422 489 347 296 Q426 180 465 97 L409 53 ZM585 694 Q621 444 699 273 Q803 451 841 694 L585 694 ZM914 748 Q874 421 736 202 Q824 50 959 -22 Q932 -44 911 -79 Q780 -2 694 141 Q591 4 448 -75 Q428 -39 403 -19 Q554 57 658 208 Q567 397 522 694 L495 694 L495 757 L860 757 L871 760 L914 748 Z" /><glyph glyph-name="uni53D1" unicode="&#x53d1;" d="M802 639 Q772 681 674 788 L724 819 Q814 729 854 676 L802 639 ZM421 368 Q480 240 587 150 Q694 244 746 368 L421 368 ZM835 413 Q775 232 640 110 Q777 15 959 -20 Q937 -40 918 -79 Q725 -34 588 68 Q457 -28 278 -78 Q266 -49 243 -22 Q405 18 537 111 Q443 198 381 317 Q273 120 85 3 Q65 34 36 53 Q294 212 396 542 L255 542 Q163 542 150 526 Q132 580 127 590 Q144 594 162 629 Q204 699 228 806 L300 793 Q268 690 226 607 L414 607 Q443 717 456 839 L530 827 Q512 703 489 607 L926 607 L925 542 L471 542 Q453 479 434 432 L778 432 L790 435 L835 413 Z" /><glyph glyph-name="uni53D6" unicode="&#x53d6;" d="M397 708 L193 708 L193 570 L397 570 L397 708 ZM397 175 L397 303 L193 303 L193 145 L397 175 ZM193 364 L397 364 L397 509 L193 509 L193 364 ZM462 708 L462 -71 L397 -71 L397 113 L42 56 L31 123 L78 129 Q111 133 130 136 L130 708 L51 708 L51 770 L537 770 L537 708 L462 708 ZM926 685 Q887 380 763 185 Q849 59 974 -6 Q948 -27 927 -61 Q810 5 722 127 Q634 13 510 -56 Q492 -25 467 -4 Q593 60 683 185 Q583 355 531 617 L593 628 Q635 404 724 247 Q818 409 853 631 L509 631 L509 696 L871 696 L883 699 L926 685 Z" /><glyph glyph-name="uni53E4" unicode="&#x53e4;" d="M766 304 L235 304 L235 41 L766 41 L766 304 ZM535 589 L535 367 L837 367 L837 -73 L766 -73 L766 -23 L235 -23 L235 -77 L167 -77 L167 367 L465 367 L465 589 L58 589 L58 654 L465 654 L465 836 L535 836 L535 654 L945 654 L945 589 L535 589 Z" /><glyph glyph-name="uniF906" unicode="&#x53e5;&#xf906;" d="M298 416 L298 180 L555 180 L555 416 L298 416 ZM298 120 L298 47 L234 47 L234 476 L621 476 L621 120 L298 120 ZM913 688 Q913 660 912 651 Q891 26 837 -37 Q809 -72 752 -78 Q698 -82 579 -75 Q575 -37 555 -6 Q632 -12 729 -12 Q761 -14 776 3 Q825 54 843 622 L280 622 Q199 461 100 358 Q81 377 43 403 Q206 557 293 835 L361 818 Q339 753 311 688 L913 688 Z" /><glyph glyph-name="uni53EC" unicode="&#x53ec;" d="M250 273 L250 29 L764 29 L764 273 L250 273 ZM183 334 L834 334 L834 -74 L764 -74 L764 -33 L250 -33 L250 -77 L183 -77 L183 334 ZM864 769 L862 739 Q838 454 796 415 Q774 391 724 386 Q649 384 569 390 Q567 424 548 451 Q613 445 698 445 Q730 445 740 455 Q773 481 792 707 L478 707 Q441 567 364 479 Q265 368 81 314 Q66 352 44 370 Q335 446 406 707 L106 707 L106 769 L864 769 Z" /><glyph glyph-name="uni53EE" unicode="&#x53ee;" d="M145 679 L145 232 L299 232 L299 679 L145 679 ZM363 167 L145 167 L145 91 L81 91 L81 744 L363 744 L363 167 ZM957 686 L758 686 L758 23 Q758 -41 712 -58 Q677 -71 522 -71 Q515 -37 495 0 Q621 -5 663 -1 Q689 -1 689 24 L689 686 L409 686 L409 750 L957 750 L957 686 Z" /><glyph glyph-name="uni53EF" unicode="&#x53ef;" d="M228 482 L228 240 L503 240 L503 482 L228 482 ZM228 177 L228 97 L164 97 L164 545 L568 545 L568 177 L228 177 ZM944 697 L820 697 L820 23 Q820 -46 771 -62 Q732 -74 567 -74 Q560 -46 538 -2 Q646 -7 724 -4 Q752 -3 752 24 L752 697 L60 697 L60 764 L944 764 L944 697 Z" /><glyph glyph-name="uni53F0" unicode="&#x53f0;" d="M253 281 L253 33 L741 33 L741 281 L253 281 ZM186 345 L811 345 L811 -77 L741 -77 L741 -31 L253 -31 L253 -77 L186 -77 L186 345 ZM892 392 Q864 438 816 494 Q653 485 410 474 L72 458 L66 526 L214 531 Q315 676 386 837 L455 807 Q372 654 289 534 Q594 547 759 556 Q691 627 625 680 L677 719 Q871 563 949 437 L892 392 Z" /><glyph glyph-name="uni53F2" unicode="&#x53f2;" d="M467 417 L467 611 L192 611 L192 417 L467 417 ZM535 611 L535 417 L812 417 L812 611 L535 611 ZM533 353 Q523 191 434 97 Q587 10 958 -8 Q936 -36 927 -75 Q549 -51 383 51 Q276 -29 87 -75 Q73 -46 48 -16 Q229 24 326 91 Q235 165 175 293 L233 316 Q290 199 378 133 Q456 210 465 353 L127 353 L127 675 L467 675 L467 832 L535 832 L535 675 L879 675 L879 353 L533 353 Z" /><glyph glyph-name="uni53F3" unicode="&#x53f3;" d="M337 319 L337 44 L793 44 L793 319 L337 319 ZM413 582 Q370 471 317 383 L862 383 L862 -72 L793 -72 L793 -20 L337 -20 L337 -77 L271 -77 L271 313 Q188 199 80 121 Q65 145 36 174 Q233 309 342 582 L68 582 L68 647 L365 647 Q398 740 417 836 L486 822 Q462 722 436 647 L936 647 L936 582 L413 582 Z" /><glyph glyph-name="uni53F6" unicode="&#x53f6;" d="M309 666 L141 666 L141 236 L309 236 L309 666 ZM957 426 L687 426 L687 -75 L619 -75 L619 426 L373 426 L373 174 L141 174 L141 97 L79 97 L79 728 L373 728 L373 491 L619 491 L619 816 L687 816 L687 491 L957 491 L957 426 Z" /><glyph glyph-name="uni53F7" unicode="&#x53f7;" d="M750 733 L255 733 L255 562 L750 562 L750 733 ZM818 502 L190 502 L190 793 L818 793 L818 502 ZM345 363 L313 269 L820 269 L817 236 Q781 -6 728 -51 Q700 -75 642 -76 Q575 -78 473 -72 Q469 -39 450 -12 Q535 -19 624 -19 Q661 -19 673 -10 Q713 20 743 208 L291 208 Q287 199 275 167 L261 131 L191 146 Q224 219 271 363 L51 363 L51 424 L943 424 L943 363 L345 363 Z" /><glyph glyph-name="uni53F8" unicode="&#x53f8;" d="M229 363 L229 167 L563 167 L563 363 L229 363 ZM628 108 L229 108 L229 34 L164 34 L164 422 L628 422 L628 108 ZM700 536 L98 536 L98 596 L700 596 L700 536 ZM882 28 Q882 -39 839 -55 Q801 -68 654 -68 Q648 -27 631 5 Q727 1 791 4 Q815 4 815 28 L815 706 L92 706 L92 770 L882 770 L882 28 Z" /><glyph glyph-name="uni5403" unicode="&#x5403;" d="M142 679 L142 232 L277 232 L277 679 L142 679 ZM338 167 L142 167 L142 91 L81 91 L81 744 L338 744 L338 167 ZM520 617 Q476 526 417 456 Q395 478 362 500 Q476 622 534 836 L599 821 Q582 758 549 680 L942 680 L942 617 L520 617 ZM842 5 Q875 5 886 31 Q897 60 900 156 Q930 139 961 133 Q954 12 929 -26 Q905 -60 839 -60 L553 -60 Q406 -60 406 35 Q406 81 454 140 Q527 230 745 414 L468 414 L468 476 L829 476 L844 478 L890 453 Q887 448 878 441 Q476 108 476 43 Q476 5 549 5 L842 5 Z" /><glyph glyph-name="uni5404" unicode="&#x5404;" d="M272 216 L272 27 L722 27 L722 216 L272 216 ZM205 277 L791 277 L791 -77 L722 -77 L722 -33 L272 -33 L272 -81 L205 -81 L205 277 ZM317 659 Q393 570 505 499 Q634 580 705 670 L327 670 L317 659 ZM812 702 Q730 573 564 463 Q750 360 963 316 Q943 297 920 256 Q696 308 505 426 Q311 312 66 252 Q56 283 33 312 Q253 358 446 465 Q347 534 275 617 Q199 545 112 490 Q82 522 61 538 Q268 655 378 843 L440 821 Q413 774 377 729 L755 729 L766 733 L812 702 Z" /><glyph glyph-name="uni5408" unicode="&#x5408;" d="M267 260 L267 26 L735 26 L735 260 L267 260 ZM201 320 L803 320 L803 -78 L735 -78 L735 -34 L267 -34 L267 -78 L201 -78 L201 320 ZM748 510 L748 450 L249 450 L249 510 L748 510 ZM528 834 Q699 597 969 475 Q947 452 926 417 Q650 559 499 767 Q359 558 83 410 Q67 438 41 463 Q322 606 462 834 L528 834 Z" /><glyph glyph-name="uni5409" unicode="&#x5409;" d="M252 234 L252 26 L754 26 L754 234 L252 234 ZM185 294 L825 294 L825 -86 L754 -86 L754 -36 L252 -36 L252 -86 L185 -86 L185 294 ZM533 630 L533 476 L883 476 L883 412 L127 412 L127 476 L464 476 L464 630 L66 630 L66 692 L464 692 L464 836 L533 836 L533 692 L932 692 L932 630 L533 630 Z" /><glyph glyph-name="uni540C" unicode="&#x540c;" d="M362 385 L362 186 L638 186 L638 385 L362 385 ZM362 129 L362 55 L300 55 L300 442 L700 442 L700 129 L362 129 ZM756 551 L249 551 L249 609 L756 609 L756 551 ZM910 11 Q910 -48 870 -64 Q838 -77 705 -77 Q697 -39 680 -12 Q783 -15 820 -13 Q845 -12 845 11 L845 720 L157 720 L157 -78 L92 -78 L92 783 L910 783 L910 11 Z" /><glyph glyph-name="uni540D" unicode="&#x540d;" d="M815 26 L815 281 L392 281 L392 26 L815 26 ZM348 673 Q307 626 274 596 Q402 504 466 430 Q590 543 653 673 L348 673 ZM882 -81 L815 -81 L815 -35 L392 -35 L392 -79 L326 -79 L326 245 Q206 174 77 132 Q61 170 38 193 Q241 252 412 385 Q346 463 226 553 Q156 494 87 454 Q71 484 41 505 Q274 635 379 836 L454 822 Q424 771 396 734 L688 734 L700 738 L744 713 Q659 503 464 342 L882 342 L882 -81 Z" /><glyph glyph-name="uni540E" unicode="&#x540e;" d="M375 284 L375 38 L804 38 L804 284 L375 284 ZM311 347 L870 347 L870 -80 L804 -80 L804 -24 L375 -24 L375 -80 L311 -80 L311 347 ZM956 559 L956 495 L220 495 L220 477 Q220 111 87 -77 Q66 -48 34 -32 Q153 135 153 478 L153 757 L222 739 Q631 775 817 825 L873 772 Q650 714 220 680 L220 559 L956 559 Z" /><glyph glyph-name="uni5411" unicode="&#x5411;" d="M367 399 L367 191 L634 191 L634 399 L367 399 ZM367 130 L367 57 L305 57 L305 459 L696 459 L696 130 L367 130 ZM901 18 Q901 -47 857 -63 Q823 -74 671 -74 Q666 -43 646 -5 Q746 -9 810 -6 Q835 -5 835 19 L835 598 L169 598 L169 -73 L103 -73 L103 663 L378 663 Q421 754 442 837 L520 817 Q463 688 451 663 L901 663 L901 18 Z" /><glyph glyph-name="uni5415" unicode="&#x5415;" d="M741 720 L262 720 L262 518 L741 518 L741 720 ZM809 455 L196 455 L196 782 L809 782 L809 455 ZM799 30 L799 255 L202 255 L202 30 L799 30 ZM869 318 L869 -73 L799 -73 L799 -33 L202 -33 L202 -76 L134 -76 L134 318 L869 318 Z" /><glyph glyph-name="uni541B" unicode="&#x541b;" d="M449 557 Q432 499 405 441 L768 441 L768 557 L449 557 ZM494 730 Q477 651 467 616 L768 616 L768 730 L494 730 ZM334 216 L334 32 L792 32 L792 216 L334 216 ZM378 383 Q340 314 310 275 L861 275 L861 -77 L792 -77 L792 -27 L334 -27 L334 -78 L267 -78 L267 222 Q189 135 83 76 Q65 103 41 129 Q206 217 302 383 L152 383 L152 441 L333 441 Q356 488 380 557 L57 557 L57 616 L398 616 Q413 677 424 730 L163 730 L163 788 L836 788 L836 616 L945 616 L945 557 L836 557 L836 383 L378 383 Z" /><glyph glyph-name="uni5427" unicode="&#x5427;" d="M144 678 L144 251 L279 251 L279 678 L144 678 ZM341 189 L144 189 L144 93 L83 93 L83 739 L341 739 L341 189 ZM499 708 L499 378 L645 378 L645 708 L499 708 ZM858 708 L706 708 L706 378 L858 378 L858 708 ZM825 6 Q867 6 881 35 Q894 62 900 152 Q925 132 962 124 Q953 19 929 -16 Q901 -56 827 -56 L575 -56 Q493 -56 464 -30 Q434 -3 434 75 L434 770 L922 770 L922 253 L858 253 L858 317 L499 317 L499 75 Q499 32 513 20 Q528 6 577 6 L825 6 Z" /><glyph glyph-name="uni542C" unicode="&#x542c;" d="M141 676 L141 275 L305 275 L305 676 L141 676 ZM141 212 L141 122 L79 122 L79 739 L369 739 L369 212 L141 212 ZM960 416 L784 416 L784 -72 L718 -72 L718 416 L515 416 Q507 106 331 -52 Q316 -23 283 -4 Q448 143 448 451 L448 732 L504 716 Q739 764 850 815 L907 762 Q768 704 515 658 L515 480 L960 480 L960 416 Z" /><glyph glyph-name="uni542F" unicode="&#x542f;" d="M215 571 L215 427 L796 427 L796 571 L215 571 ZM213 369 Q201 90 94 -65 Q75 -35 43 -20 Q148 136 148 455 L148 761 L189 748 Q593 780 785 831 L839 781 Q614 725 215 696 L215 629 L862 629 L862 369 L213 369 ZM809 26 L809 203 L331 203 L331 26 L809 26 ZM874 261 L874 -78 L809 -78 L809 -32 L331 -32 L331 -78 L268 -78 L268 261 L874 261 Z" /><glyph glyph-name="uni5434" unicode="&#x5434;" d="M760 730 L234 730 L234 577 L760 577 L760 730 ZM828 517 L169 517 L169 790 L828 790 L828 517 ZM569 186 Q648 9 951 -16 Q929 -38 913 -76 Q742 -55 647 5 Q548 66 503 186 L497 186 Q461 76 369 17 Q273 -46 79 -77 Q67 -44 46 -21 Q220 3 308 53 Q393 100 428 186 L59 186 L59 245 L445 245 Q455 289 462 359 L122 359 L122 418 L888 418 L888 359 L530 359 Q523 290 513 245 L943 245 L943 186 L569 186 Z" /><glyph glyph-name="uni543E" unicode="&#x543e;" d="M248 197 L248 30 L754 30 L754 197 L248 197 ZM183 255 L822 255 L822 -78 L754 -78 L754 -29 L248 -29 L248 -80 L183 -80 L183 255 ZM412 561 L374 417 L685 417 Q691 470 697 561 L412 561 ZM951 417 L951 358 L50 358 L50 417 L304 417 Q312 443 344 561 L172 561 L172 618 L358 618 Q368 658 385 741 L127 741 L127 800 L881 800 L881 741 L453 741 L424 618 L706 618 L718 621 L765 617 Q761 536 750 417 L951 417 Z" /><glyph glyph-name="uni5448" unicode="&#x5448;" d="M747 727 L246 727 L246 524 L747 524 L747 727 ZM815 463 L181 463 L181 787 L815 787 L815 463 ZM533 149 L533 13 L881 13 L881 -47 L118 -47 L118 13 L464 13 L464 149 L64 149 L64 207 L464 207 L464 329 Q292 318 139 315 Q138 335 124 367 Q581 379 795 421 L849 373 Q724 349 533 334 L533 207 L932 207 L932 149 L533 149 Z" /><glyph glyph-name="uni5458" unicode="&#x5458;" d="M262 611 L741 611 L741 732 L262 732 L262 611 ZM812 790 L812 552 L194 552 L194 790 L812 790 ZM531 331 L531 237 Q531 137 463 72 Q366 -22 113 -78 Q96 -48 71 -23 Q312 24 402 104 Q461 156 461 239 L461 331 L531 331 ZM561 119 Q797 42 932 -22 L897 -78 Q752 -4 528 71 L561 119 ZM850 460 L850 99 L779 99 L779 398 L229 398 L229 93 L161 93 L161 460 L850 460 Z" /><glyph glyph-name="uni5468" unicode="&#x5468;" d="M470 456 L470 560 L287 560 L287 615 L470 615 L470 704 L534 704 L534 615 L727 615 L727 560 L534 560 L534 456 L753 456 L753 401 L262 401 L262 456 L470 456 ZM375 258 L375 107 L637 107 L637 258 L375 258 ZM375 54 L375 -2 L313 -2 L313 312 L700 312 L700 54 L375 54 ZM874 13 Q874 -48 832 -63 Q799 -75 659 -75 Q653 -42 636 -12 Q733 -15 782 -12 Q808 -12 808 12 L808 725 L219 725 L219 470 Q219 96 90 -82 Q68 -53 38 -39 Q154 123 154 470 L154 787 L874 787 L874 13 Z" /><glyph glyph-name="uni5473" unicode="&#x5473;" d="M139 679 L139 232 L271 232 L271 679 L139 679 ZM139 167 L139 91 L77 91 L77 744 L332 744 L332 167 L139 167 ZM711 365 Q809 141 957 38 Q930 16 907 -16 Q780 88 682 299 L682 -75 L616 -75 L616 296 Q510 80 353 -18 Q337 9 308 34 Q480 129 587 365 L370 365 L370 428 L616 428 L616 605 L410 605 L410 668 L616 668 L616 831 L682 831 L682 668 L902 668 L902 605 L682 605 L682 428 L946 428 L946 365 L711 365 Z" /><glyph glyph-name="uni547C" unicode="&#x547c;" d="M139 669 L139 265 L253 265 L253 669 L139 669 ZM313 202 L139 202 L139 107 L79 107 L79 731 L313 731 L313 202 ZM953 287 L683 287 L683 14 Q683 -44 643 -60 Q610 -72 480 -72 Q476 -45 457 -8 Q557 -11 594 -9 Q617 -9 617 14 L617 287 L357 287 L357 350 L617 350 L617 707 Q483 692 385 685 Q381 713 367 740 Q705 767 867 815 L913 762 Q818 735 683 716 L683 350 L953 350 L953 287 ZM458 643 Q518 525 538 407 L479 387 Q464 498 402 625 L458 643 ZM749 403 Q804 513 845 658 L909 639 Q841 459 802 384 L749 403 Z" /><glyph glyph-name="uni548C" unicode="&#x548c;" d="M319 542 L498 542 L498 480 L319 480 L319 453 Q427 336 488 255 L447 201 Q408 265 319 376 L319 -73 L252 -73 L252 380 Q168 182 67 73 Q58 93 30 134 Q158 264 236 480 L54 480 L54 542 L252 542 L252 714 Q178 702 83 690 Q78 714 65 743 Q332 779 443 826 L489 774 Q420 749 319 727 L319 542 ZM831 115 L831 679 L598 679 L598 115 L831 115 ZM898 743 L898 -25 L831 -25 L831 51 L598 51 L598 -32 L533 -32 L533 743 L898 743 Z" /><glyph glyph-name="uni548F" unicode="&#x548f;" d="M751 653 Q646 720 461 774 L496 824 Q682 772 789 710 L751 653 ZM136 639 L136 242 L258 242 L258 639 L136 639 ZM136 180 L136 89 L77 89 L77 702 L318 702 L318 180 L136 180 ZM564 429 Q510 119 301 3 Q278 35 255 53 Q435 143 490 380 L355 380 L355 442 L514 442 L526 443 L564 429 ZM943 504 Q836 399 748 331 Q835 145 980 67 Q952 47 934 12 Q769 114 675 357 L675 7 Q675 -49 638 -64 Q607 -76 490 -76 Q487 -50 468 -12 Q496 -13 591 -13 Q611 -12 611 7 L611 564 L398 564 L398 625 L675 625 L675 537 Q696 450 725 382 Q817 461 890 548 L943 504 Z" /><glyph glyph-name="uni5496" unicode="&#x5496;" d="M135 705 L135 233 L245 233 L245 705 L135 705 ZM135 177 L135 77 L81 77 L81 761 L299 761 L299 177 L135 177 ZM635 600 Q617 31 580 -22 Q561 -51 524 -55 Q482 -59 437 -55 Q435 -22 421 5 Q455 2 500 2 Q519 2 528 18 Q559 59 575 573 L483 573 Q469 89 305 -79 Q287 -53 258 -36 Q412 116 424 573 L337 573 L337 633 L426 633 Q427 696 427 832 L486 832 Q486 759 484 633 L635 633 L635 600 ZM865 106 L865 658 L732 658 L732 106 L865 106 ZM923 718 L923 -31 L865 -31 L865 46 L732 46 L732 -39 L677 -39 L677 718 L923 718 Z" /><glyph glyph-name="uni549B" unicode="&#x549b;" d="M657 836 Q700 758 715 707 L654 686 Q637 744 599 819 L657 836 ZM462 495 L402 495 L402 686 L930 686 L930 495 L868 495 L868 627 L462 627 L462 495 ZM139 646 L139 168 L272 168 L272 646 L139 646 ZM331 107 L139 107 L139 10 L79 10 L79 707 L331 707 L331 107 ZM939 387 L704 387 L704 5 Q704 -46 667 -61 Q639 -71 529 -71 Q524 -43 506 -10 Q559 -11 620 -11 Q638 -10 638 6 L638 387 L395 387 L395 447 L939 447 L939 387 Z" /><glyph glyph-name="uni54B8" unicode="&#x54b8;" d="M319 313 L319 153 L498 153 L498 313 L319 313 ZM319 98 L319 41 L263 41 L263 368 L555 368 L555 98 L319 98 ZM558 455 L253 455 L253 512 L558 512 L558 455 ZM884 495 Q828 298 728 160 Q780 -14 857 -14 Q894 -14 902 167 Q926 143 957 134 Q949 13 926 -32 Q904 -77 853 -77 Q744 -77 682 100 Q595 -1 475 -73 Q454 -42 428 -20 Q563 52 659 174 Q618 334 603 606 L195 606 L195 401 Q195 80 90 -75 Q69 -49 38 -33 Q131 107 131 401 L131 669 L600 669 Q597 749 597 834 L663 834 Q663 722 665 669 L865 669 Q796 734 696 791 L735 830 Q848 768 908 711 L869 669 L944 669 L944 606 L667 606 Q678 385 708 244 Q779 359 820 510 L884 495 Z" /><glyph glyph-name="uni54C1" unicode="&#x54c1;" d="M705 729 L299 729 L299 530 L705 530 L705 729 ZM772 466 L234 466 L234 793 L772 793 L772 466 ZM151 293 L151 43 L371 43 L371 293 L151 293 ZM88 357 L437 357 L437 -66 L371 -66 L371 -21 L151 -21 L151 -76 L88 -76 L88 357 ZM854 43 L854 293 L614 293 L614 43 L854 43 ZM920 357 L920 -69 L854 -69 L854 -21 L614 -21 L614 -76 L550 -76 L550 357 L920 357 Z" /><glyph glyph-name="uni54C8" unicode="&#x54c8;" d="M500 274 L500 33 L825 33 L825 274 L500 274 ZM435 334 L893 334 L893 -80 L825 -80 L825 -27 L500 -27 L500 -80 L435 -80 L435 334 ZM821 513 L821 452 L490 452 L490 513 L821 513 ZM298 667 L141 667 L141 265 L298 265 L298 667 ZM685 822 Q800 620 969 516 Q950 491 929 453 Q759 570 655 750 Q557 565 387 448 Q378 467 361 491 L361 202 L141 202 L141 107 L80 107 L80 729 L361 729 L361 515 Q535 634 619 822 L685 822 Z" /><glyph glyph-name="uni54D1" unicode="&#x54d1;" d="M132 678 L132 251 L250 251 L250 678 L132 678 ZM132 189 L132 93 L80 93 L80 739 L306 739 L306 189 L132 189 ZM587 30 L695 30 L695 712 L587 712 L587 30 ZM956 30 L956 -31 L306 -31 L306 30 L527 30 L527 712 L356 712 L356 772 L927 772 L927 712 L756 712 L756 30 L956 30 ZM402 550 Q468 363 493 222 L433 205 Q411 348 347 539 L402 550 ZM780 214 Q837 364 875 549 L936 534 Q878 313 830 199 L780 214 Z" /><glyph glyph-name="uni5510" unicode="&#x5510;" d="M185 682 L185 445 Q185 90 89 -81 Q68 -59 35 -43 Q122 111 122 445 L122 742 L493 742 L493 834 L561 834 L561 742 L943 742 L943 682 L185 682 ZM591 326 L791 326 L791 421 L591 421 L591 326 ZM591 473 L791 473 L791 555 L591 555 L591 473 ZM800 147 L349 147 L349 15 L800 15 L800 147 ZM591 275 L591 201 L867 201 L867 -76 L800 -76 L800 -39 L349 -39 L349 -76 L283 -76 L283 201 L527 201 L527 275 L277 275 L277 326 L527 326 L527 421 L201 421 L201 473 L527 473 L527 555 L281 555 L281 607 L527 607 L527 673 L591 673 L591 607 L855 607 L855 475 L954 475 L954 417 L855 417 L855 275 L591 275 Z" /><glyph glyph-name="uni552E" unicode="&#x552e;" d="M252 172 L252 18 L769 18 L769 172 L252 172 ZM186 228 L837 228 L837 -78 L769 -78 L769 -38 L252 -38 L252 -78 L186 -78 L186 228 ZM245 346 L482 346 L482 427 L245 427 L245 346 ZM482 670 L245 670 L245 599 L482 599 L482 670 ZM482 550 L245 550 L245 476 L482 476 L482 550 ZM919 346 L919 293 L181 293 L181 586 Q133 525 89 484 Q69 511 38 533 Q178 650 254 836 L318 817 Q298 771 271 722 L487 722 Q521 790 535 836 L599 812 Q580 776 550 722 L876 722 L876 670 L547 670 L547 599 L824 599 L824 550 L547 550 L547 476 L828 476 L828 427 L547 427 L547 346 L919 346 Z" /><glyph glyph-name="uni5546" unicode="&#x5546;" d="M376 223 L376 84 L631 84 L631 223 L376 223 ZM376 32 L376 -29 L316 -29 L316 276 L693 276 L693 32 L376 32 ZM605 566 Q635 618 660 676 L340 676 Q374 615 385 571 L371 566 L605 566 ZM928 676 L725 676 L735 673 Q695 597 676 566 L892 566 L892 11 Q892 -49 851 -64 Q816 -76 684 -76 Q679 -43 660 -9 Q764 -12 805 -10 Q827 -9 827 12 L827 506 L611 506 L611 401 Q611 387 617 383 Q622 379 643 379 L734 379 Q751 379 757 390 Q762 402 764 448 Q782 433 818 425 Q813 365 797 345 Q781 325 742 325 L637 325 Q585 325 568 340 Q551 355 551 401 L551 506 L425 506 Q416 412 374 364 Q328 311 222 284 Q209 316 187 333 Q282 353 321 394 Q357 430 365 506 L180 506 L180 -75 L116 -75 L116 566 L315 566 Q301 611 267 676 L72 676 L72 737 L463 737 L463 834 L529 834 L529 737 L928 737 L928 676 Z" /></font>
</defs>
</svg>
